<?xml version="1.0" encoding="utf-8"?>
<!-- Generator: Adobe Illustrator 22.0.0, SVG Export Plug-In . SVG Version: 6.00 Build 0)  -->
<svg version="1.1" id="Layer_1" xmlns="http://www.w3.org/2000/svg" xmlns:xlink="http://www.w3.org/1999/xlink" x="0px" y="0px"
	 viewBox="0 0 900 245.1" style="enable-background:new 0 0 900 245.1;" xml:space="preserve">
<style type="text/css">
	.st0{fill:#FFFFFF;}
	.st1{fill:url(#SVGID_1_);}
	.st2{opacity:0.7;fill:#FFFFFF;}
	.st3{opacity:0.6;}
</style>
<g>
	<g>
		<g>
			<path class="st0" d="M145.8,47.3c-13.9,0-25.6,4.7-34.6,13.9c-9.2,9.2-13.9,20.7-13.9,34.2s4.7,25,13.9,34.1
				c9.1,9.2,20.7,13.9,34.7,13.9c13.9,0,25.6-4.7,34.8-13.9c9.1-9.2,13.7-20.7,13.7-34.1c0-13.4-4.6-24.9-13.7-34.2
				C171.3,52,159.6,47.3,145.8,47.3z M130,78.5c4.1-4.1,9.3-6.2,15.7-6.2c6.4,0,11.6,2,15.7,6.2c4.2,4.2,6.3,9.7,6.3,16.8
				s-2.1,12.6-6.3,16.8c-4.1,4.1-9.3,6.2-15.7,6.2c-6.4,0-11.6-2-15.7-6.2c-4.2-4.2-6.3-9.7-6.3-16.8S125.8,82.7,130,78.5z"/>
			<path class="st0" d="M378.3,49h-43.5v92.6h26.5v-29.2h17c23.5,0,37-11.5,37-31.7S401.8,49,378.3,49z M361.3,72.1h16.5
				c9.8,0,11,4.9,11,8.6s-1.1,8.6-11,8.6h-16.5V72.1z"/>
			<polygon class="st0" points="452.5,49 426,49 426,141.6 495.6,141.6 495.6,116.6 452.5,116.6 			"/>
			<rect x="507.9" y="49" class="st0" width="26.5" height="92.6"/>
			<polygon class="st0" points="546.7,73.1 572.1,73.1 572.1,141.6 598.6,141.6 598.6,73.1 624.1,73.1 624.1,49 546.7,49 			"/>
			<polygon class="st0" points="662.9,105.6 702.3,105.6 702.3,82.1 662.9,82.1 662.9,73.1 705.8,73.1 705.8,49 636.4,49 
				636.4,141.6 706.1,141.6 706.1,117.6 662.9,117.6 			"/>
			<polygon class="st0" points="873.5,49 873.5,81.9 842.8,81.9 842.8,49 816.3,49 816.3,141.6 842.8,141.6 842.8,107 873.5,107 
				873.5,141.6 900,141.6 900,49 			"/>
			<rect x="205" y="49" class="st0" width="26.5" height="92.6"/>
			<polygon class="st0" points="288.3,141.6 314.8,141.6 314.8,64.7 288.3,102.6 			"/>
			<path class="st0" d="M69.7,101.8l-1,1.9c-5.6,10.4-11.6,14.6-20.7,14.6c-6.1,0-11-2.1-15.2-6.4c-4.2-4.4-6.3-9.8-6.3-16.6
				c0-6.9,2.1-12.5,6.3-16.7s9.2-6.3,15.1-6.3c8.7,0,15.1,4.5,19.5,13.8l0.9,1.9l21.6-16.4c-6.8-15.3-22.3-24.4-41.4-24.4
				c-13.8,0-25.5,4.5-34.6,13.3C4.7,69.3,0,81,0,95.2s4.5,25.8,13.5,34.7s20.6,13.4,34.5,13.4c18.6,0,31.3-7.4,42.5-24.7l0.5-0.8
				L69.7,101.8z"/>
			<path class="st0" d="M786,101.8l-1,1.9c-5.6,10.4-11.6,14.6-20.7,14.6c-6.1,0-11-2.1-15.2-6.4c-4.2-4.4-6.3-9.8-6.3-16.6
				c0-6.9,2.1-12.5,6.3-16.7s9.2-6.3,15.1-6.3c8.7,0,15.1,4.5,19.5,13.8l0.9,1.9l21.6-16.4c-6.8-15.3-22.3-24.4-41.4-24.4
				c-13.8,0-25.5,4.5-34.6,13.3c-9.2,8.8-13.9,20.5-13.9,34.7s4.5,25.8,13.5,34.7s20.6,13.4,34.5,13.4c18.6,0,31.3-7.4,42.5-24.7
				l0.5-0.8L786,101.8z"/>
		</g>
		<g>
			<linearGradient id="SVGID_1_" gradientUnits="userSpaceOnUse" x1="306.25" y1="131.5" x2="306.25" y2="-9.094947e-13">
				<stop  offset="0" style="stop-color:#FFFFFF;stop-opacity:0.65"/>
				<stop  offset="1" style="stop-color:#FFFFFF;stop-opacity:0"/>
			</linearGradient>
			<polygon class="st1" points="322.3,0 259.9,88.4 275,110 352.6,0 			"/>
			<polygon class="st2" points="259.9,88.4 237.3,56.1 237.3,99.2 244.8,110 259.9,131.5 275,110 			"/>
		</g>
	</g>
	<g class="st3">
		<g>
			<g>
				<path class="st0" d="M13,230.3v-49.2h7.2v19.6c2.5-3.9,7.2-6.3,12.2-6.3c4.7,0,8.6,1.7,11.7,5.1c3.1,3.5,4.7,7.9,4.7,13.4
					s-1.6,9.9-4.8,13.3c-3.2,3.5-7.2,5.2-11.9,5.2c-5.4,0-9.7-2.7-11.9-6.1v5.1L13,230.3L13,230.3z M30.5,224.7c3,0,5.6-1.1,7.8-3.3
					c2-2.2,3.1-5.1,3.1-8.5c0-3.5-1.1-6.3-3.1-8.5c-2.1-2.2-4.7-3.3-7.8-3.3s-5.6,1.1-7.7,3.3c-2.1,2.2-3.2,5.1-3.2,8.5
					c0,3.5,1.1,6.3,3.2,8.5C24.8,223.6,27.4,224.7,30.5,224.7z"/>
			</g>
			<g>
				<path class="st0" d="M60.4,237.8c3.6,1.1,5.8,1.3,7.4-3l1.6-4.3l-14.2-35.1h8.3l9.9,25.2l9.8-25.2h8l-16.8,41.9
					c-2,5.2-5.4,7.8-9.8,7.8c-1.8,0-3.5-0.3-5.1-0.8L60.4,237.8z"/>
			</g>
			<g>
				<path class="st0" d="M125.7,230.3v-49.2h8.1l16.6,41.7l16.6-41.7h8.1v49.2h-7.3v-34.1l-2.5,7L154,230.3h-7.3l-11.3-27.2
					c-1.4-3.8-2.3-6.1-2.5-7v34.1L125.7,230.3L125.7,230.3z"/>
			</g>
			<g>
				<path class="st0" d="M217.9,230.3c-1.2-1.4-1.9-3.5-2-6.1c-2.3,4.7-6.2,7.1-11.6,7.1c-7.1,0-11.9-4.4-11.9-10.8
					c0-6.6,5-10.4,12.3-11.5l11.1-1.8v-1.5c0-4-2.5-6.1-7.3-6.1c-4.7,0-7.3,2-7.3,4.6c0,0.4,0.1,0.7,0.1,1.1l-6.4,2.2
					c-0.4-0.9-0.6-1.8-0.6-2.8c0-2.8,1.3-5.3,3.9-7.3s6-3,10.2-3c9.5,0,14.5,4.2,14.5,11.9v15.4c0,3.5,0.7,6.4,2.1,8.7L217.9,230.3
					L217.9,230.3z M215.8,213.6v-1l-9.5,1.6c-4.5,0.8-6.8,2.8-6.8,5.9c0,3.1,2.3,5.2,5.9,5.2C211.8,225.4,215.8,220.4,215.8,213.6z"
					/>
			</g>
			<g>
				<path class="st0" d="M247.2,195.5l6.7,10.7l6.8-10.7h8.5l-11,16.2l12.2,18.7H262l-8-13l-8.1,13h-8.3l12.6-18.5l-11.1-16.3h8.1
					V195.5z"/>
			</g>
			<g>
				<path class="st0" d="M283.1,189.9v-8.1h8.2v8.1H283.1z M283.6,230.3v-34.9h7.2v34.9H283.6z"/>
			</g>
			<g>
				<path class="st0" d="M357.4,230.3h-7.2v-23c0-4.3-2-6.5-6.1-6.5c-4.5,0-7.7,3.4-7.7,10.4v19.2h-7.2v-22.8c0-4-2.1-6.7-5.8-6.7
					c-4.5,0-7.9,3.7-7.9,10.4v19.2h-7.2v-34.9h7.2v5c2.2-3.7,6.1-6,10.3-6c4.9,0,8.1,2,9.6,6.2c2.5-4.2,6.1-6.2,11.1-6.2
					c6.6,0,10.8,4.2,10.8,10.4L357.4,230.3L357.4,230.3z"/>
			</g>
			<g>
				<path class="st0" d="M398.9,230.3c-1.2-1.4-1.9-3.5-2-6.1c-2.3,4.7-6.2,7.1-11.6,7.1c-7.1,0-11.9-4.4-11.9-10.8
					c0-6.6,5-10.4,12.3-11.5l11.1-1.8v-1.5c0-4-2.5-6.1-7.3-6.1c-4.7,0-7.3,2-7.3,4.6c0,0.4,0.1,0.7,0.1,1.1l-6.4,2.2
					c-0.4-0.9-0.6-1.8-0.6-2.8c0-2.8,1.3-5.3,3.9-7.3c2.6-2,6-3,10.2-3c9.5,0,14.5,4.2,14.5,11.9v15.4c0,3.5,0.7,6.4,2.1,8.7
					L398.9,230.3L398.9,230.3z M396.8,213.6v-1l-9.5,1.6c-4.5,0.8-6.8,2.8-6.8,5.9c0,3.1,2.3,5.2,5.9,5.2
					C392.6,225.4,396.8,220.4,396.8,213.6z"/>
			</g>
			<g>
				<path class="st0" d="M488.3,218.4c-5.4,8.8-11.4,13-21.5,13c-7.1,0-12.9-2.4-17.4-7.2c-4.7-4.8-7-10.9-7-18.4
					c0-7.4,2.4-13.5,7.2-18.3c4.8-4.9,10.7-7.3,17.5-7.3c9.8,0,17.5,5.1,21,12.8l-6.1,4.2c-3.5-6.8-8.6-10.2-15.2-10.2
					c-4.7,0-8.7,1.8-12,5.4c-3.3,3.6-4.9,8-4.9,13.4s1.6,9.8,4.8,13.4c3.2,3.6,7.2,5.4,12.1,5.4c6.8,0,12-3.4,15.6-10.2L488.3,218.4
					z"/>
			</g>
			<g>
				<path class="st0" d="M539.8,212.9c0,5.7-1.8,10.2-5.6,13.5c-3.7,3.3-8.1,4.9-13.1,4.9s-9.3-1.6-13-4.9
					c-3.7-3.3-5.6-7.8-5.6-13.5s1.9-10.2,5.6-13.5c3.7-3.3,8-4.9,13-4.9s9.4,1.6,13.1,4.9C537.9,202.6,539.8,207.2,539.8,212.9z
					 M521.2,224.7c3.2,0,5.9-1.1,8-3.3c2.2-2.2,3.3-5.1,3.3-8.5c0-3.5-1.1-6.3-3.3-8.5s-4.9-3.3-8-3.3c-3.2,0-5.9,1.1-8,3.3
					c-2.2,2.2-3.3,5.1-3.3,8.5c0,3.5,1.1,6.3,3.3,8.5C515.3,223.6,518,224.7,521.2,224.7z"/>
			</g>
			<g>
				<path class="st0" d="M604.3,230.3h-7.2v-23c0-4.3-2-6.5-6.1-6.5c-4.5,0-7.7,3.4-7.7,10.4v19.2h-7.2v-22.8c0-4-2.1-6.7-5.8-6.7
					c-4.5,0-7.9,3.7-7.9,10.4v19.2h-7.2v-34.9h7.2v5c2.2-3.7,6.1-6,10.3-6c4.9,0,8.1,2,9.6,6.2c2.5-4.2,6.1-6.2,11.1-6.2
					c6.6,0,10.8,4.2,10.8,10.4L604.3,230.3L604.3,230.3z"/>
			</g>
			<g>
				<path class="st0" d="M622.2,244.7v-49.2h7.2v5.4c2.3-3.6,7.1-6.3,12.4-6.3c4.6,0,8.4,1.7,11.5,5c3.1,3.4,4.7,7.9,4.7,13.5
					s-1.6,10-4.8,13.4s-7.2,5.1-12,5.1c-5,0-9.5-2.2-11.8-5.8v19.1L622.2,244.7L622.2,244.7z M639.7,201c-3,0-5.6,1.1-7.7,3.3
					c-2.1,2.2-3.2,5.1-3.2,8.5c0,3.5,1.1,6.3,3.2,8.5c2,2.2,4.7,3.3,7.7,3.3s5.6-1.1,7.8-3.3c2-2.2,3.1-5.1,3.1-8.5
					c0-3.5-1.1-6.3-3.1-8.5C645.3,202.2,642.7,201,639.7,201z"/>
			</g>
			<g>
				<path class="st0" d="M673.7,230.3v-49.2h7.2v49.2H673.7z"/>
			</g>
			<g>
				<path class="st0" d="M698.1,189.9v-8.1h8.2v8.1H698.1z M698.6,230.3v-34.9h7.2v34.9H698.6z"/>
			</g>
			<g>
				<path class="st0" d="M747.1,230.3c-1.2-1.4-1.9-3.5-2-6.1c-2.3,4.7-6.2,7.1-11.6,7.1c-7.1,0-11.9-4.4-11.9-10.8
					c0-6.6,5-10.4,12.3-11.5l11.1-1.8v-1.5c0-4-2.5-6.1-7.3-6.1c-4.7,0-7.3,2-7.3,4.6c0,0.4,0.1,0.7,0.1,1.1l-6.4,2.2
					c-0.4-0.9-0.6-1.8-0.6-2.8c0-2.8,1.3-5.3,3.9-7.3c2.6-2,6-3,10.2-3c9.5,0,14.5,4.2,14.5,11.9v15.4c0,3.5,0.7,6.4,2.1,8.7
					L747.1,230.3L747.1,230.3z M744.9,213.6v-1l-9.5,1.6c-4.5,0.8-6.8,2.8-6.8,5.9c0,3.1,2.3,5.2,5.9,5.2
					C740.8,225.4,744.9,220.4,744.9,213.6z"/>
			</g>
			<g>
				<path class="st0" d="M801.2,230.3H794v-21.6c0-4.8-2.9-7.7-7.8-7.7c-5.2,0-9.2,4.4-9.2,10.9v18.4h-7v-34.9h7.2v5.9
					c2.5-4.2,6.9-6.8,11.9-6.8c7.1,0,12.2,4.6,12.2,12.2L801.2,230.3L801.2,230.3z"/>
			</g>
			<g>
				<path class="st0" d="M851,221.3c-3.4,6.7-8.7,10.1-16.1,10.1c-5.1,0-9.5-1.8-12.9-5.2c-3.5-3.5-5.2-7.8-5.2-13.3
					c0-5.4,1.8-9.8,5.3-13.3s7.8-5.2,12.8-5.2c7.6,0,13.3,3.5,15.8,9.5l-5.7,3.8c-2.2-4.4-5.6-6.7-10-6.7c-3,0-5.6,1.1-7.7,3.2
					c-2.1,2.2-3.2,5-3.2,8.6c0,7.3,4.4,11.8,10.9,11.8c5,0,7.9-2.3,10.4-7.1L851,221.3z"/>
			</g>
			<g>
				<path class="st0" d="M898.6,214.4H871c0.3,6.3,4.5,10.7,10.7,10.7c5.3,0,8.1-2.5,10.4-7.3l5.6,3.3c-3.3,6.8-8.7,10.2-16.2,10.2
					c-4.9,0-9-1.8-12.5-5.2c-3.5-3.5-5.1-7.9-5.1-13.3s1.8-9.8,5.2-13.3s7.7-5.2,12.8-5.2c5,0,9.1,1.6,12.3,4.9
					c3.1,3.3,4.7,7.5,4.7,12.6v2.6H898.6z M874.9,202.6c-1.9,1.6-3.2,3.7-4,6.3h20.8c-0.3-2.8-1.4-4.9-3.4-6.4
					C884.5,199.4,878.7,199.3,874.9,202.6z"/>
			</g>
		</g>
	</g>
</g>
</svg>
