<?xml version="1.0" encoding="utf-8"?>
<!-- Generator: Adobe Illustrator 22.0.0, SVG Export Plug-In . SVG Version: 6.00 Build 0)  -->
<svg version="1.1" id="Layer_1" xmlns="http://www.w3.org/2000/svg" xmlns:xlink="http://www.w3.org/1999/xlink" x="0px" y="0px"
	 viewBox="0 0 900 143.4" style="enable-background:new 0 0 900 143.4;" xml:space="preserve">
<style type="text/css">
	.st0{fill:#FFFFFF;}
	.st1{fill:url(#SVGID_1_);}
	.st2{opacity:0.7;fill:#FFFFFF;enable-background:new    ;}
</style>
<g>
	<g>
		<path class="st0" d="M145.8,47.3c-13.9,0-25.6,4.7-34.6,13.9c-9.2,9.2-13.9,20.7-13.9,34.2s4.7,25,13.9,34.1
			c9.1,9.2,20.7,13.9,34.7,13.9c13.9,0,25.6-4.7,34.8-13.9c9.1-9.2,13.7-20.7,13.7-34.1c0-13.4-4.6-24.9-13.7-34.2
			C171.3,52,159.6,47.3,145.8,47.3z M130,78.5c4.1-4.1,9.3-6.2,15.7-6.2c6.4,0,11.6,2,15.7,6.2c4.2,4.2,6.3,9.7,6.3,16.8
			s-2.1,12.6-6.3,16.8c-4.1,4.1-9.3,6.2-15.7,6.2c-6.4,0-11.6-2-15.7-6.2c-4.2-4.2-6.3-9.7-6.3-16.8S125.8,82.7,130,78.5z"/>
		<path class="st0" d="M378.3,49h-43.5v92.6h26.5v-29.2h17c23.5,0,37-11.5,37-31.7S401.8,49,378.3,49z M361.3,72.1h16.5
			c9.8,0,11,4.9,11,8.6s-1.1,8.6-11,8.6h-16.5V72.1z"/>
		<polygon class="st0" points="452.5,49 426,49 426,141.6 495.6,141.6 495.6,116.6 452.5,116.6 		"/>
		<rect x="507.9" y="49" class="st0" width="26.5" height="92.6"/>
		<polygon class="st0" points="546.7,73.1 572.1,73.1 572.1,141.6 598.6,141.6 598.6,73.1 624.1,73.1 624.1,49 546.7,49 		"/>
		<polygon class="st0" points="662.9,105.6 702.3,105.6 702.3,82.1 662.9,82.1 662.9,73.1 705.8,73.1 705.8,49 636.4,49 
			636.4,141.6 706.1,141.6 706.1,117.6 662.9,117.6 		"/>
		<polygon class="st0" points="873.5,49 873.5,81.9 842.8,81.9 842.8,49 816.3,49 816.3,141.6 842.8,141.6 842.8,107 873.5,107 
			873.5,141.6 900,141.6 900,49 		"/>
		<rect x="205" y="49" class="st0" width="26.5" height="92.6"/>
		<polygon class="st0" points="288.3,141.6 314.8,141.6 314.8,64.7 288.3,102.6 		"/>
		<path class="st0" d="M69.7,101.8l-1,1.9c-5.6,10.4-11.6,14.6-20.7,14.6c-6.1,0-11-2.1-15.2-6.4c-4.2-4.4-6.3-9.8-6.3-16.6
			c0-6.9,2.1-12.5,6.3-16.7s9.2-6.3,15.1-6.3c8.7,0,15.1,4.5,19.5,13.8l0.9,1.9l21.6-16.4c-6.8-15.3-22.3-24.4-41.4-24.4
			c-13.8,0-25.5,4.5-34.6,13.3C4.7,69.3,0,81,0,95.2s4.5,25.8,13.5,34.7s20.6,13.4,34.5,13.4c18.6,0,31.3-7.4,42.5-24.7l0.5-0.8
			L69.7,101.8z"/>
		<path class="st0" d="M786,101.8l-1,1.9c-5.6,10.4-11.6,14.6-20.7,14.6c-6.1,0-11-2.1-15.2-6.4c-4.2-4.4-6.3-9.8-6.3-16.6
			c0-6.9,2.1-12.5,6.3-16.7s9.2-6.3,15.1-6.3c8.7,0,15.1,4.5,19.5,13.8l0.9,1.9l21.6-16.4c-6.8-15.3-22.3-24.4-41.4-24.4
			c-13.8,0-25.5,4.5-34.6,13.3c-9.2,8.8-13.9,20.5-13.9,34.7s4.5,25.8,13.5,34.7s20.6,13.4,34.5,13.4c18.6,0,31.3-7.4,42.5-24.7
			l0.5-0.8L786,101.8z"/>
	</g>
	<g>
		
			<linearGradient id="SVGID_1_" gradientUnits="userSpaceOnUse" x1="306.25" y1="14.5" x2="306.25" y2="146" gradientTransform="matrix(1 0 0 -1 0 146)">
			<stop  offset="0" style="stop-color:#FFFFFF;stop-opacity:0.65"/>
			<stop  offset="1" style="stop-color:#FFFFFF;stop-opacity:0"/>
		</linearGradient>
		<polygon class="st1" points="322.3,0 259.9,88.4 275,110 352.6,0 		"/>
		<polygon class="st2" points="259.9,88.4 237.3,56.1 237.3,99.2 244.8,110 259.9,131.5 275,110 		"/>
	</g>
</g>
</svg>
