<?xml version="1.0" encoding="utf-8"?>
<!-- Generator: Adobe Illustrator 22.0.0, SVG Export Plug-In . SVG Version: 6.00 Build 0)  -->
<svg version="1.1" id="Layer_1" xmlns="http://www.w3.org/2000/svg" xmlns:xlink="http://www.w3.org/1999/xlink" x="0px" y="0px"
	 viewBox="0 0 1085.6 386.1" style="enable-background:new 0 0 1085.6 386.1;" xml:space="preserve">
<style type="text/css">
	.st0{opacity:0;fill:none;}
	.st1{fill:#FFFFFF;}
	.st2{fill:url(#SVGID_1_);}
	.st3{opacity:0.7;fill:#FFFFFF;enable-background:new    ;}
	.st4{opacity:0.6;}
</style>
<rect class="st0" width="1085.6" height="386.1"/>
<g>
	<g>
		<g>
			<path class="st1" d="M238.4,95.2c-13.9,0-25.6,4.7-34.6,13.9c-9.2,9.2-13.9,20.7-13.9,34.2s4.7,25,13.9,34.1
				c9.1,9.2,20.7,13.9,34.7,13.9c13.9,0,25.6-4.7,34.8-13.9c9.1-9.2,13.7-20.7,13.7-34.1c0-13.4-4.6-24.9-13.7-34.2
				C263.9,99.9,252.2,95.2,238.4,95.2z M222.6,126.4c4.1-4.1,9.3-6.2,15.7-6.2s11.6,2,15.7,6.2c4.2,4.2,6.3,9.7,6.3,16.8
				s-2.1,12.6-6.3,16.8c-4.1,4.1-9.3,6.2-15.7,6.2s-11.6-2-15.7-6.2c-4.2-4.2-6.3-9.7-6.3-16.8S218.4,130.6,222.6,126.4z"/>
			<path class="st1" d="M470.9,96.9h-43.5v92.6h26.5v-29.2h17c23.5,0,37-11.5,37-31.7S494.4,96.9,470.9,96.9z M453.9,120h16.5
				c9.8,0,11,4.9,11,8.6c0,3.7-1.1,8.6-11,8.6h-16.5V120z"/>
			<polygon class="st1" points="545.1,96.9 518.6,96.9 518.6,189.5 588.2,189.5 588.2,164.5 545.1,164.5 			"/>
			<rect x="600.5" y="96.9" class="st1" width="26.5" height="92.6"/>
			<polygon class="st1" points="639.3,121 664.7,121 664.7,189.5 691.2,189.5 691.2,121 716.7,121 716.7,96.9 639.3,96.9 			"/>
			<polygon class="st1" points="755.5,153.5 794.9,153.5 794.9,130 755.5,130 755.5,121 798.4,121 798.4,96.9 729,96.9 729,189.5 
				798.7,189.5 798.7,165.5 755.5,165.5 			"/>
			<polygon class="st1" points="966.1,96.9 966.1,129.8 935.4,129.8 935.4,96.9 908.9,96.9 908.9,189.5 935.4,189.5 935.4,154.9 
				966.1,154.9 966.1,189.5 992.6,189.5 992.6,96.9 			"/>
			<rect x="297.6" y="96.9" class="st1" width="26.5" height="92.6"/>
			<polygon class="st1" points="380.9,189.5 407.4,189.5 407.4,112.6 380.9,150.5 			"/>
			<path class="st1" d="M162.3,149.7l-1,1.9c-5.6,10.4-11.6,14.6-20.7,14.6c-6.1,0-11-2.1-15.2-6.4c-4.2-4.4-6.3-9.8-6.3-16.6
				c0-6.9,2.1-12.5,6.3-16.7c4.2-4.2,9.2-6.3,15.1-6.3c8.7,0,15.1,4.5,19.5,13.8l0.9,1.9l21.6-16.4c-6.8-15.3-22.3-24.4-41.4-24.4
				c-13.8,0-25.5,4.5-34.6,13.3c-9.2,8.8-13.9,20.5-13.9,34.7s4.5,25.8,13.5,34.7s20.6,13.4,34.5,13.4c18.6,0,31.3-7.4,42.5-24.7
				l0.5-0.8L162.3,149.7z"/>
			<path class="st1" d="M878.6,149.7l-1,1.9c-5.6,10.4-11.6,14.6-20.7,14.6c-6.1,0-11-2.1-15.2-6.4c-4.2-4.4-6.3-9.8-6.3-16.6
				c0-6.9,2.1-12.5,6.3-16.7s9.2-6.3,15.1-6.3c8.7,0,15.1,4.5,19.5,13.8l0.9,1.9l21.6-16.4c-6.8-15.3-22.3-24.4-41.4-24.4
				c-13.8,0-25.5,4.5-34.6,13.3c-9.2,8.8-13.9,20.5-13.9,34.7s4.5,25.8,13.5,34.7s20.6,13.4,34.5,13.4c18.6,0,31.3-7.4,42.5-24.7
				l0.5-0.8L878.6,149.7z"/>
		</g>
		<g>
			
				<linearGradient id="SVGID_1_" gradientUnits="userSpaceOnUse" x1="398.85" y1="208.6" x2="398.85" y2="340.1" gradientTransform="matrix(1 0 0 -1 0 388)">
				<stop  offset="0" style="stop-color:#FFFFFF;stop-opacity:0.65"/>
				<stop  offset="1" style="stop-color:#FFFFFF;stop-opacity:0"/>
			</linearGradient>
			<polygon class="st2" points="414.9,47.9 352.5,136.3 367.6,157.9 445.2,47.9 			"/>
			<polygon class="st3" points="352.5,136.3 329.9,104 329.9,147.1 337.4,157.9 352.5,179.4 367.6,157.9 			"/>
		</g>
	</g>
	<g class="st4">
		<g>
			<g>
				<path class="st1" d="M105.6,278.2V229h7.2v19.6c2.5-3.9,7.2-6.3,12.2-6.3c4.7,0,8.6,1.7,11.7,5.1c3.1,3.5,4.7,7.9,4.7,13.4
					c0,5.5-1.6,9.9-4.8,13.3c-3.2,3.5-7.2,5.2-11.9,5.2c-5.4,0-9.7-2.7-11.9-6.1v5.1L105.6,278.2L105.6,278.2z M123.1,272.6
					c3,0,5.6-1.1,7.8-3.3c2-2.2,3.1-5.1,3.1-8.5c0-3.5-1.1-6.3-3.1-8.5c-2.1-2.2-4.7-3.3-7.8-3.3s-5.6,1.1-7.7,3.3s-3.2,5.1-3.2,8.5
					c0,3.5,1.1,6.3,3.2,8.5C117.4,271.5,120,272.6,123.1,272.6z"/>
			</g>
			<g>
				<path class="st1" d="M153,285.7c3.6,1.1,5.8,1.3,7.4-3l1.6-4.3l-14.2-35.1h8.3l9.9,25.2l9.8-25.2h8L167,285.2
					c-2,5.2-5.4,7.8-9.8,7.8c-1.8,0-3.5-0.3-5.1-0.8L153,285.7z"/>
			</g>
			<g>
				<path class="st1" d="M218.3,278.2V229h8.1l16.6,41.7l16.6-41.7h8.1v49.2h-7.3v-34.1l-2.5,7l-11.3,27.1h-7.3L228,251
					c-1.4-3.8-2.3-6.1-2.5-7v34.1L218.3,278.2L218.3,278.2z"/>
			</g>
			<g>
				<path class="st1" d="M310.5,278.2c-1.2-1.4-1.9-3.5-2-6.1c-2.3,4.7-6.2,7.1-11.6,7.1c-7.1,0-11.9-4.4-11.9-10.8
					c0-6.6,5-10.4,12.3-11.5l11.1-1.8v-1.5c0-4-2.5-6.1-7.3-6.1c-4.7,0-7.3,2-7.3,4.6c0,0.4,0.1,0.7,0.1,1.1l-6.4,2.2
					c-0.4-0.9-0.6-1.8-0.6-2.8c0-2.8,1.3-5.3,3.9-7.3s6-3,10.2-3c9.5,0,14.5,4.2,14.5,11.9v15.4c0,3.5,0.7,6.4,2.1,8.7L310.5,278.2
					L310.5,278.2z M308.4,261.5v-1l-9.5,1.6c-4.5,0.8-6.8,2.8-6.8,5.9s2.3,5.2,5.9,5.2C304.4,273.3,308.4,268.3,308.4,261.5z"/>
			</g>
			<g>
				<path class="st1" d="M339.8,243.4l6.7,10.7l6.8-10.7h8.5l-11,16.2l12.2,18.7h-8.4l-8-13l-8.1,13h-8.3l12.6-18.5l-11.1-16.3h8.1
					L339.8,243.4L339.8,243.4z"/>
			</g>
			<g>
				<path class="st1" d="M375.7,237.8v-8.1h8.2v8.1H375.7z M376.2,278.2v-34.9h7.2v34.9H376.2z"/>
			</g>
			<g>
				<path class="st1" d="M450,278.2h-7.2v-23c0-4.3-2-6.5-6.1-6.5c-4.5,0-7.7,3.4-7.7,10.4v19.2h-7.2v-22.8c0-4-2.1-6.7-5.8-6.7
					c-4.5,0-7.9,3.7-7.9,10.4v19.2h-7.2v-34.9h7.2v5c2.2-3.7,6.1-6,10.3-6c4.9,0,8.1,2,9.6,6.2c2.5-4.2,6.1-6.2,11.1-6.2
					c6.6,0,10.8,4.2,10.8,10.4L450,278.2L450,278.2z"/>
			</g>
			<g>
				<path class="st1" d="M491.5,278.2c-1.2-1.4-1.9-3.5-2-6.1c-2.3,4.7-6.2,7.1-11.6,7.1c-7.1,0-11.9-4.4-11.9-10.8
					c0-6.6,5-10.4,12.3-11.5l11.1-1.8v-1.5c0-4-2.5-6.1-7.3-6.1c-4.7,0-7.3,2-7.3,4.6c0,0.4,0.1,0.7,0.1,1.1l-6.4,2.2
					c-0.4-0.9-0.6-1.8-0.6-2.8c0-2.8,1.3-5.3,3.9-7.3s6-3,10.2-3c9.5,0,14.5,4.2,14.5,11.9v15.4c0,3.5,0.7,6.4,2.1,8.7L491.5,278.2
					L491.5,278.2z M489.4,261.5v-1l-9.5,1.6c-4.5,0.8-6.8,2.8-6.8,5.9s2.3,5.2,5.9,5.2C485.2,273.3,489.4,268.3,489.4,261.5z"/>
			</g>
			<g>
				<path class="st1" d="M580.9,266.3c-5.4,8.8-11.4,13-21.5,13c-7.1,0-12.9-2.4-17.4-7.2c-4.7-4.8-7-10.9-7-18.4
					c0-7.4,2.4-13.5,7.2-18.3c4.8-4.9,10.7-7.3,17.5-7.3c9.8,0,17.5,5.1,21,12.8l-6.1,4.2c-3.5-6.8-8.6-10.2-15.2-10.2
					c-4.7,0-8.7,1.8-12,5.4c-3.3,3.6-4.9,8-4.9,13.4c0,5.4,1.6,9.8,4.8,13.4s7.2,5.4,12.1,5.4c6.8,0,12-3.4,15.6-10.2L580.9,266.3z"
					/>
			</g>
			<g>
				<path class="st1" d="M632.4,260.8c0,5.7-1.8,10.2-5.6,13.5c-3.7,3.3-8.1,4.9-13.1,4.9s-9.3-1.6-13-4.9s-5.6-7.8-5.6-13.5
					c0-5.7,1.9-10.2,5.6-13.5c3.7-3.3,8-4.9,13-4.9s9.4,1.6,13.1,4.9C630.5,250.5,632.4,255.1,632.4,260.8z M613.8,272.6
					c3.2,0,5.9-1.1,8-3.3c2.2-2.2,3.3-5.1,3.3-8.5c0-3.5-1.1-6.3-3.3-8.5s-4.9-3.3-8-3.3c-3.2,0-5.9,1.1-8,3.3
					c-2.2,2.2-3.3,5.1-3.3,8.5c0,3.5,1.1,6.3,3.3,8.5C607.9,271.5,610.6,272.6,613.8,272.6z"/>
			</g>
			<g>
				<path class="st1" d="M696.9,278.2h-7.2v-23c0-4.3-2-6.5-6.1-6.5c-4.5,0-7.7,3.4-7.7,10.4v19.2h-7.2v-22.8c0-4-2.1-6.7-5.8-6.7
					c-4.5,0-7.9,3.7-7.9,10.4v19.2h-7.2v-34.9h7.2v5c2.2-3.7,6.1-6,10.3-6c4.9,0,8.1,2,9.6,6.2c2.5-4.2,6.1-6.2,11.1-6.2
					c6.6,0,10.8,4.2,10.8,10.4L696.9,278.2L696.9,278.2z"/>
			</g>
			<g>
				<path class="st1" d="M714.8,292.6v-49.2h7.2v5.4c2.3-3.6,7.1-6.3,12.4-6.3c4.6,0,8.4,1.7,11.5,5c3.1,3.4,4.7,7.9,4.7,13.5
					s-1.6,10-4.8,13.4s-7.2,5.1-12,5.1c-5,0-9.5-2.2-11.8-5.8v19.1L714.8,292.6L714.8,292.6z M732.3,248.9c-3,0-5.6,1.1-7.7,3.3
					c-2.1,2.2-3.2,5.1-3.2,8.5c0,3.5,1.1,6.3,3.2,8.5c2,2.2,4.7,3.3,7.7,3.3s5.6-1.1,7.8-3.3c2-2.2,3.1-5.1,3.1-8.5
					c0-3.5-1.1-6.3-3.1-8.5C737.9,250.1,735.3,248.9,732.3,248.9z"/>
			</g>
			<g>
				<path class="st1" d="M766.3,278.2V229h7.2v49.2H766.3z"/>
			</g>
			<g>
				<path class="st1" d="M790.7,237.8v-8.1h8.2v8.1H790.7z M791.2,278.2v-34.9h7.2v34.9H791.2z"/>
			</g>
			<g>
				<path class="st1" d="M839.7,278.2c-1.2-1.4-1.9-3.5-2-6.1c-2.3,4.7-6.2,7.1-11.6,7.1c-7.1,0-11.9-4.4-11.9-10.8
					c0-6.6,5-10.4,12.3-11.5l11.1-1.8v-1.5c0-4-2.5-6.1-7.3-6.1c-4.7,0-7.3,2-7.3,4.6c0,0.4,0.1,0.7,0.1,1.1l-6.4,2.2
					c-0.4-0.9-0.6-1.8-0.6-2.8c0-2.8,1.3-5.3,3.9-7.3c2.6-2,6-3,10.2-3c9.5,0,14.5,4.2,14.5,11.9v15.4c0,3.5,0.7,6.4,2.1,8.7
					L839.7,278.2L839.7,278.2z M837.5,261.5v-1l-9.5,1.6c-4.5,0.8-6.8,2.8-6.8,5.9s2.3,5.2,5.9,5.2
					C833.4,273.3,837.5,268.3,837.5,261.5z"/>
			</g>
			<g>
				<path class="st1" d="M893.8,278.2h-7.2v-21.6c0-4.8-2.9-7.7-7.8-7.7c-5.2,0-9.2,4.4-9.2,10.9v18.4h-7v-34.9h7.2v5.9
					c2.5-4.2,6.9-6.8,11.9-6.8c7.1,0,12.2,4.6,12.2,12.2L893.8,278.2L893.8,278.2z"/>
			</g>
			<g>
				<path class="st1" d="M943.6,269.2c-3.4,6.7-8.7,10.1-16.1,10.1c-5.1,0-9.5-1.8-12.9-5.2c-3.5-3.5-5.2-7.8-5.2-13.3
					c0-5.4,1.8-9.8,5.3-13.3s7.8-5.2,12.8-5.2c7.6,0,13.3,3.5,15.8,9.5l-5.7,3.8c-2.2-4.4-5.6-6.7-10-6.7c-3,0-5.6,1.1-7.7,3.2
					c-2.1,2.2-3.2,5-3.2,8.6c0,7.3,4.4,11.8,10.9,11.8c5,0,7.9-2.3,10.4-7.1L943.6,269.2z"/>
			</g>
			<g>
				<path class="st1" d="M991.2,262.3h-27.6c0.3,6.3,4.5,10.7,10.7,10.7c5.3,0,8.1-2.5,10.4-7.3l5.6,3.3
					c-3.3,6.8-8.7,10.2-16.2,10.2c-4.9,0-9-1.8-12.5-5.2c-3.5-3.5-5.1-7.9-5.1-13.3s1.8-9.8,5.2-13.3s7.7-5.2,12.8-5.2
					c5,0,9.1,1.6,12.3,4.9c3.1,3.3,4.7,7.5,4.7,12.6v2.6L991.2,262.3L991.2,262.3z M967.5,250.5c-1.9,1.6-3.2,3.7-4,6.3h20.8
					c-0.3-2.8-1.4-4.9-3.4-6.4C977.1,247.3,971.3,247.2,967.5,250.5z"/>
			</g>
		</g>
	</g>
</g>
</svg>
