<?xml version="1.0" encoding="utf-8"?>
<!-- Generator: Adobe Illustrator 22.0.0, SVG Export Plug-In . SVG Version: 6.00 Build 0)  -->
<svg version="1.1" id="Layer_1" xmlns="http://www.w3.org/2000/svg" xmlns:xlink="http://www.w3.org/1999/xlink" x="0px" y="0px"
	 viewBox="0 0 1085.6 280.4" style="enable-background:new 0 0 1085.6 280.4;" xml:space="preserve">
<style type="text/css">
	.st0{opacity:0;fill:none;}
	.st1{fill:#FFFFFF;}
	.st2{fill:url(#SVGID_1_);}
	.st3{opacity:0.7;fill:#FFFFFF;enable-background:new    ;}
</style>
<rect class="st0" width="1085.6" height="280.4"/>
<g>
	<g>
		<path class="st1" d="M238.4,92.2c-13.9,0-25.6,4.7-34.6,13.9c-9.2,9.2-13.9,20.7-13.9,34.2s4.7,25,13.9,34.1
			c9.1,9.2,20.7,13.9,34.7,13.9c13.9,0,25.6-4.7,34.8-13.9c9.1-9.2,13.7-20.7,13.7-34.1s-4.6-24.9-13.7-34.2
			C263.9,96.9,252.2,92.2,238.4,92.2z M222.6,123.4c4.1-4.1,9.3-6.2,15.7-6.2s11.6,2,15.7,6.2c4.2,4.2,6.3,9.7,6.3,16.8
			s-2.1,12.6-6.3,16.8c-4.1,4.1-9.3,6.2-15.7,6.2s-11.6-2-15.7-6.2c-4.2-4.2-6.3-9.7-6.3-16.8S218.4,127.6,222.6,123.4z"/>
		<path class="st1" d="M470.9,93.9h-43.5v92.6h26.5v-29.2h17c23.5,0,37-11.5,37-31.7S494.4,93.9,470.9,93.9z M453.9,117h16.5
			c9.8,0,11,4.9,11,8.6c0,3.7-1.1,8.6-11,8.6h-16.5V117z"/>
		<polygon class="st1" points="545.1,93.9 518.6,93.9 518.6,186.5 588.2,186.5 588.2,161.5 545.1,161.5 		"/>
		<rect x="600.5" y="93.9" class="st1" width="26.5" height="92.6"/>
		<polygon class="st1" points="639.3,118 664.7,118 664.7,186.5 691.2,186.5 691.2,118 716.7,118 716.7,93.9 639.3,93.9 		"/>
		<polygon class="st1" points="755.5,150.5 794.9,150.5 794.9,127 755.5,127 755.5,118 798.4,118 798.4,93.9 729,93.9 729,186.5 
			798.7,186.5 798.7,162.5 755.5,162.5 		"/>
		<polygon class="st1" points="966.1,93.9 966.1,126.8 935.4,126.8 935.4,93.9 908.9,93.9 908.9,186.5 935.4,186.5 935.4,151.9 
			966.1,151.9 966.1,186.5 992.6,186.5 992.6,93.9 		"/>
		<rect x="297.6" y="93.9" class="st1" width="26.5" height="92.6"/>
		<polygon class="st1" points="380.9,186.5 407.4,186.5 407.4,109.6 380.9,147.5 		"/>
		<path class="st1" d="M162.3,146.7l-1,1.9c-5.6,10.4-11.6,14.6-20.7,14.6c-6.1,0-11-2.1-15.2-6.4c-4.2-4.4-6.3-9.8-6.3-16.6
			c0-6.9,2.1-12.5,6.3-16.7c4.2-4.2,9.2-6.3,15.1-6.3c8.7,0,15.1,4.5,19.5,13.8l0.9,1.9l21.6-16.4c-6.8-15.3-22.3-24.4-41.4-24.4
			c-13.8,0-25.5,4.5-34.6,13.3c-9.2,8.8-13.9,20.5-13.9,34.7s4.5,25.8,13.5,34.7s20.6,13.4,34.5,13.4c18.6,0,31.3-7.4,42.5-24.7
			l0.5-0.8L162.3,146.7z"/>
		<path class="st1" d="M878.6,146.7l-1,1.9c-5.6,10.4-11.6,14.6-20.7,14.6c-6.1,0-11-2.1-15.2-6.4c-4.2-4.4-6.3-9.8-6.3-16.6
			c0-6.9,2.1-12.5,6.3-16.7s9.2-6.3,15.1-6.3c8.7,0,15.1,4.5,19.5,13.8l0.9,1.9l21.6-16.4c-6.8-15.3-22.3-24.4-41.4-24.4
			c-13.8,0-25.5,4.5-34.6,13.3c-9.2,8.8-13.9,20.5-13.9,34.7s4.5,25.8,13.5,34.7s20.6,13.4,34.5,13.4c18.6,0,31.3-7.4,42.5-24.7
			l0.5-0.8L878.6,146.7z"/>
	</g>
	<g>
		
			<linearGradient id="SVGID_1_" gradientUnits="userSpaceOnUse" x1="398.85" y1="1094.4" x2="398.85" y2="962.9" gradientTransform="matrix(1 0 0 1 0 -918)">
			<stop  offset="0" style="stop-color:#FFFFFF;stop-opacity:0.65"/>
			<stop  offset="1" style="stop-color:#FFFFFF;stop-opacity:0"/>
		</linearGradient>
		<polygon class="st2" points="414.9,44.9 352.5,133.3 367.6,154.9 445.2,44.9 		"/>
		<polygon class="st3" points="352.5,133.3 329.9,101 329.9,144.1 337.4,154.9 352.5,176.4 367.6,154.9 		"/>
	</g>
</g>
</svg>
