<?xml version="1.0" encoding="utf-8"?>
<!-- Generator: Adobe Illustrator 22.0.0, SVG Export Plug-In . SVG Version: 6.00 Build 0)  -->
<svg version="1.1" id="Layer_1" xmlns="http://www.w3.org/2000/svg" xmlns:xlink="http://www.w3.org/1999/xlink" x="0px" y="0px"
	 viewBox="0 0 1374 313.1" style="enable-background:new 0 0 1374 313.1;" xml:space="preserve">
<style type="text/css">
	.st0{fill:#9CA0A2;}
	.st1{fill:#E6E7E7;}
	.st2{fill:#394145;}
	.st3{fill:#071216;}
	.st4{fill:#FFFFFF;}
	.st5{fill:#8844E5;}
	.st6{fill:#37AA70;}
	.st7{fill:#FFC746;}
	.st8{fill:none;stroke:#071216;stroke-miterlimit:10;}
</style>
<g>
	<g>
		<path class="st0" d="M27.3,68.2C10.1,93.4,0,123.8,0,156.6c0,7.1,0.5,14,1.4,20.8l155.2-20.8L27.3,68.2z"/>
		<path class="st1" d="M156.6,0C102.9,0,55.5,27,27.3,68.2l129.3,88.4V0z"/>
		<path class="st2" d="M311.8,135.7C301.6,59.1,236,0,156.6,0v156.6L1.4,177.4C11.6,254,77.2,313.1,156.6,313.1
			c53.7,0,101.1-27,129.3-68.2c17.2-25.1,27.3-55.6,27.3-88.4C313.1,149.5,312.7,142.6,311.8,135.7z"/>
		<g>
			<circle class="st2" cx="346.7" cy="8" r="8"/>
			<circle class="st1" cx="346.7" cy="55.9" r="8"/>
			<circle class="st0" cx="346.7" cy="32" r="8"/>
		</g>
		<g>
			<g>
				<path class="st3" d="M383.3,4c1.1,1.3,1.6,3,1.6,5c0,2.1-0.5,3.8-1.6,5c-1.1,1.3-2.5,1.9-4.2,1.9s-3.1-0.6-4.2-1.9
					c-1.1-1.3-1.6-3-1.6-5c0-2.1,0.5-3.8,1.6-5c1.1-1.3,2.5-1.9,4.2-1.9S382.2,2.8,383.3,4z M376.1,13.2c0.8,1,1.8,1.5,3,1.5
					s2.3-0.5,3-1.5c0.8-1,1.2-2.4,1.2-4.1c0-1.7-0.4-3.1-1.2-4.1c-0.8-1-1.8-1.5-3-1.5s-2.3,0.5-3,1.5c-0.8,1-1.2,2.4-1.2,4.1
					C374.9,10.8,375.3,12.2,376.1,13.2z"/>
				<path class="st3" d="M386.4,5.4V4.1c0.7,0,1.3-0.1,1.7-0.4c0.4-0.3,0.8-0.7,1.2-1.3h1.5v13.4h-1.6V4.5c-0.4,0.3-0.7,0.6-1.2,0.7
					C387.6,5.4,387,5.4,386.4,5.4z"/>
				<path class="st3" d="M409.1,17.5l-1.2,1c-0.8-0.8-1.5-1.7-2-2.6c-0.3,0-0.5,0.1-0.7,0.1c-1.8,0-3.4-0.6-4.6-1.9
					c-1.2-1.3-1.9-3-1.9-5c0-2.1,0.6-3.7,1.9-5c1.2-1.3,2.8-1.9,4.6-1.9s3.4,0.6,4.6,1.9c1.2,1.3,1.9,3,1.9,5c0,1.6-0.4,2.9-1.1,4.1
					c-0.8,1.2-1.8,2-3,2.5C408,16.3,408.5,16.9,409.1,17.5z M401.7,13.1c0.9,1,2.1,1.5,3.5,1.5s2.5-0.5,3.5-1.5c0.9-1,1.4-2.4,1.4-4
					c0-1.6-0.5-3-1.4-4c-0.9-1-2.1-1.5-3.5-1.5s-2.5,0.5-3.5,1.5c-0.9,1-1.4,2.4-1.4,4C400.4,10.7,400.8,12.1,401.7,13.1z"/>
				<path class="st3" d="M414,12.6V6.3h1.5v6.2c0,0.7,0.2,1.3,0.6,1.7c0.4,0.4,1,0.6,1.6,0.6c0.8,0,1.4-0.3,2-0.9
					c0.5-0.6,0.8-1.3,0.8-2.2V6.3h1.5v9.5h-1.5v-1.7c-0.7,1.3-1.7,1.9-3.2,1.9c-1,0-1.8-0.3-2.4-0.9C414.3,14.6,414,13.7,414,12.6z"
					/>
				<path class="st3" d="M432.7,15.8h-1.5c-0.4-0.5-0.6-1.1-0.6-1.9c-0.3,0.7-0.7,1.2-1.3,1.6c-0.6,0.4-1.2,0.6-1.9,0.6
					c-1,0-1.7-0.3-2.3-0.8c-0.6-0.5-0.9-1.2-0.9-2.1c0-0.9,0.3-1.6,0.9-2.1c0.6-0.5,1.4-0.9,2.4-1l3.2-0.5V9.1
					c0-1.2-0.7-1.8-2.2-1.8c-0.7,0-1.3,0.1-1.7,0.4c-0.4,0.3-0.6,0.6-0.6,1.1c0,0.1,0,0.2,0,0.3l-1.3,0.4c-0.1-0.2-0.2-0.5-0.2-0.8
					c0-0.7,0.3-1.4,1-1.9s1.6-0.8,2.7-0.8c1.2,0,2.2,0.3,2.8,0.8c0.6,0.5,0.9,1.3,0.9,2.3v4.3c0,0.5,0,1,0.1,1.3
					C432.4,15.1,432.5,15.4,432.7,15.8z M427.6,14.7c1,0,1.7-0.4,2.3-1.1c0.5-0.7,0.8-1.6,0.8-2.6v-0.3l-2.9,0.5
					c-0.7,0.1-1.2,0.3-1.5,0.7c-0.3,0.3-0.5,0.7-0.5,1.2c0,0.5,0.2,0.9,0.5,1.2C426.6,14.6,427,14.7,427.6,14.7z"/>
				<path class="st3" d="M442.9,9.3v6.5h-1.5V9.6c0-0.7-0.2-1.3-0.6-1.7c-0.4-0.4-1-0.6-1.7-0.6c-0.8,0-1.4,0.3-1.9,0.9
					c-0.5,0.6-0.8,1.3-0.8,2.3v5.3h-1.5V6.3h1.5V8c0.3-0.6,0.8-1.1,1.4-1.4c0.6-0.3,1.2-0.5,1.9-0.5c0.9,0,1.7,0.3,2.4,0.8
					C442.5,7.4,442.9,8.2,442.9,9.3z"/>
				<path class="st3" d="M444.4,7.5V6.3h1.6V3.7h1.5v2.6h2.2v1.2h-2.2v5.8c0,0.5,0.1,0.9,0.3,1.2c0.2,0.2,0.5,0.4,1,0.4
					c0.2,0,0.5,0,0.7-0.1l0.1,1.2c-0.3,0.1-0.8,0.2-1.3,0.2c-0.7,0-1.3-0.2-1.7-0.6c-0.4-0.4-0.7-1.1-0.7-1.9v-6H444.4z"/>
				<path class="st3" d="M451.6,4.6V2.8h1.8v1.9H451.6z M451.8,15.8V6.3h1.5v9.5H451.8z"/>
				<path class="st3" d="M455.3,7.5V6.3h1.6V3.7h1.5v2.6h2.2v1.2h-2.2v5.8c0,0.5,0.1,0.9,0.3,1.2c0.2,0.2,0.5,0.4,1,0.4
					c0.2,0,0.5,0,0.7-0.1l0.1,1.2c-0.3,0.1-0.8,0.2-1.3,0.2c-0.7,0-1.3-0.2-1.7-0.6c-0.4-0.4-0.7-1.1-0.7-1.9v-6H455.3z"/>
				<path class="st3" d="M462.8,19.7l0.2-1.3c0.3,0.1,0.5,0.2,0.8,0.2c0.3,0,0.5-0.1,0.7-0.2c0.2-0.1,0.3-0.4,0.5-0.7l0.7-1.8
					l-3.8-9.5h1.6l3,7.5l3-7.5h1.6L466.3,18c-0.3,0.7-0.6,1.1-1,1.4c-0.4,0.3-0.9,0.4-1.5,0.4C463.4,19.8,463.1,19.8,462.8,19.7z"/>
			</g>
		</g>
		<g>
			<g>
				<path class="st3" d="M383.3,28c1.1,1.3,1.6,3,1.6,5c0,2.1-0.5,3.8-1.6,5c-1.1,1.3-2.5,1.9-4.2,1.9s-3.1-0.6-4.2-1.9
					c-1.1-1.3-1.6-3-1.6-5c0-2.1,0.5-3.8,1.6-5c1.1-1.3,2.5-1.9,4.2-1.9S382.2,26.7,383.3,28z M376.1,37.1c0.8,1,1.8,1.5,3,1.5
					s2.3-0.5,3-1.5c0.8-1,1.2-2.4,1.2-4.1c0-1.7-0.4-3.1-1.2-4.1c-0.8-1-1.8-1.5-3-1.5s-2.3,0.5-3,1.5c-0.8,1-1.2,2.4-1.2,4.1
					C374.9,34.8,375.3,36.1,376.1,37.1z"/>
				<path class="st3" d="M386.7,38.7l5.2-5.2c0.7-0.7,1.2-1.3,1.5-1.8c0.3-0.5,0.4-1.1,0.4-1.7c0-0.8-0.3-1.4-0.8-1.9
					c-0.5-0.5-1.2-0.7-2-0.7c-0.8,0-1.4,0.2-1.9,0.7c-0.5,0.5-0.8,1.1-0.8,1.9c0,0.3,0.1,0.6,0.2,0.9l-1.4,0.2
					c-0.2-0.4-0.2-0.8-0.2-1.3c0-1,0.4-1.9,1.2-2.7c0.8-0.8,1.8-1.2,3-1.2c1.3,0,2.3,0.4,3.1,1.1c0.8,0.7,1.2,1.6,1.2,2.7
					c0,0.8-0.2,1.6-0.5,2.3c-0.4,0.7-1,1.5-1.9,2.4l-3.8,3.9h6.3v1.4h-8.7V38.7z"/>
				<path class="st3" d="M413.6,41.5l-1.2,1c-0.8-0.8-1.5-1.7-2-2.6c-0.3,0-0.5,0.1-0.7,0.1c-1.8,0-3.4-0.6-4.6-1.9s-1.9-3-1.9-5
					c0-2.1,0.6-3.7,1.9-5s2.8-1.9,4.6-1.9c1.8,0,3.4,0.6,4.6,1.9c1.2,1.3,1.9,3,1.9,5c0,1.6-0.4,2.9-1.1,4.1c-0.8,1.2-1.8,2-3,2.5
					C412.4,40.3,413,40.9,413.6,41.5z M406.2,37.1c0.9,1,2.1,1.5,3.5,1.5c1.4,0,2.5-0.5,3.5-1.5c0.9-1,1.4-2.4,1.4-4
					c0-1.6-0.5-3-1.4-4c-0.9-1-2.1-1.5-3.5-1.5c-1.4,0-2.5,0.5-3.5,1.5c-0.9,1-1.4,2.4-1.4,4C404.8,34.7,405.3,36,406.2,37.1z"/>
				<path class="st3" d="M418.4,36.5v-6.3h1.5v6.2c0,0.7,0.2,1.3,0.6,1.7c0.4,0.4,1,0.6,1.6,0.6c0.8,0,1.4-0.3,2-0.9
					c0.5-0.6,0.8-1.3,0.8-2.2v-5.3h1.5v9.5H425v-1.7c-0.7,1.3-1.7,1.9-3.2,1.9c-1,0-1.8-0.3-2.4-0.9
					C418.7,38.6,418.4,37.7,418.4,36.5z"/>
				<path class="st3" d="M437.2,39.8h-1.5c-0.4-0.5-0.6-1.1-0.6-1.9c-0.3,0.7-0.7,1.2-1.3,1.6c-0.6,0.4-1.2,0.6-1.9,0.6
					c-1,0-1.7-0.3-2.3-0.8c-0.6-0.5-0.9-1.2-0.9-2.1c0-0.9,0.3-1.6,0.9-2.1c0.6-0.5,1.4-0.9,2.4-1l3.2-0.5v-0.4
					c0-1.2-0.7-1.8-2.2-1.8c-0.7,0-1.3,0.1-1.7,0.4c-0.4,0.3-0.6,0.6-0.6,1.1c0,0.1,0,0.2,0,0.3l-1.3,0.4c-0.1-0.2-0.2-0.5-0.2-0.8
					c0-0.7,0.3-1.4,1-1.9c0.7-0.5,1.6-0.8,2.7-0.8c1.2,0,2.2,0.3,2.8,0.8c0.6,0.5,0.9,1.3,0.9,2.3v4.3c0,0.5,0,1,0.1,1.3
					C436.8,39,437,39.4,437.2,39.8z M432.1,38.7c1,0,1.7-0.4,2.3-1.1c0.5-0.7,0.8-1.6,0.8-2.6v-0.3l-2.9,0.5
					c-0.7,0.1-1.2,0.3-1.5,0.7c-0.3,0.3-0.5,0.7-0.5,1.2c0,0.5,0.2,0.9,0.5,1.2C431,38.5,431.5,38.7,432.1,38.7z"/>
				<path class="st3" d="M447.3,33.3v6.5h-1.5v-6.2c0-0.7-0.2-1.3-0.6-1.7c-0.4-0.4-1-0.6-1.7-0.6c-0.8,0-1.4,0.3-1.9,0.9
					c-0.5,0.6-0.8,1.3-0.8,2.3v5.3h-1.5v-9.5h1.5v1.7c0.3-0.6,0.8-1.1,1.4-1.4c0.6-0.3,1.2-0.5,1.9-0.5c0.9,0,1.7,0.3,2.4,0.8
					C447,31.4,447.3,32.2,447.3,33.3z"/>
				<path class="st3" d="M448.8,31.4v-1.2h1.6v-2.6h1.5v2.6h2.2v1.2h-2.2v5.8c0,0.5,0.1,0.9,0.3,1.2c0.2,0.2,0.5,0.4,1,0.4
					c0.2,0,0.5,0,0.7-0.1l0.1,1.2c-0.3,0.1-0.8,0.2-1.3,0.2c-0.7,0-1.3-0.2-1.7-0.6c-0.4-0.4-0.7-1.1-0.7-1.9v-6H448.8z"/>
				<path class="st3" d="M456.1,28.6v-1.9h1.8v1.9H456.1z M456.2,39.8v-9.5h1.5v9.5H456.2z"/>
				<path class="st3" d="M459.7,31.4v-1.2h1.6v-2.6h1.5v2.6h2.2v1.2h-2.2v5.8c0,0.5,0.1,0.9,0.3,1.2c0.2,0.2,0.5,0.4,1,0.4
					c0.2,0,0.5,0,0.7-0.1l0.1,1.2c-0.3,0.1-0.8,0.2-1.3,0.2c-0.7,0-1.3-0.2-1.7-0.6c-0.4-0.4-0.7-1.1-0.7-1.9v-6H459.7z"/>
				<path class="st3" d="M467.2,43.6l0.2-1.3c0.3,0.1,0.5,0.2,0.8,0.2c0.3,0,0.5-0.1,0.7-0.2c0.2-0.1,0.3-0.4,0.5-0.7l0.7-1.8
					l-3.8-9.5h1.6l3,7.5l3-7.5h1.6L470.7,42c-0.3,0.7-0.6,1.1-1,1.4c-0.4,0.3-0.9,0.4-1.5,0.4C467.9,43.8,467.5,43.7,467.2,43.6z"/>
			</g>
		</g>
		<g>
			<g>
				<path class="st3" d="M383.3,52c1.1,1.3,1.6,3,1.6,5c0,2.1-0.5,3.8-1.6,5c-1.1,1.3-2.5,1.9-4.2,1.9s-3.1-0.6-4.2-1.9
					c-1.1-1.3-1.6-3-1.6-5c0-2.1,0.5-3.8,1.6-5c1.1-1.3,2.5-1.9,4.2-1.9S382.2,50.7,383.3,52z M376.1,61.1c0.8,1,1.8,1.5,3,1.5
					s2.3-0.5,3-1.5c0.8-1,1.2-2.4,1.2-4.1c0-1.7-0.4-3.1-1.2-4.1c-0.8-1-1.8-1.5-3-1.5s-2.3,0.5-3,1.5c-0.8,1-1.2,2.4-1.2,4.1
					C374.9,58.7,375.3,60.1,376.1,61.1z"/>
				<path class="st3" d="M387,59l1.5,0.4c-0.1,0.2-0.1,0.4-0.1,0.7c0,0.7,0.3,1.3,0.8,1.8s1.3,0.7,2.1,0.7c0.9,0,1.6-0.2,2.1-0.7
					c0.5-0.5,0.8-1.2,0.8-2c0-0.9-0.3-1.6-1-2c-0.7-0.4-1.6-0.7-2.7-0.7v-1.3c1.1,0,1.9-0.2,2.4-0.7c0.5-0.5,0.7-1,0.7-1.7
					c0-0.6-0.2-1.1-0.7-1.5c-0.5-0.4-1.1-0.6-1.8-0.6c-0.7,0-1.3,0.2-1.8,0.6c-0.5,0.4-0.7,0.9-0.7,1.6c0,0.2,0,0.4,0.1,0.6
					l-1.4,0.2c-0.1-0.3-0.2-0.6-0.2-1c0-0.9,0.4-1.7,1.1-2.4c0.8-0.7,1.7-1,2.8-1c1.2,0,2.2,0.3,2.9,0.9c0.7,0.6,1.1,1.4,1.1,2.3
					c0,0.7-0.2,1.3-0.6,1.9c-0.4,0.6-0.9,1-1.7,1.2c0.9,0.2,1.6,0.6,2.1,1.2c0.5,0.6,0.8,1.3,0.8,2.2c0,1.3-0.4,2.3-1.3,3.1
					c-0.9,0.8-1.9,1.2-3.2,1.2c-1.4,0-2.5-0.4-3.3-1.2c-0.8-0.8-1.3-1.7-1.3-2.7C386.8,59.7,386.8,59.4,387,59z"/>
				<path class="st3" d="M413.7,65.5l-1.2,1c-0.8-0.8-1.5-1.7-2-2.6c-0.3,0-0.5,0.1-0.7,0.1c-1.8,0-3.4-0.6-4.6-1.9
					c-1.2-1.3-1.9-3-1.9-5c0-2.1,0.6-3.7,1.9-5c1.2-1.3,2.8-1.9,4.6-1.9c1.8,0,3.4,0.6,4.6,1.9c1.2,1.3,1.9,3,1.9,5
					c0,1.6-0.4,2.9-1.1,4.1c-0.8,1.2-1.8,2-3,2.5C412.6,64.2,413.1,64.9,413.7,65.5z M406.3,61c0.9,1,2.1,1.5,3.5,1.5
					s2.5-0.5,3.5-1.5c0.9-1,1.4-2.4,1.4-4c0-1.6-0.5-3-1.4-4c-0.9-1-2.1-1.5-3.5-1.5s-2.5,0.5-3.5,1.5c-0.9,1-1.4,2.4-1.4,4
					C404.9,58.7,405.4,60,406.3,61z"/>
				<path class="st3" d="M418.5,60.5v-6.3h1.5v6.2c0,0.7,0.2,1.3,0.6,1.7c0.4,0.4,1,0.6,1.6,0.6c0.8,0,1.4-0.3,2-0.9
					c0.5-0.6,0.8-1.3,0.8-2.2v-5.3h1.5v9.5h-1.5v-1.7c-0.7,1.3-1.7,1.9-3.2,1.9c-1,0-1.8-0.3-2.4-0.9
					C418.9,62.6,418.5,61.7,418.5,60.5z"/>
				<path class="st3" d="M437.3,63.7h-1.5c-0.4-0.5-0.6-1.1-0.6-1.9c-0.3,0.7-0.7,1.2-1.3,1.6c-0.6,0.4-1.2,0.6-1.9,0.6
					c-1,0-1.7-0.3-2.3-0.8c-0.6-0.5-0.9-1.2-0.9-2.1c0-0.9,0.3-1.6,0.9-2.1c0.6-0.5,1.4-0.9,2.4-1l3.2-0.5v-0.4
					c0-1.2-0.7-1.8-2.2-1.8c-0.7,0-1.3,0.1-1.7,0.4c-0.4,0.3-0.6,0.6-0.6,1.1c0,0.1,0,0.2,0,0.3l-1.3,0.4c-0.1-0.2-0.2-0.5-0.2-0.8
					c0-0.7,0.3-1.4,1-1.9c0.7-0.5,1.6-0.8,2.7-0.8c1.2,0,2.2,0.3,2.8,0.8c0.6,0.5,0.9,1.3,0.9,2.3v4.3c0,0.5,0,1,0.1,1.3
					S437.1,63.3,437.3,63.7z M432.2,62.7c1,0,1.7-0.4,2.3-1.1c0.5-0.7,0.8-1.6,0.8-2.6v-0.3l-2.9,0.5c-0.7,0.1-1.2,0.3-1.5,0.7
					c-0.3,0.3-0.5,0.7-0.5,1.2c0,0.5,0.2,0.9,0.5,1.2C431.2,62.5,431.6,62.7,432.2,62.7z"/>
				<path class="st3" d="M447.4,57.3v6.5h-1.5v-6.2c0-0.7-0.2-1.3-0.6-1.7c-0.4-0.4-1-0.6-1.7-0.6c-0.8,0-1.4,0.3-1.9,0.9
					c-0.5,0.6-0.8,1.3-0.8,2.3v5.3h-1.5v-9.5h1.5v1.7c0.3-0.6,0.8-1.1,1.4-1.4c0.6-0.3,1.2-0.5,1.9-0.5c0.9,0,1.7,0.3,2.4,0.8
					C447.1,55.3,447.4,56.2,447.4,57.3z"/>
				<path class="st3" d="M448.9,55.4v-1.2h1.6v-2.6h1.5v2.6h2.2v1.2H452v5.8c0,0.5,0.1,0.9,0.3,1.2c0.2,0.2,0.5,0.4,1,0.4
					c0.2,0,0.5,0,0.7-0.1l0.1,1.2c-0.3,0.1-0.8,0.2-1.3,0.2c-0.7,0-1.3-0.2-1.7-0.6c-0.4-0.4-0.7-1.1-0.7-1.9v-6H448.9z"/>
				<path class="st3" d="M456.2,52.6v-1.9h1.8v1.9H456.2z M456.3,63.7v-9.5h1.5v9.5H456.3z"/>
				<path class="st3" d="M459.9,55.4v-1.2h1.6v-2.6h1.5v2.6h2.2v1.2h-2.2v5.8c0,0.5,0.1,0.9,0.3,1.2c0.2,0.2,0.5,0.4,1,0.4
					c0.2,0,0.5,0,0.7-0.1l0.1,1.2c-0.3,0.1-0.8,0.2-1.3,0.2c-0.7,0-1.3-0.2-1.7-0.6c-0.4-0.4-0.7-1.1-0.7-1.9v-6H459.9z"/>
				<path class="st3" d="M467.3,67.6l0.2-1.3c0.3,0.1,0.5,0.2,0.8,0.2c0.3,0,0.5-0.1,0.7-0.2c0.2-0.1,0.3-0.4,0.5-0.7l0.7-1.8
					l-3.8-9.5h1.6l3,7.5l3-7.5h1.6L470.8,66c-0.3,0.7-0.6,1.1-1,1.4c-0.4,0.3-0.9,0.4-1.5,0.4C468,67.8,467.6,67.7,467.3,67.6z"/>
			</g>
		</g>
		<g>
			<g>
				<path class="st3" d="M82.8,42.8v-1.7c0.9,0,1.6-0.2,2.2-0.5c0.5-0.3,1-0.9,1.4-1.6h1.8v16.8h-2V41.7c-0.4,0.4-0.9,0.7-1.5,0.9
					C84.3,42.7,83.6,42.8,82.8,42.8z"/>
				<path class="st3" d="M101,54.7c-1.1,0.9-2.4,1.4-4,1.4c-1.6,0-3-0.5-4-1.4c-1.1-0.9-1.6-2.1-1.6-3.6c0-1,0.3-1.8,0.8-2.6
					s1.2-1.3,2-1.8c-0.7-0.4-1.3-0.9-1.7-1.6c-0.4-0.7-0.6-1.4-0.6-2.2c0-1.3,0.5-2.3,1.5-3.1c1-0.8,2.2-1.2,3.6-1.2
					s2.6,0.4,3.6,1.2c1,0.8,1.5,1.9,1.5,3.1c0,0.8-0.2,1.5-0.6,2.2c-0.4,0.7-1,1.2-1.7,1.6c0.8,0.4,1.5,1,2,1.8
					c0.5,0.7,0.8,1.6,0.8,2.6C102.6,52.6,102.1,53.8,101,54.7z M94.4,53.5c0.7,0.6,1.5,0.9,2.6,0.9c1.1,0,2-0.3,2.6-0.9s1-1.5,1-2.5
					c0-1-0.4-1.8-1.1-2.5c-0.7-0.6-1.6-1-2.6-1s-1.9,0.3-2.6,1c-0.7,0.6-1.1,1.5-1.1,2.5C93.4,52,93.7,52.9,94.4,53.5z M93.8,43.1
					c0,0.9,0.3,1.6,0.9,2.1c0.6,0.5,1.4,0.8,2.3,0.8c0.9,0,1.7-0.3,2.3-0.8c0.6-0.5,0.9-1.2,0.9-2.1c0-0.9-0.3-1.7-0.9-2.2
					c-0.6-0.5-1.4-0.8-2.3-0.8s-1.7,0.3-2.3,0.8C94.1,41.5,93.8,42.2,93.8,43.1z"/>
				<path class="st3" d="M106.4,45.8c-0.8-0.8-1.2-1.8-1.2-3c0-1.2,0.4-2.2,1.2-3c0.8-0.8,1.7-1.2,2.9-1.2c1.2,0,2.2,0.4,2.9,1.2
					c0.8,0.8,1.1,1.8,1.1,3c0,1.2-0.4,2.2-1.1,3c-0.8,0.8-1.7,1.2-2.9,1.2C108.1,47,107.1,46.6,106.4,45.8z M107.5,40.9
					c-0.5,0.5-0.7,1.1-0.7,2c0,0.8,0.2,1.5,0.7,2c0.5,0.5,1.1,0.7,1.8,0.7c0.8,0,1.4-0.2,1.8-0.7c0.5-0.5,0.7-1.2,0.7-2
					c0-0.8-0.2-1.5-0.7-2c-0.5-0.5-1.1-0.7-1.8-0.7C108.5,40.1,107.9,40.4,107.5,40.9z M110,55.7l-1.2-0.8L119.2,39l1.2,0.8
					L110,55.7z M116.9,54.9c-0.8-0.8-1.2-1.8-1.2-3c0-1.2,0.4-2.2,1.2-3c0.8-0.8,1.7-1.2,2.9-1.2c1.2,0,2.2,0.4,2.9,1.2
					c0.8,0.8,1.2,1.8,1.2,3c0,1.2-0.4,2.2-1.2,3c-0.8,0.8-1.7,1.2-2.9,1.2C118.7,56.1,117.7,55.7,116.9,54.9z M118,49.9
					c-0.5,0.5-0.7,1.2-0.7,2c0,0.8,0.2,1.5,0.7,2c0.5,0.5,1.1,0.7,1.8,0.7c0.8,0,1.4-0.2,1.8-0.7c0.5-0.5,0.7-1.1,0.7-2
					c0-0.8-0.2-1.5-0.7-2c-0.5-0.5-1.1-0.7-1.8-0.7C119.1,49.2,118.5,49.4,118,49.9z"/>
			</g>
		</g>
		<g>
			<g>
				<path class="st3" d="M23.7,127.5v-1.7c0.9,0,1.6-0.2,2.2-0.5s1-0.9,1.4-1.6h1.8v16.8h-2v-14.1c-0.4,0.4-0.9,0.7-1.5,0.9
					C25.1,127.4,24.5,127.5,23.7,127.5z"/>
				<path class="st3" d="M32.3,137.1v-1.8l8.3-11.6h2v11.6h1.9v1.8h-1.9v3.4h-2v-3.4H32.3z M40.6,126.6l-6.1,8.7h6.1V126.6z"/>
				<path class="st3" d="M47.7,130.5c-0.8-0.8-1.2-1.8-1.2-3c0-1.2,0.4-2.2,1.2-3c0.8-0.8,1.7-1.2,2.9-1.2c1.2,0,2.2,0.4,2.9,1.2
					c0.8,0.8,1.1,1.8,1.1,3c0,1.2-0.4,2.2-1.1,3c-0.8,0.8-1.7,1.2-2.9,1.2C49.5,131.7,48.5,131.3,47.7,130.5z M48.8,125.5
					c-0.5,0.5-0.7,1.1-0.7,2c0,0.8,0.2,1.5,0.7,2c0.5,0.5,1.1,0.7,1.8,0.7c0.8,0,1.4-0.2,1.8-0.7c0.5-0.5,0.7-1.2,0.7-2
					c0-0.8-0.2-1.5-0.7-2c-0.5-0.5-1.1-0.7-1.8-0.7C49.9,124.8,49.3,125,48.8,125.5z M51.3,140.4l-1.2-0.8l10.4-15.9l1.2,0.8
					L51.3,140.4z M58.3,139.5c-0.8-0.8-1.2-1.8-1.2-3c0-1.2,0.4-2.2,1.2-3c0.8-0.8,1.7-1.2,2.9-1.2c1.2,0,2.2,0.4,2.9,1.2
					c0.8,0.8,1.2,1.8,1.2,3c0,1.2-0.4,2.2-1.2,3c-0.8,0.8-1.7,1.2-2.9,1.2C60,140.8,59.1,140.3,58.3,139.5z M59.4,134.6
					c-0.5,0.5-0.7,1.2-0.7,2c0,0.8,0.2,1.5,0.7,2c0.5,0.5,1.1,0.7,1.8,0.7s1.4-0.2,1.8-0.7c0.5-0.5,0.7-1.1,0.7-2
					c0-0.8-0.2-1.5-0.7-2c-0.5-0.5-1.1-0.7-1.8-0.7S59.9,134.1,59.4,134.6z"/>
			</g>
		</g>
		<g>
			<g>
				<path class="st4" d="M239.3,210l-1.9-0.4c0.1-0.3,0.2-0.6,0.2-0.9c0-0.7-0.3-1.2-0.8-1.6c-0.5-0.4-1.2-0.6-2.2-0.6
					c-1.3,0-2.3,0.6-3.2,1.9c-0.8,1.3-1.3,3-1.3,5.1c0.5-0.8,1.1-1.5,1.9-1.9c0.8-0.5,1.7-0.7,2.6-0.7c1.5,0,2.8,0.5,3.9,1.6
					c1,1.1,1.6,2.4,1.6,4c0,1.6-0.6,2.9-1.7,4.1c-1.1,1.1-2.5,1.7-4.2,1.7c-1.9,0-3.4-0.7-4.5-2.1c-1.1-1.4-1.7-3.3-1.7-5.7
					c0-2,0.3-3.9,1-5.5c0.5-1.3,1.3-2.4,2.3-3.1c1-0.7,2.1-1.1,3.3-1.1c1.5,0,2.7,0.4,3.6,1.1c0.9,0.7,1.3,1.7,1.3,2.9
					C239.5,209.2,239.5,209.6,239.3,210z M237.1,213.7c-0.8-0.7-1.7-1.1-2.7-1.1s-2,0.4-2.8,1.1c-0.8,0.7-1.1,1.6-1.1,2.8
					c0,1.2,0.4,2.1,1.1,2.8c0.8,0.7,1.7,1.1,2.8,1.1s2-0.4,2.7-1.1c0.8-0.7,1.1-1.6,1.1-2.8C238.2,215.4,237.8,214.5,237.1,213.7z"
					/>
				<path class="st4" d="M252.4,220.9c-1.1,0.9-2.4,1.4-4,1.4c-1.6,0-3-0.5-4-1.4c-1.1-0.9-1.6-2.1-1.6-3.6c0-1,0.3-1.8,0.8-2.6
					c0.5-0.7,1.2-1.3,2-1.8c-0.7-0.4-1.3-0.9-1.7-1.6c-0.4-0.7-0.6-1.4-0.6-2.2c0-1.3,0.5-2.3,1.5-3.1c1-0.8,2.2-1.2,3.6-1.2
					c1.4,0,2.6,0.4,3.6,1.2c1,0.8,1.5,1.9,1.5,3.1c0,0.8-0.2,1.5-0.6,2.2c-0.4,0.7-1,1.2-1.7,1.6c0.8,0.4,1.5,1,2,1.8
					c0.5,0.7,0.8,1.6,0.8,2.6C254,218.7,253.4,219.9,252.4,220.9z M245.7,219.7c0.7,0.6,1.5,0.9,2.6,0.9c1.1,0,2-0.3,2.6-0.9
					c0.7-0.6,1-1.5,1-2.5c0-1-0.4-1.8-1.1-2.5c-0.7-0.6-1.6-1-2.6-1s-1.9,0.3-2.6,1c-0.7,0.6-1.1,1.5-1.1,2.5
					C244.7,218.2,245.1,219,245.7,219.7z M245.2,209.3c0,0.9,0.3,1.6,0.9,2.1c0.6,0.5,1.4,0.8,2.3,0.8c0.9,0,1.7-0.3,2.3-0.8
					c0.6-0.5,0.9-1.2,0.9-2.1c0-0.9-0.3-1.7-0.9-2.2c-0.6-0.5-1.4-0.8-2.3-0.8s-1.7,0.3-2.3,0.8
					C245.5,207.6,245.2,208.3,245.2,209.3z"/>
				<path class="st4" d="M257.7,212c-0.8-0.8-1.2-1.8-1.2-3c0-1.2,0.4-2.2,1.2-3c0.8-0.8,1.7-1.2,2.9-1.2c1.2,0,2.2,0.4,2.9,1.2
					c0.8,0.8,1.1,1.8,1.1,3c0,1.2-0.4,2.2-1.1,3c-0.8,0.8-1.7,1.2-2.9,1.2C259.5,213.2,258.5,212.8,257.7,212z M258.8,207
					c-0.5,0.5-0.7,1.1-0.7,2c0,0.8,0.2,1.5,0.7,2c0.5,0.5,1.1,0.7,1.8,0.7c0.8,0,1.4-0.2,1.8-0.7c0.5-0.5,0.7-1.1,0.7-2
					c0-0.8-0.2-1.5-0.7-2c-0.5-0.5-1.1-0.7-1.8-0.7C259.9,206.3,259.3,206.5,258.8,207z M261.3,221.9l-1.2-0.8l10.4-15.9l1.2,0.8
					L261.3,221.9z M268.3,221c-0.8-0.8-1.2-1.8-1.2-3c0-1.2,0.4-2.2,1.2-3c0.8-0.8,1.7-1.2,2.9-1.2c1.2,0,2.2,0.4,2.9,1.2
					c0.8,0.8,1.2,1.8,1.2,3c0,1.2-0.4,2.2-1.2,3c-0.8,0.8-1.7,1.2-2.9,1.2C270,222.2,269,221.8,268.3,221z M269.4,216.1
					c-0.5,0.5-0.7,1.2-0.7,2c0,0.8,0.2,1.5,0.7,2c0.5,0.5,1.1,0.7,1.8,0.7s1.4-0.2,1.8-0.7c0.5-0.5,0.7-1.1,0.7-2
					c0-0.8-0.2-1.5-0.7-2c-0.5-0.5-1.1-0.7-1.8-0.7S269.9,215.6,269.4,216.1z"/>
			</g>
		</g>
	</g>
	<g>
		<g>
			<path class="st5" d="M973,147c0-45-36.5-81.5-81.5-81.5v36.7c24.7,0,44.7,20,44.7,44.7c0,18.5-11.3,34.4-27.3,41.2l14.6,33.7
				C952.6,209.5,973,180.6,973,147z"/>
			<path class="st6" d="M891.5,191.7c-24.7,0-44.7-20-44.7-44.7c0-24.7,20-44.7,44.7-44.7V65.5c-45,0-81.5,36.5-81.5,81.5
				c0,45,36.5,81.5,81.5,81.5c11.4,0,22.2-2.3,32-6.6l-14.6-33.7C903.6,190.5,897.7,191.7,891.5,191.7z"/>
		</g>
		<g>
			<path class="st6" d="M1092,65.5v36.7c24.7,0,44.7,20,44.7,44.7c0,24.7-20,44.7-44.7,44.7c-9.7,0-18.7-3.1-26-8.4l-20.5,30.5
				c13.2,9.2,29.2,14.6,46.5,14.6c45,0,81.5-36.5,81.5-81.5C1173.5,102,1137,65.5,1092,65.5z"/>
			<path class="st5" d="M1047.3,147c0-14.6,7-27.5,17.7-35.7l-22-29.5c-19.7,14.9-32.5,38.5-32.5,65.1c0,27.7,13.8,52.1,34.9,66.9
				l20.5-30.5C1054.7,175.2,1047.3,162,1047.3,147z"/>
			<path class="st7" d="M1092,102.3V65.5c-18.4,0-35.3,6.1-49,16.4l22,29.5C1072.5,105.6,1081.9,102.3,1092,102.3z"/>
		</g>
		<g>
			<path class="st5" d="M1337.3,147c0,9.4-2.9,18-7.8,25.2l30.4,20.7c8.9-13.1,14.2-28.9,14.2-45.9c0-45-36.5-81.5-81.5-81.5v36.7
				C1317.2,102.3,1337.3,122.3,1337.3,147z"/>
			<path class="st6" d="M1292.5,102.3V65.5c-13.3,0-25.8,3.2-36.9,8.8l16.6,32.8C1278.3,104,1285.2,102.3,1292.5,102.3z"/>
			<path class="st7" d="M1329.5,172.2c-8.1,11.8-21.6,19.5-36.9,19.5c-24.7,0-44.7-20-44.7-44.7c0-17.4,10-32.5,24.5-39.9
				l-16.6-32.8c-26.4,13.5-44.6,40.9-44.6,72.6c0,45,36.5,81.5,81.5,81.5c28,0,52.6-14.1,67.3-35.5L1329.5,172.2z"/>
		</g>
		<g>
			<path class="st3" d="M813,16c0,0.6,0.3,1.1,0.8,1.5c0.5,0.4,1.4,0.7,2.5,0.9c2.6,0.5,4,1.7,4,3.6c0,1-0.4,1.9-1.2,2.6
				c-0.8,0.7-1.9,1.1-3.2,1.1c-1.3,0-2.5-0.4-3.3-1.1c-0.9-0.7-1.4-1.6-1.6-2.7l1.3-0.7c0.2,1.1,0.6,1.9,1.2,2.4s1.4,0.8,2.4,0.8
				c0.9,0,1.6-0.2,2.2-0.7c0.5-0.4,0.8-1,0.8-1.6c0-0.7-0.3-1.2-0.8-1.6c-0.5-0.4-1.4-0.7-2.5-0.9c-2.7-0.5-4-1.7-4-3.5
				c0-0.9,0.4-1.7,1.2-2.3c0.8-0.6,1.8-0.9,3-0.9c1.1,0,2,0.3,2.8,0.8c0.8,0.5,1.3,1.3,1.7,2.2l-1.2,0.7c-0.3-0.8-0.7-1.4-1.2-1.8
				s-1.2-0.6-2-0.6s-1.4,0.2-1.9,0.5C813.2,14.9,813,15.4,813,16z"/>
			<path class="st3" d="M829.6,25.4h-1.4c-0.4-0.4-0.5-1-0.5-1.7c-0.3,0.6-0.7,1.1-1.2,1.5c-0.5,0.3-1.1,0.5-1.8,0.5
				c-0.9,0-1.6-0.2-2.1-0.7c-0.5-0.5-0.8-1.1-0.8-1.9c0-0.8,0.3-1.4,0.8-1.9c0.6-0.5,1.3-0.8,2.2-0.9l2.9-0.5v-0.4
				c0-1.1-0.7-1.7-2.1-1.7c-0.7,0-1.2,0.1-1.5,0.4c-0.4,0.3-0.5,0.6-0.5,1c0,0.1,0,0.2,0,0.3l-1.2,0.4c-0.1-0.2-0.1-0.5-0.1-0.7
				c0-0.7,0.3-1.3,0.9-1.7c0.6-0.5,1.4-0.7,2.4-0.7c1.1,0,2,0.2,2.6,0.7c0.6,0.5,0.9,1.2,0.9,2.1v3.9c0,0.5,0,0.9,0.1,1.2
				C829.3,24.7,829.4,25,829.6,25.4z M824.9,24.4c0.9,0,1.6-0.3,2.1-1c0.5-0.7,0.7-1.5,0.7-2.4v-0.3l-2.7,0.5
				c-0.6,0.1-1.1,0.3-1.4,0.6c-0.3,0.3-0.5,0.7-0.5,1.1c0,0.5,0.2,0.8,0.5,1.1C824,24.3,824.4,24.4,824.9,24.4z"/>
			<path class="st3" d="M831.5,25.4V13.1h1.4v12.3H831.5z"/>
			<path class="st3" d="M843.5,21.3h-7.2c0,0.9,0.3,1.7,0.9,2.3c0.5,0.6,1.2,0.9,2.1,0.9c0.7,0,1.3-0.2,1.8-0.5s0.8-0.8,1.2-1.5
				l1,0.6c-0.9,1.7-2.2,2.5-4,2.5c-1.2,0-2.2-0.4-3.1-1.3s-1.3-2-1.3-3.3s0.4-2.4,1.3-3.3c0.8-0.9,1.9-1.3,3.1-1.3
				c1.3,0,2.3,0.4,3.1,1.2c0.8,0.8,1.1,1.9,1.1,3.1V21.3z M839.3,17.6c-0.8,0-1.4,0.2-1.9,0.7c-0.5,0.5-0.8,1.1-1,1.9h5.7
				c0-0.8-0.4-1.4-0.9-1.9S840.1,17.6,839.3,17.6z"/>
			<path class="st3" d="M846.7,18.7c0,0.4,0.2,0.7,0.6,1c0.4,0.2,1,0.4,1.7,0.6c2,0.4,2.9,1.2,2.9,2.6c0,0.8-0.3,1.4-0.9,2
				c-0.6,0.5-1.4,0.8-2.4,0.8c-0.9,0-1.7-0.2-2.3-0.7c-0.6-0.5-1.1-1.1-1.4-1.8l1.1-0.7c0.5,1.4,1.4,2,2.6,2c0.6,0,1.1-0.1,1.4-0.4
				c0.3-0.3,0.5-0.7,0.5-1.1c0-0.4-0.2-0.8-0.5-1c-0.4-0.2-0.9-0.4-1.7-0.6c-0.9-0.2-1.6-0.5-2.1-0.9c-0.5-0.4-0.8-1-0.8-1.7
				c0-0.7,0.3-1.3,0.9-1.7c0.6-0.4,1.3-0.6,2.1-0.6c1.7,0,2.8,0.7,3.4,2.1l-1.1,0.6c-0.4-1-1.2-1.6-2.3-1.6c-0.5,0-0.9,0.1-1.3,0.3
				C846.8,18.1,846.7,18.3,846.7,18.7z"/>
		</g>
		<g>
			<path class="st3" d="M822.4,281.2c-1.4,2.2-2.8,3.2-5.4,3.2c-1.8,0-3.2-0.6-4.4-1.8c-1.2-1.2-1.7-2.7-1.7-4.6
				c0-1.8,0.6-3.4,1.8-4.6s2.7-1.8,4.4-1.8c2.4,0,4.4,1.3,5.3,3.2l-1.5,1.1c-0.9-1.7-2.1-2.5-3.8-2.5c-1.2,0-2.2,0.4-3,1.3
				c-0.8,0.9-1.2,2-1.2,3.3c0,1.3,0.4,2.4,1.2,3.3c0.8,0.9,1.8,1.3,3,1.3c1.7,0,3-0.8,3.9-2.5L822.4,281.2z"/>
			<path class="st3" d="M829.8,277.1c2.7,0.5,4,1.6,4,3.7c0,1-0.4,1.9-1.2,2.6c-0.8,0.7-1.9,1.1-3.3,1.1c-2.8,0-4.6-1.6-5-3.9
				l1.7-0.9c0.4,2.1,1.5,3.1,3.4,3.1c1.6,0,2.6-0.9,2.6-2c0-1.2-0.9-1.8-3.1-2.2c-2.4-0.5-4-1.7-4-3.6c0-1,0.4-1.8,1.2-2.4
				c0.8-0.6,1.8-0.9,3-0.9c2.2,0,3.9,1.1,4.6,3.1l-1.5,0.9c-0.5-1.5-1.5-2.3-3.1-2.3c-1.4,0-2.4,0.6-2.4,1.6
				C826.5,276,827.6,276.6,829.8,277.1z"/>
			<path class="st3" d="M847.4,278.1c0,1.8-0.6,3.4-1.8,4.6c-1.2,1.2-2.6,1.8-4.4,1.8c-1.7,0-3.2-0.6-4.4-1.8
				c-1.2-1.2-1.8-2.7-1.8-4.6c0-1.8,0.6-3.4,1.8-4.6c1.2-1.2,2.6-1.8,4.4-1.8c1.7,0,3.2,0.6,4.4,1.8
				C846.8,274.7,847.4,276.2,847.4,278.1z M841.3,282.7c1.2,0,2.2-0.4,3-1.3c0.8-0.9,1.2-2,1.2-3.4c0-1.4-0.4-2.5-1.2-3.4
				c-0.8-0.9-1.8-1.3-3-1.3c-1.2,0-2.2,0.4-3,1.3c-0.8,0.9-1.2,2-1.2,3.4c0,1.4,0.4,2.5,1.2,3.4S840.1,282.7,841.3,282.7z"/>
			<path class="st3" d="M847.8,273.6v-1.7h9.5v1.7h-3.8v10.6h-1.9v-10.6H847.8z"/>
			<path class="st3" d="M863.4,282.9l4.7-4.6c1.1-1.1,1.6-1.9,1.6-2.9c0-1.2-0.9-2-2.2-2c-1.3,0-2.2,0.8-2.2,2.1
				c0,0.3,0.1,0.5,0.1,0.8l-1.8,0.3c-0.1-0.4-0.2-0.8-0.2-1.3c0-1,0.4-1.8,1.1-2.5s1.7-1.1,2.9-1.1c1.2,0,2.2,0.3,2.9,1
				c0.7,0.7,1.1,1.5,1.1,2.5c0,0.8-0.2,1.5-0.5,2.1c-0.3,0.6-0.9,1.4-1.7,2.1l-3.1,3.1h5.3v1.7h-8.2V282.9z"/>
			<path class="st3" d="M872.7,282v-1.7l6-8.3h1.9v8.3h1.3v1.7h-1.3v2.2h-1.9V282H872.7z M878.7,274.6l-4,5.6h4V274.6z"/>
			<path class="st3" d="M883.3,284.2v-2h2v2H883.3z"/>
			<path class="st3" d="M891.2,284.5c-1.3,0-2.3-0.3-3.1-1c-0.8-0.7-1.2-1.5-1.2-2.6c0-1.5,0.8-2.6,2.1-3.2
				c-1.1-0.6-1.7-1.6-1.7-2.8c0-0.9,0.4-1.7,1.1-2.3c0.7-0.6,1.7-0.9,2.8-0.9c1.1,0,2,0.3,2.8,0.9c0.7,0.6,1.1,1.4,1.1,2.3
				c0,1.2-0.6,2.2-1.7,2.8c1.3,0.6,2.1,1.7,2.1,3.2c0,1.1-0.4,2-1.2,2.6C893.5,284.1,892.5,284.5,891.2,284.5z M891.2,282.9
				c0.7,0,1.3-0.2,1.7-0.6c0.5-0.4,0.7-1,0.7-1.6c0-0.6-0.2-1.2-0.7-1.6c-0.5-0.4-1-0.6-1.7-0.6c-0.7,0-1.2,0.2-1.7,0.6
				c-0.5,0.4-0.7,1-0.7,1.6c0,0.7,0.2,1.2,0.7,1.6C889.9,282.7,890.5,282.9,891.2,282.9z M889.1,275c0,0.6,0.2,1,0.6,1.4
				c0.4,0.4,0.9,0.5,1.5,0.5c0.6,0,1.1-0.2,1.5-0.5c0.4-0.4,0.6-0.8,0.6-1.4c0-0.6-0.2-1-0.6-1.4c-0.8-0.7-2.1-0.7-2.9,0
				C889.3,274,889.1,274.4,889.1,275z"/>
			<path class="st3" d="M899.2,280.9c-0.1,0.2-0.1,0.4-0.1,0.6c0,0.8,0.8,1.4,2,1.4c1.8,0,2.9-1.7,3-4.5c-0.5,0.9-1.7,1.5-3,1.5
				c-1.2,0-2.2-0.4-3-1.2c-0.8-0.8-1.2-1.7-1.2-2.9c0-1.2,0.4-2.2,1.2-3c0.8-0.8,1.9-1.2,3.2-1.2c2.9,0,4.6,2,4.6,5.6
				c0,1.7-0.2,3.1-0.7,4.3c-0.7,1.9-2.2,2.9-4.1,2.9c-1.1,0-2-0.3-2.7-0.8c-0.7-0.5-1-1.3-1-2.1c0-0.3,0.1-0.6,0.2-0.9L899.2,280.9z
				 M901.3,278.3c0.7,0,1.3-0.2,1.8-0.7c0.5-0.5,0.8-1.1,0.8-1.8c0-0.8-0.2-1.4-0.8-1.8c-0.5-0.5-1.1-0.7-1.8-0.7
				c-0.7,0-1.3,0.2-1.8,0.7c-0.5,0.5-0.8,1.1-0.8,1.8c0,0.8,0.2,1.4,0.8,1.8C899.9,278.1,900.5,278.3,901.3,278.3z"/>
			<path class="st3" d="M910.1,280.9c-0.1,0.2-0.1,0.4-0.1,0.6c0,0.8,0.8,1.4,2,1.4c1.8,0,2.9-1.7,3-4.5c-0.5,0.9-1.7,1.5-3,1.5
				c-1.2,0-2.2-0.4-3-1.2c-0.8-0.8-1.2-1.7-1.2-2.9c0-1.2,0.4-2.2,1.2-3c0.8-0.8,1.9-1.2,3.2-1.2c2.9,0,4.6,2,4.6,5.6
				c0,1.7-0.2,3.1-0.7,4.3c-0.7,1.9-2.2,2.9-4.1,2.9c-1.1,0-2-0.3-2.7-0.8c-0.7-0.5-1-1.3-1-2.1c0-0.3,0.1-0.6,0.2-0.9L910.1,280.9z
				 M912.1,278.3c0.7,0,1.3-0.2,1.8-0.7c0.5-0.5,0.8-1.1,0.8-1.8c0-0.8-0.2-1.4-0.8-1.8c-0.5-0.5-1.1-0.7-1.8-0.7
				c-0.7,0-1.3,0.2-1.8,0.7c-0.5,0.5-0.8,1.1-0.8,1.8c0,0.8,0.2,1.4,0.8,1.8C910.8,278.1,911.4,278.3,912.1,278.3z"/>
		</g>
		<g>
			<path class="st3" d="M587.8,75c-0.8,1.2-1.6,2-2.4,2.5c-0.8,0.5-1.9,0.8-3.2,0.8c-1.8,0-3.3-0.6-4.5-1.8
				c-1.2-1.2-1.8-2.7-1.8-4.6c0-1.9,0.6-3.4,1.8-4.6c1.2-1.2,2.7-1.8,4.6-1.8c1.2,0,2.4,0.3,3.3,0.9c1,0.6,1.7,1.4,2.1,2.3l-1.9,1.4
				c-0.8-1.6-2-2.4-3.6-2.4c-1.1,0-2.1,0.4-2.8,1.2c-0.8,0.8-1.1,1.8-1.1,3.1c0,1.2,0.4,2.3,1.1,3.1c0.8,0.8,1.7,1.2,2.8,1.2
				c1.6,0,2.8-0.8,3.7-2.5L587.8,75z"/>
			<path class="st3" d="M598.4,73.7c0,1.4-0.5,2.6-1.4,3.4c-0.9,0.8-2.1,1.2-3.4,1.2c-1.3,0-2.4-0.4-3.3-1.2
				c-0.9-0.8-1.4-1.9-1.4-3.4c0-1.4,0.5-2.6,1.4-3.4c0.9-0.8,2.1-1.2,3.3-1.2c1.3,0,2.4,0.4,3.4,1.2
				C597.9,71.2,598.4,72.3,598.4,73.7z M593.6,76.3c0.7,0,1.3-0.2,1.8-0.7c0.5-0.5,0.7-1.1,0.7-1.8c0-0.8-0.2-1.4-0.7-1.8
				c-0.5-0.5-1.1-0.7-1.8-0.7c-0.7,0-1.3,0.2-1.8,0.7c-0.5,0.5-0.8,1.1-0.8,1.8c0,0.8,0.2,1.4,0.8,1.8
				C592.4,76,592.9,76.3,593.6,76.3z"/>
			<path class="st3" d="M604,72.8c2,0.4,2.9,1.2,2.9,2.7c0,1.7-1.3,2.9-3.4,2.9c-2,0-3.3-1.1-4-2.6l1.8-1.1c0.4,1.1,1.2,1.9,2.2,1.9
				c0.7,0,1.4-0.4,1.4-1c0-0.6-0.5-0.9-1.9-1.1c-2-0.4-3-1.3-3-2.7c0-0.8,0.3-1.4,0.9-1.9c0.6-0.4,1.4-0.7,2.3-0.7
				c1.8,0,2.9,0.7,3.6,2.2l-1.6,0.9c-0.4-1-1.1-1.5-2-1.5c-0.9,0-1.3,0.3-1.3,0.8C601.9,72.1,602.6,72.5,604,72.8z"/>
			<path class="st3" d="M607.8,71.2v-1.8h1.4V67h2.2v2.4h1.9v1.8h-1.9v4c0,0.8,0.4,1.2,1.1,1.2c0.3,0,0.5,0,0.7-0.1l0.2,1.8
				c-0.4,0.2-0.9,0.2-1.5,0.2c-1.9,0-2.8-0.9-2.8-2.8v-4.4H607.8z"/>
			<path class="st3" d="M614.7,73.5v-1.8h6.8v1.8H614.7z"/>
			<path class="st3" d="M627.4,72.8c2,0.4,2.9,1.2,2.9,2.7c0,1.7-1.3,2.9-3.4,2.9c-2,0-3.3-1.1-4-2.6l1.8-1.1
				c0.4,1.1,1.2,1.9,2.2,1.9c0.7,0,1.4-0.4,1.4-1c0-0.6-0.5-0.9-1.9-1.1c-2-0.4-3-1.3-3-2.7c0-0.8,0.3-1.4,0.9-1.9
				c0.6-0.4,1.4-0.7,2.3-0.7c1.8,0,2.9,0.7,3.6,2.2l-1.6,0.9c-0.4-1-1.1-1.5-2-1.5c-0.9,0-1.3,0.3-1.3,0.8
				C625.3,72.1,626,72.5,627.4,72.8z"/>
			<path class="st3" d="M638,78.1c-0.3-0.4-0.4-0.8-0.4-1.4c-0.6,1.1-1.6,1.6-2.9,1.6c-1.7,0-2.9-1.1-2.9-2.7c0-1.7,1.3-2.6,3.1-2.9
				l2.6-0.4V72c0-0.9-0.5-1.3-1.6-1.3c-1,0-1.6,0.4-1.6,1c0,0.1,0,0.1,0,0.2l-2,0.7c-0.1-0.2-0.2-0.5-0.2-0.7c0-0.7,0.3-1.3,1-1.9
				c0.7-0.5,1.6-0.8,2.7-0.8c2.5,0,3.8,1.1,3.8,3.2v3.6c0,0.9,0.2,1.6,0.6,2.2H638z M637.4,74v-0.2l-2.1,0.4c-1,0.2-1.5,0.6-1.5,1.3
				c0,0.7,0.5,1.1,1.3,1.1C636.5,76.6,637.4,75.6,637.4,74z"/>
			<path class="st3" d="M649.6,69.4l-3.5,8.7H644l-3.5-8.7h2.4l2.2,5.9l2.2-5.9H649.6z"/>
			<path class="st3" d="M650.7,68.1v-2.3h2.4v2.3H650.7z M650.8,78.1v-8.7h2.2v8.7H650.8z"/>
			<path class="st3" d="M663.4,78.1h-2.2v-5c0-1.2-0.6-1.9-1.8-1.9c-1.2,0-2,1-2,2.5v4.4h-2.2v-8.7h2.2v1.4c0.7-1.1,1.7-1.7,3-1.7
				c1.8,0,3.1,1.2,3.1,3V78.1z"/>
			<path class="st3" d="M667.6,78.6c-0.1,0.2-0.1,0.4-0.1,0.6c0,0.6,0.7,1,1.9,1c1.4,0,2.1-0.8,2.1-2.4v-1.1
				c-0.5,0.9-1.4,1.3-2.5,1.3c-1.2,0-2.2-0.4-3-1.2c-0.8-0.8-1.2-1.9-1.2-3.2c0-1.3,0.4-2.3,1.2-3.2c0.8-0.8,1.8-1.2,3-1.2
				c1.1,0,1.9,0.4,2.5,1.2v-0.9h2.2v8.1c0,2.9-1.7,4.4-4.4,4.4c-2.6,0-4.2-1.1-4.2-3c0-0.4,0.1-0.7,0.2-1L667.6,78.6z M667.1,73.6
				c0,1.5,1,2.5,2.3,2.5c1.3,0,2.4-0.9,2.4-2.5c0-1.5-1-2.5-2.4-2.5C668.1,71.1,667.1,72,667.1,73.6z"/>
			<path class="st3" d="M689.8,73.7c0,1.4-0.5,2.6-1.4,3.4c-0.9,0.8-2.1,1.2-3.4,1.2c-1.3,0-2.4-0.4-3.3-1.2
				c-0.9-0.8-1.4-1.9-1.4-3.4c0-1.4,0.5-2.6,1.4-3.4c0.9-0.8,2.1-1.2,3.3-1.2c1.3,0,2.4,0.4,3.4,1.2
				C689.3,71.2,689.8,72.3,689.8,73.7z M685,76.3c0.7,0,1.3-0.2,1.8-0.7c0.5-0.5,0.7-1.1,0.7-1.8c0-0.8-0.2-1.4-0.7-1.8
				c-0.5-0.5-1.1-0.7-1.8-0.7c-0.7,0-1.3,0.2-1.8,0.7c-0.5,0.5-0.8,1.1-0.8,1.8c0,0.8,0.2,1.4,0.8,1.8C683.8,76,684.4,76.3,685,76.3
				z"/>
			<path class="st3" d="M699.7,78.1h-2.2v-5c0-1.2-0.6-1.9-1.8-1.9c-1.2,0-2,1-2,2.5v4.4h-2.2v-8.7h2.2v1.4c0.7-1.1,1.7-1.7,3-1.7
				c1.8,0,3.1,1.2,3.1,3V78.1z"/>
			<path class="st3" d="M706.1,71.2v-1.8h1.4V67h2.2v2.4h1.9v1.8h-1.9v4c0,0.8,0.4,1.2,1.1,1.2c0.3,0,0.5,0,0.7-0.1l0.2,1.8
				c-0.4,0.2-0.9,0.2-1.5,0.2c-1.9,0-2.8-0.9-2.8-2.8v-4.4H706.1z"/>
			<path class="st3" d="M721.5,74.3h-6.7c0.1,1.3,1.1,2.2,2.4,2.2c1.1,0,1.9-0.5,2.4-1.6l1.7,0.9c-0.8,1.7-2.2,2.5-4.1,2.5
				c-1.2,0-2.3-0.4-3.2-1.3c-0.9-0.9-1.3-2-1.3-3.3s0.4-2.5,1.3-3.3c0.9-0.9,2-1.3,3.3-1.3c1.2,0,2.3,0.4,3.1,1.2
				c0.8,0.8,1.2,1.9,1.2,3.1V74.3z M714.8,72.7h4.7c-0.2-1.1-1-1.8-2.3-1.8C716,70.8,715.1,71.6,714.8,72.7z"/>
			<path class="st3" d="M731.4,75.8c-0.8,1.7-2.2,2.5-4.1,2.5c-1.3,0-2.4-0.4-3.3-1.3c-0.9-0.8-1.3-2-1.3-3.3c0-1.4,0.4-2.5,1.3-3.3
				c0.9-0.9,2-1.3,3.3-1.3c1.9,0,3.4,0.9,4,2.4l-1.8,1.2c-0.5-1-1.2-1.5-2.2-1.5c-1.3,0-2.3,1-2.3,2.5c0,1.5,1,2.5,2.3,2.5
				c1.1,0,1.8-0.5,2.3-1.6L731.4,75.8z"/>
			<path class="st3" d="M741.3,78.1h-2.2v-5c0-1.2-0.6-1.9-1.8-1.9c-1.2,0-2.1,1-2.1,2.5v4.4h-2.2V65.8h2.2v5c0.7-1.1,1.7-1.6,3-1.6
				c1.9,0,3.1,1.2,3.1,3.1V78.1z"/>
			<path class="st3" d="M751.7,78.1h-2.2v-5c0-1.2-0.6-1.9-1.8-1.9c-1.2,0-2,1-2,2.5v4.4h-2.2v-8.7h2.2v1.4c0.7-1.1,1.7-1.7,3-1.7
				c1.8,0,3.1,1.2,3.1,3V78.1z"/>
			<path class="st3" d="M753.8,68.1v-2.3h2.4v2.3H753.8z M753.9,78.1v-8.7h2.2v8.7H753.9z"/>
			<path class="st3" d="M766.5,75.8c-0.8,1.7-2.2,2.5-4.1,2.5c-1.3,0-2.4-0.4-3.3-1.3c-0.9-0.8-1.3-2-1.3-3.3c0-1.4,0.4-2.5,1.3-3.3
				c0.9-0.9,2-1.3,3.3-1.3c1.9,0,3.4,0.9,4,2.4l-1.8,1.2c-0.5-1-1.2-1.5-2.2-1.5c-1.3,0-2.3,1-2.3,2.5c0,1.5,1,2.5,2.3,2.5
				c1.1,0,1.8-0.5,2.3-1.6L766.5,75.8z"/>
			<path class="st3" d="M774,78.1c-0.3-0.4-0.4-0.8-0.4-1.4c-0.6,1.1-1.6,1.6-2.9,1.6c-1.7,0-2.9-1.1-2.9-2.7c0-1.7,1.3-2.6,3.1-2.9
				l2.6-0.4V72c0-0.9-0.5-1.3-1.6-1.3c-1,0-1.6,0.4-1.6,1c0,0.1,0,0.1,0,0.2l-2,0.7c-0.1-0.2-0.2-0.5-0.2-0.7c0-0.7,0.3-1.3,1-1.9
				c0.7-0.5,1.6-0.8,2.7-0.8c2.5,0,3.8,1.1,3.8,3.2v3.6c0,0.9,0.2,1.6,0.6,2.2H774z M773.4,74v-0.2l-2.1,0.4c-1,0.2-1.5,0.6-1.5,1.3
				c0,0.7,0.5,1.1,1.3,1.1C772.5,76.6,773.4,75.6,773.4,74z"/>
			<path class="st3" d="M777.7,78.1V65.8h2.2v12.3H777.7z"/>
			<path class="st3" d="M584.4,96.9c-0.8,1.7-2.2,2.5-4.1,2.5c-1.3,0-2.4-0.4-3.3-1.3c-0.9-0.8-1.3-2-1.3-3.3c0-1.4,0.4-2.5,1.3-3.3
				c0.9-0.9,2-1.3,3.3-1.3c1.9,0,3.4,0.9,4,2.4l-1.8,1.2c-0.5-1-1.2-1.5-2.2-1.5c-1.3,0-2.3,1-2.3,2.5c0,1.5,1,2.5,2.3,2.5
				c1.1,0,1.8-0.5,2.3-1.6L584.4,96.9z"/>
			<path class="st3" d="M595,94.8c0,1.4-0.5,2.6-1.4,3.4c-0.9,0.8-2.1,1.2-3.4,1.2c-1.3,0-2.4-0.4-3.3-1.2c-0.9-0.8-1.4-1.9-1.4-3.4
				c0-1.4,0.5-2.6,1.4-3.4c0.9-0.8,2.1-1.2,3.3-1.2c1.3,0,2.4,0.4,3.4,1.2C594.5,92.3,595,93.4,595,94.8z M590.2,97.4
				c0.7,0,1.3-0.2,1.8-0.7c0.5-0.5,0.7-1.1,0.7-1.8s-0.2-1.4-0.7-1.8c-0.5-0.5-1.1-0.7-1.8-0.7c-0.7,0-1.3,0.2-1.8,0.7
				c-0.5,0.5-0.8,1.1-0.8,1.8s0.2,1.4,0.8,1.8C588.9,97.1,589.5,97.4,590.2,97.4z"/>
			<path class="st3" d="M609.5,99.2h-2.2v-5.4c0-1.1-0.5-1.6-1.4-1.6c-1,0-1.7,0.8-1.7,2.2v4.9H602v-5.4c0-1.1-0.5-1.7-1.4-1.7
				c-0.9,0-1.7,0.8-1.7,2.1v4.9h-2.2v-8.7h2.2v1.2c0.6-0.9,1.5-1.4,2.5-1.4c1.2,0,2,0.5,2.4,1.5c0.6-1,1.5-1.5,2.8-1.5
				c1.8,0,2.8,1.1,2.8,2.9V99.2z"/>
			<path class="st3" d="M611.5,102.8V90.5h2.2v1.2c0.6-0.9,1.8-1.5,3-1.5c1.1,0,2.1,0.4,2.9,1.2c0.8,0.8,1.1,2,1.1,3.4
				c0,1.4-0.4,2.5-1.2,3.3c-0.8,0.9-1.8,1.3-3,1.3s-2.1-0.4-2.8-1.3v4.7H611.5z M616,92.3c-0.7,0-1.3,0.2-1.8,0.7
				c-0.5,0.5-0.7,1.1-0.7,1.8s0.2,1.3,0.7,1.8c0.5,0.5,1.1,0.7,1.8,0.7c0.7,0,1.3-0.2,1.8-0.7c0.5-0.5,0.7-1.1,0.7-1.8
				s-0.2-1.3-0.7-1.8C617.3,92.6,616.7,92.3,616,92.3z"/>
			<path class="st3" d="M622.4,99.2V86.9h2.2v12.3H622.4z"/>
			<path class="st3" d="M626.7,89.2v-2.3h2.4v2.3H626.7z M626.8,99.2v-8.7h2.2v8.7H626.8z"/>
			<path class="st3" d="M637,99.2c-0.3-0.4-0.4-0.8-0.4-1.4c-0.6,1.1-1.6,1.6-2.9,1.6c-1.7,0-2.9-1.1-2.9-2.7c0-1.7,1.3-2.6,3.1-2.9
				l2.6-0.4v-0.3c0-0.9-0.5-1.3-1.6-1.3c-1,0-1.6,0.4-1.6,1c0,0.1,0,0.1,0,0.2l-2,0.7c-0.1-0.2-0.2-0.5-0.2-0.7c0-0.7,0.3-1.3,1-1.9
				c0.7-0.5,1.6-0.8,2.7-0.8c2.5,0,3.8,1.1,3.8,3.2V97c0,0.9,0.2,1.6,0.6,2.2H637z M636.4,95.1V95l-2.1,0.4c-1,0.2-1.5,0.6-1.5,1.3
				c0,0.7,0.5,1.1,1.3,1.1C635.5,97.6,636.4,96.7,636.4,95.1z"/>
			<path class="st3" d="M649.1,99.2h-2.2v-5c0-1.2-0.6-1.9-1.8-1.9c-1.2,0-2,1-2,2.5v4.4h-2.2v-8.7h2.2v1.4c0.7-1.1,1.7-1.7,3-1.7
				c1.8,0,3.1,1.2,3.1,3V99.2z"/>
			<path class="st3" d="M659.3,96.9c-0.8,1.7-2.2,2.5-4.1,2.5c-1.3,0-2.4-0.4-3.3-1.3c-0.9-0.8-1.3-2-1.3-3.3c0-1.4,0.4-2.5,1.3-3.3
				c0.9-0.9,2-1.3,3.3-1.3c1.9,0,3.4,0.9,4,2.4l-1.8,1.2c-0.5-1-1.2-1.5-2.2-1.5c-1.3,0-2.3,1-2.3,2.5c0,1.5,1,2.5,2.3,2.5
				c1.1,0,1.8-0.5,2.3-1.6L659.3,96.9z"/>
			<path class="st3" d="M669.2,95.4h-6.7c0.1,1.3,1.1,2.2,2.4,2.2c1.1,0,1.9-0.5,2.4-1.6l1.7,0.9c-0.8,1.7-2.2,2.5-4.1,2.5
				c-1.2,0-2.3-0.4-3.2-1.3c-0.9-0.9-1.3-2-1.3-3.3s0.4-2.5,1.3-3.3c0.9-0.9,2-1.3,3.3-1.3c1.2,0,2.3,0.4,3.1,1.2
				c0.8,0.8,1.2,1.9,1.2,3.1V95.4z M662.5,93.7h4.7c-0.2-1.1-1-1.8-2.3-1.8C663.7,91.9,662.8,92.7,662.5,93.7z"/>
			<path class="st3" d="M675.1,92.3v-1.8h1.4v-2.4h2.2v2.4h1.9v1.8h-1.9v4c0,0.8,0.4,1.2,1.1,1.2c0.3,0,0.5,0,0.7-0.1l0.2,1.8
				c-0.4,0.2-0.9,0.2-1.5,0.2c-1.9,0-2.8-0.9-2.8-2.8v-4.4H675.1z"/>
			<path class="st3" d="M687.4,92.4c-0.2-0.1-0.5-0.1-0.7-0.1c-1.3,0-2.1,1.1-2.1,2.6v4.3h-2.2v-8.7h2.2v1.4
				c0.5-1.1,1.4-1.6,2.4-1.6c0.3,0,0.5,0,0.8,0.1L687.4,92.4z"/>
			<path class="st3" d="M694.6,99.2c-0.3-0.4-0.4-0.8-0.4-1.4c-0.6,1.1-1.6,1.6-2.9,1.6c-1.7,0-2.9-1.1-2.9-2.7
				c0-1.7,1.3-2.6,3.1-2.9l2.6-0.4v-0.3c0-0.9-0.5-1.3-1.6-1.3c-1,0-1.6,0.4-1.6,1c0,0.1,0,0.1,0,0.2l-2,0.7
				c-0.1-0.2-0.2-0.5-0.2-0.7c0-0.7,0.3-1.3,1-1.9c0.7-0.5,1.6-0.8,2.7-0.8c2.5,0,3.8,1.1,3.8,3.2V97c0,0.9,0.2,1.6,0.6,2.2H694.6z
				 M694.1,95.1V95l-2.1,0.4c-1,0.2-1.5,0.6-1.5,1.3c0,0.7,0.5,1.1,1.3,1.1C693.1,97.6,694.1,96.7,694.1,95.1z"/>
			<path class="st3" d="M706.7,99.2h-2.2v-5c0-1.2-0.6-1.9-1.8-1.9c-1.2,0-2,1-2,2.5v4.4h-2.2v-8.7h2.2v1.4c0.7-1.1,1.7-1.7,3-1.7
				c1.8,0,3.1,1.2,3.1,3V99.2z"/>
			<path class="st3" d="M712.6,93.9c2,0.4,2.9,1.2,2.9,2.7c0,1.7-1.3,2.9-3.4,2.9c-2,0-3.3-1.1-4-2.6l1.8-1.1
				c0.4,1.1,1.2,1.9,2.2,1.9c0.7,0,1.4-0.4,1.4-1c0-0.6-0.5-0.9-1.9-1.1c-2-0.4-3-1.3-3-2.7c0-0.8,0.3-1.4,0.9-1.9
				c0.6-0.4,1.4-0.7,2.3-0.7c1.8,0,2.9,0.7,3.6,2.2l-1.6,0.9c-0.4-1-1.1-1.5-2-1.5c-0.9,0-1.3,0.3-1.3,0.8
				C710.6,93.2,711.3,93.6,712.6,93.9z"/>
			<path class="st3" d="M717.3,99.2V86.9h2.2v12.3H717.3z"/>
			<path class="st3" d="M727.5,99.2c-0.3-0.4-0.4-0.8-0.4-1.4c-0.6,1.1-1.6,1.6-2.9,1.6c-1.7,0-2.9-1.1-2.9-2.7
				c0-1.7,1.3-2.6,3.1-2.9l2.6-0.4v-0.3c0-0.9-0.5-1.3-1.6-1.3c-1,0-1.6,0.4-1.6,1c0,0.1,0,0.1,0,0.2l-2,0.7
				c-0.1-0.2-0.2-0.5-0.2-0.7c0-0.7,0.3-1.3,1-1.9c0.7-0.5,1.6-0.8,2.7-0.8c2.5,0,3.8,1.1,3.8,3.2V97c0,0.9,0.2,1.6,0.6,2.2H727.5z
				 M727,95.1V95l-2.1,0.4c-1,0.2-1.5,0.6-1.5,1.3c0,0.7,0.5,1.1,1.3,1.1C726,97.6,727,96.7,727,95.1z"/>
			<path class="st3" d="M730.5,92.3v-1.8h1.4v-2.4h2.2v2.4h1.9v1.8H734v4c0,0.8,0.4,1.2,1.1,1.2c0.3,0,0.5,0,0.7-0.1l0.2,1.8
				c-0.4,0.2-0.9,0.2-1.5,0.2c-1.9,0-2.8-0.9-2.8-2.8v-4.4H730.5z"/>
			<path class="st3" d="M737.6,89.2v-2.3h2.4v2.3H737.6z M737.7,99.2v-8.7h2.2v8.7H737.7z"/>
			<path class="st3" d="M751.2,94.8c0,1.4-0.5,2.6-1.4,3.4c-0.9,0.8-2.1,1.2-3.4,1.2c-1.3,0-2.4-0.4-3.3-1.2
				c-0.9-0.8-1.4-1.9-1.4-3.4c0-1.4,0.5-2.6,1.4-3.4c0.9-0.8,2.1-1.2,3.3-1.2c1.3,0,2.4,0.4,3.4,1.2
				C750.7,92.3,751.2,93.4,751.2,94.8z M746.4,97.4c0.7,0,1.3-0.2,1.8-0.7c0.5-0.5,0.7-1.1,0.7-1.8s-0.2-1.4-0.7-1.8
				c-0.5-0.5-1.1-0.7-1.8-0.7c-0.7,0-1.3,0.2-1.8,0.7c-0.5,0.5-0.8,1.1-0.8,1.8s0.2,1.4,0.8,1.8C745.1,97.1,745.7,97.4,746.4,97.4z"
				/>
			<path class="st3" d="M761.1,99.2h-2.2v-5c0-1.2-0.6-1.9-1.8-1.9c-1.2,0-2,1-2,2.5v4.4h-2.2v-8.7h2.2v1.4c0.7-1.1,1.7-1.7,3-1.7
				c1.8,0,3.1,1.2,3.1,3V99.2z"/>
			<path class="st3" d="M767,93.9c2,0.4,2.9,1.2,2.9,2.7c0,1.7-1.3,2.9-3.4,2.9c-2,0-3.3-1.1-4-2.6l1.8-1.1c0.4,1.1,1.2,1.9,2.2,1.9
				c0.7,0,1.4-0.4,1.4-1c0-0.6-0.5-0.9-1.9-1.1c-2-0.4-3-1.3-3-2.7c0-0.8,0.3-1.4,0.9-1.9c0.6-0.4,1.4-0.7,2.3-0.7
				c1.8,0,2.9,0.7,3.6,2.2l-1.6,0.9c-0.4-1-1.1-1.5-2-1.5c-0.9,0-1.3,0.3-1.3,0.8C765,93.2,765.7,93.6,767,93.9z"/>
		</g>
		<g>
			<path class="st3" d="M1022.9,281.2c-1.4,2.2-2.8,3.2-5.4,3.2c-1.8,0-3.2-0.6-4.4-1.8c-1.2-1.2-1.7-2.7-1.7-4.6
				c0-1.8,0.6-3.4,1.8-4.6s2.7-1.8,4.4-1.8c2.4,0,4.4,1.3,5.3,3.2l-1.5,1.1c-0.9-1.7-2.1-2.5-3.8-2.5c-1.2,0-2.2,0.4-3,1.3
				c-0.8,0.9-1.2,2-1.2,3.3c0,1.3,0.4,2.4,1.2,3.3c0.8,0.9,1.8,1.3,3,1.3c1.7,0,3-0.8,3.9-2.5L1022.9,281.2z"/>
			<path class="st3" d="M1030.3,277.1c2.7,0.5,4,1.6,4,3.7c0,1-0.4,1.9-1.2,2.6s-1.9,1.1-3.3,1.1c-2.8,0-4.6-1.6-5-3.9l1.7-0.9
				c0.4,2.1,1.5,3.1,3.4,3.1c1.6,0,2.6-0.9,2.6-2c0-1.2-0.9-1.8-3.1-2.2c-2.4-0.5-4-1.7-4-3.6c0-1,0.4-1.8,1.2-2.4
				c0.8-0.6,1.8-0.9,3-0.9c2.2,0,3.9,1.1,4.6,3.1l-1.5,0.9c-0.5-1.5-1.5-2.3-3.1-2.3c-1.4,0-2.4,0.6-2.4,1.6
				C1027,276,1028.1,276.6,1030.3,277.1z"/>
			<path class="st3" d="M1047.9,278.1c0,1.8-0.6,3.4-1.8,4.6c-1.2,1.2-2.6,1.8-4.4,1.8c-1.7,0-3.2-0.6-4.4-1.8
				c-1.2-1.2-1.8-2.7-1.8-4.6c0-1.8,0.6-3.4,1.8-4.6c1.2-1.2,2.6-1.8,4.4-1.8c1.7,0,3.2,0.6,4.4,1.8
				C1047.3,274.7,1047.9,276.2,1047.9,278.1z M1041.8,282.7c1.2,0,2.2-0.4,3-1.3s1.2-2,1.2-3.4c0-1.4-0.4-2.5-1.2-3.4
				c-0.8-0.9-1.8-1.3-3-1.3c-1.2,0-2.2,0.4-3,1.3c-0.8,0.9-1.2,2-1.2,3.4c0,1.4,0.4,2.5,1.2,3.4S1040.6,282.7,1041.8,282.7z"/>
			<path class="st3" d="M1048.3,273.6v-1.7h9.5v1.7h-3.8v10.6h-1.9v-10.6H1048.3z"/>
			<path class="st3" d="M1071.8,273.5l-4.8,10.7h-1.9l4.7-10.6h-6.2v-1.7h8.1V273.5z"/>
			<path class="st3" d="M1071.5,284.2v-2h2v2H1071.5z"/>
			<path class="st3" d="M1085.7,278.1c0,1.9-0.5,3.4-1.5,4.6c-1,1.2-2.3,1.8-3.9,1.8c-1.6,0-2.9-0.6-3.9-1.8c-1-1.2-1.5-2.7-1.5-4.6
				c0-1.9,0.5-3.5,1.5-4.6c1-1.2,2.3-1.8,3.9-1.8c1.6,0,2.9,0.6,3.9,1.8C1085.2,274.6,1085.7,276.1,1085.7,278.1z M1080.2,282.7
				c1.1,0,1.9-0.4,2.6-1.3c0.6-0.8,1-2,1-3.4s-0.3-2.6-1-3.4c-0.7-0.8-1.5-1.2-2.6-1.2c-1.1,0-1.9,0.4-2.6,1.2c-0.7,0.8-1,2-1,3.4
				s0.3,2.6,1,3.4C1078.3,282.3,1079.2,282.7,1080.2,282.7z"/>
			<path class="st3" d="M1098.4,278.1c0,1.9-0.5,3.4-1.5,4.6c-1,1.2-2.3,1.8-3.9,1.8c-1.6,0-2.9-0.6-3.9-1.8c-1-1.2-1.5-2.7-1.5-4.6
				c0-1.9,0.5-3.5,1.5-4.6c1-1.2,2.3-1.8,3.9-1.8c1.6,0,2.9,0.6,3.9,1.8C1097.8,274.6,1098.4,276.1,1098.4,278.1z M1092.9,282.7
				c1.1,0,1.9-0.4,2.6-1.3c0.6-0.8,1-2,1-3.4s-0.3-2.6-1-3.4c-0.7-0.8-1.5-1.2-2.6-1.2c-1.1,0-1.9,0.4-2.6,1.2c-0.7,0.8-1,2-1,3.4
				s0.3,2.6,1,3.4C1091,282.3,1091.8,282.7,1092.9,282.7z"/>
			<path class="st3" d="M1099.8,282.9l4.7-4.6c1.1-1.1,1.6-1.9,1.6-2.9c0-1.2-0.9-2-2.2-2c-1.3,0-2.2,0.8-2.2,2.1
				c0,0.3,0.1,0.5,0.1,0.8l-1.8,0.3c-0.1-0.4-0.2-0.8-0.2-1.3c0-1,0.4-1.8,1.1-2.5c0.8-0.7,1.7-1.1,2.9-1.1c1.2,0,2.2,0.3,2.9,1
				c0.7,0.7,1.1,1.5,1.1,2.5c0,0.8-0.2,1.5-0.5,2.1c-0.3,0.6-0.9,1.4-1.7,2.1l-3.1,3.1h5.3v1.7h-8.2V282.9z"/>
		</g>
		<g>
			<path class="st3" d="M1223.4,281.2c-1.4,2.2-2.8,3.2-5.4,3.2c-1.8,0-3.2-0.6-4.4-1.8c-1.2-1.2-1.7-2.7-1.7-4.6
				c0-1.8,0.6-3.4,1.8-4.6c1.2-1.2,2.7-1.8,4.4-1.8c2.4,0,4.4,1.3,5.3,3.2l-1.5,1.1c-0.9-1.7-2.1-2.5-3.8-2.5c-1.2,0-2.2,0.4-3,1.3
				c-0.8,0.9-1.2,2-1.2,3.3c0,1.3,0.4,2.4,1.2,3.3s1.8,1.3,3,1.3c1.7,0,3-0.8,3.9-2.5L1223.4,281.2z"/>
			<path class="st3" d="M1230.8,277.1c2.7,0.5,4,1.6,4,3.7c0,1-0.4,1.9-1.2,2.6c-0.8,0.7-1.9,1.1-3.3,1.1c-2.8,0-4.6-1.6-5-3.9
				l1.7-0.9c0.4,2.1,1.5,3.1,3.4,3.1c1.6,0,2.6-0.9,2.6-2c0-1.2-0.9-1.8-3.1-2.2c-2.4-0.5-4-1.7-4-3.6c0-1,0.4-1.8,1.2-2.4
				c0.8-0.6,1.8-0.9,3-0.9c2.2,0,3.9,1.1,4.6,3.1l-1.5,0.9c-0.5-1.5-1.5-2.3-3.1-2.3c-1.4,0-2.4,0.6-2.4,1.6
				C1227.6,276,1228.6,276.6,1230.8,277.1z"/>
			<path class="st3" d="M1248.4,278.1c0,1.8-0.6,3.4-1.8,4.6c-1.2,1.2-2.6,1.8-4.4,1.8c-1.7,0-3.2-0.6-4.4-1.8
				c-1.2-1.2-1.8-2.7-1.8-4.6c0-1.8,0.6-3.4,1.8-4.6c1.2-1.2,2.6-1.8,4.4-1.8c1.7,0,3.2,0.6,4.4,1.8
				C1247.9,274.7,1248.4,276.2,1248.4,278.1z M1242.3,282.7c1.2,0,2.2-0.4,3-1.3s1.2-2,1.2-3.4c0-1.4-0.4-2.5-1.2-3.4
				c-0.8-0.9-1.8-1.3-3-1.3c-1.2,0-2.2,0.4-3,1.3c-0.8,0.9-1.2,2-1.2,3.4c0,1.4,0.4,2.5,1.2,3.4
				C1240.1,282.3,1241.1,282.7,1242.3,282.7z"/>
			<path class="st3" d="M1248.8,273.6v-1.7h9.5v1.7h-3.8v10.6h-1.9v-10.6H1248.8z"/>
			<path class="st3" d="M1264.5,278.6l0.6-6.7h7.3v1.7h-5.9l-0.3,3.5c0.7-0.8,1.8-1.3,2.9-1.3c2.7,0,4.2,1.7,4.2,4.2
				c0,1.3-0.4,2.3-1.2,3.2c-0.8,0.8-2,1.2-3.3,1.2c-1.3,0-2.3-0.3-3.1-1c-0.8-0.7-1.2-1.5-1.2-2.4c0-0.3,0.1-0.6,0.2-0.9l1.7,0.4
				c-0.1,0.2-0.1,0.4-0.1,0.5c0,1.1,1,1.7,2.4,1.7c1.6,0,2.7-1.1,2.7-2.8c0-1.7-1-2.7-2.6-2.7c-1.1,0-2.2,0.7-2.7,1.7L1264.5,278.6z
				"/>
			<path class="st3" d="M1274.7,284.2v-2h2v2H1274.7z"/>
			<path class="st3" d="M1278.3,282.9l4.7-4.6c1.1-1.1,1.6-1.9,1.6-2.9c0-1.2-0.9-2-2.2-2c-1.3,0-2.2,0.8-2.2,2.1
				c0,0.3,0.1,0.5,0.1,0.8l-1.8,0.3c-0.1-0.4-0.2-0.8-0.2-1.3c0-1,0.4-1.8,1.1-2.5c0.8-0.7,1.7-1.1,2.9-1.1c1.2,0,2.2,0.3,2.9,1
				c0.7,0.7,1.1,1.5,1.1,2.5c0,0.8-0.2,1.5-0.5,2.1c-0.3,0.6-0.9,1.4-1.7,2.1l-3.1,3.1h5.3v1.7h-8.2V282.9z"/>
			<path class="st3" d="M1299,278.1c0,1.9-0.5,3.4-1.5,4.6c-1,1.2-2.3,1.8-3.9,1.8c-1.6,0-2.9-0.6-3.9-1.8c-1-1.2-1.5-2.7-1.5-4.6
				c0-1.9,0.5-3.5,1.5-4.6c1-1.2,2.3-1.8,3.9-1.8c1.6,0,2.9,0.6,3.9,1.8C1298.5,274.6,1299,276.1,1299,278.1z M1293.5,282.7
				c1.1,0,1.9-0.4,2.6-1.3c0.6-0.8,1-2,1-3.4s-0.3-2.6-1-3.4c-0.7-0.8-1.5-1.2-2.6-1.2s-1.9,0.4-2.6,1.2c-0.7,0.8-1,2-1,3.4
				s0.3,2.6,1,3.4C1291.6,282.3,1292.5,282.7,1293.5,282.7z"/>
			<path class="st3" d="M1307.9,273.5l-4.8,10.7h-1.9l4.7-10.6h-6.2v-1.7h8.1V273.5z"/>
		</g>
		<g>
			<path class="st3" d="M1012.1,25.4V13.1h1.6l5.9,9.3c0.3,0.5,0.5,0.8,0.5,1V13.1h1.4v12.3h-1.6l-5.9-9.3c-0.3-0.5-0.5-0.8-0.5-1
				v10.2H1012.1z"/>
			<path class="st3" d="M1024.3,22.4v-5.7h1.4v5.7c0,0.7,0.2,1.2,0.6,1.5c0.4,0.4,0.9,0.5,1.5,0.5c0.7,0,1.3-0.3,1.8-0.8
				c0.5-0.5,0.7-1.2,0.7-2.1v-4.9h1.4v8.7h-1.4v-1.5c-0.6,1.2-1.6,1.8-2.9,1.8c-0.9,0-1.6-0.3-2.2-0.8
				C1024.6,24.3,1024.3,23.5,1024.3,22.4z"/>
			<path class="st3" d="M1045.9,18.8v6.6h-1.4v-6.1c0-0.5-0.1-0.9-0.4-1.2c-0.3-0.3-0.7-0.4-1.2-0.4c-0.6,0-1.1,0.2-1.5,0.7
				c-0.4,0.5-0.6,1.3-0.6,2.3v4.7h-1.4v-6c0-0.6-0.1-1-0.4-1.3c-0.3-0.3-0.7-0.5-1.2-0.5c-0.6,0-1.1,0.3-1.6,0.8
				c-0.4,0.5-0.6,1.3-0.6,2.3v4.7h-1.4v-8.7h1.4v1.4c0.2-0.5,0.6-0.8,1-1.2c0.5-0.3,1-0.5,1.6-0.5c0.6,0,1.1,0.1,1.5,0.4
				c0.4,0.3,0.7,0.7,0.9,1.2c0.6-1.1,1.5-1.7,2.8-1.7c0.8,0,1.4,0.2,1.9,0.6C1045.7,17.5,1045.9,18.1,1045.9,18.8z"/>
			<path class="st3" d="M1048.4,25.4V13.1h1.4v5.2c0.3-0.6,0.8-1,1.3-1.3c0.6-0.3,1.2-0.5,1.9-0.5c1.1,0,2.1,0.4,2.9,1.3
				c0.8,0.9,1.2,2,1.2,3.3s-0.4,2.4-1.2,3.3c-0.8,0.9-1.8,1.3-3,1.3c-0.7,0-1.3-0.2-1.8-0.5c-0.5-0.3-1-0.8-1.2-1.3v1.6H1048.4z
				 M1050.5,23.4c0.6,0.6,1.3,0.9,2.1,0.9c0.8,0,1.5-0.3,2.1-0.9c0.6-0.6,0.9-1.4,0.9-2.4c0-1-0.3-1.8-0.9-2.4
				c-0.6-0.6-1.3-0.9-2.1-0.9c-0.8,0-1.5,0.3-2.1,0.9c-0.6,0.6-0.8,1.4-0.8,2.4C1049.7,22,1049.9,22.8,1050.5,23.4z"/>
			<path class="st3" d="M1067,21.3h-7.2c0,0.9,0.3,1.7,0.9,2.3c0.5,0.6,1.2,0.9,2.1,0.9c0.7,0,1.3-0.2,1.8-0.5
				c0.5-0.3,0.8-0.8,1.2-1.5l1,0.6c-0.9,1.7-2.2,2.5-4,2.5c-1.2,0-2.2-0.4-3.1-1.3c-0.8-0.9-1.3-2-1.3-3.3s0.4-2.4,1.3-3.3
				c0.8-0.9,1.9-1.3,3.1-1.3c1.3,0,2.3,0.4,3.1,1.2c0.8,0.8,1.1,1.9,1.1,3.1V21.3z M1062.8,17.6c-0.8,0-1.4,0.2-1.9,0.7
				c-0.5,0.5-0.8,1.1-1,1.9h5.7c0-0.8-0.4-1.4-0.9-1.9C1064.2,17.8,1063.5,17.6,1062.8,17.6z"/>
			<path class="st3" d="M1073.6,16.5l-0.2,1.3c-0.2-0.1-0.4-0.1-0.7-0.1c-0.6,0-1.1,0.3-1.6,0.8c-0.4,0.5-0.6,1.3-0.6,2.1v4.8h-1.4
				v-8.7h1.4v1.6c0.6-1.2,1.4-1.8,2.5-1.8C1073.2,16.4,1073.4,16.4,1073.6,16.5z"/>
			<path class="st3" d="M1076.2,18.7c0,0.4,0.2,0.7,0.6,1c0.4,0.2,1,0.4,1.7,0.6c2,0.4,2.9,1.2,2.9,2.6c0,0.8-0.3,1.4-0.9,2
				c-0.6,0.5-1.4,0.8-2.4,0.8c-0.9,0-1.7-0.2-2.3-0.7c-0.6-0.5-1.1-1.1-1.4-1.8l1.1-0.7c0.5,1.4,1.4,2,2.6,2c0.6,0,1.1-0.1,1.4-0.4
				c0.3-0.3,0.5-0.7,0.5-1.1c0-0.4-0.2-0.8-0.5-1c-0.4-0.2-0.9-0.4-1.7-0.6c-0.9-0.2-1.6-0.5-2.1-0.9c-0.5-0.4-0.8-1-0.8-1.7
				c0-0.7,0.3-1.3,0.9-1.7c0.6-0.4,1.3-0.6,2.1-0.6c1.7,0,2.8,0.7,3.4,2.1l-1.1,0.6c-0.4-1-1.2-1.6-2.3-1.6c-0.5,0-0.9,0.1-1.3,0.3
				C1076.4,18.1,1076.2,18.3,1076.2,18.7z"/>
		</g>
		<g>
			<path class="st3" d="M1211.4,14.4v-1.3h9.1v1.3h-3.8v11h-1.5v-11H1211.4z"/>
			<path class="st3" d="M1228.1,18.5c0.5,0.7,0.7,1.5,0.7,2.5c0,0.9-0.2,1.8-0.7,2.5c-0.5,0.7-1,1.2-1.7,1.6
				c-0.7,0.3-1.4,0.5-2.1,0.5c-0.7,0-1.5-0.2-2.1-0.5c-0.7-0.3-1.3-0.9-1.7-1.6c-0.5-0.7-0.7-1.5-0.7-2.5c0-0.9,0.2-1.8,0.7-2.5
				c0.5-0.7,1-1.2,1.7-1.6c0.7-0.3,1.4-0.5,2.1-0.5c0.7,0,1.5,0.2,2.1,0.5C1227,17.3,1227.6,17.8,1228.1,18.5z M1222,23.4
				c0.6,0.6,1.3,1,2.2,1c0.9,0,1.6-0.3,2.2-1c0.6-0.6,0.9-1.4,0.9-2.4c0-1-0.3-1.8-0.9-2.4c-0.6-0.6-1.4-1-2.2-1
				c-0.9,0-1.6,0.3-2.2,1c-0.6,0.6-0.9,1.4-0.9,2.4C1221.1,22,1221.4,22.8,1222,23.4z"/>
			<path class="st3" d="M1229.7,17.8v-1.1h1.5v-2.4h1.4v2.4h2v1.1h-2V23c0,0.5,0.1,0.9,0.2,1.1c0.2,0.2,0.5,0.3,1,0.3
				c0.2,0,0.4,0,0.7-0.1l0.1,1.1c-0.3,0.1-0.7,0.2-1.2,0.2c-0.6,0-1.2-0.2-1.6-0.6c-0.4-0.4-0.6-1-0.6-1.8v-5.5H1229.7z"/>
			<path class="st3" d="M1243.7,25.4h-1.4c-0.4-0.4-0.5-1-0.5-1.7c-0.3,0.6-0.7,1.1-1.2,1.5c-0.5,0.3-1.1,0.5-1.8,0.5
				c-0.9,0-1.6-0.2-2.1-0.7c-0.5-0.5-0.8-1.1-0.8-1.9c0-0.8,0.3-1.4,0.8-1.9c0.6-0.5,1.3-0.8,2.2-0.9l2.9-0.5v-0.4
				c0-1.1-0.7-1.7-2.1-1.7c-0.7,0-1.2,0.1-1.5,0.4c-0.4,0.3-0.5,0.6-0.5,1c0,0.1,0,0.2,0,0.3l-1.2,0.4c-0.1-0.2-0.1-0.5-0.1-0.7
				c0-0.7,0.3-1.3,0.9-1.7c0.6-0.5,1.4-0.7,2.4-0.7c1.1,0,2,0.2,2.6,0.7c0.6,0.5,0.9,1.2,0.9,2.1v3.9c0,0.5,0,0.9,0.1,1.2
				C1243.4,24.7,1243.5,25,1243.7,25.4z M1239,24.4c0.9,0,1.6-0.3,2.1-1c0.5-0.7,0.7-1.5,0.7-2.4v-0.3l-2.7,0.5
				c-0.6,0.1-1.1,0.3-1.4,0.6c-0.3,0.3-0.5,0.7-0.5,1.1c0,0.5,0.2,0.8,0.5,1.1C1238.1,24.3,1238.5,24.4,1239,24.4z"/>
			<path class="st3" d="M1245.6,25.4V13.1h1.4v12.3H1245.6z"/>
		</g>
		<g>
			<path class="st3" d="M1063.4,146.6l1-11.5h12.7v3h-10.2l-0.6,6c1.2-1.4,3.1-2.2,4.9-2.2c4.6,0,7.2,2.9,7.2,7.3
				c0,2.2-0.7,4-2.2,5.5c-1.5,1.4-3.4,2.2-5.7,2.2c-2.2,0-4-0.6-5.3-1.7c-1.3-1.1-2-2.5-2-4.2c0-0.5,0.1-1.1,0.3-1.6l3,0.7
				c-0.1,0.3-0.1,0.6-0.1,0.9c0,1.9,1.7,3,4.1,3c2.8,0,4.6-1.8,4.6-4.8s-1.8-4.7-4.5-4.7c-1.9,0-3.7,1.2-4.7,2.9L1063.4,146.6z"/>
			<path class="st3" d="M1081,154.1l8.2-8c2-1.9,2.7-3.3,2.7-5c0-2.2-1.5-3.5-3.8-3.5c-2.2,0-3.8,1.4-3.8,3.6c0,0.5,0.1,0.9,0.2,1.4
				l-3,0.5c-0.2-0.6-0.4-1.4-0.4-2.2c0-1.7,0.7-3.1,2-4.3c1.3-1.2,3-1.9,5-1.9c2.2,0,3.8,0.5,5.1,1.7c1.2,1.1,1.9,2.5,1.9,4.3
				c0,1.4-0.3,2.6-0.8,3.7c-0.5,1.1-1.5,2.3-2.9,3.7l-5.4,5.3h9.2v3H1081V154.1z"/>
			<path class="st3" d="M1098.7,140c0-1.5,0.5-2.8,1.5-3.8c1-1,2.2-1.5,3.7-1.5c1.5,0,2.8,0.5,3.8,1.5c1,1,1.5,2.3,1.5,3.8
				c0,1.5-0.5,2.8-1.5,3.8c-1,1-2.2,1.5-3.8,1.5c-1.5,0-2.8-0.5-3.7-1.5C1099.2,142.8,1098.7,141.6,1098.7,140z M1101.1,140
				c0,0.9,0.3,1.6,0.8,2.2c0.5,0.6,1.2,0.8,2,0.8c0.9,0,1.5-0.3,2.1-0.8c0.5-0.6,0.8-1.3,0.8-2.2c0-0.9-0.2-1.6-0.8-2.2
				c-0.5-0.6-1.2-0.8-2.1-0.8c-0.8,0-1.5,0.3-2,0.8C1101.4,138.4,1101.1,139.1,1101.1,140z M1104.9,156.5l-1.9-1.3l13.2-20.2
				l1.9,1.3L1104.9,156.5z M1112.1,151.5c0-1.5,0.5-2.8,1.5-3.8c1-1,2.2-1.5,3.7-1.5s2.8,0.5,3.8,1.5c1,1,1.5,2.3,1.5,3.8
				s-0.5,2.8-1.5,3.8c-1,1-2.2,1.5-3.8,1.5s-2.8-0.5-3.7-1.5C1112.6,154.3,1112.1,153,1112.1,151.5z M1114.5,151.5
				c0,0.9,0.3,1.6,0.8,2.2c0.5,0.6,1.2,0.9,2,0.9c0.8,0,1.5-0.3,2.1-0.9c0.5-0.6,0.8-1.3,0.8-2.2s-0.2-1.6-0.8-2.2
				c-0.5-0.6-1.2-0.8-2.1-0.8c-0.8,0-1.5,0.3-2,0.8C1114.7,149.9,1114.5,150.6,1114.5,151.5z"/>
		</g>
		<g>
			<path class="st3" d="M862.8,152.5v-3l10.4-14.4h3.3v14.4h2.3v3h-2.3v3.9h-3.3v-3.9H862.8z M873.2,139.9l-7,9.7h7V139.9z"/>
			<path class="st3" d="M881.5,146.6l1-11.5h12.7v3h-10.2l-0.6,6c1.2-1.4,3.1-2.2,4.9-2.2c4.6,0,7.2,2.9,7.2,7.3
				c0,2.2-0.7,4-2.2,5.5c-1.5,1.4-3.4,2.2-5.7,2.2c-2.2,0-4-0.6-5.3-1.7c-1.3-1.1-2-2.5-2-4.2c0-0.5,0.1-1.1,0.3-1.6l3,0.7
				c-0.1,0.3-0.1,0.6-0.1,0.9c0,1.9,1.7,3,4.1,3c2.8,0,4.6-1.8,4.6-4.8s-1.8-4.7-4.5-4.7c-1.9,0-3.7,1.2-4.7,2.9L881.5,146.6z"/>
			<path class="st3" d="M899.5,140c0-1.5,0.5-2.8,1.5-3.8c1-1,2.2-1.5,3.7-1.5c1.5,0,2.8,0.5,3.8,1.5c1,1,1.5,2.3,1.5,3.8
				c0,1.5-0.5,2.8-1.5,3.8c-1,1-2.2,1.5-3.8,1.5c-1.5,0-2.8-0.5-3.7-1.5C900,142.8,899.5,141.6,899.5,140z M901.9,140
				c0,0.9,0.3,1.6,0.8,2.2c0.5,0.6,1.2,0.8,2,0.8c0.9,0,1.5-0.3,2.1-0.8c0.5-0.6,0.8-1.3,0.8-2.2c0-0.9-0.2-1.6-0.8-2.2
				c-0.5-0.6-1.2-0.8-2.1-0.8c-0.8,0-1.5,0.3-2,0.8C902.2,138.4,901.9,139.1,901.9,140z M905.8,156.5l-1.9-1.3l13.2-20.2l1.9,1.3
				L905.8,156.5z M912.9,151.5c0-1.5,0.5-2.8,1.5-3.8c1-1,2.2-1.5,3.7-1.5s2.8,0.5,3.8,1.5c1,1,1.5,2.3,1.5,3.8s-0.5,2.8-1.5,3.8
				c-1,1-2.2,1.5-3.8,1.5s-2.8-0.5-3.7-1.5C913.4,154.3,912.9,153,912.9,151.5z M915.3,151.5c0,0.9,0.3,1.6,0.8,2.2
				c0.5,0.6,1.2,0.9,2,0.9s1.5-0.3,2.1-0.9c0.5-0.6,0.8-1.3,0.8-2.2s-0.2-1.6-0.8-2.2c-0.5-0.6-1.2-0.8-2.1-0.8s-1.5,0.3-2,0.8
				C915.6,149.9,915.3,150.6,915.3,151.5z"/>
		</g>
		<g>
			<path class="st3" d="M1267.7,149.4c-0.1,0.4-0.1,0.7-0.1,1c0,2,1.8,3.6,4.2,3.6c2.6,0,4.2-1.4,4.2-3.9c0-2.6-2.3-3.9-5.7-3.9
				v-2.5c3.2,0,4.8-1.4,4.8-3.5c0-1.7-1.4-2.9-3.5-2.9c-1.9,0-3.5,1.2-3.5,3c0,0.3,0.1,0.6,0.2,0.9l-3,0.6c-0.2-0.5-0.3-1-0.3-1.5
				c0-1.6,0.6-2.9,1.8-4s2.8-1.6,4.8-1.6c4.2,0,6.6,2.2,6.6,5.2c0,2.1-1.3,4.1-3.3,4.8c2.5,0.7,4.3,2.6,4.3,5.3
				c0,2.1-0.7,3.7-2.1,4.9c-1.4,1.2-3.2,1.9-5.4,1.9c-2.3,0-4.1-0.6-5.4-1.9c-1.4-1.2-2-2.7-2-4.4c0-0.7,0.1-1.3,0.3-1.8
				L1267.7,149.4z"/>
			<path class="st3" d="M1285.8,149.4c-0.1,0.4-0.1,0.7-0.1,1c0,2,1.8,3.6,4.2,3.6c2.6,0,4.2-1.4,4.2-3.9c0-2.6-2.3-3.9-5.7-3.9
				v-2.5c3.2,0,4.8-1.4,4.8-3.5c0-1.7-1.4-2.9-3.5-2.9c-1.9,0-3.5,1.2-3.5,3c0,0.3,0.1,0.6,0.2,0.9l-3,0.6c-0.2-0.5-0.3-1-0.3-1.5
				c0-1.6,0.6-2.9,1.8-4s2.8-1.6,4.8-1.6c4.2,0,6.6,2.2,6.6,5.2c0,2.1-1.3,4.1-3.3,4.8c2.5,0.7,4.3,2.6,4.3,5.3
				c0,2.1-0.7,3.7-2.1,4.9c-1.4,1.2-3.2,1.9-5.4,1.9c-2.3,0-4.1-0.6-5.4-1.9c-1.4-1.2-2-2.7-2-4.4c0-0.7,0.1-1.3,0.3-1.8
				L1285.8,149.4z"/>
			<path class="st3" d="M1300.3,140c0-1.5,0.5-2.8,1.5-3.8c1-1,2.2-1.5,3.7-1.5c1.5,0,2.8,0.5,3.8,1.5c1,1,1.5,2.3,1.5,3.8
				c0,1.5-0.5,2.8-1.5,3.8c-1,1-2.2,1.5-3.8,1.5c-1.5,0-2.8-0.5-3.7-1.5C1300.8,142.8,1300.3,141.6,1300.3,140z M1302.7,140
				c0,0.9,0.3,1.6,0.8,2.2c0.5,0.6,1.2,0.8,2,0.8c0.9,0,1.5-0.3,2.1-0.8c0.5-0.6,0.8-1.3,0.8-2.2c0-0.9-0.2-1.6-0.8-2.2
				c-0.5-0.6-1.2-0.8-2.1-0.8c-0.8,0-1.5,0.3-2,0.8C1303,138.4,1302.7,139.1,1302.7,140z M1306.6,156.5l-1.9-1.3l13.2-20.2l1.9,1.3
				L1306.6,156.5z M1313.7,151.5c0-1.5,0.5-2.8,1.5-3.8c1-1,2.2-1.5,3.7-1.5s2.8,0.5,3.8,1.5c1,1,1.5,2.3,1.5,3.8s-0.5,2.8-1.5,3.8
				c-1,1-2.2,1.5-3.8,1.5s-2.8-0.5-3.7-1.5C1314.2,154.3,1313.7,153,1313.7,151.5z M1316.1,151.5c0,0.9,0.3,1.6,0.8,2.2
				c0.5,0.6,1.2,0.9,2,0.9c0.8,0,1.5-0.3,2.1-0.9c0.5-0.6,0.8-1.3,0.8-2.2s-0.2-1.6-0.8-2.2c-0.5-0.6-1.2-0.8-2.1-0.8
				c-0.8,0-1.5,0.3-2,0.8C1316.4,149.9,1316.1,150.6,1316.1,151.5z"/>
		</g>
		<line class="st8" x1="575.2" y1="41.5" x2="1374" y2="41.5"/>
		<line class="st8" x1="810.8" y1="251.6" x2="972.2" y2="251.6"/>
		<line class="st8" x1="1011.3" y1="251.6" x2="1172.7" y2="251.6"/>
		<line class="st8" x1="1212.6" y1="251.6" x2="1374" y2="251.6"/>
	</g>
</g>
</svg>
