<?xml version="1.0" encoding="utf-8"?>
<!-- Generator: Adobe Illustrator 22.0.0, SVG Export Plug-In . SVG Version: 6.00 Build 0)  -->
<svg version="1.1" id="Layer_1" xmlns="http://www.w3.org/2000/svg" xmlns:xlink="http://www.w3.org/1999/xlink" x="0px" y="0px"
	 viewBox="0 0 1373.6 552.7" style="enable-background:new 0 0 1373.6 552.7;" xml:space="preserve">
<style type="text/css">
	.st0{fill:#F7B6B6;}
	.st1{fill:#F28585;}
	.st2{fill:#E50A0A;}
	.st3{fill:none;stroke:#E50A0A;stroke-width:7;stroke-linecap:round;stroke-miterlimit:10;}
	.st4{fill:none;stroke:#F28585;stroke-width:7;stroke-linecap:round;stroke-miterlimit:10;}
	.st5{fill:none;stroke:#F7B6B6;stroke-width:7;stroke-linecap:round;stroke-miterlimit:10;}
	.st6{fill:#ED5454;}
	.st7{fill:#FCDFDF;}
	.st8{fill:none;stroke:#E50A0A;stroke-width:2;stroke-miterlimit:10;}
	.st9{fill:#071216;}
</style>
<g>
	<g>
		<path class="st0" d="M0,80c0,44.2,35.8,80,80,80s80-35.8,80-80H0z"/>
		<path class="st1" d="M0,80h80V0C35.8,0,0,35.8,0,80z"/>
		<path class="st2" d="M80,0v80h80C160,35.8,124.2,0,80,0z"/>
	</g>
	<g>
		<polygon class="st2" points="344.9,0 264.9,0 264.9,160 344.9,160 344.9,80 		"/>
		<rect x="344.9" y="0" class="st0" width="80" height="80"/>
		<rect x="344.9" y="80" class="st1" width="80" height="80"/>
	</g>
	<g>
		<rect x="532.8" y="113" class="st1" width="184" height="24"/>
		<rect x="532.8" y="68" class="st2" width="214" height="24"/>
		<rect x="532.8" y="23" class="st0" width="128" height="24"/>
	</g>
	<g>
		
			<rect x="925.8" y="79.2" transform="matrix(6.123234e-17 -1 1 6.123234e-17 903.41 1085.84)" class="st1" width="137.6" height="24"/>
		
			<rect x="869.6" y="68" transform="matrix(6.123234e-17 -1 1 6.123234e-17 869.625 1029.625)" class="st2" width="160" height="24"/>
		
			<rect x="856.8" y="100.1" transform="matrix(6.123234e-17 -1 1 6.123234e-17 792.4755 1016.7745)" class="st0" width="95.7" height="24"/>
	</g>
	<g>
		<polyline class="st3" points="542.8,466.9 625.8,421.9 657.8,431.9 729.8,364.9 		"/>
		<polyline class="st4" points="542.8,434.9 623.8,452.9 733.8,431.9 		"/>
		<polyline class="st5" points="542.8,482.9 611.8,467.9 640.8,436.9 682.8,454.9 736.8,406.9 		"/>
	</g>
	<g>
		<path class="st2" d="M1285.7,44.1c9.2,9.2,14.8,21.9,14.8,35.9c0,28.2-22.8,51-51,51c-14,0-26.7-5.7-35.9-14.8l-20.5,20.5
			c14.5,14.4,34.4,23.3,56.4,23.3c44.2,0,80-35.8,80-80c0-22-8.9-42-23.3-56.4L1285.7,44.1z"/>
		<path class="st1" d="M1198.5,80h-29c0,22.2,9,42.2,23.6,56.7l20.5-20.5C1204.3,106.9,1198.5,94.1,1198.5,80z"/>
		<path class="st0" d="M1249.5,29c14.1,0,26.9,5.8,36.2,15.1l20.5-20.5C1291.7,9,1271.7,0,1249.5,0c-0.2,0-0.3,0-0.5,0v29
			C1249.2,29,1249.3,29,1249.5,29z"/>
		<path class="st6" d="M1249,29V0c-44,0.3-79.5,36-79.5,80h29C1198.5,52,1221.1,29.3,1249,29z"/>
	</g>
	<g>
		<line class="st3" x1="892.6" y1="423.6" x2="937.6" y2="423.6"/>
		<line class="st4" x1="1034.6" y1="423.6" x2="1087.6" y2="423.6"/>
		<circle class="st4" cx="1005.6" cy="423.9" r="28.5"/>
		<circle class="st5" cx="966.1" cy="423.9" r="28.5"/>
		<circle class="st2" cx="852.1" cy="423.9" r="40.5"/>
	</g>
	<g>
		<circle class="st2" cx="51.5" cy="449.9" r="48.5"/>
		<circle class="st0" cx="118" cy="380.4" r="31"/>
		<circle class="st1" cx="137.5" cy="449.9" r="19.5"/>
	</g>
	<g>
		<polygon class="st0" points="380.9,411.4 396.9,429.7 442.4,441.9 442.4,369.2 391.4,364.4 330.4,411.9 364.5,421 		"/>
		<polygon class="st0" points="278.9,441.4 299.4,418.2 278.4,409.4 247.4,423.9 247.4,438 		"/>
		<polygon class="st2" points="330.4,411.9 309.9,406.4 299.4,418.2 278.9,441.4 247.4,438 247.4,458.7 334.9,438.4 364.5,421 		"/>
		<polygon class="st2" points="396.9,429.7 442.4,481.7 442.4,441.9 		"/>
		<polygon class="st1" points="396.9,429.7 380.9,411.4 364.5,421 334.9,438.4 247.4,458.7 247.4,483.4 442.4,483.4 442.4,481.7 		
			"/>
	</g>
	<g>
		<g>
			<rect x="1150.4" y="426.2" class="st7" width="24.3" height="30.1"/>
			<rect x="1219.9" y="426.2" class="st7" width="24.3" height="77.7"/>
			<rect x="1324.3" y="426.2" class="st7" width="24.3" height="46.4"/>
		</g>
		<g>
			<rect x="1289.5" y="367.1" class="st1" width="24.3" height="59.1"/>
			<rect x="1254.7" y="343.9" class="st2" width="24.3" height="82.3"/>
			<rect x="1185.2" y="378.7" class="st0" width="24.3" height="47.5"/>
		</g>
		<line class="st8" x1="1125.4" y1="426.2" x2="1373.6" y2="426.2"/>
	</g>
	<g>
		<path class="st9" d="M50.6,205.6v-10.5H55c1.1,0,2,0.3,2.7,0.9c0.6,0.6,1,1.4,1,2.4c0,1-0.3,1.8-1,2.4c-0.7,0.6-1.5,0.9-2.7,0.9
			h-3.1v4H50.6z M51.9,196.2v4.3H55c1.5,0,2.4-0.7,2.4-2.2c0-1.4-0.9-2.2-2.4-2.2H51.9z"/>
		<path class="st9" d="M60.5,196.9v-1.5h1.4v1.5H60.5z M60.6,205.6v-7.4h1.2v7.4H60.6z"/>
		<path class="st9" d="M70.7,202.1h-6.1c0.1,1.6,1.1,2.7,2.6,2.7c1.3,0,2-0.6,2.5-1.7l0.9,0.5c-0.7,1.5-1.9,2.2-3.4,2.2
			c-1,0-1.9-0.4-2.6-1.1c-0.7-0.7-1.1-1.7-1.1-2.8s0.4-2.1,1.1-2.8c0.7-0.7,1.6-1.1,2.7-1.1c1.1,0,2,0.3,2.6,1s1,1.6,1,2.7V202.1z
			 M64.7,201.2h4.9c0-0.7-0.3-1.2-0.8-1.6c-0.5-0.4-1-0.6-1.6-0.6C65.8,199,64.9,199.8,64.7,201.2z"/>
		<path class="st9" d="M83.3,203.7c-0.7,1.4-1.8,2.1-3.3,2.1c-1.1,0-2-0.4-2.7-1.1c-0.7-0.7-1.1-1.7-1.1-2.8c0-1.1,0.4-2.1,1.1-2.8
			c0.7-0.7,1.6-1.1,2.7-1.1c1.6,0,2.8,0.8,3.3,2l-0.9,0.6c-0.5-1-1.3-1.6-2.4-1.6c-0.8,0-1.4,0.3-1.9,0.8c-0.5,0.5-0.8,1.2-0.8,2.1
			c0,1.7,1.1,2.9,2.7,2.9c1.2,0,1.9-0.6,2.5-1.6L83.3,203.7z"/>
		<path class="st9" d="M91.3,205.6h-1.2v-4.8c0-1.1-0.7-1.8-1.8-1.8c-0.6,0-1.1,0.2-1.6,0.7c-0.4,0.5-0.7,1.1-0.7,1.8v4.1h-1.2
			v-10.5h1.2v4.4c0.5-0.9,1.5-1.5,2.5-1.5c0.8,0,1.4,0.2,1.9,0.7c0.5,0.5,0.8,1.1,0.8,2V205.6z"/>
		<path class="st9" d="M98.5,205.6c-0.3-0.4-0.4-0.9-0.4-1.5c-0.5,1.1-1.4,1.7-2.5,1.7c-1.5,0-2.5-0.9-2.5-2.3
			c0-1.4,1.1-2.2,2.6-2.4l2.5-0.4v-0.3c0-1-0.6-1.4-1.8-1.4c-1.1,0-1.8,0.5-1.8,1.2c0,0.1,0,0.1,0,0.2l-1,0.3
			c-0.1-0.2-0.1-0.4-0.1-0.6c0-0.6,0.3-1.1,0.8-1.5c0.5-0.4,1.2-0.6,2.1-0.6c1.9,0,2.9,0.9,2.9,2.4v3.4c0,0.9,0.1,1.3,0.4,1.9H98.5z
			 M97.4,203.9c0.4-0.6,0.6-1.2,0.6-2v-0.2l-2.3,0.4c-1,0.2-1.6,0.7-1.6,1.5c0,0.8,0.6,1.3,1.4,1.3C96.4,204.8,97,204.5,97.4,203.9z
			"/>
		<path class="st9" d="M105,199.2c-0.2-0.1-0.4-0.1-0.6-0.1c-1.1,0-1.9,1-1.9,2.5v4.1h-1.2v-7.4h1.2v1.4c0.5-1,1.2-1.6,2.2-1.6
			c0.2,0,0.3,0,0.5,0.1L105,199.2z"/>
		<path class="st9" d="M106,199.1v-0.9h1.2v-2h1.2v2h1.7v0.9h-1.7v4.5c0,0.9,0.2,1.2,1,1.2c0.2,0,0.4,0,0.6-0.1l0.1,1
			c-0.3,0.1-0.6,0.1-1,0.1c-1.1,0-1.9-0.6-1.9-2v-4.7H106z"/>
	</g>
	<g>
		<path class="st9" d="M312.6,205.6l4.2-10.5h1.3l4.2,10.5h-1.3l-1.2-3.1h-4.6l-1.2,3.1H312.6z M317.1,197.4l-1.6,4.1h3.8l-1.6-4.1
			c-0.1-0.4-0.2-0.6-0.3-0.9L317.1,197.4z"/>
		<path class="st9" d="M327.1,199.2c-0.2-0.1-0.4-0.1-0.6-0.1c-1.1,0-1.9,1-1.9,2.5v4.1h-1.2v-7.4h1.2v1.4c0.5-1,1.2-1.6,2.2-1.6
			c0.2,0,0.3,0,0.5,0.1L327.1,199.2z"/>
		<path class="st9" d="M335.1,202.1H329c0.1,1.6,1.1,2.7,2.6,2.7c1.3,0,2-0.6,2.5-1.7l0.9,0.5c-0.7,1.5-1.9,2.2-3.4,2.2
			c-1,0-1.9-0.4-2.6-1.1c-0.7-0.7-1.1-1.7-1.1-2.8s0.4-2.1,1.1-2.8c0.7-0.7,1.6-1.1,2.7-1.1c1.1,0,2,0.3,2.6,1s1,1.6,1,2.7V202.1z
			 M329.1,201.2h4.9c0-0.7-0.3-1.2-0.8-1.6c-0.5-0.4-1-0.6-1.6-0.6C330.3,199,329.4,199.8,329.1,201.2z"/>
		<path class="st9" d="M342,205.6c-0.3-0.4-0.4-0.9-0.4-1.5c-0.5,1.1-1.4,1.7-2.5,1.7c-1.5,0-2.5-0.9-2.5-2.3c0-1.4,1.1-2.2,2.6-2.4
			l2.5-0.4v-0.3c0-1-0.6-1.4-1.8-1.4c-1.1,0-1.8,0.5-1.8,1.2c0,0.1,0,0.1,0,0.2l-1,0.3c-0.1-0.2-0.1-0.4-0.1-0.6
			c0-0.6,0.3-1.1,0.8-1.5c0.5-0.4,1.2-0.6,2.1-0.6c1.9,0,2.9,0.9,2.9,2.4v3.4c0,0.9,0.1,1.3,0.4,1.9H342z M341,203.9
			c0.4-0.6,0.6-1.2,0.6-2v-0.2l-2.3,0.4c-1,0.2-1.6,0.7-1.6,1.5c0,0.8,0.6,1.3,1.4,1.3C339.9,204.8,340.5,204.5,341,203.9z"/>
		<path class="st9" d="M359.2,205.6H358v-5.2c0-0.9-0.5-1.4-1.4-1.4c-1.1,0-1.8,0.8-1.8,2.6v4h-1.2v-5.1c0-1-0.5-1.5-1.4-1.5
			c-1.1,0-1.9,0.9-1.9,2.6v4h-1.2v-7.4h1.2v1.2c0.4-0.8,1.2-1.4,2.2-1.4c1,0,1.7,0.5,2,1.4c0.5-0.9,1.3-1.4,2.4-1.4
			c1.3,0,2.2,0.8,2.2,2V205.6z"/>
		<path class="st9" d="M366.4,205.6c-0.3-0.4-0.4-0.9-0.4-1.5c-0.5,1.1-1.4,1.7-2.5,1.7c-1.5,0-2.5-0.9-2.5-2.3
			c0-1.4,1.1-2.2,2.6-2.4l2.5-0.4v-0.3c0-1-0.6-1.4-1.8-1.4c-1.1,0-1.8,0.5-1.8,1.2c0,0.1,0,0.1,0,0.2l-1,0.3
			c-0.1-0.2-0.1-0.4-0.1-0.6c0-0.6,0.3-1.1,0.8-1.5c0.5-0.4,1.2-0.6,2.1-0.6c1.9,0,2.9,0.9,2.9,2.4v3.4c0,0.9,0.1,1.3,0.4,1.9H366.4
			z M365.3,203.9c0.4-0.6,0.6-1.2,0.6-2v-0.2l-2.3,0.4c-1,0.2-1.6,0.7-1.6,1.5c0,0.8,0.6,1.3,1.4,1.3
			C364.3,204.8,364.9,204.5,365.3,203.9z"/>
		<path class="st9" d="M369.3,208.7v-10.5h1.2v1.3c0.5-0.9,1.5-1.5,2.7-1.5c1,0,1.8,0.4,2.5,1.1c0.7,0.7,1,1.7,1,2.9s-0.3,2.1-1,2.8
			c-0.7,0.7-1.5,1.1-2.5,1.1c-1.2,0-2-0.5-2.6-1.4v4.2H369.3z M372.9,199.1c-0.7,0-1.3,0.3-1.8,0.8c-0.5,0.5-0.7,1.2-0.7,2.1
			s0.2,1.5,0.7,2.1s1.1,0.8,1.8,0.8s1.3-0.3,1.8-0.8s0.7-1.2,0.7-2.1s-0.2-1.5-0.7-2.1C374.2,199.3,373.6,199.1,372.9,199.1z"/>
	</g>
	<g>
		<path class="st9" d="M605.6,200.4c0,1.6-0.5,2.9-1.5,3.9c-1,1-2.2,1.5-3.6,1.5s-2.6-0.5-3.6-1.5c-1-1-1.5-2.3-1.5-3.9
			c0-1.6,0.5-2.9,1.5-3.9c1-1,2.2-1.5,3.6-1.5s2.6,0.5,3.6,1.5C605.1,197.5,605.6,198.8,605.6,200.4z M600.5,204.7
			c1.1,0,2-0.4,2.7-1.2c0.7-0.8,1.1-1.8,1.1-3.1c0-1.3-0.4-2.3-1.1-3.1c-0.7-0.8-1.6-1.2-2.7-1.2c-1.1,0-2,0.4-2.7,1.2
			c-0.7,0.8-1.1,1.9-1.1,3.1c0,1.3,0.4,2.3,1.1,3.1C598.5,204.3,599.4,204.7,600.5,204.7z"/>
		<path class="st9" d="M611.2,199.2c-0.2-0.1-0.4-0.1-0.6-0.1c-1.1,0-1.9,1-1.9,2.5v4.1h-1.2v-7.4h1.2v1.4c0.5-1,1.2-1.6,2.2-1.6
			c0.2,0,0.3,0,0.5,0.1L611.2,199.2z"/>
		<path class="st9" d="M619.2,195.1v10.5h-1.2v-1.3c-0.6,1-1.4,1.5-2.6,1.5c-1,0-1.9-0.4-2.6-1.1s-1-1.7-1-2.8c0-1.1,0.3-2.1,1-2.8
			c0.7-0.8,1.5-1.1,2.5-1.1c1.2,0,2.2,0.6,2.6,1.6v-4.4H619.2z M615.6,204.8c0.7,0,1.3-0.3,1.8-0.8s0.7-1.2,0.7-2.1
			s-0.2-1.5-0.7-2.1c-0.5-0.5-1.1-0.8-1.8-0.8c-0.7,0-1.3,0.3-1.8,0.8c-0.5,0.5-0.7,1.2-0.7,2.1s0.2,1.5,0.7,2.1
			C614.3,204.5,614.9,204.8,615.6,204.8z"/>
		<path class="st9" d="M628.3,202.1h-6.1c0.1,1.6,1.1,2.7,2.6,2.7c1.3,0,2-0.6,2.5-1.7l0.9,0.5c-0.7,1.5-1.9,2.2-3.4,2.2
			c-1,0-1.9-0.4-2.6-1.1c-0.7-0.7-1.1-1.7-1.1-2.8s0.4-2.1,1.1-2.8c0.7-0.7,1.6-1.1,2.7-1.1c1.1,0,2,0.3,2.6,1s1,1.6,1,2.7V202.1z
			 M622.3,201.2h4.9c0-0.7-0.3-1.2-0.8-1.6c-0.5-0.4-1-0.6-1.6-0.6C623.4,199,622.6,199.8,622.3,201.2z"/>
		<path class="st9" d="M633.8,199.2c-0.2-0.1-0.4-0.1-0.6-0.1c-1.1,0-1.9,1-1.9,2.5v4.1h-1.2v-7.4h1.2v1.4c0.5-1,1.2-1.6,2.2-1.6
			c0.2,0,0.3,0,0.5,0.1L633.8,199.2z"/>
		<path class="st9" d="M641.8,202.1h-6.1c0.1,1.6,1.1,2.7,2.6,2.7c1.3,0,2-0.6,2.5-1.7l0.9,0.5c-0.7,1.5-1.9,2.2-3.4,2.2
			c-1,0-1.9-0.4-2.6-1.1c-0.7-0.7-1.1-1.7-1.1-2.8s0.4-2.1,1.1-2.8c0.7-0.7,1.6-1.1,2.7-1.1c1.1,0,2,0.3,2.6,1s1,1.6,1,2.7V202.1z
			 M635.8,201.2h4.9c0-0.7-0.3-1.2-0.8-1.6c-0.5-0.4-1-0.6-1.6-0.6C636.9,199,636,199.8,635.8,201.2z"/>
		<path class="st9" d="M650.4,195.1v10.5h-1.2v-1.3c-0.6,1-1.4,1.5-2.6,1.5c-1,0-1.9-0.4-2.6-1.1s-1-1.7-1-2.8c0-1.1,0.3-2.1,1-2.8
			c0.7-0.8,1.5-1.1,2.5-1.1c1.2,0,2.2,0.6,2.6,1.6v-4.4H650.4z M646.8,204.8c0.7,0,1.3-0.3,1.8-0.8s0.7-1.2,0.7-2.1
			s-0.2-1.5-0.7-2.1c-0.5-0.5-1.1-0.8-1.8-0.8c-0.7,0-1.3,0.3-1.8,0.8c-0.5,0.5-0.7,1.2-0.7,2.1s0.2,1.5,0.7,2.1
			C645.5,204.5,646.1,204.8,646.8,204.8z"/>
		<path class="st9" d="M656.8,205.6v-10.5h1.2v4.4c0.6-1,1.6-1.6,2.7-1.6c1,0,1.8,0.4,2.5,1.1c0.6,0.7,1,1.7,1,2.8
			c0,1.1-0.3,2.1-1,2.8s-1.5,1.1-2.6,1.1c-1.1,0-2.1-0.6-2.6-1.5v1.3H656.8z M660.4,204.8c0.7,0,1.3-0.3,1.8-0.8
			c0.5-0.5,0.7-1.2,0.7-2.1s-0.2-1.5-0.7-2.1c-0.5-0.5-1.1-0.8-1.8-0.8c-0.7,0-1.3,0.3-1.8,0.8c-0.5,0.5-0.7,1.2-0.7,2.1
			s0.2,1.5,0.7,2.1S659.7,204.8,660.4,204.8z"/>
		<path class="st9" d="M670.9,205.6c-0.3-0.4-0.4-0.9-0.4-1.5c-0.5,1.1-1.4,1.7-2.5,1.7c-1.5,0-2.5-0.9-2.5-2.3
			c0-1.4,1.1-2.2,2.6-2.4l2.5-0.4v-0.3c0-1-0.6-1.4-1.8-1.4c-1.1,0-1.8,0.5-1.8,1.2c0,0.1,0,0.1,0,0.2l-1,0.3
			c-0.1-0.2-0.1-0.4-0.1-0.6c0-0.6,0.3-1.1,0.8-1.5c0.5-0.4,1.2-0.6,2.1-0.6c1.9,0,2.9,0.9,2.9,2.4v3.4c0,0.9,0.1,1.3,0.4,1.9H670.9
			z M669.9,203.9c0.4-0.6,0.6-1.2,0.6-2v-0.2l-2.3,0.4c-1,0.2-1.6,0.7-1.6,1.5c0,0.8,0.6,1.3,1.4,1.3
			C668.8,204.8,669.4,204.5,669.9,203.9z"/>
		<path class="st9" d="M677.4,199.2c-0.2-0.1-0.4-0.1-0.6-0.1c-1.1,0-1.9,1-1.9,2.5v4.1h-1.2v-7.4h1.2v1.4c0.5-1,1.2-1.6,2.2-1.6
			c0.2,0,0.3,0,0.5,0.1L677.4,199.2z"/>
		<path class="st9" d="M681.8,201.3c1.7,0.3,2.5,1,2.5,2.2c0,0.7-0.3,1.2-0.8,1.7c-0.5,0.5-1.2,0.7-2.1,0.7c-1.6,0-2.7-0.9-3.2-2.2
			l1-0.6c0.4,1.2,1.2,1.7,2.2,1.7c1,0,1.6-0.5,1.6-1.3c0-0.7-0.6-1.1-1.9-1.3c-1.5-0.3-2.5-1-2.5-2.2c0-0.6,0.3-1.1,0.8-1.5
			c0.5-0.4,1.1-0.5,1.8-0.5c1.4,0,2.4,0.6,2.9,1.8l-0.9,0.5c-0.4-0.9-1-1.3-2-1.3c-0.9,0-1.5,0.3-1.5,1
			C679.8,200.7,680.5,201,681.8,201.3z"/>
	</g>
	<g>
		<path class="st9" d="M913.2,205.6v-10.5h1.3v9.4h5.3v1.1H913.2z"/>
		<path class="st9" d="M921.4,196.9v-1.5h1.4v1.5H921.4z M921.6,205.6v-7.4h1.2v7.4H921.6z"/>
		<path class="st9" d="M931.3,205.6h-1.2v-4.8c0-1.1-0.7-1.8-1.8-1.8c-0.6,0-1.1,0.2-1.5,0.7c-0.4,0.5-0.6,1.1-0.6,1.8v4.1H925v-7.4
			h1.2v1.3c0.5-0.9,1.4-1.5,2.5-1.5c0.7,0,1.3,0.2,1.9,0.6c0.5,0.4,0.8,1.1,0.8,2V205.6z"/>
		<path class="st9" d="M940.2,202.1h-6.1c0.1,1.6,1.1,2.7,2.6,2.7c1.3,0,2-0.6,2.5-1.7l0.9,0.5c-0.7,1.5-1.9,2.2-3.4,2.2
			c-1,0-1.9-0.4-2.6-1.1c-0.7-0.7-1.1-1.7-1.1-2.8s0.4-2.1,1.1-2.8c0.7-0.7,1.6-1.1,2.7-1.1c1.1,0,2,0.3,2.6,1s1,1.6,1,2.7V202.1z
			 M934.2,201.2h4.9c0-0.7-0.3-1.2-0.8-1.6c-0.5-0.4-1-0.6-1.6-0.6C935.4,199,934.5,199.8,934.2,201.2z"/>
		<path class="st9" d="M947.1,205.6c-0.3-0.4-0.4-0.9-0.4-1.5c-0.5,1.1-1.4,1.7-2.5,1.7c-1.5,0-2.5-0.9-2.5-2.3
			c0-1.4,1.1-2.2,2.6-2.4l2.5-0.4v-0.3c0-1-0.6-1.4-1.8-1.4c-1.1,0-1.8,0.5-1.8,1.2c0,0.1,0,0.1,0,0.2l-1,0.3
			c-0.1-0.2-0.1-0.4-0.1-0.6c0-0.6,0.3-1.1,0.8-1.5c0.5-0.4,1.2-0.6,2.1-0.6c1.9,0,2.9,0.9,2.9,2.4v3.4c0,0.9,0.1,1.3,0.5,1.9H947.1
			z M946.1,203.9c0.4-0.6,0.6-1.2,0.6-2v-0.2l-2.3,0.4c-1,0.2-1.6,0.7-1.6,1.5c0,0.8,0.6,1.3,1.4,1.3
			C945,204.8,945.6,204.5,946.1,203.9z"/>
		<path class="st9" d="M953.6,199.2c-0.2-0.1-0.4-0.1-0.6-0.1c-1.1,0-1.9,1-1.9,2.5v4.1h-1.2v-7.4h1.2v1.4c0.5-1,1.2-1.6,2.2-1.6
			c0.2,0,0.3,0,0.5,0.1L953.6,199.2z"/>
		<path class="st9" d="M959.3,205.6v-10.5h1.2v4.4c0.6-1,1.6-1.6,2.7-1.6c1,0,1.8,0.4,2.5,1.1c0.6,0.7,1,1.7,1,2.8
			c0,1.1-0.3,2.1-1,2.8c-0.7,0.7-1.5,1.1-2.6,1.1c-1.1,0-2.1-0.6-2.6-1.5v1.3H959.3z M962.9,204.8c0.7,0,1.3-0.3,1.8-0.8
			c0.5-0.5,0.7-1.2,0.7-2.1s-0.2-1.5-0.7-2.1c-0.5-0.5-1.1-0.8-1.8-0.8s-1.3,0.3-1.8,0.8c-0.5,0.5-0.7,1.2-0.7,2.1s0.2,1.5,0.7,2.1
			C961.6,204.5,962.2,204.8,962.9,204.8z"/>
		<path class="st9" d="M973.4,205.6c-0.3-0.4-0.5-0.9-0.5-1.5c-0.5,1.1-1.4,1.7-2.5,1.7c-1.5,0-2.5-0.9-2.5-2.3c0-1.4,1-2.2,2.6-2.4
			l2.5-0.4v-0.3c0-1-0.6-1.4-1.8-1.4c-1.1,0-1.8,0.5-1.8,1.2c0,0.1,0,0.1,0,0.2l-1,0.3c-0.1-0.2-0.1-0.4-0.1-0.6
			c0-0.6,0.3-1.1,0.8-1.5c0.5-0.4,1.2-0.6,2.1-0.6c1.9,0,2.9,0.9,2.9,2.4v3.4c0,0.9,0.1,1.3,0.5,1.9H973.4z M972.4,203.9
			c0.4-0.6,0.6-1.2,0.6-2v-0.2l-2.3,0.4c-1,0.2-1.6,0.7-1.6,1.5c0,0.8,0.6,1.3,1.4,1.3C971.3,204.8,971.9,204.5,972.4,203.9z"/>
		<path class="st9" d="M979.9,199.2c-0.2-0.1-0.4-0.1-0.6-0.1c-1.1,0-1.9,1-1.9,2.5v4.1h-1.2v-7.4h1.2v1.4c0.5-1,1.2-1.6,2.2-1.6
			c0.2,0,0.3,0,0.5,0.1L979.9,199.2z"/>
		<path class="st9" d="M984.3,201.3c1.7,0.3,2.5,1,2.5,2.2c0,0.7-0.3,1.2-0.8,1.7c-0.5,0.5-1.2,0.7-2.1,0.7c-1.6,0-2.7-0.9-3.2-2.2
			l1-0.6c0.4,1.2,1.2,1.7,2.2,1.7c1,0,1.6-0.5,1.6-1.3c0-0.7-0.6-1.1-1.9-1.3c-1.5-0.3-2.5-1-2.5-2.2c0-0.6,0.3-1.1,0.8-1.5
			c0.5-0.4,1.1-0.5,1.8-0.5c1.4,0,2.4,0.6,2.9,1.8l-0.9,0.5c-0.4-0.9-1-1.3-2-1.3c-0.9,0-1.5,0.3-1.5,1
			C982.3,200.7,982.9,201,984.3,201.3z"/>
	</g>
	<g>
		<path class="st9" d="M1230.1,205.6v-10.5h2.9c1.6,0,2.9,0.5,3.9,1.4c1,0.9,1.5,2.2,1.5,3.9c0,1.6-0.5,2.9-1.5,3.9
			c-1,0.9-2.3,1.4-3.9,1.4H1230.1z M1232.9,204.5c2.5,0,4.1-1.4,4.1-4.1c0-2.8-1.6-4.1-4.1-4.1h-1.6v8.3H1232.9z"/>
		<path class="st9" d="M1247.6,201.9c0,0.8-0.2,1.5-0.6,2.1c-0.4,0.6-0.9,1.1-1.5,1.4c-1.7,0.9-3.9,0.5-5.1-1.4
			c-0.4-0.6-0.6-1.3-0.6-2.1s0.2-1.5,0.6-2.1c0.4-0.6,0.9-1.1,1.5-1.4c1.7-0.9,3.9-0.4,5.1,1.4
			C1247.4,200.4,1247.6,201.1,1247.6,201.9z M1243.7,204.8c0.8,0,1.4-0.3,1.9-0.8c0.5-0.5,0.8-1.2,0.8-2.1c0-0.8-0.3-1.5-0.8-2.1
			c-0.5-0.5-1.2-0.8-1.9-0.8c-0.8,0-1.4,0.3-1.9,0.8c-0.5,0.6-0.8,1.2-0.8,2.1c0,0.8,0.3,1.5,0.8,2.1
			C1242.3,204.5,1242.9,204.8,1243.7,204.8z"/>
		<path class="st9" d="M1255.6,205.6h-1.2v-4.8c0-1.1-0.7-1.8-1.8-1.8c-0.6,0-1.1,0.2-1.5,0.7c-0.4,0.5-0.6,1.1-0.6,1.8v4.1h-1.2
			v-7.4h1.2v1.3c0.5-0.9,1.4-1.5,2.5-1.5c0.7,0,1.3,0.2,1.9,0.6c0.5,0.4,0.8,1.1,0.8,2V205.6z"/>
		<path class="st9" d="M1257.7,198.2h1.2v4.8c0,1.1,0.7,1.8,1.8,1.8c0.6,0,1.1-0.2,1.6-0.7c0.4-0.4,0.6-1,0.6-1.8v-4.2h1.2v7.4h-1.2
			v-1.3c-0.5,1-1.3,1.5-2.5,1.5c-1.5,0-2.6-0.9-2.6-2.7V198.2z"/>
		<path class="st9" d="M1265.6,199.1v-0.9h1.2v-2h1.2v2h1.7v0.9h-1.7v4.5c0,0.9,0.2,1.2,1,1.2c0.2,0,0.4,0,0.6-0.1l0.1,1
			c-0.3,0.1-0.6,0.1-1,0.1c-1.1,0-1.9-0.6-1.9-2v-4.7H1265.6z"/>
	</g>
	<g>
		<path class="st9" d="M53.5,549.6v-10.5h3.8c1,0,1.8,0.2,2.4,0.7c0.6,0.5,0.9,1.1,0.9,1.8c0,1.1-0.6,1.9-1.8,2.3
			c1.4,0.5,2.2,1.2,2.2,2.6c0,0.9-0.4,1.6-1.1,2.2c-0.7,0.6-1.6,0.8-2.6,0.8H53.5z M54.7,540.2v3.4h2.5c1.3,0,2.2-0.5,2.2-1.7
			c0-1.1-0.9-1.7-2.2-1.7H54.7z M54.7,544.6v4h2.4c1.6,0,2.6-0.6,2.6-2c0-1.4-1.1-2-2.6-2H54.7z"/>
		<path class="st9" d="M63,542.2h1.2v4.8c0,1.1,0.7,1.8,1.8,1.8c0.6,0,1.1-0.2,1.6-0.7c0.4-0.5,0.6-1,0.6-1.8v-4.2h1.2v7.4h-1.2
			v-1.3c-0.5,1-1.4,1.5-2.5,1.5c-1.5,0-2.6-0.9-2.6-2.7V542.2z"/>
		<path class="st9" d="M71.5,549.6v-10.5h1.2v4.4c0.6-1,1.6-1.6,2.7-1.6c1,0,1.8,0.4,2.5,1.1c0.6,0.7,1,1.7,1,2.8
			c0,1.1-0.3,2.1-1,2.8s-1.5,1.1-2.6,1.1c-1.1,0-2.1-0.6-2.6-1.5v1.3H71.5z M75.1,548.8c0.7,0,1.3-0.3,1.8-0.8
			c0.5-0.5,0.7-1.2,0.7-2.1c0-0.9-0.2-1.5-0.7-2.1c-0.5-0.5-1.1-0.8-1.8-0.8c-0.7,0-1.3,0.3-1.8,0.8s-0.7,1.2-0.7,2.1
			c0,0.9,0.2,1.5,0.7,2.1C73.8,548.5,74.4,548.8,75.1,548.8z"/>
		<path class="st9" d="M80.7,549.6v-10.5h1.2v4.4c0.6-1,1.6-1.6,2.7-1.6c1,0,1.8,0.4,2.5,1.1c0.6,0.7,1,1.7,1,2.8
			c0,1.1-0.3,2.1-1,2.8s-1.5,1.1-2.6,1.1c-1.1,0-2.1-0.6-2.6-1.5v1.3H80.7z M84.3,548.8c0.7,0,1.3-0.3,1.8-0.8
			c0.5-0.5,0.7-1.2,0.7-2.1c0-0.9-0.2-1.5-0.7-2.1c-0.5-0.5-1.1-0.8-1.8-0.8c-0.7,0-1.3,0.3-1.8,0.8s-0.7,1.2-0.7,2.1
			c0,0.9,0.2,1.5,0.7,2.1C82.9,548.5,83.5,548.8,84.3,548.8z"/>
		<path class="st9" d="M89.8,549.6v-10.5h1.2v10.5H89.8z"/>
		<path class="st9" d="M100,546.1h-6.1c0.1,1.6,1.1,2.7,2.6,2.7c1.3,0,2-0.6,2.5-1.7l0.9,0.5c-0.7,1.5-1.9,2.2-3.4,2.2
			c-1,0-1.9-0.4-2.6-1.1c-0.7-0.7-1.1-1.7-1.1-2.8s0.4-2.1,1.1-2.8c0.7-0.7,1.6-1.1,2.7-1.1c1.1,0,2,0.3,2.6,1s1,1.6,1,2.7V546.1z
			 M94,545.2h4.9c0-0.7-0.3-1.2-0.8-1.6c-0.5-0.4-1-0.6-1.6-0.6C95.1,543,94.2,543.8,94,545.2z"/>
		<path class="st9" d="M104.7,545.3c1.7,0.3,2.5,1,2.5,2.2c0,0.7-0.3,1.2-0.8,1.7c-0.5,0.5-1.2,0.7-2.1,0.7c-1.6,0-2.7-0.9-3.2-2.2
			l1-0.6c0.4,1.2,1.2,1.7,2.2,1.7c1,0,1.6-0.5,1.6-1.3c0-0.7-0.6-1.1-1.9-1.3c-1.5-0.3-2.5-1-2.5-2.2c0-0.6,0.3-1.1,0.8-1.5
			c0.5-0.4,1.1-0.5,1.8-0.5c1.4,0,2.4,0.6,2.9,1.8l-0.9,0.5c-0.4-0.9-1-1.3-2-1.3c-0.9,0-1.5,0.3-1.5,1
			C102.7,544.7,103.4,545,104.7,545.3z"/>
	</g>
	<g>
		<path class="st9" d="M305.9,543.7c2.3,0.4,3.4,1.4,3.4,3.1c0,0.9-0.3,1.6-1,2.2s-1.6,0.9-2.7,0.9c-1.2,0-2.1-0.3-2.8-0.9
			c-0.7-0.6-1.2-1.4-1.4-2.3l1.1-0.6c0.3,1.8,1.4,2.7,3.1,2.7c1.6,0,2.5-0.9,2.5-1.9c0-1.2-0.9-1.8-2.8-2.1c-2.3-0.4-3.4-1.4-3.4-3
			c0-0.8,0.3-1.5,1-2c0.7-0.5,1.5-0.8,2.5-0.8c1.8,0,3.3,1,3.8,2.5l-1,0.6c-0.4-1.3-1.4-2-2.8-2s-2.3,0.6-2.3,1.7
			C303.1,542.7,304,543.3,305.9,543.7z"/>
		<path class="st9" d="M310.4,543.1v-0.9h1.2v-2h1.2v2h1.7v0.9h-1.7v4.5c0,0.9,0.2,1.2,1,1.2c0.2,0,0.4,0,0.6-0.1l0.1,1
			c-0.3,0.1-0.6,0.1-1,0.1c-1.1,0-1.9-0.6-1.9-2v-4.7H310.4z"/>
		<path class="st9" d="M321.2,549.6c-0.3-0.4-0.4-0.9-0.4-1.5c-0.5,1.1-1.4,1.7-2.5,1.7c-1.5,0-2.5-0.9-2.5-2.3
			c0-1.4,1.1-2.2,2.6-2.4l2.5-0.4v-0.3c0-1-0.6-1.4-1.8-1.4c-1.1,0-1.8,0.5-1.8,1.2c0,0.1,0,0.1,0,0.2l-1,0.3
			c-0.1-0.2-0.1-0.4-0.1-0.6c0-0.6,0.3-1.1,0.8-1.5c0.5-0.4,1.2-0.6,2.1-0.6c1.9,0,2.9,0.9,2.9,2.4v3.4c0,0.9,0.1,1.3,0.4,1.9H321.2
			z M320.2,547.9c0.4-0.6,0.6-1.2,0.6-2v-0.2l-2.3,0.4c-1,0.2-1.6,0.7-1.6,1.5c0,0.8,0.6,1.3,1.4,1.3
			C319.1,548.8,319.7,548.5,320.2,547.9z"/>
		<path class="st9" d="M330.8,547.7c-0.7,1.4-1.8,2.1-3.3,2.1c-1.1,0-2-0.4-2.7-1.1c-0.7-0.7-1.1-1.7-1.1-2.8c0-1.1,0.4-2.1,1.1-2.8
			c0.7-0.7,1.6-1.1,2.7-1.1c1.6,0,2.8,0.8,3.3,2l-0.9,0.6c-0.5-1-1.3-1.6-2.4-1.6c-0.8,0-1.4,0.3-1.9,0.8c-0.5,0.5-0.8,1.2-0.8,2.1
			c0,1.7,1.1,2.9,2.7,2.9c1.2,0,1.9-0.6,2.5-1.6L330.8,547.7z"/>
		<path class="st9" d="M333.6,539.1v5.8l2.8-2.8h1.4l-2.6,2.5l3.1,4.9H337l-2.5-4.1l-0.9,0.9v3.2h-1.2v-10.5H333.6z"/>
		<path class="st9" d="M345.8,546.1h-6.1c0.1,1.6,1.1,2.7,2.6,2.7c1.3,0,2-0.6,2.5-1.7l0.9,0.5c-0.7,1.5-1.9,2.2-3.4,2.2
			c-1,0-1.9-0.4-2.6-1.1c-0.7-0.7-1.1-1.7-1.1-2.8s0.4-2.1,1.1-2.8c0.7-0.7,1.6-1.1,2.7-1.1c1.1,0,2,0.3,2.6,1s1,1.6,1,2.7V546.1z
			 M339.8,545.2h4.9c0-0.7-0.3-1.2-0.8-1.6c-0.5-0.4-1-0.6-1.6-0.6C340.9,543,340,543.8,339.8,545.2z"/>
		<path class="st9" d="M354.4,539.1v10.5h-1.2v-1.3c-0.6,1-1.4,1.5-2.6,1.5c-1,0-1.9-0.4-2.6-1.1s-1-1.7-1-2.8c0-1.1,0.3-2.1,1-2.8
			c0.7-0.8,1.5-1.1,2.5-1.1c1.2,0,2.2,0.6,2.6,1.6v-4.4H354.4z M350.8,548.8c0.7,0,1.3-0.3,1.8-0.8c0.5-0.5,0.7-1.2,0.7-2.1
			c0-0.9-0.2-1.5-0.7-2.1s-1.1-0.8-1.8-0.8c-0.7,0-1.3,0.3-1.8,0.8c-0.5,0.5-0.7,1.2-0.7,2.1c0,0.9,0.2,1.5,0.7,2.1
			C349.5,548.5,350.1,548.8,350.8,548.8z"/>
		<path class="st9" d="M365.9,549.6c-0.3-0.4-0.4-0.9-0.4-1.5c-0.5,1.1-1.4,1.7-2.5,1.7c-1.5,0-2.5-0.9-2.5-2.3
			c0-1.4,1.1-2.2,2.6-2.4l2.5-0.4v-0.3c0-1-0.6-1.4-1.8-1.4c-1.1,0-1.8,0.5-1.8,1.2c0,0.1,0,0.1,0,0.2l-1,0.3
			c-0.1-0.2-0.1-0.4-0.1-0.6c0-0.6,0.3-1.1,0.8-1.5c0.5-0.4,1.2-0.6,2.1-0.6c1.9,0,2.9,0.9,2.9,2.4v3.4c0,0.9,0.1,1.3,0.5,1.9H365.9
			z M364.9,547.9c0.4-0.6,0.6-1.2,0.6-2v-0.2l-2.3,0.4c-1,0.2-1.6,0.7-1.6,1.5c0,0.8,0.6,1.3,1.4,1.3
			C363.8,548.8,364.4,548.5,364.9,547.9z"/>
		<path class="st9" d="M372.4,543.2c-0.2-0.1-0.4-0.1-0.6-0.1c-1.1,0-1.9,1-1.9,2.5v4.1h-1.2v-7.4h1.2v1.3c0.5-1,1.2-1.6,2.2-1.6
			c0.2,0,0.3,0,0.5,0.1L372.4,543.2z"/>
		<path class="st9" d="M380.4,546.1h-6.1c0.1,1.6,1.1,2.7,2.6,2.7c1.3,0,2-0.6,2.5-1.7l0.9,0.5c-0.7,1.5-1.9,2.2-3.4,2.2
			c-1,0-1.9-0.4-2.6-1.1c-0.7-0.7-1.1-1.7-1.1-2.8s0.4-2.1,1.1-2.8c0.7-0.7,1.6-1.1,2.7-1.1c1.1,0,2,0.3,2.6,1s1,1.6,1,2.7V546.1z
			 M374.3,545.2h4.9c0-0.7-0.3-1.2-0.8-1.6c-0.5-0.4-1-0.6-1.6-0.6C375.5,543,374.6,543.8,374.3,545.2z"/>
		<path class="st9" d="M387.3,549.6c-0.3-0.4-0.4-0.9-0.4-1.5c-0.5,1.1-1.4,1.7-2.5,1.7c-1.5,0-2.5-0.9-2.5-2.3
			c0-1.4,1.1-2.2,2.6-2.4l2.5-0.4v-0.3c0-1-0.6-1.4-1.8-1.4c-1.1,0-1.8,0.5-1.8,1.2c0,0.1,0,0.1,0,0.2l-1,0.3
			c-0.1-0.2-0.1-0.4-0.1-0.6c0-0.6,0.3-1.1,0.8-1.5c0.5-0.4,1.2-0.6,2.1-0.6c1.9,0,2.9,0.9,2.9,2.4v3.4c0,0.9,0.1,1.3,0.5,1.9H387.3
			z M386.2,547.9c0.4-0.6,0.6-1.2,0.6-2v-0.2l-2.3,0.4c-1,0.2-1.6,0.7-1.6,1.5c0,0.8,0.6,1.3,1.4,1.3
			C385.2,548.8,385.8,548.5,386.2,547.9z"/>
	</g>
	<g>
		<path class="st9" d="M607.4,549.6l4.2-10.5h1.3l4.2,10.5h-1.3l-1.2-3.1h-4.6l-1.2,3.1H607.4z M612,541.4l-1.6,4.1h3.8l-1.6-4.1
			c-0.1-0.4-0.2-0.6-0.3-0.9L612,541.4z"/>
		<path class="st9" d="M622,543.2c-0.2-0.1-0.4-0.1-0.6-0.1c-1.1,0-1.9,1-1.9,2.5v4.1h-1.2v-7.4h1.2v1.3c0.5-1,1.2-1.6,2.2-1.6
			c0.2,0,0.3,0,0.5,0.1L622,543.2z"/>
		<path class="st9" d="M630,546.1h-6.1c0.1,1.6,1.1,2.7,2.6,2.7c1.3,0,2-0.6,2.5-1.7l0.9,0.5c-0.7,1.5-1.9,2.2-3.4,2.2
			c-1,0-1.9-0.4-2.6-1.1c-0.7-0.7-1.1-1.7-1.1-2.8s0.4-2.1,1.1-2.8c0.7-0.7,1.6-1.1,2.7-1.1c1.1,0,2,0.3,2.6,1s1,1.6,1,2.7V546.1z
			 M624,545.2h4.9c0-0.7-0.3-1.2-0.8-1.6c-0.5-0.4-1-0.6-1.6-0.6C625.1,543,624.2,543.8,624,545.2z"/>
		<path class="st9" d="M636.9,549.6c-0.3-0.4-0.4-0.9-0.4-1.5c-0.5,1.1-1.4,1.7-2.5,1.7c-1.5,0-2.5-0.9-2.5-2.3
			c0-1.4,1.1-2.2,2.6-2.4l2.5-0.4v-0.3c0-1-0.6-1.4-1.8-1.4c-1.1,0-1.8,0.5-1.8,1.2c0,0.1,0,0.1,0,0.2l-1,0.3
			c-0.1-0.2-0.1-0.4-0.1-0.6c0-0.6,0.3-1.1,0.8-1.5c0.5-0.4,1.2-0.6,2.1-0.6c1.9,0,2.9,0.9,2.9,2.4v3.4c0,0.9,0.1,1.3,0.4,1.9H636.9
			z M635.8,547.9c0.4-0.6,0.6-1.2,0.6-2v-0.2l-2.3,0.4c-1,0.2-1.6,0.7-1.6,1.5c0,0.8,0.6,1.3,1.4,1.3
			C634.8,548.8,635.4,548.5,635.8,547.9z"/>
		<path class="st9" d="M654,549.6h-1.2v-5.2c0-0.9-0.5-1.4-1.4-1.4c-1.1,0-1.8,0.8-1.8,2.6v4h-1.2v-5.1c0-1-0.5-1.5-1.4-1.5
			c-1.1,0-1.9,0.9-1.9,2.6v4h-1.2v-7.4h1.2v1.2c0.4-0.8,1.2-1.4,2.2-1.4c1,0,1.7,0.5,2,1.4c0.5-0.9,1.3-1.4,2.4-1.4
			c1.3,0,2.2,0.8,2.2,2V549.6z"/>
		<path class="st9" d="M661.3,549.6c-0.3-0.4-0.4-0.9-0.4-1.5c-0.5,1.1-1.4,1.7-2.5,1.7c-1.5,0-2.5-0.9-2.5-2.3
			c0-1.4,1.1-2.2,2.6-2.4l2.5-0.4v-0.3c0-1-0.6-1.4-1.8-1.4c-1.1,0-1.8,0.5-1.8,1.2c0,0.1,0,0.1,0,0.2l-1,0.3
			c-0.1-0.2-0.1-0.4-0.1-0.6c0-0.6,0.3-1.1,0.8-1.5c0.5-0.4,1.2-0.6,2.1-0.6c1.9,0,2.9,0.9,2.9,2.4v3.4c0,0.9,0.1,1.3,0.4,1.9H661.3
			z M660.2,547.9c0.4-0.6,0.6-1.2,0.6-2v-0.2l-2.3,0.4c-1,0.2-1.6,0.7-1.6,1.5c0,0.8,0.6,1.3,1.4,1.3
			C659.2,548.8,659.8,548.5,660.2,547.9z"/>
		<path class="st9" d="M664.2,552.7v-10.5h1.2v1.3c0.5-0.9,1.5-1.5,2.7-1.5c1,0,1.8,0.4,2.5,1.1c0.7,0.7,1,1.7,1,2.9
			c0,1.2-0.3,2.1-1,2.8c-0.7,0.7-1.5,1.1-2.5,1.1c-1.2,0-2-0.5-2.6-1.4v4.2H664.2z M667.8,543.1c-0.7,0-1.3,0.3-1.8,0.8
			s-0.7,1.2-0.7,2.1c0,0.9,0.2,1.5,0.7,2.1c0.5,0.5,1.1,0.8,1.8,0.8s1.3-0.3,1.8-0.8c0.5-0.5,0.7-1.2,0.7-2.1c0-0.9-0.2-1.5-0.7-2.1
			S668.5,543.1,667.8,543.1z"/>
	</g>
	<g>
		<path class="st9" d="M921.7,540.2v-1.1h7.8v1.1h-3.3v9.4H925v-9.4H921.7z"/>
		<path class="st9" d="M930.8,540.9v-1.5h1.4v1.5H930.8z M930.9,549.6v-7.4h1.2v7.4H930.9z"/>
		<path class="st9" d="M944.3,549.6h-1.2v-5.2c0-0.9-0.5-1.4-1.4-1.4c-1.1,0-1.8,0.8-1.8,2.6v4h-1.2v-5.1c0-1-0.5-1.5-1.4-1.5
			c-1.1,0-1.9,0.9-1.9,2.6v4h-1.2v-7.4h1.2v1.2c0.4-0.8,1.2-1.4,2.2-1.4c1,0,1.7,0.5,2,1.4c0.5-0.9,1.3-1.4,2.4-1.4
			c1.3,0,2.2,0.8,2.2,2V549.6z"/>
		<path class="st9" d="M953.3,546.1h-6.1c0.1,1.6,1.1,2.7,2.6,2.7c1.3,0,2-0.6,2.5-1.7l0.9,0.5c-0.7,1.5-1.9,2.2-3.4,2.2
			c-1,0-1.9-0.4-2.6-1.1c-0.7-0.7-1.1-1.7-1.1-2.8s0.4-2.1,1.1-2.8c0.7-0.7,1.6-1.1,2.7-1.1c1.1,0,2,0.3,2.6,1s1,1.6,1,2.7V546.1z
			 M947.2,545.2h4.9c0-0.7-0.3-1.2-0.8-1.6c-0.5-0.4-1-0.6-1.6-0.6C948.4,543,947.5,543.8,947.2,545.2z"/>
		<path class="st9" d="M955.1,549.6v-10.5h1.2v10.5H955.1z"/>
		<path class="st9" d="M958.4,540.9v-1.5h1.4v1.5H958.4z M958.5,549.6v-7.4h1.2v7.4H958.5z"/>
		<path class="st9" d="M968.2,549.6h-1.2v-4.8c0-1.1-0.7-1.8-1.8-1.8c-0.6,0-1.1,0.2-1.5,0.7c-0.4,0.5-0.6,1.1-0.6,1.8v4.1H962v-7.4
			h1.2v1.3c0.5-0.9,1.4-1.5,2.5-1.5c0.7,0,1.3,0.2,1.9,0.6c0.5,0.4,0.8,1.1,0.8,1.9V549.6z"/>
		<path class="st9" d="M977.2,546.1H971c0.1,1.6,1.1,2.7,2.6,2.7c1.3,0,2-0.6,2.5-1.7l0.9,0.5c-0.7,1.5-1.9,2.2-3.4,2.2
			c-1,0-1.9-0.4-2.6-1.1c-0.7-0.7-1.1-1.7-1.1-2.8s0.4-2.1,1.1-2.8c0.7-0.7,1.6-1.1,2.7-1.1c1.1,0,2,0.3,2.6,1c0.6,0.7,1,1.6,1,2.7
			V546.1z M971.1,545.2h4.9c0-0.7-0.3-1.2-0.8-1.6c-0.5-0.4-1-0.6-1.6-0.6C972.3,543,971.4,543.8,971.1,545.2z"/>
	</g>
	<g>
		<path class="st9" d="M1223.2,549.6l-3-10.5h1.2l2.1,7.9c0.1,0.5,0.2,0.8,0.3,1.1l0.3-1.1l2.1-7.9h1.4l2.1,7.9
			c0.1,0.5,0.2,0.9,0.3,1.1l0.3-1.1l2.1-7.9h1.2l-3,10.5h-1.3l-2.4-8.9l-2.4,8.9H1223.2z"/>
		<path class="st9" d="M1239.1,549.6c-0.3-0.4-0.5-0.9-0.5-1.5c-0.5,1.1-1.4,1.7-2.5,1.7c-1.5,0-2.5-0.9-2.5-2.3
			c0-1.4,1.1-2.2,2.6-2.4l2.5-0.4v-0.3c0-1-0.6-1.4-1.8-1.4c-1.1,0-1.8,0.5-1.8,1.2c0,0.1,0,0.1,0,0.2l-1,0.3
			c-0.1-0.2-0.1-0.4-0.1-0.6c0-0.6,0.3-1.1,0.8-1.5c0.5-0.4,1.2-0.6,2.1-0.6c1.9,0,2.9,0.9,2.9,2.4v3.4c0,0.9,0.1,1.3,0.5,1.9
			H1239.1z M1238,547.9c0.4-0.6,0.6-1.2,0.6-2v-0.2l-2.3,0.4c-1,0.2-1.6,0.7-1.6,1.5c0,0.8,0.6,1.3,1.4,1.3
			C1237,548.8,1237.5,548.5,1238,547.9z"/>
		<path class="st9" d="M1241,543.1v-0.9h1.2v-2h1.2v2h1.7v0.9h-1.7v4.5c0,0.9,0.2,1.2,1,1.2c0.2,0,0.4,0,0.6-0.1l0.1,1
			c-0.3,0.1-0.6,0.1-1,0.1c-1.1,0-1.9-0.6-1.9-2v-4.7H1241z"/>
		<path class="st9" d="M1253.4,546.1h-6.2c0.1,1.6,1.1,2.7,2.6,2.7c1.3,0,2-0.6,2.5-1.7l0.9,0.5c-0.7,1.5-1.9,2.2-3.4,2.2
			c-1,0-1.9-0.4-2.6-1.1c-0.7-0.7-1.1-1.7-1.1-2.8s0.4-2.1,1.1-2.8c0.7-0.7,1.6-1.1,2.7-1.1c1.1,0,2,0.3,2.6,1c0.6,0.7,1,1.6,1,2.7
			V546.1z M1247.3,545.2h4.9c0-0.7-0.3-1.2-0.8-1.6c-0.5-0.4-1-0.6-1.6-0.6C1248.5,543,1247.6,543.8,1247.3,545.2z"/>
		<path class="st9" d="M1258.9,543.2c-0.2-0.1-0.4-0.1-0.6-0.1c-1.1,0-1.9,1-1.9,2.5v4.1h-1.2v-7.4h1.2v1.3c0.5-1,1.2-1.6,2.2-1.6
			c0.2,0,0.3,0,0.5,0.1L1258.9,543.2z"/>
		<path class="st9" d="M1259.8,543.1v-0.9h1.2v-1.5c0-1.4,0.8-2.3,2.3-2.3c0.3,0,0.5,0,0.7,0.1l-0.2,1c-0.2,0-0.3-0.1-0.5-0.1
			c-0.8,0-1.2,0.4-1.2,1.3v1.5h1.7v0.9h-1.7v6.5h-1.2v-6.5H1259.8z"/>
		<path class="st9" d="M1270.3,549.6c-0.3-0.4-0.5-0.9-0.5-1.5c-0.5,1.1-1.4,1.7-2.5,1.7c-1.5,0-2.5-0.9-2.5-2.3
			c0-1.4,1-2.2,2.6-2.4l2.5-0.4v-0.3c0-1-0.6-1.4-1.8-1.4c-1.1,0-1.8,0.5-1.8,1.2c0,0.1,0,0.1,0,0.2l-1,0.3
			c-0.1-0.2-0.1-0.4-0.1-0.6c0-0.6,0.3-1.1,0.8-1.5c0.5-0.4,1.2-0.6,2.1-0.6c1.9,0,2.9,0.9,2.9,2.4v3.4c0,0.9,0.1,1.3,0.5,1.9
			H1270.3z M1269.2,547.9c0.4-0.6,0.6-1.2,0.6-2v-0.2l-2.3,0.4c-1,0.2-1.6,0.7-1.6,1.5c0,0.8,0.6,1.3,1.4,1.3
			C1268.2,548.8,1268.8,548.5,1269.2,547.9z"/>
		<path class="st9" d="M1273.1,549.6v-10.5h1.2v10.5H1273.1z"/>
		<path class="st9" d="M1276.6,549.6v-10.5h1.2v10.5H1276.6z"/>
	</g>
</g>
</svg>
