<?xml version="1.0" encoding="utf-8"?>
<!-- Generator: Adobe Illustrator 22.0.0, SVG Export Plug-In . SVG Version: 6.00 Build 0)  -->
<svg version="1.1" id="Layer_1" xmlns="http://www.w3.org/2000/svg" xmlns:xlink="http://www.w3.org/1999/xlink" x="0px" y="0px"
	 viewBox="0 0 829 277.9" style="enable-background:new 0 0 829 277.9;" xml:space="preserve">
<style type="text/css">
	.st0{fill:#071216;}
	.st1{fill:none;stroke:#CDD0D0;stroke-miterlimit:10;}
	.st2{fill:#E6E7E7;}
	.st3{fill:#9CA0A2;}
	.st4{fill:#6A7173;}
	.st5{fill:#F7B6B6;}
	.st6{fill:#E50A0A;}
	.st7{fill:#ED5454;}
	.st8{fill:#F28585;}
	.st9{fill:#37AA70;}
	.st10{fill:none;stroke:#E50A0A;stroke-miterlimit:10;}
	.st11{fill:#8844E5;}
	.st12{fill:#FFC746;}
	.st13{fill:none;stroke:#071216;stroke-miterlimit:10;}
</style>
<g>
	<g>
		<path class="st0" d="M155.1,257.9v6c0,0.8-0.2,1.4-0.7,1.8c-0.5,0.5-1.1,0.7-1.8,0.7c-1.5,0-2.6-0.8-2.6-2.5l1,0.1
			c0,1.1,0.7,1.5,1.6,1.5c0.9,0,1.5-0.6,1.5-1.7v-6H155.1z"/>
		<path class="st0" d="M160.9,266.3c-0.2-0.3-0.4-0.7-0.4-1.2c-0.4,0.9-1.1,1.3-2,1.3c-1.2,0-2-0.8-2-1.8c0-1.1,0.8-1.8,2.1-1.9
			l2-0.3v-0.3c0-0.8-0.5-1.2-1.4-1.2c-0.9,0-1.4,0.4-1.4,0.9c0,0.1,0,0.1,0,0.2l-0.8,0.3c-0.1-0.2-0.1-0.3-0.1-0.5
			c0-0.5,0.2-0.9,0.6-1.2c0.4-0.3,1-0.5,1.7-0.5c1.5,0,2.3,0.7,2.3,1.9v2.7c0,0.7,0.1,1,0.4,1.5H160.9z M160,264.9
			c0.3-0.4,0.5-1,0.5-1.6v-0.2l-1.8,0.3c-0.8,0.1-1.3,0.6-1.3,1.2c0,0.6,0.4,1,1.2,1C159.2,265.6,159.7,265.4,160,264.9z"/>
		<path class="st0" d="M168.1,266.3h-0.9v-3.9c0-0.9-0.6-1.4-1.4-1.4c-0.5,0-0.9,0.2-1.2,0.5c-0.3,0.4-0.5,0.9-0.5,1.4v3.3h-0.9
			v-5.9h0.9v1c0.4-0.8,1.2-1.2,2-1.2c0.6,0,1.1,0.2,1.5,0.5c0.4,0.3,0.6,0.9,0.6,1.6V266.3z"/>
		<path class="st0" d="M169.8,260.3h0.9v3.9c0,0.9,0.6,1.4,1.4,1.4c0.5,0,0.9-0.2,1.2-0.5c0.3-0.4,0.5-0.8,0.5-1.4v-3.3h0.9v5.9
			h-0.9v-1c-0.4,0.8-1.1,1.2-2,1.2c-1.2,0-2.1-0.7-2.1-2.2V260.3z"/>
		<path class="st0" d="M180.6,266.3c-0.2-0.3-0.4-0.7-0.4-1.2c-0.4,0.9-1.1,1.3-2,1.3c-1.2,0-2-0.8-2-1.8c0-1.1,0.8-1.8,2.1-1.9
			l2-0.3v-0.3c0-0.8-0.5-1.2-1.4-1.2c-0.9,0-1.4,0.4-1.4,0.9c0,0.1,0,0.1,0,0.2l-0.8,0.3c-0.1-0.2-0.1-0.3-0.1-0.5
			c0-0.5,0.2-0.9,0.6-1.2c0.4-0.3,1-0.5,1.7-0.5c1.5,0,2.3,0.7,2.3,1.9v2.7c0,0.7,0.1,1,0.4,1.5H180.6z M179.8,264.9
			c0.3-0.4,0.5-1,0.5-1.6v-0.2l-1.8,0.3c-0.8,0.1-1.3,0.6-1.3,1.2c0,0.6,0.4,1,1.2,1C178.9,265.6,179.4,265.4,179.8,264.9z"/>
		<path class="st0" d="M185.8,261.1c-0.1,0-0.3-0.1-0.5-0.1c-0.9,0-1.5,0.8-1.5,2v3.3h-0.9v-5.9h0.9v1.1c0.4-0.8,1-1.2,1.7-1.2
			c0.1,0,0.3,0,0.4,0.1L185.8,261.1z"/>
		<path class="st0" d="M187.3,267.9c0.2,0.1,0.3,0.1,0.5,0.1c0.4,0,0.5-0.2,0.7-0.6l0.4-1.1l-2.4-5.9h1l1.9,4.7l1.9-4.7h1l-3,7.4
			c-0.3,0.8-0.8,1.1-1.6,1.1c-0.2,0-0.4,0-0.6-0.1L187.3,267.9z"/>
	</g>
</g>
<g>
	<line class="st1" x1="420.5" y1="37.9" x2="828.5" y2="37.9"/>
	<line class="st1" x1="420.5" y1="97.9" x2="828.5" y2="97.9"/>
	<line class="st1" x1="420.5" y1="157.9" x2="828.5" y2="157.9"/>
	<line class="st1" x1="420.5" y1="217.9" x2="828.5" y2="217.9"/>
	<line class="st1" x1="619" y1="38.4" x2="619" y2="277.4"/>
	<line class="st1" x1="515" y1="38.4" x2="515" y2="277.4"/>
	<line class="st1" x1="723" y1="38.4" x2="723" y2="277.4"/>
	<rect x="420.5" y="192.4" class="st2" width="21.3" height="85"/>
	<rect x="441.8" y="183.9" class="st3" width="21.3" height="93.5"/>
	<rect x="463" y="165.9" class="st4" width="21.3" height="111.5"/>
	<rect x="484.3" y="178.4" class="st0" width="21.3" height="99"/>
	<rect x="524.5" y="243.9" class="st2" width="21.3" height="33.5"/>
	<rect x="545.8" y="236.9" class="st3" width="21.3" height="40.5"/>
	<rect x="567" y="165.9" class="st4" width="21.3" height="111.5"/>
	<rect x="588.3" y="138.9" class="st0" width="21.3" height="138.5"/>
	<rect x="628.5" y="204.9" class="st2" width="21.3" height="72.5"/>
	<rect x="649.8" y="143.9" class="st3" width="21.3" height="133.5"/>
	<rect x="671" y="78.9" class="st4" width="21.3" height="198.5"/>
	<rect x="692.3" y="93.9" class="st0" width="21.3" height="183.5"/>
	<rect x="731.5" y="119.9" class="st2" width="21.3" height="157.5"/>
	<rect x="752.8" y="57.9" class="st3" width="21.3" height="219.5"/>
	<rect x="774" y="139.9" class="st4" width="21.3" height="137.5"/>
	<rect x="795.3" y="46.9" class="st0" width="21.3" height="230.5"/>
	<g>
		<path class="st0" d="M428.8,9.3l-0.3-1.4c-0.6,1.1-1.6,1.6-2.8,1.6c-1.3,0-2.3-0.4-3.2-1.3c-0.8-0.9-1.3-2-1.3-3.4
			c0-1.4,0.4-2.5,1.3-3.4s2-1.4,3.3-1.4c1.7,0,3.2,0.9,3.9,2.2L428.6,3c-0.6-1.1-1.6-1.7-2.8-1.7c-0.9,0-1.6,0.3-2.2,1
			c-0.6,0.6-0.9,1.5-0.9,2.5c0,1,0.3,1.9,0.8,2.5c0.6,0.6,1.3,1,2.2,1c1.6,0,2.5-1,2.7-2.5h-3.1V4.6h4.5v4.7H428.8z"/>
		<path class="st0" d="M431.5,9.3V0.2h1.3v9.1H431.5z"/>
		<path class="st0" d="M441.1,6.1c0,1.1-0.3,1.9-1,2.5s-1.5,0.9-2.4,0.9s-1.7-0.3-2.4-0.9c-0.7-0.6-1-1.4-1-2.5s0.4-1.9,1-2.5
			c0.7-0.6,1.5-0.9,2.4-0.9s1.7,0.3,2.4,0.9S441.1,5,441.1,6.1z M437.6,8.2c0.6,0,1.1-0.2,1.5-0.6c0.4-0.4,0.6-0.9,0.6-1.6
			s-0.2-1.2-0.6-1.6c-0.4-0.4-0.9-0.6-1.5-0.6s-1.1,0.2-1.5,0.6c-0.4,0.4-0.6,0.9-0.6,1.6s0.2,1.2,0.6,1.6
			C436.6,8,437.1,8.2,437.6,8.2z"/>
		<path class="st0" d="M442.5,9.3V0.2h1.3v3.6c0.5-0.7,1.3-1.2,2.2-1.2c0.9,0,1.6,0.3,2.2,0.9c0.6,0.6,0.9,1.5,0.9,2.5
			s-0.3,1.8-0.9,2.5c-0.6,0.6-1.3,0.9-2.2,0.9c-1,0-1.8-0.5-2.2-1.1v0.9H442.5z M445.7,8.2c0.6,0,1-0.2,1.4-0.6
			c0.4-0.4,0.6-0.9,0.6-1.6s-0.2-1.2-0.6-1.6c-0.4-0.4-0.9-0.6-1.4-0.6c-0.6,0-1,0.2-1.4,0.6c-0.4,0.4-0.6,0.9-0.6,1.6
			s0.2,1.2,0.6,1.6C444.7,8,445.2,8.2,445.7,8.2z"/>
		<path class="st0" d="M454.9,9.3c-0.2-0.3-0.4-0.6-0.4-1.1c-0.4,0.9-1.1,1.3-2.1,1.3c-1.3,0-2.2-0.8-2.2-2c0-1.2,0.9-1.9,2.3-2.1
			l2-0.3V4.8c0-0.7-0.5-1.1-1.4-1.1c-0.9,0-1.3,0.4-1.3,0.8c0,0.1,0,0.1,0,0.2l-1.2,0.4c-0.1-0.2-0.1-0.3-0.1-0.5
			c0-0.5,0.2-1,0.7-1.4s1.1-0.6,1.9-0.6c1.8,0,2.7,0.8,2.7,2.2v2.8c0,0.6,0.1,1.2,0.4,1.6H454.9z M454.5,6.2V6l-1.7,0.3
			c-0.8,0.1-1.2,0.5-1.2,1.1s0.4,1,1.1,1C453.7,8.4,454.5,7.4,454.5,6.2z"/>
		<path class="st0" d="M457.5,9.3V0.2h1.3v9.1H457.5z"/>
		<path class="st0" d="M473.3,9.3h-1.3V5c0-0.8-0.4-1.2-1.1-1.2c-0.8,0-1.4,0.6-1.4,1.9v3.5h-1.3V5.1c0-0.7-0.4-1.2-1.1-1.2
			c-0.8,0-1.5,0.7-1.5,1.9v3.5h-1.3V2.8h1.3v0.9c0.4-0.7,1.1-1.1,1.9-1.1c0.9,0,1.5,0.4,1.8,1.1c0.5-0.8,1.1-1.1,2.1-1.1
			c1.2,0,2,0.8,2,1.9V9.3z"/>
		<path class="st0" d="M479.4,9.3C479.1,9,479,8.6,479,8.2c-0.4,0.9-1.1,1.3-2.1,1.3c-1.3,0-2.2-0.8-2.2-2c0-1.2,0.9-1.9,2.3-2.1
			l2-0.3V4.8c0-0.7-0.5-1.1-1.4-1.1c-0.9,0-1.3,0.4-1.3,0.8c0,0.1,0,0.1,0,0.2l-1.2,0.4C475,4.9,475,4.7,475,4.6
			c0-0.5,0.2-1,0.7-1.4s1.1-0.6,1.9-0.6c1.8,0,2.7,0.8,2.7,2.2v2.8c0,0.6,0.1,1.2,0.4,1.6H479.4z M479,6.2V6l-1.7,0.3
			c-0.8,0.1-1.2,0.5-1.2,1.1s0.4,1,1.1,1C478.2,8.4,479,7.4,479,6.2z"/>
		<path class="st0" d="M485.4,4c-0.2-0.1-0.3-0.1-0.5-0.1c-0.9,0-1.6,0.8-1.6,2v3.4H482V2.8h1.3v1.1c0.4-0.8,1-1.3,1.9-1.3
			c0.1,0,0.3,0,0.5,0.1L485.4,4z"/>
		<path class="st0" d="M488,0.2V5l2.2-2.2h1.6l-2.3,2.2l2.7,4.2h-1.5L488.6,6L488,6.6v2.7h-1.3V0.2H488z"/>
		<path class="st0" d="M498.8,6.3h-5.1c0.1,1.2,0.8,2,2,2c1,0,1.5-0.5,1.9-1.3l1,0.6c-0.6,1.3-1.6,1.9-3,1.9c-0.9,0-1.7-0.3-2.3-1
			c-0.6-0.6-0.9-1.5-0.9-2.4s0.3-1.8,1-2.4c0.6-0.6,1.4-1,2.4-1c0.9,0,1.7,0.3,2.3,0.9c0.6,0.6,0.9,1.4,0.9,2.3V6.3z M494.4,4.2
			c-0.4,0.3-0.6,0.7-0.7,1.2h3.8c-0.1-0.5-0.3-0.9-0.6-1.2C496.1,3.6,495.1,3.6,494.4,4.2z"/>
		<path class="st0" d="M499.5,3.9V2.8h1V1.1h1.3v1.7h1.4v1.1h-1.4v3.4c0,0.6,0.3,0.9,0.9,0.9c0.1,0,0.3,0,0.5-0.1l0.1,1.1
			c-0.3,0.1-0.6,0.2-1,0.2c-1.1,0-1.8-0.5-1.8-1.9V3.9H499.5z"/>
	</g>
	<g>
		<g>
			<path class="st0" d="M396,34.8c0.7,0,1-0.2,1.4-0.8h0.7v6.3h-0.8V35c-0.3,0.3-0.7,0.4-1.3,0.4V34.8z"/>
			<path class="st0" d="M404.8,37.1c0,1-0.3,1.8-0.8,2.4s-1.2,0.9-2,0.9s-1.5-0.3-2-0.9s-0.8-1.4-0.8-2.4s0.3-1.8,0.8-2.4
				s1.2-0.9,2-0.9s1.5,0.3,2,0.9S404.8,36.2,404.8,37.1z M402,39.7c0.6,0,1.1-0.2,1.4-0.7c0.4-0.5,0.5-1.1,0.5-1.9s-0.2-1.4-0.5-1.9
				s-0.8-0.7-1.4-0.7c-0.6,0-1.1,0.2-1.4,0.7s-0.5,1.1-0.5,1.9s0.2,1.4,0.5,1.9C401,39.5,401.4,39.7,402,39.7z"/>
			<path class="st0" d="M411.2,37.1c0,1-0.3,1.8-0.8,2.4c-0.5,0.6-1.2,0.9-2,0.9s-1.5-0.3-2-0.9s-0.8-1.4-0.8-2.4s0.3-1.8,0.8-2.4
				s1.2-0.9,2-0.9s1.5,0.3,2,0.9C410.9,35.4,411.2,36.2,411.2,37.1z M408.5,39.7c0.6,0,1.1-0.2,1.4-0.7c0.4-0.5,0.5-1.1,0.5-1.9
				s-0.2-1.4-0.5-1.9s-0.8-0.7-1.4-0.7c-0.6,0-1.1,0.2-1.4,0.7s-0.5,1.1-0.5,1.9s0.2,1.4,0.5,1.9C407.4,39.5,407.9,39.7,408.5,39.7z
				"/>
		</g>
	</g>
	<g>
		<g>
			<path class="st0" d="M400,95.6l-2.5,5.7h-0.7l2.5-5.6h-3.3V95h4.1V95.6z"/>
			<path class="st0" d="M400.9,98.4l0.3-3.4h3.6v0.7h-3l-0.2,2.1c0.4-0.5,0.9-0.8,1.5-0.8c0.6,0,1.2,0.2,1.5,0.6
				c0.4,0.4,0.5,0.9,0.5,1.6c0,0.6-0.2,1.2-0.6,1.6c-0.4,0.4-1,0.6-1.6,0.6c-0.6,0-1.1-0.2-1.5-0.5c-0.4-0.3-0.6-0.7-0.6-1.2
				c0-0.2,0-0.3,0.1-0.5l0.7,0.2c0,0.1,0,0.2,0,0.3c0,0.7,0.6,1.1,1.4,1.1c0.9,0,1.5-0.6,1.5-1.6c0-1-0.6-1.6-1.5-1.6
				c-0.6,0-1.2,0.4-1.5,0.9L400.9,98.4z"/>
		</g>
	</g>
	<g>
		<g>
			<path class="st0" d="M396.1,158.4l0.3-3.4h3.6v0.7h-3l-0.2,2.1c0.4-0.5,0.9-0.8,1.5-0.8c0.6,0,1.2,0.2,1.5,0.6
				c0.4,0.4,0.5,0.9,0.5,1.6c0,0.6-0.2,1.2-0.6,1.6c-0.4,0.4-1,0.6-1.6,0.6c-0.6,0-1.1-0.2-1.5-0.5c-0.4-0.3-0.6-0.7-0.6-1.2
				c0-0.2,0-0.3,0.1-0.5l0.7,0.2c0,0.1,0,0.2,0,0.3c0,0.7,0.6,1.1,1.4,1.1c0.9,0,1.5-0.6,1.5-1.6c0-1-0.6-1.6-1.5-1.6
				c-0.6,0-1.2,0.4-1.5,0.9L396.1,158.4z"/>
			<path class="st0" d="M406.8,158.1c0,1-0.3,1.8-0.8,2.4s-1.2,0.9-2,0.9s-1.5-0.3-2-0.9s-0.8-1.4-0.8-2.4s0.3-1.8,0.8-2.4
				s1.2-0.9,2-0.9s1.5,0.3,2,0.9S406.8,157.2,406.8,158.1z M404.1,160.7c0.6,0,1.1-0.2,1.4-0.7c0.4-0.5,0.5-1.1,0.5-1.9
				s-0.2-1.4-0.5-1.9s-0.8-0.7-1.4-0.7c-0.6,0-1.1,0.2-1.4,0.7s-0.5,1.1-0.5,1.9s0.2,1.4,0.5,1.9C403,160.5,403.5,160.7,404.1,160.7
				z"/>
		</g>
	</g>
	<g>
		<g>
			<path class="st0" d="M396,220.8l2.4-2.4c0.7-0.7,0.9-1.1,0.9-1.6c0-0.7-0.5-1.2-1.3-1.2c-0.7,0-1.3,0.5-1.3,1.3
				c0,0.1,0,0.3,0.1,0.4l-0.7,0.1c-0.1-0.2-0.1-0.4-0.1-0.6c0-0.5,0.2-0.9,0.6-1.3c0.4-0.4,0.8-0.5,1.4-0.5c0.6,0,1.1,0.2,1.5,0.5
				c0.4,0.3,0.5,0.7,0.5,1.3c0,0.8-0.3,1.4-1.1,2.2l-1.8,1.8h2.9v0.7H396V220.8z"/>
			<path class="st0" d="M401.2,218.4l0.3-3.4h3.6v0.7h-3l-0.2,2.1c0.4-0.5,0.9-0.8,1.5-0.8c0.6,0,1.2,0.2,1.5,0.6
				c0.4,0.4,0.5,0.9,0.5,1.6c0,0.6-0.2,1.2-0.6,1.6c-0.4,0.4-1,0.6-1.6,0.6c-0.6,0-1.1-0.2-1.5-0.5c-0.4-0.3-0.6-0.7-0.6-1.2
				c0-0.2,0-0.3,0.1-0.5l0.7,0.2c0,0.1,0,0.2,0,0.3c0,0.7,0.6,1.1,1.4,1.1c0.9,0,1.5-0.6,1.5-1.6c0-1-0.6-1.6-1.5-1.6
				c-0.6,0-1.2,0.4-1.5,0.9L401.2,218.4z"/>
		</g>
	</g>
	<g>
		<path class="st4" d="M428.8,23.3l-0.3-1.4c-0.6,1.1-1.6,1.6-2.8,1.6c-1.3,0-2.3-0.4-3.2-1.3c-0.8-0.9-1.3-2-1.3-3.4
			c0-1.4,0.4-2.5,1.3-3.4s2-1.4,3.3-1.4c1.7,0,3.2,0.9,3.9,2.2l-1.1,0.7c-0.6-1.1-1.6-1.7-2.8-1.7c-0.9,0-1.6,0.3-2.2,1
			c-0.6,0.6-0.9,1.5-0.9,2.5c0,1,0.3,1.9,0.8,2.5c0.6,0.6,1.3,1,2.2,1c1.6,0,2.5-1,2.7-2.5h-3.1v-1.2h4.5v4.7H428.8z"/>
		<path class="st4" d="M434.9,18c-0.2-0.1-0.3-0.1-0.5-0.1c-0.9,0-1.6,0.8-1.6,2v3.4h-1.3v-6.4h1.3v1.1c0.4-0.8,1-1.3,1.9-1.3
			c0.1,0,0.3,0,0.5,0.1L434.9,18z"/>
		<path class="st4" d="M442.5,20.1c0,1.1-0.3,1.9-1,2.5s-1.5,0.9-2.4,0.9s-1.7-0.3-2.4-0.9c-0.7-0.6-1-1.4-1-2.5s0.4-1.9,1-2.5
			c0.7-0.6,1.5-0.9,2.4-0.9s1.7,0.3,2.4,0.9S442.5,19,442.5,20.1z M439,22.2c0.6,0,1.1-0.2,1.5-0.6c0.4-0.4,0.6-0.9,0.6-1.6
			s-0.2-1.2-0.6-1.6c-0.4-0.4-0.9-0.6-1.5-0.6s-1.1,0.2-1.5,0.6c-0.4,0.4-0.6,0.9-0.6,1.6s0.2,1.2,0.6,1.6
			C437.9,22,438.4,22.2,439,22.2z"/>
		<path class="st4" d="M448,16.8l1.3,4.7l1.2-4.7h1.3l-1.8,6.4h-1.4l-1.3-4.8l-1.3,4.8h-1.4l-1.8-6.4h1.3l1.2,4.7l1.3-4.7H448z"/>
		<path class="st4" d="M452.6,17.9v-1.1h1v-1.7h1.3v1.7h1.4v1.1H455v3.4c0,0.6,0.3,0.9,0.9,0.9c0.1,0,0.3,0,0.5-0.1l0.1,1.1
			c-0.3,0.1-0.6,0.2-1,0.2c-1.1,0-1.8-0.5-1.8-1.9v-3.7H452.6z"/>
		<path class="st4" d="M463.7,23.3h-1.3v-4c0-0.9-0.5-1.5-1.4-1.5c-1,0-1.8,0.8-1.8,2v3.4h-1.3v-9.1h1.3v3.7
			c0.5-0.8,1.3-1.3,2.2-1.3c1.3,0,2.3,0.9,2.3,2.3V23.3z"/>
		<path class="st4" d="M469.2,23.3v-9.1h4c2,0,3.3,1.1,3.3,2.9s-1.3,2.9-3.3,2.9h-2.6v3.3H469.2z M470.6,15.4v3.3h2.5
			c1.2,0,1.9-0.6,1.9-1.7s-0.7-1.7-1.9-1.7H470.6z"/>
		<path class="st4" d="M481.2,18c-0.2-0.1-0.3-0.1-0.5-0.1c-0.9,0-1.6,0.8-1.6,2v3.4h-1.3v-6.4h1.3v1.1c0.4-0.8,1-1.3,1.9-1.3
			c0.1,0,0.3,0,0.5,0.1L481.2,18z"/>
		<path class="st4" d="M488.3,20.3h-5.1c0.1,1.2,0.8,2,2,2c1,0,1.5-0.5,1.9-1.3l1,0.6c-0.6,1.3-1.6,1.9-3,1.9c-0.9,0-1.7-0.3-2.3-1
			c-0.6-0.6-0.9-1.5-0.9-2.4s0.3-1.8,1-2.4c0.6-0.6,1.4-1,2.4-1c0.9,0,1.7,0.3,2.3,0.9c0.6,0.6,0.9,1.4,0.9,2.3V20.3z M483.9,18.2
			c-0.4,0.3-0.6,0.7-0.7,1.2h3.8c-0.1-0.5-0.3-0.9-0.6-1.2C485.7,17.6,484.6,17.6,483.9,18.2z"/>
		<path class="st4" d="M496,14.2v9.1h-1.3v-1c-0.5,0.8-1.2,1.2-2.1,1.2c-0.9,0-1.7-0.3-2.2-0.9c-0.6-0.6-0.9-1.4-0.9-2.5
			c0-1,0.3-1.8,0.9-2.5c0.6-0.6,1.3-0.9,2.2-0.9c1,0,1.8,0.4,2.2,1.2v-3.6H496z M492.7,22.2c0.6,0,1-0.2,1.4-0.6
			c0.4-0.4,0.6-0.9,0.6-1.6s-0.2-1.2-0.6-1.6c-0.4-0.4-0.9-0.6-1.4-0.6c-0.6,0-1,0.2-1.4,0.6c-0.4,0.4-0.6,0.9-0.6,1.6
			s0.2,1.2,0.6,1.6C491.7,22,492.2,22.2,492.7,22.2z"/>
		<path class="st4" d="M497.7,15.8v-1.5h1.5v1.5H497.7z M497.8,23.3v-6.4h1.3v6.4H497.8z"/>
		<path class="st4" d="M506.8,21.6c-0.6,1.2-1.6,1.9-3,1.9c-0.9,0-1.7-0.3-2.4-1c-0.6-0.6-1-1.4-1-2.4c0-1,0.3-1.8,1-2.4
			c0.7-0.6,1.4-1,2.4-1c1.4,0,2.4,0.7,2.9,1.8l-1.1,0.7c-0.4-0.8-1-1.2-1.8-1.2c-0.6,0-1,0.2-1.4,0.6c-0.4,0.4-0.6,0.9-0.6,1.6
			c0,1.3,0.8,2.2,2,2.2c0.9,0,1.5-0.4,1.9-1.3L506.8,21.6z"/>
		<path class="st4" d="M507.4,17.9v-1.1h1v-1.7h1.3v1.7h1.4v1.1h-1.4v3.4c0,0.6,0.3,0.9,0.9,0.9c0.1,0,0.3,0,0.5-0.1l0.1,1.1
			c-0.3,0.1-0.6,0.2-1,0.2c-1.1,0-1.8-0.5-1.8-1.9v-3.7H507.4z"/>
		<path class="st4" d="M512.5,15.8v-1.5h1.5v1.5H512.5z M512.6,23.3v-6.4h1.3v6.4H512.6z"/>
		<path class="st4" d="M522.2,20.1c0,1.1-0.3,1.9-1,2.5s-1.5,0.9-2.4,0.9s-1.7-0.3-2.4-0.9c-0.7-0.6-1-1.4-1-2.5s0.4-1.9,1-2.5
			c0.7-0.6,1.5-0.9,2.4-0.9s1.7,0.3,2.4,0.9S522.2,19,522.2,20.1z M518.7,22.2c0.6,0,1.1-0.2,1.5-0.6c0.4-0.4,0.6-0.9,0.6-1.6
			s-0.2-1.2-0.6-1.6c-0.4-0.4-0.9-0.6-1.5-0.6s-1.1,0.2-1.5,0.6c-0.4,0.4-0.6,0.9-0.6,1.6s0.2,1.2,0.6,1.6
			C517.6,22,518.1,22.2,518.7,22.2z"/>
		<path class="st4" d="M529.3,23.3H528v-4c0-0.9-0.5-1.4-1.4-1.4c-0.9,0-1.7,0.8-1.7,2v3.4h-1.3v-6.4h1.3v1.1
			c0.5-0.8,1.3-1.3,2.2-1.3c1.3,0,2.2,0.8,2.2,2.2V23.3z"/>
	</g>
	<g>
		<path class="st0" d="M634.8,2.3V1.6h5.6v0.7H638v7h-0.8v-7H634.8z"/>
		<path class="st0" d="M641.7,9.3V1.6h4.7v0.7h-3.9v2.7h3.6v0.7h-3.6v2.9h3.9v0.7H641.7z"/>
		<path class="st0" d="M654.4,7.5c-0.7,1.3-1.8,2-3.2,2c-1.1,0-1.9-0.4-2.6-1.1c-0.7-0.8-1.1-1.7-1.1-2.9c0-1.1,0.4-2.1,1.1-2.8
			c0.7-0.8,1.6-1.2,2.7-1.2c1.5,0,2.6,0.7,3.2,2l-0.6,0.4c-0.6-1.1-1.4-1.7-2.6-1.7c-0.8,0-1.5,0.3-2,0.9c-0.6,0.6-0.8,1.4-0.8,2.4
			s0.3,1.7,0.8,2.4c0.5,0.6,1.2,0.9,2.1,0.9c1.2,0,2-0.5,2.6-1.7L654.4,7.5z"/>
		<path class="st0" d="M655.9,9.3V1.6h0.8V5h4V1.6h0.8v7.7h-0.8V5.7h-4v3.6H655.9z"/>
		<path class="st0" d="M666.5,9.3V1.6h0.8V5h4V1.6h0.8v7.7h-0.8V5.7h-4v3.6H666.5z"/>
		<path class="st0" d="M678.5,2.2l-3.1,7.1h-0.8l3.1-7h-4.1V1.6h5V2.2z"/>
	</g>
	<g>
		<path class="st0" d="M634.8,16.3v-0.7h5.6v0.7H638v7h-0.8v-7H634.8z"/>
		<path class="st0" d="M641.6,23.3v-7.7h0.8V19h4v-3.4h0.8v7.7h-0.8v-3.6h-4v3.6H641.6z"/>
		<path class="st0" d="M652,19c1.6,0.3,2.5,1,2.5,2.2c0,0.6-0.3,1.2-0.8,1.6c-0.5,0.5-1.2,0.7-2,0.7c-0.8,0-1.5-0.2-2.1-0.7
			s-0.9-1-1-1.7l0.7-0.4c0.2,1.3,1,2.1,2.3,2.1c0.6,0,1.1-0.2,1.4-0.5c0.4-0.3,0.5-0.7,0.5-1.1c0-0.9-0.7-1.4-2.1-1.6
			c-1.7-0.3-2.5-1-2.5-2.2c0-0.6,0.2-1.1,0.7-1.4c0.5-0.4,1.1-0.5,1.8-0.5c1.4,0,2.4,0.7,2.8,1.8l-0.7,0.4c-0.3-1-1.1-1.5-2.1-1.5
			c-1,0-1.8,0.5-1.8,1.3C649.8,18.2,650.6,18.7,652,19z"/>
	</g>
	<g>
		<path class="st0" d="M738.5,9.3V1.6h3.2c1.6,0,2.6,0.9,2.6,2.4c0,1.5-1,2.4-2.6,2.4h-2.4v2.9H738.5z M739.3,2.3v3.4h2.3
			c1.2,0,1.9-0.6,1.9-1.7c0-1.1-0.7-1.7-1.9-1.7H739.3z"/>
		<path class="st0" d="M748.2,4.4c-0.1,0-0.3-0.1-0.4-0.1c-0.4,0-0.7,0.2-1,0.6c-0.3,0.4-0.4,0.8-0.4,1.4v3h-0.7V3.8h0.7v1
			c0.3-0.7,0.9-1.1,1.6-1.1c0.1,0,0.3,0,0.4,0.1L748.2,4.4z"/>
		<path class="st0" d="M754.4,6.6c0,0.9-0.3,1.6-0.8,2.1s-1.2,0.8-2,0.8s-1.4-0.3-2-0.8s-0.8-1.2-0.8-2.1c0-0.9,0.3-1.6,0.8-2.1
			s1.2-0.8,2-0.8s1.4,0.3,2,0.8S754.4,5.7,754.4,6.6z M751.6,8.8c0.6,0,1.1-0.2,1.5-0.6c0.4-0.4,0.6-0.9,0.6-1.6s-0.2-1.2-0.6-1.6
			c-0.4-0.4-0.9-0.6-1.5-0.6s-1.1,0.2-1.5,0.6c-0.4,0.4-0.6,0.9-0.6,1.6s0.2,1.2,0.6,1.6C750.5,8.5,751,8.8,751.6,8.8z"/>
		<path class="st0" d="M760.6,7.9c-0.5,1-1.4,1.6-2.5,1.6c-0.8,0-1.5-0.3-2-0.8c-0.5-0.5-0.8-1.2-0.8-2.1c0-0.8,0.3-1.5,0.8-2.1
			c0.5-0.5,1.2-0.8,2-0.8c1.2,0,2,0.6,2.4,1.5L760,5.5c-0.4-0.8-1-1.2-1.8-1.2c-0.6,0-1,0.2-1.4,0.6c-0.4,0.4-0.6,0.9-0.6,1.6
			c0,0.7,0.2,1.2,0.6,1.6c0.4,0.4,0.9,0.6,1.4,0.6c0.9,0,1.5-0.4,1.9-1.2L760.6,7.9z"/>
		<path class="st0" d="M766.8,6.7h-4.6c0,0.6,0.2,1.1,0.5,1.5c0.3,0.4,0.8,0.6,1.4,0.6c0.9,0,1.5-0.4,1.9-1.3l0.6,0.3
			c-0.5,1.1-1.4,1.6-2.5,1.6c-0.8,0-1.4-0.3-1.9-0.8c-0.5-0.5-0.8-1.2-0.8-2.1s0.3-1.5,0.8-2.1c0.5-0.5,1.2-0.8,1.9-0.8
			c0.8,0,1.5,0.3,1.9,0.7c0.5,0.5,0.7,1.2,0.7,2V6.7z M762.2,6h3.7c0-0.5-0.2-1-0.6-1.3c-0.4-0.3-0.8-0.4-1.3-0.4
			C763.1,4.3,762.4,5,762.2,6z"/>
		<path class="st0" d="M770.1,6.1c1.2,0.2,1.8,0.7,1.8,1.6c0,0.5-0.2,0.9-0.5,1.2c-0.4,0.3-0.9,0.5-1.5,0.5c-1.1,0-1.9-0.6-2.3-1.6
			l0.7-0.4c0.3,0.9,0.8,1.3,1.6,1.3c0.8,0,1.3-0.4,1.3-1c0-0.5-0.4-0.9-1.4-1c-1.1-0.2-1.8-0.7-1.8-1.6c0-0.5,0.2-0.8,0.6-1.1
			c0.4-0.3,0.8-0.4,1.3-0.4c1,0,1.7,0.4,2.1,1.3l-0.6,0.4c-0.3-0.7-0.8-1-1.5-1c-0.7,0-1.2,0.3-1.2,0.8
			C768.7,5.6,769.1,5.9,770.1,6.1z"/>
		<path class="st0" d="M775.5,6.1c1.2,0.2,1.8,0.7,1.8,1.6c0,0.5-0.2,0.9-0.5,1.2c-0.4,0.3-0.9,0.5-1.5,0.5c-1.1,0-1.9-0.6-2.3-1.6
			l0.7-0.4c0.3,0.9,0.8,1.3,1.6,1.3c0.8,0,1.3-0.4,1.3-1c0-0.5-0.4-0.9-1.4-1c-1.1-0.2-1.8-0.7-1.8-1.6c0-0.5,0.2-0.8,0.5-1.1
			c0.4-0.3,0.8-0.4,1.3-0.4c1,0,1.7,0.4,2.1,1.3l-0.6,0.4c-0.3-0.7-0.8-1-1.5-1c-0.7,0-1.2,0.3-1.2,0.8C774,5.6,774.5,5.9,775.5,6.1
			z"/>
	</g>
	<g>
		<path class="st0" d="M745.1,21.5c-0.7,1.3-1.8,2-3.2,2c-1.1,0-1.9-0.4-2.6-1.1c-0.7-0.8-1.1-1.7-1.1-2.9c0-1.1,0.4-2.1,1.1-2.8
			c0.7-0.8,1.6-1.2,2.7-1.2c1.5,0,2.6,0.7,3.2,2l-0.6,0.4c-0.6-1.1-1.4-1.7-2.6-1.7c-0.8,0-1.5,0.3-2,0.9c-0.6,0.6-0.8,1.4-0.8,2.4
			s0.3,1.7,0.8,2.4c0.5,0.6,1.2,0.9,2.1,0.9c1.2,0,2-0.5,2.6-1.7L745.1,21.5z"/>
		<path class="st0" d="M751.7,20.6c0,0.9-0.3,1.6-0.8,2.1s-1.2,0.8-2,0.8s-1.4-0.3-2-0.8s-0.8-1.2-0.8-2.1c0-0.9,0.3-1.6,0.8-2.1
			s1.2-0.8,2-0.8s1.4,0.3,2,0.8S751.7,19.7,751.7,20.6z M748.8,22.8c0.6,0,1.1-0.2,1.5-0.6c0.4-0.4,0.6-0.9,0.6-1.6
			s-0.2-1.2-0.6-1.6c-0.4-0.4-0.9-0.6-1.5-0.6s-1.1,0.2-1.5,0.6c-0.4,0.4-0.6,0.9-0.6,1.6s0.2,1.2,0.6,1.6
			C747.8,22.5,748.2,22.8,748.8,22.8z"/>
		<path class="st0" d="M760.3,23.3h-0.8v-3.9c0-0.7-0.4-1.1-1.1-1.1c-0.8,0-1.4,0.7-1.4,2v2.9h-0.8v-3.8c0-0.7-0.4-1.1-1-1.1
			c-0.8,0-1.4,0.7-1.4,2v2.9H753v-5.5h0.8v0.9c0.3-0.6,1-1,1.7-1c0.7,0,1.2,0.4,1.5,1.1c0.4-0.7,0.9-1.1,1.7-1.1
			c1,0,1.6,0.6,1.6,1.5V23.3z"/>
		<path class="st0" d="M761.9,25.5v-7.7h0.7v1c0.4-0.6,1.2-1.1,2-1.1c0.8,0,1.4,0.3,1.9,0.8c0.5,0.5,0.7,1.2,0.7,2.1
			s-0.2,1.5-0.7,2.1c-0.5,0.5-1.1,0.8-1.9,0.8c-0.8,0-1.6-0.4-2-1.1v3.1H761.9z M764.5,18.4c-0.5,0-1,0.2-1.4,0.6
			c-0.4,0.4-0.6,0.9-0.6,1.6c0,0.6,0.2,1.2,0.6,1.6c0.4,0.4,0.8,0.6,1.4,0.6c0.6,0,1-0.2,1.4-0.6c0.4-0.4,0.6-0.9,0.6-1.6
			c0-0.6-0.2-1.2-0.6-1.6C765.5,18.6,765,18.4,764.5,18.4z"/>
		<path class="st0" d="M768.6,23.3v-7.7h0.7v7.7H768.6z"/>
		<path class="st0" d="M771,16.8v-1h0.9v1H771z M771.1,23.3v-5.5h0.7v5.5H771.1z"/>
		<path class="st0" d="M773.1,18.4v-0.6h0.9v-1.5h0.8v1.5h1.3v0.6h-1.3v3.5c0,0.6,0.2,0.9,0.8,0.9c0.1,0,0.3,0,0.4-0.1l0.1,0.6
			c-0.2,0.1-0.4,0.1-0.7,0.1c-0.8,0-1.3-0.5-1.3-1.5v-3.6H773.1z"/>
		<path class="st0" d="M782.1,20.7h-4.6c0,0.6,0.2,1.1,0.6,1.5c0.3,0.4,0.8,0.6,1.4,0.6c0.9,0,1.5-0.4,1.9-1.3l0.6,0.3
			c-0.5,1.1-1.4,1.6-2.5,1.6c-0.8,0-1.4-0.3-1.9-0.8c-0.5-0.5-0.8-1.2-0.8-2.1s0.3-1.5,0.8-2.1c0.5-0.5,1.2-0.8,1.9-0.8
			c0.8,0,1.5,0.3,1.9,0.7c0.5,0.5,0.7,1.2,0.7,2V20.7z M777.6,20h3.7c0-0.5-0.2-1-0.6-1.3c-0.4-0.3-0.8-0.4-1.3-0.4
			C778.5,18.3,777.8,19,777.6,20z"/>
		<path class="st0" d="M788.3,21.9c-0.5,1-1.4,1.6-2.5,1.6c-0.8,0-1.5-0.3-2-0.8c-0.5-0.5-0.8-1.2-0.8-2.1c0-0.8,0.3-1.5,0.8-2.1
			c0.5-0.5,1.2-0.8,2-0.8c1.2,0,2,0.6,2.4,1.5l-0.6,0.4c-0.4-0.8-1-1.2-1.8-1.2c-0.6,0-1,0.2-1.4,0.6c-0.4,0.4-0.6,0.9-0.6,1.6
			c0,0.7,0.2,1.2,0.6,1.6c0.4,0.4,0.9,0.6,1.4,0.6c0.9,0,1.5-0.4,1.9-1.2L788.3,21.9z"/>
		<path class="st0" d="M794.1,23.3h-0.7v-3.6c0-0.8-0.6-1.3-1.4-1.3c-0.5,0-0.8,0.2-1.2,0.5c-0.4,0.4-0.5,0.8-0.5,1.4v3h-0.7v-7.7
			h0.7v3.3c0.4-0.7,1.1-1.2,1.9-1.2c1.1,0,1.9,0.7,1.9,1.9V23.3z"/>
	</g>
	<circle class="st2" cx="624" cy="4.9" r="4.5"/>
	<circle class="st3" cx="624" cy="18.9" r="4.5"/>
	<circle class="st4" cx="727" cy="4.9" r="4.5"/>
	<circle class="st0" cx="727" cy="18.9" r="4.5"/>
	<line class="st1" x1="394.5" y1="277.4" x2="829" y2="277.4"/>
</g>
<g>
	<g>
		<path class="st5" d="M56.5,10.5c-19.1,0-36,9.5-46.2,24L56.5,67V10.5z"/>
		<path class="st6" d="M108.1,44.1c-8.8-19.8-28.6-33.6-51.6-33.6V67l46.2,32.5c3-4.2,5.4-8.9,7.1-13.8c2-5.8,3.2-12.1,3.2-18.6
			C113,58.9,111.3,51.1,108.1,44.1z"/>
		<path class="st7" d="M56.5,67L4.9,90c8.8,19.8,28.6,33.6,51.6,33.6c19.1,0,36-9.5,46.2-24L56.5,67z"/>
		<path class="st8" d="M10.3,34.6c-3,4.2-5.4,8.9-7.1,13.8C1.1,54.2,0,60.5,0,67C0,75.2,1.7,82.9,4.9,90L56.5,67L10.3,34.6z"/>
	</g>
	<path class="st9" d="M102.7,252.5c6.5-9.2,10.3-20.4,10.3-32.5c0-31.2-25.3-56.5-56.5-56.5V220L102.7,252.5z"/>
	<g>
		<g>
			<path class="st6" d="M137,17.2c2.3,0.4,3.4,1.4,3.4,3.1c0,0.9-0.3,1.6-1,2.2c-0.7,0.6-1.6,0.9-2.8,0.9c-2.4,0-3.9-1.4-4.3-3.3
				l1.4-0.7c0.3,1.8,1.3,2.6,2.9,2.6c1.4,0,2.2-0.7,2.2-1.7c0-1.1-0.8-1.6-2.7-1.9c-2.1-0.4-3.4-1.4-3.4-3.1c0-0.8,0.3-1.5,1-2
				c0.7-0.5,1.5-0.8,2.6-0.8c1.9,0,3.3,0.9,3.9,2.6l-1.3,0.8c-0.4-1.3-1.3-2-2.6-2c-1.2,0-2.1,0.5-2.1,1.4
				C134.2,16.3,135.1,16.8,137,17.2z"/>
			<path class="st6" d="M147,23.3c-0.3-0.3-0.4-0.7-0.4-1.3c-0.5,1-1.3,1.5-2.5,1.5c-1.5,0-2.5-0.9-2.5-2.3c0-1.4,1.1-2.2,2.6-2.4
				l2.4-0.4v-0.3c0-0.9-0.5-1.3-1.6-1.3c-1,0-1.5,0.4-1.5,1c0,0.1,0,0.1,0,0.2l-1.4,0.5c-0.1-0.2-0.1-0.4-0.1-0.6
				c0-0.6,0.3-1.1,0.8-1.6c0.6-0.4,1.3-0.6,2.2-0.6c2,0,3.1,0.9,3.1,2.5v3.3c0,0.7,0.2,1.4,0.5,1.9H147z M146.5,19.7v-0.2l-2,0.3
				c-1,0.2-1.4,0.6-1.4,1.3c0,0.7,0.5,1.1,1.2,1.1C145.7,22.2,146.5,21.2,146.5,19.7z"/>
			<path class="st6" d="M150,23.3V12.8h1.5v10.5H150z"/>
			<path class="st6" d="M160.6,19.9h-5.9c0.1,1.3,1,2.3,2.3,2.3c1.1,0,1.7-0.5,2.2-1.5l1.2,0.7c-0.7,1.5-1.8,2.2-3.4,2.2
				c-1,0-1.9-0.4-2.7-1.1c-0.7-0.7-1.1-1.7-1.1-2.8c0-1.1,0.4-2.1,1.1-2.8c0.7-0.7,1.6-1.1,2.7-1.1c1.1,0,1.9,0.3,2.6,1
				c0.7,0.7,1,1.6,1,2.7V19.9z M155.5,17.4c-0.4,0.3-0.7,0.8-0.8,1.3h4.4c-0.1-0.6-0.3-1-0.7-1.4C157.6,16.7,156.4,16.7,155.5,17.4z
				"/>
			<path class="st6" d="M165.3,18.8c1.7,0.3,2.5,1,2.5,2.2c0,1.4-1.1,2.4-2.9,2.4c-1.7,0-2.8-0.9-3.3-2.2l1.2-0.8
				c0.4,1,1.1,1.7,2.1,1.7c0.8,0,1.4-0.4,1.4-1.1c0-0.6-0.5-0.9-1.8-1.2c-1.7-0.3-2.5-1.1-2.5-2.3c0-0.6,0.3-1.2,0.8-1.5
				s1.1-0.6,1.9-0.6c1.5,0,2.4,0.6,3,1.8l-1.1,0.7c-0.3-0.9-1-1.3-1.8-1.3c-0.7,0-1.3,0.3-1.3,0.8C163.5,18.2,164.1,18.6,165.3,18.8
				z"/>
		</g>
		<g>
			<g>
				<path class="st0" d="M158.3,60.1c0,1.3-0.4,2.3-1.2,3.1c-0.8,0.8-1.7,1.2-2.9,1.2s-2.1-0.4-2.9-1.2c-0.8-0.8-1.2-1.9-1.2-3.1
					s0.4-2.3,1.2-3.2c0.8-0.8,1.7-1.2,2.9-1.2s2.1,0.4,2.9,1.2C157.9,57.7,158.3,58.8,158.3,60.1z M154.2,63.6c0.9,0,1.6-0.3,2.2-1
					c0.6-0.6,0.9-1.5,0.9-2.5s-0.3-1.9-0.9-2.5c-0.6-0.6-1.3-1-2.2-1s-1.6,0.3-2.2,1c-0.6,0.6-0.9,1.5-0.9,2.5s0.3,1.9,0.9,2.5
					C152.6,63.2,153.4,63.6,154.2,63.6z"/>
				<path class="st0" d="M165.2,62.7c-0.6,1.1-1.5,1.7-2.7,1.7c-0.9,0-1.6-0.3-2.2-0.9c-0.6-0.6-0.9-1.3-0.9-2.3
					c0-0.9,0.3-1.7,0.9-2.3c0.6-0.6,1.3-0.9,2.1-0.9c1.3,0,2.2,0.6,2.6,1.6l-0.7,0.5c-0.4-0.8-1-1.3-1.9-1.3c-0.6,0-1.1,0.2-1.5,0.6
					c-0.4,0.4-0.6,1-0.6,1.7c0,1.4,0.9,2.3,2.1,2.3c0.9,0,1.5-0.4,2-1.3L165.2,62.7z"/>
				<path class="st0" d="M165.9,59.1v-0.7h1v-1.6h0.9v1.6h1.4v0.7h-1.4v3.6c0,0.7,0.2,1,0.8,1c0.1,0,0.3,0,0.4-0.1l0.1,0.8
					c-0.2,0.1-0.5,0.1-0.8,0.1c-0.9,0-1.5-0.5-1.5-1.6v-3.8H165.9z"/>
				<path class="st0" d="M176.1,61.3c0,0.6-0.2,1.2-0.5,1.7c-0.3,0.5-0.7,0.9-1.2,1.1c-1.4,0.7-3.2,0.4-4.1-1.1
					c-0.3-0.5-0.5-1.1-0.5-1.7c0-0.6,0.2-1.2,0.5-1.7c0.3-0.5,0.7-0.9,1.2-1.1c1.4-0.7,3.2-0.4,4.1,1.1
					C176,60.1,176.1,60.7,176.1,61.3z M173,63.6c0.6,0,1.1-0.2,1.5-0.7c0.4-0.4,0.6-1,0.6-1.6c0-0.7-0.2-1.2-0.6-1.7
					c-0.4-0.4-0.9-0.6-1.5-0.6c-0.6,0-1.1,0.2-1.5,0.6c-0.4,0.4-0.6,1-0.6,1.7c0,0.7,0.2,1.2,0.6,1.6
					C171.9,63.4,172.4,63.6,173,63.6z"/>
				<path class="st0" d="M177.5,64.3v-8.4h0.9v3.5c0.4-0.8,1.3-1.2,2.2-1.2c0.8,0,1.4,0.3,2,0.9c0.5,0.6,0.8,1.3,0.8,2.3
					c0,0.9-0.3,1.7-0.8,2.3c-0.5,0.6-1.2,0.9-2.1,0.9c-0.9,0-1.7-0.5-2.1-1.2v1.1H177.5z M180.4,63.6c0.6,0,1.1-0.2,1.5-0.6
					c0.4-0.4,0.6-1,0.6-1.6c0-0.7-0.2-1.2-0.6-1.7c-0.4-0.4-0.9-0.6-1.5-0.6s-1.1,0.2-1.4,0.6s-0.6,1-0.6,1.7c0,0.7,0.2,1.2,0.6,1.6
					C179.4,63.4,179.8,63.6,180.4,63.6z"/>
				<path class="st0" d="M190.3,61.5h-4.9c0.1,1.3,0.9,2.2,2.1,2.2c1,0,1.6-0.5,2-1.4l0.7,0.4c-0.6,1.2-1.5,1.7-2.7,1.7
					c-0.8,0-1.5-0.3-2.1-0.9c-0.6-0.6-0.9-1.3-0.9-2.2c0-0.9,0.3-1.7,0.9-2.3c0.6-0.6,1.3-0.9,2.1-0.9c0.9,0,1.6,0.3,2.1,0.8
					s0.8,1.3,0.8,2.1V61.5z M185.4,60.7h3.9c0-0.5-0.2-1-0.6-1.3c-0.4-0.3-0.8-0.5-1.3-0.5C186.4,59,185.7,59.6,185.4,60.7z"/>
				<path class="st0" d="M194.6,59.1c-0.1,0-0.3-0.1-0.5-0.1c-0.9,0-1.5,0.8-1.5,2v3.3h-0.9v-5.9h0.9v1.1c0.4-0.8,1-1.2,1.7-1.2
					c0.1,0,0.3,0,0.4,0.1L194.6,59.1z"/>
			</g>
		</g>
		<g>
			<g>
				<path class="st0" d="M150.6,80.3v-8.4h1.1l4,6.3c0.2,0.3,0.3,0.5,0.4,0.7v-7h1v8.4h-1.1l-4-6.3c-0.2-0.3-0.3-0.5-0.4-0.7v7
					H150.6z"/>
				<path class="st0" d="M164.6,77.3c0,0.6-0.2,1.2-0.5,1.7c-0.3,0.5-0.7,0.9-1.2,1.1c-1.4,0.7-3.2,0.4-4.1-1.1
					c-0.3-0.5-0.5-1.1-0.5-1.7c0-0.6,0.2-1.2,0.5-1.7c0.3-0.5,0.7-0.9,1.2-1.1c1.4-0.7,3.2-0.4,4.1,1.1
					C164.5,76.1,164.6,76.7,164.6,77.3z M161.5,79.6c0.6,0,1.1-0.2,1.5-0.7c0.4-0.4,0.6-1,0.6-1.6c0-0.7-0.2-1.2-0.6-1.7
					c-0.4-0.4-0.9-0.6-1.5-0.6c-0.6,0-1.1,0.2-1.5,0.6c-0.4,0.4-0.6,1-0.6,1.7c0,0.7,0.2,1.2,0.6,1.6
					C160.4,79.4,160.9,79.6,161.5,79.6z"/>
				<path class="st0" d="M170.7,74.3l-2.4,5.9h-0.9l-2.4-5.9h1l1.9,4.9l1.9-4.9H170.7z"/>
				<path class="st0" d="M176.9,77.5H172c0.1,1.3,0.9,2.2,2.1,2.2c1,0,1.6-0.5,2-1.4l0.7,0.4c-0.6,1.2-1.5,1.7-2.7,1.7
					c-0.8,0-1.5-0.3-2.1-0.9c-0.6-0.6-0.9-1.3-0.9-2.2c0-0.9,0.3-1.7,0.9-2.3c0.6-0.6,1.3-0.9,2.1-0.9c0.9,0,1.6,0.3,2.1,0.8
					s0.8,1.3,0.8,2.1V77.5z M172.1,76.7h3.9c0-0.5-0.2-1-0.6-1.3c-0.4-0.3-0.8-0.5-1.3-0.5C173,75,172.3,75.6,172.1,76.7z"/>
				<path class="st0" d="M186.3,80.3h-0.9v-4.2c0-0.7-0.4-1.1-1.1-1.1c-0.9,0-1.5,0.7-1.5,2.1v3.2h-0.9v-4.1c0-0.8-0.4-1.2-1.1-1.2
					c-0.9,0-1.5,0.7-1.5,2.1v3.2h-0.9v-5.9h0.9v0.9c0.3-0.6,1-1.1,1.8-1.1c0.8,0,1.4,0.4,1.6,1.1c0.4-0.8,1.1-1.1,1.9-1.1
					c1,0,1.8,0.6,1.8,1.6V80.3z"/>
				<path class="st0" d="M188,80.3v-8.4h0.9v3.5c0.4-0.8,1.3-1.2,2.2-1.2c0.8,0,1.4,0.3,2,0.9c0.5,0.6,0.8,1.3,0.8,2.3
					c0,0.9-0.3,1.7-0.8,2.3c-0.5,0.6-1.2,0.9-2.1,0.9c-0.9,0-1.7-0.5-2.1-1.2v1.1H188z M190.9,79.6c0.6,0,1.1-0.2,1.5-0.6
					c0.4-0.4,0.6-1,0.6-1.6c0-0.7-0.2-1.2-0.6-1.7c-0.4-0.4-0.9-0.6-1.5-0.6s-1.1,0.2-1.4,0.6s-0.6,1-0.6,1.7c0,0.7,0.2,1.2,0.6,1.6
					C189.9,79.4,190.3,79.6,190.9,79.6z"/>
				<path class="st0" d="M200.8,77.5h-4.9c0.1,1.3,0.9,2.2,2.1,2.2c1,0,1.6-0.5,2-1.4l0.7,0.4c-0.6,1.2-1.5,1.7-2.7,1.7
					c-0.8,0-1.5-0.3-2.1-0.9c-0.6-0.6-0.9-1.3-0.9-2.2c0-0.9,0.3-1.7,0.9-2.3c0.6-0.6,1.3-0.9,2.1-0.9c0.9,0,1.6,0.3,2.1,0.8
					s0.8,1.3,0.8,2.1V77.5z M195.9,76.7h3.9c0-0.5-0.2-1-0.6-1.3c-0.4-0.3-0.8-0.5-1.3-0.5C196.9,75,196.1,75.6,195.9,76.7z"/>
				<path class="st0" d="M205.1,75.1c-0.1,0-0.3-0.1-0.5-0.1c-0.9,0-1.5,0.8-1.5,2v3.3h-0.9v-5.9h0.9v1.1c0.4-0.8,1-1.2,1.7-1.2
					c0.1,0,0.3,0,0.4,0.1L205.1,75.1z"/>
			</g>
		</g>
		<g>
			<g>
				<path class="st0" d="M150.6,97.3v-8.4h2.3c1.3,0,2.3,0.4,3.1,1.1c0.8,0.7,1.2,1.8,1.2,3.1s-0.4,2.3-1.2,3.1
					c-0.8,0.7-1.8,1.1-3.1,1.1H150.6z M152.8,96.4c2,0,3.3-1.1,3.3-3.3c0-2.2-1.3-3.3-3.3-3.3h-1.2v6.6H152.8z"/>
				<path class="st0" d="M164.2,94.5h-4.9c0.1,1.3,0.9,2.2,2.1,2.2c1,0,1.6-0.5,2-1.4l0.7,0.4c-0.6,1.2-1.5,1.7-2.7,1.7
					c-0.8,0-1.5-0.3-2.1-0.9c-0.6-0.6-0.9-1.3-0.9-2.2c0-0.9,0.3-1.7,0.9-2.3c0.6-0.6,1.3-0.9,2.1-0.9c0.9,0,1.6,0.3,2.1,0.8
					s0.8,1.3,0.8,2.1V94.5z M159.3,93.7h3.9c0-0.5-0.2-1-0.6-1.3c-0.4-0.3-0.8-0.5-1.3-0.5C160.3,92,159.6,92.6,159.3,93.7z"/>
				<path class="st0" d="M170.9,95.7c-0.6,1.1-1.5,1.7-2.7,1.7c-0.9,0-1.6-0.3-2.2-0.9c-0.6-0.6-0.9-1.3-0.9-2.3
					c0-0.9,0.3-1.7,0.9-2.3c0.6-0.6,1.3-0.9,2.1-0.9c1.3,0,2.2,0.6,2.6,1.6l-0.7,0.5c-0.4-0.8-1-1.3-1.9-1.3c-0.6,0-1.1,0.2-1.5,0.6
					c-0.4,0.4-0.6,1-0.6,1.7c0,1.4,0.9,2.3,2.1,2.3c0.9,0,1.5-0.4,2-1.3L170.9,95.7z"/>
				<path class="st0" d="M177.6,94.5h-4.9c0.1,1.3,0.9,2.2,2.1,2.2c1,0,1.6-0.5,2-1.4l0.7,0.4c-0.6,1.2-1.5,1.7-2.7,1.7
					c-0.8,0-1.5-0.3-2.1-0.9c-0.6-0.6-0.9-1.3-0.9-2.2c0-0.9,0.3-1.7,0.9-2.3c0.6-0.6,1.3-0.9,2.1-0.9c0.9,0,1.6,0.3,2.1,0.8
					s0.8,1.3,0.8,2.1V94.5z M172.7,93.7h3.9c0-0.5-0.2-1-0.6-1.3c-0.4-0.3-0.8-0.5-1.3-0.5C173.7,92,173,92.6,172.7,93.7z"/>
				<path class="st0" d="M187,97.3h-0.9v-4.2c0-0.7-0.4-1.1-1.1-1.1c-0.9,0-1.5,0.7-1.5,2.1v3.2h-0.9v-4.1c0-0.8-0.4-1.2-1.1-1.2
					c-0.9,0-1.5,0.7-1.5,2.1v3.2H179v-5.9h0.9v0.9c0.3-0.6,1-1.1,1.8-1.1c0.8,0,1.4,0.4,1.6,1.1c0.4-0.8,1.1-1.1,1.9-1.1
					c1,0,1.8,0.6,1.8,1.6V97.3z"/>
				<path class="st0" d="M188.7,97.3v-8.4h0.9v3.5c0.4-0.8,1.3-1.2,2.2-1.2c0.8,0,1.4,0.3,2,0.9c0.5,0.6,0.8,1.3,0.8,2.3
					c0,0.9-0.3,1.7-0.8,2.3c-0.5,0.6-1.2,0.9-2.1,0.9c-0.9,0-1.7-0.5-2.1-1.2v1.1H188.7z M191.6,96.6c0.6,0,1.1-0.2,1.5-0.6
					c0.4-0.4,0.6-1,0.6-1.6c0-0.7-0.2-1.2-0.6-1.7c-0.4-0.4-0.9-0.6-1.5-0.6s-1.1,0.2-1.4,0.6s-0.6,1-0.6,1.7c0,0.7,0.2,1.2,0.6,1.6
					C190.5,96.4,191,96.6,191.6,96.6z"/>
				<path class="st0" d="M201.4,94.5h-4.9c0.1,1.3,0.9,2.2,2.1,2.2c1,0,1.6-0.5,2-1.4l0.7,0.4c-0.6,1.2-1.5,1.7-2.7,1.7
					c-0.8,0-1.5-0.3-2.1-0.9c-0.6-0.6-0.9-1.3-0.9-2.2c0-0.9,0.3-1.7,0.9-2.3c0.6-0.6,1.3-0.9,2.1-0.9c0.9,0,1.6,0.3,2.1,0.8
					s0.8,1.3,0.8,2.1V94.5z M196.6,93.7h3.9c0-0.5-0.2-1-0.6-1.3c-0.4-0.3-0.8-0.5-1.3-0.5C197.5,92,196.8,92.6,196.6,93.7z"/>
				<path class="st0" d="M205.8,92.1c-0.1,0-0.3-0.1-0.5-0.1c-0.9,0-1.5,0.8-1.5,2v3.3h-0.9v-5.9h0.9v1.1c0.4-0.8,1-1.2,1.7-1.2
					c0.1,0,0.3,0,0.4,0.1L205.8,92.1z"/>
			</g>
		</g>
		<g>
			<g>
				<path class="st0" d="M155.1,104.9v6c0,0.8-0.2,1.4-0.7,1.8c-0.5,0.5-1.1,0.7-1.8,0.7c-1.5,0-2.6-0.8-2.6-2.5l1,0.1
					c0,1.1,0.7,1.5,1.6,1.5c0.9,0,1.5-0.6,1.5-1.7v-6H155.1z"/>
				<path class="st0" d="M160.9,113.3c-0.2-0.3-0.4-0.7-0.4-1.2c-0.4,0.9-1.1,1.3-2,1.3c-1.2,0-2-0.8-2-1.8c0-1.1,0.8-1.8,2.1-1.9
					l2-0.3v-0.3c0-0.8-0.5-1.2-1.4-1.2c-0.9,0-1.4,0.4-1.4,0.9c0,0.1,0,0.1,0,0.2l-0.8,0.3c-0.1-0.2-0.1-0.3-0.1-0.5
					c0-0.5,0.2-0.9,0.6-1.2c0.4-0.3,1-0.5,1.7-0.5c1.5,0,2.3,0.7,2.3,1.9v2.7c0,0.7,0.1,1,0.4,1.5H160.9z M160,111.9
					c0.3-0.4,0.5-1,0.5-1.6v-0.2l-1.8,0.3c-0.8,0.1-1.3,0.6-1.3,1.2c0,0.6,0.4,1,1.2,1C159.2,112.6,159.7,112.4,160,111.9z"/>
				<path class="st0" d="M168.1,113.3h-0.9v-3.9c0-0.9-0.6-1.4-1.4-1.4c-0.5,0-0.9,0.2-1.2,0.5c-0.3,0.4-0.5,0.9-0.5,1.4v3.3h-0.9
					v-5.9h0.9v1c0.4-0.8,1.2-1.2,2-1.2c0.6,0,1.1,0.2,1.5,0.5c0.4,0.3,0.6,0.9,0.6,1.6V113.3z"/>
				<path class="st0" d="M169.8,107.3h0.9v3.9c0,0.9,0.6,1.4,1.4,1.4c0.5,0,0.9-0.2,1.2-0.5c0.3-0.4,0.5-0.8,0.5-1.4v-3.3h0.9v5.9
					h-0.9v-1c-0.4,0.8-1.1,1.2-2,1.2c-1.2,0-2.1-0.7-2.1-2.2V107.3z"/>
				<path class="st0" d="M180.6,113.3c-0.2-0.3-0.4-0.7-0.4-1.2c-0.4,0.9-1.1,1.3-2,1.3c-1.2,0-2-0.8-2-1.8c0-1.1,0.8-1.8,2.1-1.9
					l2-0.3v-0.3c0-0.8-0.5-1.2-1.4-1.2c-0.9,0-1.4,0.4-1.4,0.9c0,0.1,0,0.1,0,0.2l-0.8,0.3c-0.1-0.2-0.1-0.3-0.1-0.5
					c0-0.5,0.2-0.9,0.6-1.2c0.4-0.3,1-0.5,1.7-0.5c1.5,0,2.3,0.7,2.3,1.9v2.7c0,0.7,0.1,1,0.4,1.5H180.6z M179.8,111.9
					c0.3-0.4,0.5-1,0.5-1.6v-0.2l-1.8,0.3c-0.8,0.1-1.3,0.6-1.3,1.2c0,0.6,0.4,1,1.2,1C178.9,112.6,179.4,112.4,179.8,111.9z"/>
				<path class="st0" d="M185.8,108.1c-0.1,0-0.3-0.1-0.5-0.1c-0.9,0-1.5,0.8-1.5,2v3.3h-0.9v-5.9h0.9v1.1c0.4-0.8,1-1.2,1.7-1.2
					c0.1,0,0.3,0,0.4,0.1L185.8,108.1z"/>
				<path class="st0" d="M187.3,114.9c0.2,0.1,0.3,0.1,0.5,0.1c0.4,0,0.5-0.2,0.7-0.6l0.4-1.1l-2.4-5.9h1l1.9,4.7l1.9-4.7h1l-3,7.4
					c-0.3,0.8-0.8,1.1-1.6,1.1c-0.2,0-0.4,0-0.6-0.1L187.3,114.9z"/>
			</g>
		</g>
		<circle class="st6" cx="137" cy="58.9" r="5.5"/>
		<circle class="st7" cx="137" cy="75.2" r="5.5"/>
		<circle class="st8" cx="137" cy="91.6" r="5.5"/>
		<circle class="st5" cx="137" cy="107.9" r="5.5"/>
		<line class="st10" x1="131.5" y1="38.4" x2="247.5" y2="38.4"/>
	</g>
	<g>
		<path class="st0" d="M137,170.2c2.3,0.4,3.4,1.4,3.4,3.1c0,0.9-0.3,1.6-1,2.2c-0.7,0.6-1.6,0.9-2.8,0.9c-2.4,0-3.9-1.4-4.3-3.3
			l1.4-0.7c0.3,1.8,1.3,2.6,2.9,2.6c1.4,0,2.2-0.7,2.2-1.7c0-1.1-0.8-1.6-2.7-1.9c-2.1-0.4-3.4-1.4-3.4-3.1c0-0.8,0.3-1.5,1-2
			c0.7-0.5,1.5-0.8,2.6-0.8c1.9,0,3.3,0.9,3.9,2.6l-1.3,0.8c-0.4-1.3-1.3-2-2.6-2c-1.2,0-2.1,0.5-2.1,1.4
			C134.2,169.3,135.1,169.8,137,170.2z"/>
		<path class="st0" d="M147,176.3c-0.3-0.3-0.4-0.7-0.4-1.3c-0.5,1-1.3,1.5-2.5,1.5c-1.5,0-2.5-0.9-2.5-2.3c0-1.4,1.1-2.2,2.6-2.4
			l2.4-0.4v-0.3c0-0.9-0.5-1.3-1.6-1.3c-1,0-1.5,0.4-1.5,1c0,0.1,0,0.1,0,0.2l-1.4,0.5c-0.1-0.2-0.1-0.4-0.1-0.6
			c0-0.6,0.3-1.1,0.8-1.6c0.6-0.4,1.3-0.6,2.2-0.6c2,0,3.1,0.9,3.1,2.5v3.3c0,0.7,0.2,1.4,0.5,1.9H147z M146.5,172.7v-0.2l-2,0.3
			c-1,0.2-1.4,0.6-1.4,1.3c0,0.7,0.5,1.1,1.2,1.1C145.7,175.2,146.5,174.2,146.5,172.7z"/>
		<path class="st0" d="M150,176.3v-10.5h1.5v10.5H150z"/>
		<path class="st0" d="M160.6,172.9h-5.9c0.1,1.3,1,2.3,2.3,2.3c1.1,0,1.7-0.5,2.2-1.5l1.2,0.7c-0.7,1.5-1.8,2.2-3.4,2.2
			c-1,0-1.9-0.4-2.7-1.1c-0.7-0.7-1.1-1.7-1.1-2.8c0-1.1,0.4-2.1,1.1-2.8c0.7-0.7,1.6-1.1,2.7-1.1c1.1,0,1.9,0.3,2.6,1
			c0.7,0.7,1,1.6,1,2.7V172.9z M155.5,170.4c-0.4,0.3-0.7,0.8-0.8,1.3h4.4c-0.1-0.6-0.3-1-0.7-1.4
			C157.6,169.7,156.4,169.7,155.5,170.4z"/>
		<path class="st0" d="M165.3,171.8c1.7,0.3,2.5,1,2.5,2.2c0,1.4-1.1,2.4-2.9,2.4c-1.7,0-2.8-0.9-3.3-2.2l1.2-0.8
			c0.4,1,1.1,1.7,2.1,1.7c0.8,0,1.4-0.4,1.4-1.1c0-0.6-0.5-0.9-1.8-1.2c-1.7-0.3-2.5-1.1-2.5-2.3c0-0.6,0.3-1.2,0.8-1.5
			s1.1-0.6,1.9-0.6c1.5,0,2.4,0.6,3,1.8l-1.1,0.7c-0.3-0.9-1-1.3-1.8-1.3c-0.7,0-1.3,0.3-1.3,0.8
			C163.5,171.2,164.1,171.6,165.3,171.8z"/>
	</g>
	<g>
		<g>
			<path class="st0" d="M158.3,213.1c0,1.3-0.4,2.3-1.2,3.1c-0.8,0.8-1.7,1.2-2.9,1.2s-2.1-0.4-2.9-1.2c-0.8-0.8-1.2-1.9-1.2-3.1
				s0.4-2.3,1.2-3.2c0.8-0.8,1.7-1.2,2.9-1.2s2.1,0.4,2.9,1.2C157.9,210.7,158.3,211.8,158.3,213.1z M154.2,216.6
				c0.9,0,1.6-0.3,2.2-1c0.6-0.6,0.9-1.5,0.9-2.5s-0.3-1.9-0.9-2.5c-0.6-0.6-1.3-1-2.2-1s-1.6,0.3-2.2,1c-0.6,0.6-0.9,1.5-0.9,2.5
				s0.3,1.9,0.9,2.5C152.6,216.2,153.4,216.6,154.2,216.6z"/>
			<path class="st0" d="M165.2,215.7c-0.6,1.1-1.5,1.7-2.7,1.7c-0.9,0-1.6-0.3-2.2-0.9c-0.6-0.6-0.9-1.3-0.9-2.3
				c0-0.9,0.3-1.7,0.9-2.3c0.6-0.6,1.3-0.9,2.1-0.9c1.3,0,2.2,0.6,2.6,1.6l-0.7,0.5c-0.4-0.8-1-1.3-1.9-1.3c-0.6,0-1.1,0.2-1.5,0.6
				c-0.4,0.4-0.6,1-0.6,1.7c0,1.4,0.9,2.3,2.1,2.3c0.9,0,1.5-0.4,2-1.3L165.2,215.7z"/>
			<path class="st0" d="M165.9,212.1v-0.7h1v-1.6h0.9v1.6h1.4v0.7h-1.4v3.6c0,0.7,0.2,1,0.8,1c0.1,0,0.3,0,0.4-0.1l0.1,0.8
				c-0.2,0.1-0.5,0.1-0.8,0.1c-0.9,0-1.5-0.5-1.5-1.6v-3.8H165.9z"/>
			<path class="st0" d="M176.1,214.3c0,0.6-0.2,1.2-0.5,1.7c-0.3,0.5-0.7,0.9-1.2,1.1c-1.4,0.7-3.2,0.4-4.1-1.1
				c-0.3-0.5-0.5-1.1-0.5-1.7c0-0.6,0.2-1.2,0.5-1.7c0.3-0.5,0.7-0.9,1.2-1.1c1.4-0.7,3.2-0.4,4.1,1.1
				C176,213.1,176.1,213.7,176.1,214.3z M173,216.6c0.6,0,1.1-0.2,1.5-0.7c0.4-0.4,0.6-1,0.6-1.6c0-0.7-0.2-1.2-0.6-1.7
				c-0.4-0.4-0.9-0.6-1.5-0.6c-0.6,0-1.1,0.2-1.5,0.6c-0.4,0.4-0.6,1-0.6,1.7c0,0.7,0.2,1.2,0.6,1.6
				C171.9,216.4,172.4,216.6,173,216.6z"/>
			<path class="st0" d="M177.5,217.3v-8.4h0.9v3.5c0.4-0.8,1.3-1.2,2.2-1.2c0.8,0,1.4,0.3,2,0.9c0.5,0.6,0.8,1.3,0.8,2.3
				c0,0.9-0.3,1.7-0.8,2.3c-0.5,0.6-1.2,0.9-2.1,0.9c-0.9,0-1.7-0.5-2.1-1.2v1.1H177.5z M180.4,216.6c0.6,0,1.1-0.2,1.5-0.6
				c0.4-0.4,0.6-1,0.6-1.6c0-0.7-0.2-1.2-0.6-1.7c-0.4-0.4-0.9-0.6-1.5-0.6s-1.1,0.2-1.4,0.6s-0.6,1-0.6,1.7c0,0.7,0.2,1.2,0.6,1.6
				C179.4,216.4,179.8,216.6,180.4,216.6z"/>
			<path class="st0" d="M190.3,214.5h-4.9c0.1,1.3,0.9,2.2,2.1,2.2c1,0,1.6-0.5,2-1.4l0.7,0.4c-0.6,1.2-1.5,1.7-2.7,1.7
				c-0.8,0-1.5-0.3-2.1-0.9c-0.6-0.6-0.9-1.3-0.9-2.2c0-0.9,0.3-1.7,0.9-2.3c0.6-0.6,1.3-0.9,2.1-0.9c0.9,0,1.6,0.3,2.1,0.8
				s0.8,1.3,0.8,2.1V214.5z M185.4,213.7h3.9c0-0.5-0.2-1-0.6-1.3c-0.4-0.3-0.8-0.5-1.3-0.5C186.4,212,185.7,212.6,185.4,213.7z"/>
			<path class="st0" d="M194.6,212.1c-0.1,0-0.3-0.1-0.5-0.1c-0.9,0-1.5,0.8-1.5,2v3.3h-0.9v-5.9h0.9v1.1c0.4-0.8,1-1.2,1.7-1.2
				c0.1,0,0.3,0,0.4,0.1L194.6,212.1z"/>
		</g>
	</g>
	<g>
		<g>
			<path class="st0" d="M150.6,233.3v-8.4h1.1l4,6.3c0.2,0.3,0.3,0.5,0.4,0.7v-7h1v8.4h-1.1l-4-6.3c-0.2-0.3-0.3-0.5-0.4-0.7v7
				H150.6z"/>
			<path class="st0" d="M164.6,230.3c0,0.6-0.2,1.2-0.5,1.7c-0.3,0.5-0.7,0.9-1.2,1.1c-1.4,0.7-3.2,0.4-4.1-1.1
				c-0.3-0.5-0.5-1.1-0.5-1.7c0-0.6,0.2-1.2,0.5-1.7c0.3-0.5,0.7-0.9,1.2-1.1c1.4-0.7,3.2-0.4,4.1,1.1
				C164.5,229.1,164.6,229.7,164.6,230.3z M161.5,232.6c0.6,0,1.1-0.2,1.5-0.7c0.4-0.4,0.6-1,0.6-1.6c0-0.7-0.2-1.2-0.6-1.7
				c-0.4-0.4-0.9-0.6-1.5-0.6c-0.6,0-1.1,0.2-1.5,0.6c-0.4,0.4-0.6,1-0.6,1.7c0,0.7,0.2,1.2,0.6,1.6
				C160.4,232.4,160.9,232.6,161.5,232.6z"/>
			<path class="st0" d="M170.7,227.3l-2.4,5.9h-0.9l-2.4-5.9h1l1.9,4.9l1.9-4.9H170.7z"/>
			<path class="st0" d="M176.9,230.5H172c0.1,1.3,0.9,2.2,2.1,2.2c1,0,1.6-0.5,2-1.4l0.7,0.4c-0.6,1.2-1.5,1.7-2.7,1.7
				c-0.8,0-1.5-0.3-2.1-0.9c-0.6-0.6-0.9-1.3-0.9-2.2c0-0.9,0.3-1.7,0.9-2.3c0.6-0.6,1.3-0.9,2.1-0.9c0.9,0,1.6,0.3,2.1,0.8
				s0.8,1.3,0.8,2.1V230.5z M172.1,229.7h3.9c0-0.5-0.2-1-0.6-1.3c-0.4-0.3-0.8-0.5-1.3-0.5C173,228,172.3,228.6,172.1,229.7z"/>
			<path class="st0" d="M186.3,233.3h-0.9v-4.2c0-0.7-0.4-1.1-1.1-1.1c-0.9,0-1.5,0.7-1.5,2.1v3.2h-0.9v-4.1c0-0.8-0.4-1.2-1.1-1.2
				c-0.9,0-1.5,0.7-1.5,2.1v3.2h-0.9v-5.9h0.9v0.9c0.3-0.6,1-1.1,1.8-1.1c0.8,0,1.4,0.4,1.6,1.1c0.4-0.8,1.1-1.1,1.9-1.1
				c1,0,1.8,0.6,1.8,1.6V233.3z"/>
			<path class="st0" d="M188,233.3v-8.4h0.9v3.5c0.4-0.8,1.3-1.2,2.2-1.2c0.8,0,1.4,0.3,2,0.9c0.5,0.6,0.8,1.3,0.8,2.3
				c0,0.9-0.3,1.7-0.8,2.3c-0.5,0.6-1.2,0.9-2.1,0.9c-0.9,0-1.7-0.5-2.1-1.2v1.1H188z M190.9,232.6c0.6,0,1.1-0.2,1.5-0.6
				c0.4-0.4,0.6-1,0.6-1.6c0-0.7-0.2-1.2-0.6-1.7c-0.4-0.4-0.9-0.6-1.5-0.6s-1.1,0.2-1.4,0.6s-0.6,1-0.6,1.7c0,0.7,0.2,1.2,0.6,1.6
				C189.9,232.4,190.3,232.6,190.9,232.6z"/>
			<path class="st0" d="M200.8,230.5h-4.9c0.1,1.3,0.9,2.2,2.1,2.2c1,0,1.6-0.5,2-1.4l0.7,0.4c-0.6,1.2-1.5,1.7-2.7,1.7
				c-0.8,0-1.5-0.3-2.1-0.9c-0.6-0.6-0.9-1.3-0.9-2.2c0-0.9,0.3-1.7,0.9-2.3c0.6-0.6,1.3-0.9,2.1-0.9c0.9,0,1.6,0.3,2.1,0.8
				s0.8,1.3,0.8,2.1V230.5z M195.9,229.7h3.9c0-0.5-0.2-1-0.6-1.3c-0.4-0.3-0.8-0.5-1.3-0.5C196.9,228,196.1,228.6,195.9,229.7z"/>
			<path class="st0" d="M205.1,228.1c-0.1,0-0.3-0.1-0.5-0.1c-0.9,0-1.5,0.8-1.5,2v3.3h-0.9v-5.9h0.9v1.1c0.4-0.8,1-1.2,1.7-1.2
				c0.1,0,0.3,0,0.4,0.1L205.1,228.1z"/>
		</g>
	</g>
	<g>
		<g>
			<path class="st0" d="M150.6,250.3v-8.4h2.3c1.3,0,2.3,0.4,3.1,1.1c0.8,0.7,1.2,1.8,1.2,3.1s-0.4,2.3-1.2,3.1
				c-0.8,0.7-1.8,1.1-3.1,1.1H150.6z M152.8,249.4c2,0,3.3-1.1,3.3-3.3c0-2.2-1.3-3.3-3.3-3.3h-1.2v6.6H152.8z"/>
			<path class="st0" d="M164.2,247.5h-4.9c0.1,1.3,0.9,2.2,2.1,2.2c1,0,1.6-0.5,2-1.4l0.7,0.4c-0.6,1.2-1.5,1.7-2.7,1.7
				c-0.8,0-1.5-0.3-2.1-0.9c-0.6-0.6-0.9-1.3-0.9-2.2c0-0.9,0.3-1.7,0.9-2.3c0.6-0.6,1.3-0.9,2.1-0.9c0.9,0,1.6,0.3,2.1,0.8
				s0.8,1.3,0.8,2.1V247.5z M159.3,246.7h3.9c0-0.5-0.2-1-0.6-1.3c-0.4-0.3-0.8-0.5-1.3-0.5C160.3,245,159.6,245.6,159.3,246.7z"/>
			<path class="st0" d="M170.9,248.7c-0.6,1.1-1.5,1.7-2.7,1.7c-0.9,0-1.6-0.3-2.2-0.9c-0.6-0.6-0.9-1.3-0.9-2.3
				c0-0.9,0.3-1.7,0.9-2.3c0.6-0.6,1.3-0.9,2.1-0.9c1.3,0,2.2,0.6,2.6,1.6l-0.7,0.5c-0.4-0.8-1-1.3-1.9-1.3c-0.6,0-1.1,0.2-1.5,0.6
				c-0.4,0.4-0.6,1-0.6,1.7c0,1.4,0.9,2.3,2.1,2.3c0.9,0,1.5-0.4,2-1.3L170.9,248.7z"/>
			<path class="st0" d="M177.6,247.5h-4.9c0.1,1.3,0.9,2.2,2.1,2.2c1,0,1.6-0.5,2-1.4l0.7,0.4c-0.6,1.2-1.5,1.7-2.7,1.7
				c-0.8,0-1.5-0.3-2.1-0.9c-0.6-0.6-0.9-1.3-0.9-2.2c0-0.9,0.3-1.7,0.9-2.3c0.6-0.6,1.3-0.9,2.1-0.9c0.9,0,1.6,0.3,2.1,0.8
				s0.8,1.3,0.8,2.1V247.5z M172.7,246.7h3.9c0-0.5-0.2-1-0.6-1.3c-0.4-0.3-0.8-0.5-1.3-0.5C173.7,245,173,245.6,172.7,246.7z"/>
			<path class="st0" d="M187,250.3h-0.9v-4.2c0-0.7-0.4-1.1-1.1-1.1c-0.9,0-1.5,0.7-1.5,2.1v3.2h-0.9v-4.1c0-0.8-0.4-1.2-1.1-1.2
				c-0.9,0-1.5,0.7-1.5,2.1v3.2H179v-5.9h0.9v0.9c0.3-0.6,1-1.1,1.8-1.1c0.8,0,1.4,0.4,1.6,1.1c0.4-0.8,1.1-1.1,1.9-1.1
				c1,0,1.8,0.6,1.8,1.6V250.3z"/>
			<path class="st0" d="M188.7,250.3v-8.4h0.9v3.5c0.4-0.8,1.3-1.2,2.2-1.2c0.8,0,1.4,0.3,2,0.9c0.5,0.6,0.8,1.3,0.8,2.3
				c0,0.9-0.3,1.7-0.8,2.3c-0.5,0.6-1.2,0.9-2.1,0.9c-0.9,0-1.7-0.5-2.1-1.2v1.1H188.7z M191.6,249.6c0.6,0,1.1-0.2,1.5-0.6
				c0.4-0.4,0.6-1,0.6-1.6c0-0.7-0.2-1.2-0.6-1.7c-0.4-0.4-0.9-0.6-1.5-0.6s-1.1,0.2-1.4,0.6s-0.6,1-0.6,1.7c0,0.7,0.2,1.2,0.6,1.6
				C190.5,249.4,191,249.6,191.6,249.6z"/>
			<path class="st0" d="M201.4,247.5h-4.9c0.1,1.3,0.9,2.2,2.1,2.2c1,0,1.6-0.5,2-1.4l0.7,0.4c-0.6,1.2-1.5,1.7-2.7,1.7
				c-0.8,0-1.5-0.3-2.1-0.9c-0.6-0.6-0.9-1.3-0.9-2.2c0-0.9,0.3-1.7,0.9-2.3c0.6-0.6,1.3-0.9,2.1-0.9c0.9,0,1.6,0.3,2.1,0.8
				s0.8,1.3,0.8,2.1V247.5z M196.6,246.7h3.9c0-0.5-0.2-1-0.6-1.3c-0.4-0.3-0.8-0.5-1.3-0.5C197.5,245,196.8,245.6,196.6,246.7z"/>
			<path class="st0" d="M205.8,245.1c-0.1,0-0.3-0.1-0.5-0.1c-0.9,0-1.5,0.8-1.5,2v3.3h-0.9v-5.9h0.9v1.1c0.4-0.8,1-1.2,1.7-1.2
				c0.1,0,0.3,0,0.4,0.1L205.8,245.1z"/>
		</g>
	</g>
	<circle class="st0" cx="137" cy="211.9" r="5.5"/>
	<circle class="st11" cx="137" cy="228.2" r="5.5"/>
	<circle class="st9" cx="137" cy="244.6" r="5.5"/>
	<circle class="st12" cx="137" cy="260.9" r="5.5"/>
	<line class="st13" x1="131.5" y1="191.4" x2="247.5" y2="191.4"/>
	<path class="st11" d="M56.5,163.5c-19.1,0-36,9.5-46.2,24C3.8,196.7,0,207.9,0,220c0,4.9,0.6,9.6,1.8,14.2L56.5,220V163.5z"/>
	<path class="st0" d="M1.8,234.2c6.3,24.4,28.4,42.3,54.7,42.3c19.1,0,36-9.5,46.2-24L56.5,220L1.8,234.2z"/>
</g>
</svg>
