<?xml version="1.0" encoding="utf-8"?>
<!-- Generator: Adobe Illustrator 22.0.0, SVG Export Plug-In . SVG Version: 6.00 Build 0)  -->
<svg version="1.1" id="Layer_1" xmlns="http://www.w3.org/2000/svg" xmlns:xlink="http://www.w3.org/1999/xlink" x="0px" y="0px"
	 viewBox="0 0 1105 957.2" style="enable-background:new 0 0 1105 957.2;" xml:space="preserve">
<style type="text/css">
	.st0{opacity:0.75;}
	.st1{fill:#6A7173;}
	.st2{opacity:0;}
	.st3{fill:#E50A0A;}
	.st4{fill:url(#SVGID_1_);}
	.st5{fill:#071216;}
	.st6{fill:url(#SVGID_2_);}
	.st7{fill:url(#SVGID_3_);}
	.st8{fill:url(#SVGID_4_);}
	.st9{fill:url(#SVGID_5_);}
	.st10{fill:url(#SVGID_6_);}
	.st11{fill:url(#SVGID_7_);}
	.st12{fill:url(#SVGID_8_);}
	.st13{fill:url(#SVGID_9_);}
</style>
<g class="st0">
	<g>
		<path class="st1" d="M463,1.2v615H1V1.2H463 M464,0.2H0v617h464V0.2L464,0.2z"/>
	</g>
</g>
<g class="st0">
	<g>
		<path class="st1" d="M1104,1.2v462H489V1.2H1104 M1105,0.2H488v464h617V0.2L1105,0.2z"/>
	</g>
</g>
<g class="st0">
	<g>
		<path class="st1" d="M951,494.2v462H489v-462H951 M952,493.2H488v464h464V493.2L952,493.2z"/>
	</g>
</g>
<g>
	<g class="st2">
		<g>
			<path class="st1" d="M166,559.2v57H1v-57H166 M167,558.2H0v59h167V558.2L167,558.2z"/>
		</g>
	</g>
	<g>
		<g>
			<polygon class="st3" points="54.2,578.6 50.7,573.6 50.7,580.3 51.9,581.9 54.2,585.2 56.5,581.9 			"/>
			<linearGradient id="SVGID_1_" gradientUnits="userSpaceOnUse" x1="60.192" y1="585.2429" x2="60.192" y2="564.988">
				<stop  offset="0" style="stop-color:#E50A0A;stop-opacity:0.9"/>
				<stop  offset="1" style="stop-color:#E50A0A;stop-opacity:0"/>
			</linearGradient>
			<polygon class="st4" points="63.8,565 54.2,578.6 51.9,581.9 54.2,585.2 56.5,581.9 68.5,565 			"/>
			<g>
				<path class="st5" d="M36.5,572.3c-2.2,0-4,0.7-5.4,2.1c-1.4,1.4-2.1,3.2-2.1,5.3c0,2.1,0.7,3.8,2.1,5.3c1.4,1.4,3.2,2.1,5.4,2.1
					c2.1,0,4-0.7,5.4-2.1c1.4-1.4,2.1-3.2,2.1-5.3c0-2.1-0.7-3.8-2.1-5.3C40.5,573,38.7,572.3,36.5,572.3z M34.1,577.1
					c0.6-0.6,1.4-0.9,2.4-0.9s1.8,0.3,2.4,0.9c0.7,0.7,1,1.5,1,2.6c0,1.1-0.3,1.9-1,2.6c-0.6,0.6-1.4,0.9-2.4,0.9s-1.8-0.3-2.4-0.9
					c-0.7-0.7-1-1.5-1-2.6C33.1,578.6,33.5,577.7,34.1,577.1z"/>
				<path class="st5" d="M72.5,572.5h-6.7v14.3h4.1v-4.5h2.6c3.6,0,5.7-1.8,5.7-4.9C78.2,574.3,76.1,572.5,72.5,572.5z M69.9,576.1
					h2.5c1.5,0,1.7,0.8,1.7,1.3c0,0.6-0.2,1.3-1.7,1.3h-2.5V576.1z"/>
				<polygon class="st5" points="84,572.5 79.9,572.5 79.9,586.8 90.6,586.8 90.6,582.9 84,582.9 				"/>
				<rect x="92.5" y="572.5" class="st5" width="4.1" height="14.3"/>
				<polygon class="st5" points="98.5,576.2 102.5,576.2 102.5,586.8 106.5,586.8 106.5,576.2 110.5,576.2 110.5,572.5 98.5,572.5 
									"/>
				<polygon class="st5" points="116.5,581.3 122.6,581.3 122.6,577.6 116.5,577.6 116.5,576.2 123.1,576.2 123.1,572.5 
					112.4,572.5 112.4,586.8 123.2,586.8 123.2,583.1 116.5,583.1 				"/>
				<polygon class="st5" points="149,572.5 149,577.6 144.3,577.6 144.3,572.5 140.2,572.5 140.2,586.8 144.3,586.8 144.3,581.5 
					149,581.5 149,586.8 153.1,586.8 153.1,572.5 				"/>
				<rect x="45.7" y="572.5" class="st5" width="4.1" height="14.3"/>
				<polygon class="st5" points="58.6,586.8 62.7,586.8 62.7,574.9 58.6,580.8 				"/>
				<path class="st5" d="M24.8,580.7l-0.2,0.3c-0.9,1.6-1.8,2.3-3.2,2.3c-0.9,0-1.7-0.3-2.4-1c-0.7-0.7-1-1.5-1-2.6
					c0-1.1,0.3-1.9,1-2.6c0.7-0.7,1.4-1,2.3-1c1.4,0,2.3,0.7,3,2.1l0.1,0.3l3.3-2.5c-1.1-2.4-3.4-3.8-6.4-3.8
					c-2.1,0-3.9,0.7-5.3,2.1c-1.4,1.4-2.2,3.2-2.2,5.3c0,2.2,0.7,4,2.1,5.3c1.4,1.4,3.2,2.1,5.3,2.1c2.9,0,4.8-1.1,6.6-3.8l0.1-0.1
					L24.8,580.7z"/>
				<path class="st5" d="M135.5,580.7l-0.2,0.3c-0.9,1.6-1.8,2.3-3.2,2.3c-0.9,0-1.7-0.3-2.4-1c-0.7-0.7-1-1.5-1-2.6
					c0-1.1,0.3-1.9,1-2.6c0.7-0.7,1.4-1,2.3-1c1.4,0,2.3,0.7,3,2.1l0.1,0.3l3.3-2.5c-1.1-2.4-3.4-3.8-6.4-3.8
					c-2.1,0-3.9,0.7-5.3,2.1c-1.4,1.4-2.2,3.2-2.2,5.3c0,2.2,0.7,4,2.1,5.3c1.4,1.4,3.2,2.1,5.3,2.1c2.9,0,4.8-1.1,6.6-3.8l0.1-0.1
					L135.5,580.7z"/>
			</g>
		</g>
		<g>
			<g>
				<g>
					<path class="st1" d="M15.8,600.9v-7.6h1.1v3c0.4-0.6,1.1-1,1.9-1c0.7,0,1.3,0.3,1.8,0.8c0.5,0.5,0.7,1.2,0.7,2.1
						c0,0.8-0.3,1.5-0.7,2.1c-0.5,0.5-1.1,0.8-1.8,0.8c-0.8,0-1.5-0.4-1.8-0.9v0.8H15.8z M18.5,600.1c0.5,0,0.9-0.2,1.2-0.5
						c0.3-0.3,0.5-0.8,0.5-1.3c0-0.5-0.2-1-0.5-1.3c-0.3-0.3-0.7-0.5-1.2-0.5c-0.5,0-0.9,0.2-1.2,0.5c-0.3,0.3-0.5,0.8-0.5,1.3
						c0,0.5,0.2,1,0.5,1.3C17.7,599.9,18.1,600.1,18.5,600.1z"/>
				</g>
				<g>
					<path class="st1" d="M23.2,602.1c0.6,0.2,0.9,0.2,1.1-0.5l0.3-0.7l-2.2-5.4h1.3l1.5,3.9l1.5-3.9h1.2l-2.6,6.5
						c-0.3,0.8-0.8,1.2-1.5,1.2c-0.3,0-0.5,0-0.8-0.1L23.2,602.1z"/>
				</g>
				<g>
					<path class="st1" d="M33.3,600.9v-7.6h1.3l2.6,6.4l2.6-6.4H41v7.6h-1.1v-5.3l-0.4,1.1l-1.7,4.2h-1.1l-1.7-4.2
						c-0.2-0.6-0.3-0.9-0.4-1.1v5.3H33.3z"/>
				</g>
				<g>
					<path class="st1" d="M47.6,600.9c-0.2-0.2-0.3-0.5-0.3-0.9c-0.4,0.7-1,1.1-1.8,1.1c-1.1,0-1.8-0.7-1.8-1.7c0-1,0.8-1.6,1.9-1.8
						l1.7-0.3v-0.2c0-0.6-0.4-0.9-1.1-0.9c-0.7,0-1.1,0.3-1.1,0.7c0,0.1,0,0.1,0,0.2l-1,0.3c-0.1-0.1-0.1-0.3-0.1-0.4
						c0-0.4,0.2-0.8,0.6-1.1c0.4-0.3,0.9-0.5,1.6-0.5c1.5,0,2.2,0.7,2.2,1.8v2.4c0,0.5,0.1,1,0.3,1.3H47.6z M47.3,598.4v-0.2
						l-1.5,0.2c-0.7,0.1-1,0.4-1,0.9s0.3,0.8,0.9,0.8C46.6,600.2,47.3,599.4,47.3,598.4z"/>
				</g>
				<g>
					<path class="st1" d="M52.1,595.6l1,1.6l1-1.6h1.3l-1.7,2.5l1.9,2.9h-1.3l-1.2-2l-1.3,2h-1.3l2-2.9l-1.7-2.5H52.1z"/>
				</g>
				<g>
					<path class="st1" d="M57.7,594.7v-1.2H59v1.2H57.7z M57.8,600.9v-5.4h1.1v5.4H57.8z"/>
				</g>
				<g>
					<path class="st1" d="M69.2,600.9h-1.1v-3.6c0-0.7-0.3-1-0.9-1c-0.7,0-1.2,0.5-1.2,1.6v3h-1.1v-3.5c0-0.6-0.3-1-0.9-1
						c-0.7,0-1.2,0.6-1.2,1.6v3h-1.1v-5.4h1.1v0.8c0.3-0.6,0.9-0.9,1.6-0.9c0.8,0,1.3,0.3,1.5,1c0.4-0.6,0.9-1,1.7-1
						c1,0,1.7,0.6,1.7,1.6V600.9z"/>
				</g>
				<g>
					<path class="st1" d="M75.6,600.9c-0.2-0.2-0.3-0.5-0.3-0.9c-0.4,0.7-1,1.1-1.8,1.1c-1.1,0-1.8-0.7-1.8-1.7c0-1,0.8-1.6,1.9-1.8
						l1.7-0.3v-0.2c0-0.6-0.4-0.9-1.1-0.9c-0.7,0-1.1,0.3-1.1,0.7c0,0.1,0,0.1,0,0.2l-1,0.3c-0.1-0.1-0.1-0.3-0.1-0.4
						c0-0.4,0.2-0.8,0.6-1.1c0.4-0.3,0.9-0.5,1.6-0.5c1.5,0,2.2,0.7,2.2,1.8v2.4c0,0.5,0.1,1,0.3,1.3H75.6z M75.3,598.4v-0.2
						l-1.5,0.2c-0.7,0.1-1,0.4-1,0.9s0.3,0.8,0.9,0.8C74.7,600.2,75.3,599.4,75.3,598.4z"/>
				</g>
				<g>
					<path class="st1" d="M89.5,599.1c-0.8,1.4-1.8,2-3.3,2c-1.1,0-2-0.4-2.7-1.1c-0.7-0.7-1.1-1.7-1.1-2.8c0-1.1,0.4-2.1,1.1-2.8
						c0.7-0.7,1.6-1.1,2.7-1.1c1.5,0,2.7,0.8,3.3,2l-0.9,0.7c-0.5-1.1-1.3-1.6-2.3-1.6c-0.7,0-1.3,0.3-1.9,0.8
						c-0.5,0.6-0.8,1.2-0.8,2.1c0,0.8,0.3,1.5,0.7,2.1c0.5,0.6,1.1,0.8,1.9,0.8c1,0,1.9-0.5,2.4-1.6L89.5,599.1z"/>
				</g>
				<g>
					<path class="st1" d="M97.5,598.3c0,0.9-0.3,1.6-0.9,2.1s-1.3,0.8-2,0.8c-0.8,0-1.4-0.3-2-0.8c-0.6-0.5-0.9-1.2-0.9-2.1
						s0.3-1.6,0.9-2.1c0.6-0.5,1.2-0.8,2-0.8c0.8,0,1.5,0.3,2,0.8C97.2,596.7,97.5,597.4,97.5,598.3z M94.6,600.1
						c0.5,0,0.9-0.2,1.2-0.5c0.3-0.3,0.5-0.8,0.5-1.3c0-0.5-0.2-1-0.5-1.3c-0.3-0.3-0.8-0.5-1.2-0.5c-0.5,0-0.9,0.2-1.2,0.5
						c-0.3,0.3-0.5,0.8-0.5,1.3c0,0.5,0.2,1,0.5,1.3C93.7,599.9,94.1,600.1,94.6,600.1z"/>
				</g>
				<g>
					<path class="st1" d="M107.5,600.9h-1.1v-3.6c0-0.7-0.3-1-0.9-1c-0.7,0-1.2,0.5-1.2,1.6v3h-1.1v-3.5c0-0.6-0.3-1-0.9-1
						c-0.7,0-1.2,0.6-1.2,1.6v3h-1.1v-5.4h1.1v0.8c0.3-0.6,0.9-0.9,1.6-0.9c0.8,0,1.3,0.3,1.5,1c0.4-0.6,0.9-1,1.7-1
						c1,0,1.7,0.6,1.7,1.6V600.9z"/>
				</g>
				<g>
					<path class="st1" d="M110.3,603.2v-7.6h1.1v0.8c0.3-0.6,1.1-1,1.9-1c0.7,0,1.3,0.3,1.8,0.8c0.5,0.5,0.7,1.2,0.7,2.1
						s-0.3,1.5-0.7,2.1c-0.5,0.5-1.1,0.8-1.9,0.8c-0.8,0-1.5-0.3-1.8-0.9v3H110.3z M113,596.4c-0.5,0-0.9,0.2-1.2,0.5
						c-0.3,0.3-0.5,0.8-0.5,1.3c0,0.5,0.2,1,0.5,1.3c0.3,0.3,0.7,0.5,1.2,0.5c0.5,0,0.9-0.2,1.2-0.5c0.3-0.3,0.5-0.8,0.5-1.3
						c0-0.5-0.2-1-0.5-1.3C113.9,596.6,113.5,596.4,113,596.4z"/>
				</g>
				<g>
					<path class="st1" d="M118.3,600.9v-7.6h1.1v7.6H118.3z"/>
				</g>
				<g>
					<path class="st1" d="M122,594.7v-1.2h1.3v1.2H122z M122.1,600.9v-5.4h1.1v5.4H122.1z"/>
				</g>
				<g>
					<path class="st1" d="M129.6,600.9c-0.2-0.2-0.3-0.5-0.3-0.9c-0.4,0.7-1,1.1-1.8,1.1c-1.1,0-1.8-0.7-1.8-1.7
						c0-1,0.8-1.6,1.9-1.8l1.7-0.3v-0.2c0-0.6-0.4-0.9-1.1-0.9c-0.7,0-1.1,0.3-1.1,0.7c0,0.1,0,0.1,0,0.2l-1,0.3
						c-0.1-0.1-0.1-0.3-0.1-0.4c0-0.4,0.2-0.8,0.6-1.1c0.4-0.3,0.9-0.5,1.6-0.5c1.5,0,2.2,0.7,2.2,1.8v2.4c0,0.5,0.1,1,0.3,1.3
						H129.6z M129.3,598.4v-0.2l-1.5,0.2c-0.7,0.1-1,0.4-1,0.9s0.3,0.8,0.9,0.8C128.7,600.2,129.3,599.4,129.3,598.4z"/>
				</g>
				<g>
					<path class="st1" d="M138,600.9h-1.1v-3.3c0-0.7-0.4-1.2-1.2-1.2c-0.8,0-1.4,0.7-1.4,1.7v2.8h-1.1v-5.4h1.1v0.9
						c0.4-0.6,1.1-1.1,1.8-1.1c1.1,0,1.9,0.7,1.9,1.9V600.9z"/>
				</g>
				<g>
					<path class="st1" d="M145.7,599.5c-0.5,1-1.4,1.6-2.5,1.6c-0.8,0-1.5-0.3-2-0.8c-0.5-0.5-0.8-1.2-0.8-2c0-0.8,0.3-1.5,0.8-2
						c0.5-0.5,1.2-0.8,2-0.8c1.2,0,2,0.5,2.4,1.5l-0.9,0.6c-0.3-0.7-0.9-1-1.5-1c-0.5,0-0.9,0.2-1.2,0.5c-0.3,0.3-0.5,0.8-0.5,1.3
						c0,1.1,0.7,1.8,1.7,1.8c0.8,0,1.2-0.4,1.6-1.1L145.7,599.5z"/>
				</g>
				<g>
					<path class="st1" d="M153.1,598.5h-4.3c0,1,0.7,1.6,1.6,1.6c0.8,0,1.3-0.4,1.6-1.1l0.9,0.5c-0.5,1.1-1.3,1.6-2.5,1.6
						c-0.8,0-1.4-0.3-1.9-0.8c-0.5-0.5-0.8-1.2-0.8-2c0-0.8,0.3-1.5,0.8-2c0.5-0.5,1.2-0.8,2-0.8c0.8,0,1.4,0.3,1.9,0.7
						c0.5,0.5,0.7,1.2,0.7,1.9V598.5z M149.5,596.7c-0.3,0.3-0.5,0.6-0.6,1h3.2c0-0.4-0.2-0.7-0.5-1
						C150.9,596.2,150,596.2,149.5,596.7z"/>
				</g>
			</g>
		</g>
	</g>
</g>
<g>
	<g class="st2">
		<g>
			<path class="st1" d="M463,559.2v57H298v-57H463 M464,558.2H297v59h167V558.2L464,558.2z"/>
		</g>
	</g>
	<g>
		<g>
			<polygon class="st3" points="351.2,578.6 347.7,573.6 347.7,580.3 348.9,581.9 351.2,585.2 353.5,581.9 			"/>
			<linearGradient id="SVGID_2_" gradientUnits="userSpaceOnUse" x1="357.192" y1="585.2429" x2="357.192" y2="564.988">
				<stop  offset="0" style="stop-color:#E50A0A;stop-opacity:0.9"/>
				<stop  offset="1" style="stop-color:#E50A0A;stop-opacity:0"/>
			</linearGradient>
			<polygon class="st6" points="360.8,565 351.2,578.6 348.9,581.9 351.2,585.2 353.5,581.9 365.5,565 			"/>
			<g>
				<path class="st5" d="M333.5,572.3c-2.2,0-4,0.7-5.4,2.1c-1.4,1.4-2.1,3.2-2.1,5.3c0,2.1,0.7,3.8,2.1,5.3
					c1.4,1.4,3.2,2.1,5.4,2.1c2.1,0,4-0.7,5.4-2.1c1.4-1.4,2.1-3.2,2.1-5.3c0-2.1-0.7-3.8-2.1-5.3
					C337.5,573,335.7,572.3,333.5,572.3z M331.1,577.1c0.6-0.6,1.4-0.9,2.4-0.9c1,0,1.8,0.3,2.4,0.9c0.7,0.7,1,1.5,1,2.6
					c0,1.1-0.3,1.9-1,2.6c-0.6,0.6-1.4,0.9-2.4,0.9c-1,0-1.8-0.3-2.4-0.9c-0.7-0.7-1-1.5-1-2.6C330.1,578.6,330.5,577.7,331.1,577.1
					z"/>
				<path class="st5" d="M369.5,572.5h-6.7v14.3h4.1v-4.5h2.6c3.6,0,5.7-1.8,5.7-4.9C375.2,574.3,373.1,572.5,369.5,572.5z
					 M366.9,576.1h2.5c1.5,0,1.7,0.8,1.7,1.3c0,0.6-0.2,1.3-1.7,1.3h-2.5V576.1z"/>
				<polygon class="st5" points="381,572.5 376.9,572.5 376.9,586.8 387.6,586.8 387.6,582.9 381,582.9 				"/>
				<rect x="389.5" y="572.5" class="st5" width="4.1" height="14.3"/>
				<polygon class="st5" points="395.5,576.2 399.5,576.2 399.5,586.8 403.5,586.8 403.5,576.2 407.5,576.2 407.5,572.5 
					395.5,572.5 				"/>
				<polygon class="st5" points="413.5,581.3 419.6,581.3 419.6,577.6 413.5,577.6 413.5,576.2 420.1,576.2 420.1,572.5 
					409.4,572.5 409.4,586.8 420.2,586.8 420.2,583.1 413.5,583.1 				"/>
				<polygon class="st5" points="446,572.5 446,577.6 441.3,577.6 441.3,572.5 437.2,572.5 437.2,586.8 441.3,586.8 441.3,581.5 
					446,581.5 446,586.8 450.1,586.8 450.1,572.5 				"/>
				<rect x="342.7" y="572.5" class="st5" width="4.1" height="14.3"/>
				<polygon class="st5" points="355.6,586.8 359.7,586.8 359.7,574.9 355.6,580.8 				"/>
				<path class="st5" d="M321.8,580.7l-0.2,0.3c-0.9,1.6-1.8,2.3-3.2,2.3c-0.9,0-1.7-0.3-2.4-1c-0.7-0.7-1-1.5-1-2.6
					c0-1.1,0.3-1.9,1-2.6c0.7-0.7,1.4-1,2.3-1c1.4,0,2.3,0.7,3,2.1l0.1,0.3l3.3-2.5c-1.1-2.4-3.4-3.8-6.4-3.8
					c-2.1,0-3.9,0.7-5.3,2.1c-1.4,1.4-2.2,3.2-2.2,5.3c0,2.2,0.7,4,2.1,5.3c1.4,1.4,3.2,2.1,5.3,2.1c2.9,0,4.8-1.1,6.6-3.8l0.1-0.1
					L321.8,580.7z"/>
				<path class="st5" d="M432.5,580.7l-0.2,0.3c-0.9,1.6-1.8,2.3-3.2,2.3c-0.9,0-1.7-0.3-2.4-1c-0.7-0.7-1-1.5-1-2.6
					c0-1.1,0.3-1.9,1-2.6c0.7-0.7,1.4-1,2.3-1c1.4,0,2.3,0.7,3,2.1l0.1,0.3l3.3-2.5c-1.1-2.4-3.4-3.8-6.4-3.8
					c-2.1,0-3.9,0.7-5.3,2.1c-1.4,1.4-2.2,3.2-2.2,5.3c0,2.2,0.7,4,2.1,5.3c1.4,1.4,3.2,2.1,5.3,2.1c2.9,0,4.8-1.1,6.6-3.8l0.1-0.1
					L432.5,580.7z"/>
			</g>
		</g>
		<g>
			<g>
				<g>
					<path class="st1" d="M312.8,600.9v-7.6h1.1v3c0.4-0.6,1.1-1,1.9-1c0.7,0,1.3,0.3,1.8,0.8c0.5,0.5,0.7,1.2,0.7,2.1
						c0,0.8-0.3,1.5-0.7,2.1c-0.5,0.5-1.1,0.8-1.8,0.8c-0.8,0-1.5-0.4-1.8-0.9v0.8H312.8z M315.5,600.1c0.5,0,0.9-0.2,1.2-0.5
						c0.3-0.3,0.5-0.8,0.5-1.3c0-0.5-0.2-1-0.5-1.3c-0.3-0.3-0.7-0.5-1.2-0.5c-0.5,0-0.9,0.2-1.2,0.5c-0.3,0.3-0.5,0.8-0.5,1.3
						c0,0.5,0.2,1,0.5,1.3C314.7,599.9,315.1,600.1,315.5,600.1z"/>
				</g>
				<g>
					<path class="st1" d="M320.2,602.1c0.6,0.2,0.9,0.2,1.1-0.5l0.3-0.7l-2.2-5.4h1.3l1.5,3.9l1.5-3.9h1.2l-2.6,6.5
						c-0.3,0.8-0.8,1.2-1.5,1.2c-0.3,0-0.5,0-0.8-0.1L320.2,602.1z"/>
				</g>
				<g>
					<path class="st1" d="M330.3,600.9v-7.6h1.3l2.6,6.4l2.6-6.4h1.3v7.6h-1.1v-5.3l-0.4,1.1l-1.7,4.2h-1.1l-1.7-4.2
						c-0.2-0.6-0.3-0.9-0.4-1.1v5.3H330.3z"/>
				</g>
				<g>
					<path class="st1" d="M344.6,600.9c-0.2-0.2-0.3-0.5-0.3-0.9c-0.4,0.7-1,1.1-1.8,1.1c-1.1,0-1.8-0.7-1.8-1.7
						c0-1,0.8-1.6,1.9-1.8l1.7-0.3v-0.2c0-0.6-0.4-0.9-1.1-0.9c-0.7,0-1.1,0.3-1.1,0.7c0,0.1,0,0.1,0,0.2l-1,0.3
						c-0.1-0.1-0.1-0.3-0.1-0.4c0-0.4,0.2-0.8,0.6-1.1c0.4-0.3,0.9-0.5,1.6-0.5c1.5,0,2.2,0.7,2.2,1.8v2.4c0,0.5,0.1,1,0.3,1.3
						H344.6z M344.3,598.4v-0.2l-1.5,0.2c-0.7,0.1-1,0.4-1,0.9s0.3,0.8,0.9,0.8C343.6,600.2,344.3,599.4,344.3,598.4z"/>
				</g>
				<g>
					<path class="st1" d="M349.1,595.6l1,1.6l1-1.6h1.3l-1.7,2.5l1.9,2.9h-1.3l-1.2-2l-1.3,2h-1.3l2-2.9l-1.7-2.5H349.1z"/>
				</g>
				<g>
					<path class="st1" d="M354.7,594.7v-1.2h1.3v1.2H354.7z M354.8,600.9v-5.4h1.1v5.4H354.8z"/>
				</g>
				<g>
					<path class="st1" d="M366.2,600.9h-1.1v-3.6c0-0.7-0.3-1-0.9-1c-0.7,0-1.2,0.5-1.2,1.6v3h-1.1v-3.5c0-0.6-0.3-1-0.9-1
						c-0.7,0-1.2,0.6-1.2,1.6v3h-1.1v-5.4h1.1v0.8c0.3-0.6,0.9-0.9,1.6-0.9c0.8,0,1.3,0.3,1.5,1c0.4-0.6,0.9-1,1.7-1
						c1,0,1.7,0.6,1.7,1.6V600.9z"/>
				</g>
				<g>
					<path class="st1" d="M372.6,600.9c-0.2-0.2-0.3-0.5-0.3-0.9c-0.4,0.7-1,1.1-1.8,1.1c-1.1,0-1.8-0.7-1.8-1.7
						c0-1,0.8-1.6,1.9-1.8l1.7-0.3v-0.2c0-0.6-0.4-0.9-1.1-0.9c-0.7,0-1.1,0.3-1.1,0.7c0,0.1,0,0.1,0,0.2l-1,0.3
						c-0.1-0.1-0.1-0.3-0.1-0.4c0-0.4,0.2-0.8,0.6-1.1c0.4-0.3,0.9-0.5,1.6-0.5c1.5,0,2.2,0.7,2.2,1.8v2.4c0,0.5,0.1,1,0.3,1.3
						H372.6z M372.3,598.4v-0.2l-1.5,0.2c-0.7,0.1-1,0.4-1,0.9s0.3,0.8,0.9,0.8C371.7,600.2,372.3,599.4,372.3,598.4z"/>
				</g>
				<g>
					<path class="st1" d="M386.5,599.1c-0.8,1.4-1.8,2-3.3,2c-1.1,0-2-0.4-2.7-1.1c-0.7-0.7-1.1-1.7-1.1-2.8c0-1.1,0.4-2.1,1.1-2.8
						c0.7-0.7,1.6-1.1,2.7-1.1c1.5,0,2.7,0.8,3.3,2l-0.9,0.7c-0.5-1.1-1.3-1.6-2.3-1.6c-0.7,0-1.3,0.3-1.9,0.8
						c-0.5,0.6-0.8,1.2-0.8,2.1c0,0.8,0.3,1.5,0.7,2.1c0.5,0.6,1.1,0.8,1.9,0.8c1,0,1.9-0.5,2.4-1.6L386.5,599.1z"/>
				</g>
				<g>
					<path class="st1" d="M394.5,598.3c0,0.9-0.3,1.6-0.9,2.1s-1.3,0.8-2,0.8c-0.8,0-1.4-0.3-2-0.8s-0.9-1.2-0.9-2.1
						s0.3-1.6,0.9-2.1c0.6-0.5,1.2-0.8,2-0.8c0.8,0,1.5,0.3,2,0.8C394.2,596.7,394.5,597.4,394.5,598.3z M391.6,600.1
						c0.5,0,0.9-0.2,1.2-0.5c0.3-0.3,0.5-0.8,0.5-1.3c0-0.5-0.2-1-0.5-1.3c-0.3-0.3-0.8-0.5-1.2-0.5c-0.5,0-0.9,0.2-1.2,0.5
						c-0.3,0.3-0.5,0.8-0.5,1.3c0,0.5,0.2,1,0.5,1.3C390.7,599.9,391.1,600.1,391.6,600.1z"/>
				</g>
				<g>
					<path class="st1" d="M404.5,600.9h-1.1v-3.6c0-0.7-0.3-1-0.9-1c-0.7,0-1.2,0.5-1.2,1.6v3h-1.1v-3.5c0-0.6-0.3-1-0.9-1
						c-0.7,0-1.2,0.6-1.2,1.6v3h-1.1v-5.4h1.1v0.8c0.3-0.6,0.9-0.9,1.6-0.9c0.8,0,1.3,0.3,1.5,1c0.4-0.6,0.9-1,1.7-1
						c1,0,1.7,0.6,1.7,1.6V600.9z"/>
				</g>
				<g>
					<path class="st1" d="M407.3,603.2v-7.6h1.1v0.8c0.3-0.6,1.1-1,1.9-1c0.7,0,1.3,0.3,1.8,0.8c0.5,0.5,0.7,1.2,0.7,2.1
						s-0.3,1.5-0.7,2.1c-0.5,0.5-1.1,0.8-1.9,0.8c-0.8,0-1.5-0.3-1.8-0.9v3H407.3z M410,596.4c-0.5,0-0.9,0.2-1.2,0.5
						c-0.3,0.3-0.5,0.8-0.5,1.3c0,0.5,0.2,1,0.5,1.3c0.3,0.3,0.7,0.5,1.2,0.5c0.5,0,0.9-0.2,1.2-0.5c0.3-0.3,0.5-0.8,0.5-1.3
						c0-0.5-0.2-1-0.5-1.3C410.9,596.6,410.5,596.4,410,596.4z"/>
				</g>
				<g>
					<path class="st1" d="M415.3,600.9v-7.6h1.1v7.6H415.3z"/>
				</g>
				<g>
					<path class="st1" d="M419,594.7v-1.2h1.3v1.2H419z M419.1,600.9v-5.4h1.1v5.4H419.1z"/>
				</g>
				<g>
					<path class="st1" d="M426.6,600.9c-0.2-0.2-0.3-0.5-0.3-0.9c-0.4,0.7-1,1.1-1.8,1.1c-1.1,0-1.8-0.7-1.8-1.7
						c0-1,0.8-1.6,1.9-1.8l1.7-0.3v-0.2c0-0.6-0.4-0.9-1.1-0.9c-0.7,0-1.1,0.3-1.1,0.7c0,0.1,0,0.1,0,0.2l-1,0.3
						c-0.1-0.1-0.1-0.3-0.1-0.4c0-0.4,0.2-0.8,0.6-1.1c0.4-0.3,0.9-0.5,1.6-0.5c1.5,0,2.2,0.7,2.2,1.8v2.4c0,0.5,0.1,1,0.3,1.3
						H426.6z M426.3,598.4v-0.2l-1.5,0.2c-0.7,0.1-1,0.4-1,0.9s0.3,0.8,0.9,0.8C425.7,600.2,426.3,599.4,426.3,598.4z"/>
				</g>
				<g>
					<path class="st1" d="M435,600.9h-1.1v-3.3c0-0.7-0.4-1.2-1.2-1.2c-0.8,0-1.4,0.7-1.4,1.7v2.8h-1.1v-5.4h1.1v0.9
						c0.4-0.6,1.1-1.1,1.8-1.1c1.1,0,1.9,0.7,1.9,1.9V600.9z"/>
				</g>
				<g>
					<path class="st1" d="M442.7,599.5c-0.5,1-1.4,1.6-2.5,1.6c-0.8,0-1.5-0.3-2-0.8c-0.5-0.5-0.8-1.2-0.8-2c0-0.8,0.3-1.5,0.8-2
						c0.5-0.5,1.2-0.8,2-0.8c1.2,0,2,0.5,2.4,1.5l-0.9,0.6c-0.3-0.7-0.9-1-1.5-1c-0.5,0-0.9,0.2-1.2,0.5c-0.3,0.3-0.5,0.8-0.5,1.3
						c0,1.1,0.7,1.8,1.7,1.8c0.8,0,1.2-0.4,1.6-1.1L442.7,599.5z"/>
				</g>
				<g>
					<path class="st1" d="M450.1,598.5h-4.3c0,1,0.7,1.6,1.6,1.6c0.8,0,1.3-0.4,1.6-1.1l0.9,0.5c-0.5,1.1-1.3,1.6-2.5,1.6
						c-0.8,0-1.4-0.3-1.9-0.8c-0.5-0.5-0.8-1.2-0.8-2c0-0.8,0.3-1.5,0.8-2c0.5-0.5,1.2-0.8,2-0.8c0.8,0,1.4,0.3,1.9,0.7
						c0.5,0.5,0.7,1.2,0.7,1.9V598.5z M446.5,596.7c-0.3,0.3-0.5,0.6-0.6,1h3.2c0-0.4-0.2-0.7-0.5-1
						C447.9,596.2,447,596.2,446.5,596.7z"/>
				</g>
			</g>
		</g>
	</g>
</g>
<g>
	<g class="st2">
		<g>
			<path class="st1" d="M314.5,280.2v57h-165v-57H314.5 M315.5,279.2h-167v59h167V279.2L315.5,279.2z"/>
		</g>
	</g>
	<g>
		<g>
			<polygon class="st3" points="202.7,299.6 199.2,294.6 199.2,301.3 200.4,302.9 202.7,306.2 205,302.9 			"/>
			<linearGradient id="SVGID_3_" gradientUnits="userSpaceOnUse" x1="208.692" y1="306.2452" x2="208.692" y2="285.9904">
				<stop  offset="0" style="stop-color:#E50A0A;stop-opacity:0.9"/>
				<stop  offset="1" style="stop-color:#E50A0A;stop-opacity:0"/>
			</linearGradient>
			<polygon class="st7" points="212.3,286 202.7,299.6 200.4,302.9 202.7,306.2 205,302.9 217,286 			"/>
			<g>
				<path class="st5" d="M185,293.3c-2.2,0-4,0.7-5.4,2.1c-1.4,1.4-2.1,3.2-2.1,5.3c0,2.1,0.7,3.8,2.1,5.3c1.4,1.4,3.2,2.1,5.4,2.1
					c2.1,0,4-0.7,5.4-2.1c1.4-1.4,2.1-3.2,2.1-5.3c0-2.1-0.7-3.8-2.1-5.3C189,294,187.2,293.3,185,293.3z M182.6,298.1
					c0.6-0.6,1.4-0.9,2.4-0.9c1,0,1.8,0.3,2.4,0.9c0.7,0.7,1,1.5,1,2.6c0,1.1-0.3,1.9-1,2.6c-0.6,0.6-1.4,0.9-2.4,0.9
					c-1,0-1.8-0.3-2.4-0.9c-0.7-0.7-1-1.5-1-2.6C181.6,299.6,182,298.7,182.6,298.1z"/>
				<path class="st5" d="M221,293.5h-6.7v14.3h4.1v-4.5h2.6c3.6,0,5.7-1.8,5.7-4.9C226.7,295.3,224.6,293.5,221,293.5z M218.4,297.1
					h2.5c1.5,0,1.7,0.8,1.7,1.3s-0.2,1.3-1.7,1.3h-2.5V297.1z"/>
				<polygon class="st5" points="232.5,293.5 228.4,293.5 228.4,307.8 239.1,307.8 239.1,303.9 232.5,303.9 				"/>
				<rect x="241" y="293.5" class="st5" width="4.1" height="14.3"/>
				<polygon class="st5" points="247,297.2 251,297.2 251,307.8 255,307.8 255,297.2 259,297.2 259,293.5 247,293.5 				"/>
				<polygon class="st5" points="265,302.3 271.1,302.3 271.1,298.6 265,298.6 265,297.2 271.6,297.2 271.6,293.5 260.9,293.5 
					260.9,307.8 271.7,307.8 271.7,304.1 265,304.1 				"/>
				<polygon class="st5" points="297.5,293.5 297.5,298.6 292.8,298.6 292.8,293.5 288.7,293.5 288.7,307.8 292.8,307.8 
					292.8,302.5 297.5,302.5 297.5,307.8 301.6,307.8 301.6,293.5 				"/>
				<rect x="194.2" y="293.5" class="st5" width="4.1" height="14.3"/>
				<polygon class="st5" points="207.1,307.8 211.2,307.8 211.2,295.9 207.1,301.8 				"/>
				<path class="st5" d="M173.3,301.7l-0.2,0.3c-0.9,1.6-1.8,2.3-3.2,2.3c-0.9,0-1.7-0.3-2.4-1c-0.7-0.7-1-1.5-1-2.6
					c0-1.1,0.3-1.9,1-2.6c0.7-0.7,1.4-1,2.3-1c1.4,0,2.3,0.7,3,2.1l0.1,0.3l3.3-2.5c-1.1-2.4-3.4-3.8-6.4-3.8
					c-2.1,0-3.9,0.7-5.3,2.1c-1.4,1.4-2.2,3.2-2.2,5.3c0,2.2,0.7,4,2.1,5.3c1.4,1.4,3.2,2.1,5.3,2.1c2.9,0,4.8-1.1,6.6-3.8l0.1-0.1
					L173.3,301.7z"/>
				<path class="st5" d="M284,301.7l-0.2,0.3c-0.9,1.6-1.8,2.3-3.2,2.3c-0.9,0-1.7-0.3-2.4-1c-0.7-0.7-1-1.5-1-2.6
					c0-1.1,0.3-1.9,1-2.6c0.7-0.7,1.4-1,2.3-1c1.4,0,2.3,0.7,3,2.1l0.1,0.3l3.3-2.5c-1.1-2.4-3.4-3.8-6.4-3.8
					c-2.1,0-3.9,0.7-5.3,2.1c-1.4,1.4-2.2,3.2-2.2,5.3c0,2.2,0.7,4,2.1,5.3c1.4,1.4,3.2,2.1,5.3,2.1c2.9,0,4.8-1.1,6.6-3.8l0.1-0.1
					L284,301.7z"/>
			</g>
		</g>
		<g>
			<g>
				<g>
					<path class="st1" d="M164.3,322v-7.6h1.1v3c0.4-0.6,1.1-1,1.9-1c0.7,0,1.3,0.3,1.8,0.8c0.5,0.5,0.7,1.2,0.7,2.1
						c0,0.8-0.3,1.5-0.7,2.1c-0.5,0.5-1.1,0.8-1.8,0.8c-0.8,0-1.5-0.4-1.8-0.9v0.8H164.3z M167,321.1c0.5,0,0.9-0.2,1.2-0.5
						c0.3-0.3,0.5-0.8,0.5-1.3s-0.2-1-0.5-1.3c-0.3-0.3-0.7-0.5-1.2-0.5s-0.9,0.2-1.2,0.5c-0.3,0.3-0.5,0.8-0.5,1.3s0.2,1,0.5,1.3
						C166.2,320.9,166.6,321.1,167,321.1z"/>
				</g>
				<g>
					<path class="st1" d="M171.7,323.1c0.6,0.2,0.9,0.2,1.1-0.5l0.3-0.7l-2.2-5.4h1.3l1.5,3.9l1.5-3.9h1.2l-2.6,6.5
						c-0.3,0.8-0.8,1.2-1.5,1.2c-0.3,0-0.5,0-0.8-0.1L171.7,323.1z"/>
				</g>
				<g>
					<path class="st1" d="M181.8,322v-7.6h1.3l2.6,6.4l2.6-6.4h1.3v7.6h-1.1v-5.3l-0.4,1.1l-1.7,4.2h-1.1l-1.7-4.2
						c-0.2-0.6-0.3-0.9-0.4-1.1v5.3H181.8z"/>
				</g>
				<g>
					<path class="st1" d="M196.1,322c-0.2-0.2-0.3-0.5-0.3-0.9c-0.4,0.7-1,1.1-1.8,1.1c-1.1,0-1.8-0.7-1.8-1.7c0-1,0.8-1.6,1.9-1.8
						l1.7-0.3v-0.2c0-0.6-0.4-0.9-1.1-0.9c-0.7,0-1.1,0.3-1.1,0.7c0,0.1,0,0.1,0,0.2l-1,0.3c-0.1-0.1-0.1-0.3-0.1-0.4
						c0-0.4,0.2-0.8,0.6-1.1c0.4-0.3,0.9-0.5,1.6-0.5c1.5,0,2.2,0.7,2.2,1.8v2.4c0,0.5,0.1,1,0.3,1.3H196.1z M195.8,319.4v-0.2
						l-1.5,0.2c-0.7,0.1-1,0.4-1,0.9s0.3,0.8,0.9,0.8C195.1,321.2,195.8,320.4,195.8,319.4z"/>
				</g>
				<g>
					<path class="st1" d="M200.6,316.6l1,1.6l1-1.6h1.3l-1.7,2.5l1.9,2.9h-1.3l-1.2-2l-1.3,2h-1.3l2-2.9l-1.7-2.5H200.6z"/>
				</g>
				<g>
					<path class="st1" d="M206.2,315.7v-1.2h1.3v1.2H206.2z M206.3,322v-5.4h1.1v5.4H206.3z"/>
				</g>
				<g>
					<path class="st1" d="M217.7,322h-1.1v-3.6c0-0.7-0.3-1-0.9-1c-0.7,0-1.2,0.5-1.2,1.6v3h-1.1v-3.5c0-0.6-0.3-1-0.9-1
						c-0.7,0-1.2,0.6-1.2,1.6v3h-1.1v-5.4h1.1v0.8c0.3-0.6,0.9-0.9,1.6-0.9c0.8,0,1.3,0.3,1.5,1c0.4-0.6,0.9-1,1.7-1
						c1,0,1.7,0.6,1.7,1.6V322z"/>
				</g>
				<g>
					<path class="st1" d="M224.1,322c-0.2-0.2-0.3-0.5-0.3-0.9c-0.4,0.7-1,1.1-1.8,1.1c-1.1,0-1.8-0.7-1.8-1.7c0-1,0.8-1.6,1.9-1.8
						l1.7-0.3v-0.2c0-0.6-0.4-0.9-1.1-0.9c-0.7,0-1.1,0.3-1.1,0.7c0,0.1,0,0.1,0,0.2l-1,0.3c-0.1-0.1-0.1-0.3-0.1-0.4
						c0-0.4,0.2-0.8,0.6-1.1c0.4-0.3,0.9-0.5,1.6-0.5c1.5,0,2.2,0.7,2.2,1.8v2.4c0,0.5,0.1,1,0.3,1.3H224.1z M223.8,319.4v-0.2
						l-1.5,0.2c-0.7,0.1-1,0.4-1,0.9s0.3,0.8,0.9,0.8C223.2,321.2,223.8,320.4,223.8,319.4z"/>
				</g>
				<g>
					<path class="st1" d="M238,320.1c-0.8,1.4-1.8,2-3.3,2c-1.1,0-2-0.4-2.7-1.1c-0.7-0.7-1.1-1.7-1.1-2.8c0-1.1,0.4-2.1,1.1-2.8
						c0.7-0.7,1.6-1.1,2.7-1.1c1.5,0,2.7,0.8,3.3,2l-0.9,0.7c-0.5-1.1-1.3-1.6-2.3-1.6c-0.7,0-1.3,0.3-1.9,0.8
						c-0.5,0.6-0.8,1.2-0.8,2.1c0,0.8,0.3,1.5,0.7,2.1c0.5,0.6,1.1,0.8,1.9,0.8c1,0,1.9-0.5,2.4-1.6L238,320.1z"/>
				</g>
				<g>
					<path class="st1" d="M246,319.3c0,0.9-0.3,1.6-0.9,2.1c-0.6,0.5-1.3,0.8-2,0.8c-0.8,0-1.4-0.2-2-0.8c-0.6-0.5-0.9-1.2-0.9-2.1
						s0.3-1.6,0.9-2.1c0.6-0.5,1.2-0.8,2-0.8c0.8,0,1.5,0.3,2,0.8C245.7,317.7,246,318.4,246,319.3z M243.1,321.1
						c0.5,0,0.9-0.2,1.2-0.5c0.3-0.3,0.5-0.8,0.5-1.3s-0.2-1-0.5-1.3c-0.3-0.3-0.8-0.5-1.2-0.5c-0.5,0-0.9,0.2-1.2,0.5
						c-0.3,0.3-0.5,0.8-0.5,1.3s0.2,1,0.5,1.3C242.2,320.9,242.6,321.1,243.1,321.1z"/>
				</g>
				<g>
					<path class="st1" d="M256,322h-1.1v-3.6c0-0.7-0.3-1-0.9-1c-0.7,0-1.2,0.5-1.2,1.6v3h-1.1v-3.5c0-0.6-0.3-1-0.9-1
						c-0.7,0-1.2,0.6-1.2,1.6v3h-1.1v-5.4h1.1v0.8c0.3-0.6,0.9-0.9,1.6-0.9c0.8,0,1.3,0.3,1.5,1c0.4-0.6,0.9-1,1.7-1
						c1,0,1.7,0.6,1.7,1.6V322z"/>
				</g>
				<g>
					<path class="st1" d="M258.8,324.2v-7.6h1.1v0.8c0.3-0.6,1.1-1,1.9-1c0.7,0,1.3,0.3,1.8,0.8c0.5,0.5,0.7,1.2,0.7,2.1
						s-0.3,1.5-0.7,2.1c-0.5,0.5-1.1,0.8-1.9,0.8c-0.8,0-1.5-0.3-1.8-0.9v3H258.8z M261.5,317.4c-0.5,0-0.9,0.2-1.2,0.5
						c-0.3,0.3-0.5,0.8-0.5,1.3s0.2,1,0.5,1.3c0.3,0.3,0.7,0.5,1.2,0.5c0.5,0,0.9-0.2,1.2-0.5c0.3-0.3,0.5-0.8,0.5-1.3
						s-0.2-1-0.5-1.3C262.4,317.6,262,317.4,261.5,317.4z"/>
				</g>
				<g>
					<path class="st1" d="M266.8,322v-7.6h1.1v7.6H266.8z"/>
				</g>
				<g>
					<path class="st1" d="M270.5,315.7v-1.2h1.3v1.2H270.5z M270.6,322v-5.4h1.1v5.4H270.6z"/>
				</g>
				<g>
					<path class="st1" d="M278.1,322c-0.2-0.2-0.3-0.5-0.3-0.9c-0.4,0.7-1,1.1-1.8,1.1c-1.1,0-1.8-0.7-1.8-1.7c0-1,0.8-1.6,1.9-1.8
						l1.7-0.3v-0.2c0-0.6-0.4-0.9-1.1-0.9c-0.7,0-1.1,0.3-1.1,0.7c0,0.1,0,0.1,0,0.2l-1,0.3c-0.1-0.1-0.1-0.3-0.1-0.4
						c0-0.4,0.2-0.8,0.6-1.1c0.4-0.3,0.9-0.5,1.6-0.5c1.5,0,2.2,0.7,2.2,1.8v2.4c0,0.5,0.1,1,0.3,1.3H278.1z M277.8,319.4v-0.2
						l-1.5,0.2c-0.7,0.1-1,0.4-1,0.9s0.3,0.8,0.9,0.8C277.2,321.2,277.8,320.4,277.8,319.4z"/>
				</g>
				<g>
					<path class="st1" d="M286.5,322h-1.1v-3.3c0-0.7-0.4-1.2-1.2-1.2c-0.8,0-1.4,0.7-1.4,1.7v2.8h-1.1v-5.4h1.1v0.9
						c0.4-0.6,1.1-1.1,1.8-1.1c1.1,0,1.9,0.7,1.9,1.9V322z"/>
				</g>
				<g>
					<path class="st1" d="M294.2,320.6c-0.5,1-1.4,1.6-2.5,1.6c-0.8,0-1.5-0.3-2-0.8c-0.5-0.5-0.8-1.2-0.8-2c0-0.8,0.3-1.5,0.8-2
						c0.5-0.5,1.2-0.8,2-0.8c1.2,0,2,0.5,2.4,1.5l-0.9,0.6c-0.3-0.7-0.9-1-1.5-1c-0.5,0-0.9,0.2-1.2,0.5c-0.3,0.3-0.5,0.8-0.5,1.3
						c0,1.1,0.7,1.8,1.7,1.8c0.8,0,1.2-0.4,1.6-1.1L294.2,320.6z"/>
				</g>
				<g>
					<path class="st1" d="M301.6,319.5h-4.3c0,1,0.7,1.6,1.6,1.6c0.8,0,1.3-0.4,1.6-1.1l0.9,0.5c-0.5,1.1-1.3,1.6-2.5,1.6
						c-0.8,0-1.4-0.3-1.9-0.8c-0.5-0.5-0.8-1.2-0.8-2c0-0.8,0.3-1.5,0.8-2c0.5-0.5,1.2-0.8,2-0.8c0.8,0,1.4,0.3,1.9,0.7
						c0.5,0.5,0.7,1.2,0.7,1.9V319.5z M298,317.7c-0.3,0.2-0.5,0.6-0.6,1h3.2c0-0.4-0.2-0.7-0.5-1
						C299.4,317.2,298.5,317.2,298,317.7z"/>
				</g>
			</g>
		</g>
	</g>
</g>
<g>
	<g class="st2">
		<g>
			<path class="st1" d="M654,406.2v57H489v-57H654 M655,405.2H488v59h167V405.2L655,405.2z"/>
		</g>
	</g>
	<g>
		<g>
			<polygon class="st3" points="542.2,425.6 538.7,420.6 538.7,427.3 539.9,428.9 542.2,432.2 544.5,428.9 			"/>
			<linearGradient id="SVGID_4_" gradientUnits="userSpaceOnUse" x1="548.192" y1="432.243" x2="548.192" y2="411.988">
				<stop  offset="0" style="stop-color:#E50A0A;stop-opacity:0.9"/>
				<stop  offset="1" style="stop-color:#E50A0A;stop-opacity:0"/>
			</linearGradient>
			<polygon class="st8" points="551.8,412 542.2,425.6 539.9,428.9 542.2,432.2 544.5,428.9 556.5,412 			"/>
			<g>
				<path class="st5" d="M524.5,419.3c-2.2,0-4,0.7-5.4,2.1c-1.4,1.4-2.1,3.2-2.1,5.3c0,2.1,0.7,3.8,2.1,5.3
					c1.4,1.4,3.2,2.1,5.4,2.1c2.1,0,4-0.7,5.4-2.1c1.4-1.4,2.1-3.2,2.1-5.3c0-2.1-0.7-3.8-2.1-5.3
					C528.5,420,526.7,419.3,524.5,419.3z M522.1,424.1c0.6-0.6,1.4-0.9,2.4-0.9c1,0,1.8,0.3,2.4,0.9c0.7,0.7,1,1.5,1,2.6
					c0,1.1-0.3,1.9-1,2.6c-0.6,0.6-1.4,0.9-2.4,0.9c-1,0-1.8-0.3-2.4-0.9c-0.7-0.7-1-1.5-1-2.6C521.1,425.6,521.5,424.7,522.1,424.1
					z"/>
				<path class="st5" d="M560.5,419.5h-6.7v14.3h4.1v-4.5h2.6c3.6,0,5.7-1.8,5.7-4.9C566.2,421.3,564.1,419.5,560.5,419.5z
					 M557.9,423.1h2.5c1.5,0,1.7,0.8,1.7,1.3s-0.2,1.3-1.7,1.3h-2.5V423.1z"/>
				<polygon class="st5" points="572,419.5 567.9,419.5 567.9,433.8 578.6,433.8 578.6,429.9 572,429.9 				"/>
				<rect x="580.5" y="419.5" class="st5" width="4.1" height="14.3"/>
				<polygon class="st5" points="586.5,423.2 590.5,423.2 590.5,433.8 594.5,433.8 594.5,423.2 598.5,423.2 598.5,419.5 
					586.5,419.5 				"/>
				<polygon class="st5" points="604.5,428.3 610.6,428.3 610.6,424.6 604.5,424.6 604.5,423.2 611.1,423.2 611.1,419.5 
					600.4,419.5 600.4,433.8 611.2,433.8 611.2,430.1 604.5,430.1 				"/>
				<polygon class="st5" points="637,419.5 637,424.6 632.3,424.6 632.3,419.5 628.2,419.5 628.2,433.8 632.3,433.8 632.3,428.5 
					637,428.5 637,433.8 641.1,433.8 641.1,419.5 				"/>
				<rect x="533.7" y="419.5" class="st5" width="4.1" height="14.3"/>
				<polygon class="st5" points="546.6,433.8 550.7,433.8 550.7,421.9 546.6,427.8 				"/>
				<path class="st5" d="M512.8,427.7l-0.2,0.3c-0.9,1.6-1.8,2.3-3.2,2.3c-0.9,0-1.7-0.3-2.4-1c-0.7-0.7-1-1.5-1-2.6
					c0-1.1,0.3-1.9,1-2.6c0.7-0.7,1.4-1,2.3-1c1.4,0,2.3,0.7,3,2.1l0.1,0.3l3.3-2.5c-1.1-2.4-3.4-3.8-6.4-3.8
					c-2.1,0-3.9,0.7-5.3,2.1c-1.4,1.4-2.2,3.2-2.2,5.3c0,2.2,0.7,4,2.1,5.3c1.4,1.4,3.2,2.1,5.3,2.1c2.9,0,4.8-1.1,6.6-3.8l0.1-0.1
					L512.8,427.7z"/>
				<path class="st5" d="M623.5,427.7l-0.2,0.3c-0.9,1.6-1.8,2.3-3.2,2.3c-0.9,0-1.7-0.3-2.4-1c-0.7-0.7-1-1.5-1-2.6
					c0-1.1,0.3-1.9,1-2.6c0.7-0.7,1.4-1,2.3-1c1.4,0,2.3,0.7,3,2.1l0.1,0.3l3.3-2.5c-1.1-2.4-3.4-3.8-6.4-3.8
					c-2.1,0-3.9,0.7-5.3,2.1c-1.4,1.4-2.2,3.2-2.2,5.3c0,2.2,0.7,4,2.1,5.3c1.4,1.4,3.2,2.1,5.3,2.1c2.9,0,4.8-1.1,6.6-3.8l0.1-0.1
					L623.5,427.7z"/>
			</g>
		</g>
		<g>
			<g>
				<g>
					<path class="st1" d="M503.8,447.9v-7.6h1.1v3c0.4-0.6,1.1-1,1.9-1c0.7,0,1.3,0.3,1.8,0.8c0.5,0.5,0.7,1.2,0.7,2.1
						c0,0.8-0.3,1.5-0.7,2.1c-0.5,0.5-1.1,0.8-1.8,0.8c-0.8,0-1.5-0.4-1.8-0.9v0.8H503.8z M506.5,447.1c0.5,0,0.9-0.2,1.2-0.5
						c0.3-0.3,0.5-0.8,0.5-1.3s-0.2-1-0.5-1.3c-0.3-0.3-0.7-0.5-1.2-0.5c-0.5,0-0.9,0.2-1.2,0.5c-0.3,0.3-0.5,0.8-0.5,1.3
						s0.2,1,0.5,1.3C505.7,446.9,506.1,447.1,506.5,447.1z"/>
				</g>
				<g>
					<path class="st1" d="M511.2,449.1c0.6,0.2,0.9,0.2,1.1-0.5l0.3-0.7l-2.2-5.4h1.3l1.5,3.9l1.5-3.9h1.2l-2.6,6.5
						c-0.3,0.8-0.8,1.2-1.5,1.2c-0.3,0-0.5,0-0.8-0.1L511.2,449.1z"/>
				</g>
				<g>
					<path class="st1" d="M521.3,447.9v-7.6h1.3l2.6,6.4l2.6-6.4h1.3v7.6h-1.1v-5.3l-0.4,1.1l-1.7,4.2h-1.1l-1.7-4.2
						c-0.2-0.6-0.3-0.9-0.4-1.1v5.3H521.3z"/>
				</g>
				<g>
					<path class="st1" d="M535.6,447.9c-0.2-0.2-0.3-0.5-0.3-0.9c-0.4,0.7-1,1.1-1.8,1.1c-1.1,0-1.8-0.7-1.8-1.7
						c0-1,0.8-1.6,1.9-1.8l1.7-0.3v-0.2c0-0.6-0.4-0.9-1.1-0.9c-0.7,0-1.1,0.3-1.1,0.7c0,0.1,0,0.1,0,0.2l-1,0.3
						c-0.1-0.1-0.1-0.3-0.1-0.4c0-0.4,0.2-0.8,0.6-1.1c0.4-0.3,0.9-0.5,1.6-0.5c1.5,0,2.2,0.7,2.2,1.8v2.4c0,0.5,0.1,1,0.3,1.3
						H535.6z M535.3,445.4v-0.2l-1.5,0.3c-0.7,0.1-1,0.4-1,0.9s0.3,0.8,0.9,0.8C534.6,447.2,535.3,446.4,535.3,445.4z"/>
				</g>
				<g>
					<path class="st1" d="M540.1,442.6l1,1.6l1-1.6h1.3l-1.7,2.5l1.9,2.9h-1.3l-1.2-2l-1.3,2h-1.3l2-2.9l-1.7-2.5H540.1z"/>
				</g>
				<g>
					<path class="st1" d="M545.7,441.7v-1.2h1.3v1.2H545.7z M545.8,447.9v-5.4h1.1v5.4H545.8z"/>
				</g>
				<g>
					<path class="st1" d="M557.2,447.9h-1.1v-3.6c0-0.7-0.3-1-0.9-1c-0.7,0-1.2,0.5-1.2,1.6v3h-1.1v-3.5c0-0.6-0.3-1-0.9-1
						c-0.7,0-1.2,0.6-1.2,1.6v3h-1.1v-5.4h1.1v0.8c0.3-0.6,0.9-0.9,1.6-0.9c0.8,0,1.3,0.3,1.5,1c0.4-0.6,0.9-1,1.7-1
						c1,0,1.7,0.6,1.7,1.6V447.9z"/>
				</g>
				<g>
					<path class="st1" d="M563.6,447.9c-0.2-0.2-0.3-0.5-0.3-0.9c-0.4,0.7-1,1.1-1.8,1.1c-1.1,0-1.8-0.7-1.8-1.7
						c0-1,0.8-1.6,1.9-1.8l1.7-0.3v-0.2c0-0.6-0.4-0.9-1.1-0.9c-0.7,0-1.1,0.3-1.1,0.7c0,0.1,0,0.1,0,0.2l-1,0.3
						c-0.1-0.1-0.1-0.3-0.1-0.4c0-0.4,0.2-0.8,0.6-1.1c0.4-0.3,0.9-0.5,1.6-0.5c1.5,0,2.2,0.7,2.2,1.8v2.4c0,0.5,0.1,1,0.3,1.3
						H563.6z M563.3,445.4v-0.2l-1.5,0.3c-0.7,0.1-1,0.4-1,0.9s0.3,0.8,0.9,0.8C562.7,447.2,563.3,446.4,563.3,445.4z"/>
				</g>
				<g>
					<path class="st1" d="M577.5,446.1c-0.8,1.4-1.8,2-3.3,2c-1.1,0-2-0.4-2.7-1.1c-0.7-0.7-1.1-1.7-1.1-2.8c0-1.1,0.4-2.1,1.1-2.8
						c0.7-0.7,1.6-1.1,2.7-1.1c1.5,0,2.7,0.8,3.3,2l-0.9,0.7c-0.5-1.1-1.3-1.6-2.3-1.6c-0.7,0-1.3,0.3-1.9,0.8
						c-0.5,0.6-0.8,1.2-0.8,2.1s0.3,1.5,0.7,2.1c0.5,0.6,1.1,0.8,1.9,0.8c1,0,1.9-0.5,2.4-1.6L577.5,446.1z"/>
				</g>
				<g>
					<path class="st1" d="M585.5,445.3c0,0.9-0.3,1.6-0.9,2.1c-0.6,0.5-1.3,0.8-2,0.8c-0.8,0-1.4-0.3-2-0.8
						c-0.6-0.5-0.9-1.2-0.9-2.1c0-0.9,0.3-1.6,0.9-2.1c0.6-0.5,1.2-0.8,2-0.8c0.8,0,1.5,0.2,2,0.8
						C585.2,443.7,585.5,444.4,585.5,445.3z M582.6,447.1c0.5,0,0.9-0.2,1.2-0.5c0.3-0.3,0.5-0.8,0.5-1.3s-0.2-1-0.5-1.3
						c-0.3-0.3-0.8-0.5-1.2-0.5c-0.5,0-0.9,0.2-1.2,0.5c-0.3,0.3-0.5,0.8-0.5,1.3s0.2,1,0.5,1.3
						C581.7,446.9,582.1,447.1,582.6,447.1z"/>
				</g>
				<g>
					<path class="st1" d="M595.5,447.9h-1.1v-3.6c0-0.7-0.3-1-0.9-1c-0.7,0-1.2,0.5-1.2,1.6v3h-1.1v-3.5c0-0.6-0.3-1-0.9-1
						c-0.7,0-1.2,0.6-1.2,1.6v3h-1.1v-5.4h1.1v0.8c0.3-0.6,0.9-0.9,1.6-0.9c0.8,0,1.3,0.3,1.5,1c0.4-0.6,0.9-1,1.7-1
						c1,0,1.7,0.6,1.7,1.6V447.9z"/>
				</g>
				<g>
					<path class="st1" d="M598.3,450.2v-7.6h1.1v0.8c0.3-0.6,1.1-1,1.9-1c0.7,0,1.3,0.3,1.8,0.8c0.5,0.5,0.7,1.2,0.7,2.1
						s-0.3,1.5-0.7,2.1c-0.5,0.5-1.1,0.8-1.9,0.8c-0.8,0-1.5-0.3-1.8-0.9v3H598.3z M601,443.4c-0.5,0-0.9,0.2-1.2,0.5
						c-0.3,0.3-0.5,0.8-0.5,1.3s0.2,1,0.5,1.3c0.3,0.3,0.7,0.5,1.2,0.5c0.5,0,0.9-0.2,1.2-0.5c0.3-0.3,0.5-0.8,0.5-1.3
						s-0.2-1-0.5-1.3C601.9,443.6,601.5,443.4,601,443.4z"/>
				</g>
				<g>
					<path class="st1" d="M606.3,447.9v-7.6h1.1v7.6H606.3z"/>
				</g>
				<g>
					<path class="st1" d="M610,441.7v-1.2h1.3v1.2H610z M610.1,447.9v-5.4h1.1v5.4H610.1z"/>
				</g>
				<g>
					<path class="st1" d="M617.6,447.9c-0.2-0.2-0.3-0.5-0.3-0.9c-0.4,0.7-1,1.1-1.8,1.1c-1.1,0-1.8-0.7-1.8-1.7
						c0-1,0.8-1.6,1.9-1.8l1.7-0.3v-0.2c0-0.6-0.4-0.9-1.1-0.9c-0.7,0-1.1,0.3-1.1,0.7c0,0.1,0,0.1,0,0.2l-1,0.3
						c-0.1-0.1-0.1-0.3-0.1-0.4c0-0.4,0.2-0.8,0.6-1.1c0.4-0.3,0.9-0.5,1.6-0.5c1.5,0,2.2,0.7,2.2,1.8v2.4c0,0.5,0.1,1,0.3,1.3
						H617.6z M617.3,445.4v-0.2l-1.5,0.3c-0.7,0.1-1,0.4-1,0.9s0.3,0.8,0.9,0.8C616.7,447.2,617.3,446.4,617.3,445.4z"/>
				</g>
				<g>
					<path class="st1" d="M626,447.9h-1.1v-3.3c0-0.7-0.4-1.2-1.2-1.2c-0.8,0-1.4,0.7-1.4,1.7v2.8h-1.1v-5.4h1.1v0.9
						c0.4-0.6,1.1-1.1,1.8-1.1c1.1,0,1.9,0.7,1.9,1.9V447.9z"/>
				</g>
				<g>
					<path class="st1" d="M633.7,446.5c-0.5,1-1.4,1.6-2.5,1.6c-0.8,0-1.5-0.3-2-0.8c-0.5-0.5-0.8-1.2-0.8-2c0-0.8,0.3-1.5,0.8-2
						c0.5-0.5,1.2-0.8,2-0.8c1.2,0,2,0.5,2.4,1.5l-0.9,0.6c-0.3-0.7-0.9-1-1.5-1c-0.5,0-0.9,0.2-1.2,0.5c-0.3,0.3-0.5,0.8-0.5,1.3
						c0,1.1,0.7,1.8,1.7,1.8c0.8,0,1.2-0.4,1.6-1.1L633.7,446.5z"/>
				</g>
				<g>
					<path class="st1" d="M641.1,445.5h-4.3c0,1,0.7,1.6,1.6,1.6c0.8,0,1.3-0.4,1.6-1.1l0.9,0.5c-0.5,1.1-1.3,1.6-2.5,1.6
						c-0.8,0-1.4-0.3-1.9-0.8c-0.5-0.5-0.8-1.2-0.8-2c0-0.8,0.3-1.5,0.8-2c0.5-0.5,1.2-0.8,2-0.8c0.8,0,1.4,0.2,1.9,0.7
						c0.5,0.5,0.7,1.2,0.7,1.9V445.5z M637.5,443.7c-0.3,0.3-0.5,0.6-0.6,1h3.2c0-0.4-0.2-0.7-0.5-1
						C638.9,443.2,638,443.2,637.5,443.7z"/>
				</g>
			</g>
		</g>
	</g>
</g>
<g>
	<g class="st2">
		<g>
			<path class="st1" d="M654,899.2v57H489v-57H654 M655,898.2H488v59h167V898.2L655,898.2z"/>
		</g>
	</g>
	<g>
		<g>
			<polygon class="st3" points="542.2,918.6 538.7,913.6 538.7,920.3 539.9,921.9 542.2,925.2 544.5,921.9 			"/>
			<linearGradient id="SVGID_5_" gradientUnits="userSpaceOnUse" x1="548.192" y1="925.2429" x2="548.192" y2="904.988">
				<stop  offset="0" style="stop-color:#E50A0A;stop-opacity:0.9"/>
				<stop  offset="1" style="stop-color:#E50A0A;stop-opacity:0"/>
			</linearGradient>
			<polygon class="st9" points="551.8,905 542.2,918.6 539.9,921.9 542.2,925.2 544.5,921.9 556.5,905 			"/>
			<g>
				<path class="st5" d="M524.5,912.3c-2.2,0-4,0.7-5.4,2.1c-1.4,1.4-2.1,3.2-2.1,5.3c0,2.1,0.7,3.8,2.1,5.3
					c1.4,1.4,3.2,2.1,5.4,2.1c2.1,0,4-0.7,5.4-2.1c1.4-1.4,2.1-3.2,2.1-5.3c0-2.1-0.7-3.8-2.1-5.3
					C528.5,913,526.7,912.3,524.5,912.3z M522.1,917.1c0.6-0.6,1.4-0.9,2.4-0.9c1,0,1.8,0.3,2.4,0.9c0.7,0.7,1,1.5,1,2.6
					c0,1.1-0.3,1.9-1,2.6c-0.6,0.6-1.4,0.9-2.4,0.9c-1,0-1.8-0.3-2.4-0.9c-0.7-0.7-1-1.5-1-2.6C521.1,918.6,521.5,917.7,522.1,917.1
					z"/>
				<path class="st5" d="M560.5,912.5h-6.7v14.3h4.1v-4.5h2.6c3.6,0,5.7-1.8,5.7-4.9C566.2,914.3,564.1,912.5,560.5,912.5z
					 M557.9,916.1h2.5c1.5,0,1.7,0.8,1.7,1.3c0,0.6-0.2,1.3-1.7,1.3h-2.5V916.1z"/>
				<polygon class="st5" points="572,912.5 567.9,912.5 567.9,926.8 578.6,926.8 578.6,922.9 572,922.9 				"/>
				<rect x="580.5" y="912.5" class="st5" width="4.1" height="14.3"/>
				<polygon class="st5" points="586.5,916.2 590.5,916.2 590.5,926.8 594.5,926.8 594.5,916.2 598.5,916.2 598.5,912.5 
					586.5,912.5 				"/>
				<polygon class="st5" points="604.5,921.3 610.6,921.3 610.6,917.6 604.5,917.6 604.5,916.2 611.1,916.2 611.1,912.5 
					600.4,912.5 600.4,926.8 611.2,926.8 611.2,923.1 604.5,923.1 				"/>
				<polygon class="st5" points="637,912.5 637,917.6 632.3,917.6 632.3,912.5 628.2,912.5 628.2,926.8 632.3,926.8 632.3,921.5 
					637,921.5 637,926.8 641.1,926.8 641.1,912.5 				"/>
				<rect x="533.7" y="912.5" class="st5" width="4.1" height="14.3"/>
				<polygon class="st5" points="546.6,926.8 550.7,926.8 550.7,914.9 546.6,920.8 				"/>
				<path class="st5" d="M512.8,920.7l-0.2,0.3c-0.9,1.6-1.8,2.3-3.2,2.3c-0.9,0-1.7-0.3-2.4-1c-0.7-0.7-1-1.5-1-2.6
					c0-1.1,0.3-1.9,1-2.6c0.7-0.7,1.4-1,2.3-1c1.4,0,2.3,0.7,3,2.1l0.1,0.3l3.3-2.5c-1.1-2.4-3.4-3.8-6.4-3.8
					c-2.1,0-3.9,0.7-5.3,2.1c-1.4,1.4-2.2,3.2-2.2,5.3c0,2.2,0.7,4,2.1,5.3c1.4,1.4,3.2,2.1,5.3,2.1c2.9,0,4.8-1.1,6.6-3.8l0.1-0.1
					L512.8,920.7z"/>
				<path class="st5" d="M623.5,920.7l-0.2,0.3c-0.9,1.6-1.8,2.3-3.2,2.3c-0.9,0-1.7-0.3-2.4-1c-0.7-0.7-1-1.5-1-2.6
					c0-1.1,0.3-1.9,1-2.6c0.7-0.7,1.4-1,2.3-1c1.4,0,2.3,0.7,3,2.1l0.1,0.3l3.3-2.5c-1.1-2.4-3.4-3.8-6.4-3.8
					c-2.1,0-3.9,0.7-5.3,2.1c-1.4,1.4-2.2,3.2-2.2,5.3c0,2.2,0.7,4,2.1,5.3c1.4,1.4,3.2,2.1,5.3,2.1c2.9,0,4.8-1.1,6.6-3.8l0.1-0.1
					L623.5,920.7z"/>
			</g>
		</g>
		<g>
			<g>
				<g>
					<path class="st1" d="M503.8,940.9v-7.6h1.1v3c0.4-0.6,1.1-1,1.9-1c0.7,0,1.3,0.3,1.8,0.8c0.5,0.5,0.7,1.2,0.7,2.1
						c0,0.8-0.3,1.5-0.7,2.1c-0.5,0.5-1.1,0.8-1.8,0.8c-0.8,0-1.5-0.4-1.8-0.9v0.8H503.8z M506.5,940.1c0.5,0,0.9-0.2,1.2-0.5
						c0.3-0.3,0.5-0.8,0.5-1.3c0-0.5-0.2-1-0.5-1.3c-0.3-0.3-0.7-0.5-1.2-0.5c-0.5,0-0.9,0.2-1.2,0.5c-0.3,0.3-0.5,0.8-0.5,1.3
						c0,0.5,0.2,1,0.5,1.3C505.7,939.9,506.1,940.1,506.5,940.1z"/>
				</g>
				<g>
					<path class="st1" d="M511.2,942.1c0.6,0.2,0.9,0.2,1.1-0.5l0.3-0.7l-2.2-5.4h1.3l1.5,3.9l1.5-3.9h1.2l-2.6,6.5
						c-0.3,0.8-0.8,1.2-1.5,1.2c-0.3,0-0.5,0-0.8-0.1L511.2,942.1z"/>
				</g>
				<g>
					<path class="st1" d="M521.3,940.9v-7.6h1.3l2.6,6.4l2.6-6.4h1.3v7.6h-1.1v-5.3l-0.4,1.1l-1.7,4.2h-1.1l-1.7-4.2
						c-0.2-0.6-0.3-0.9-0.4-1.1v5.3H521.3z"/>
				</g>
				<g>
					<path class="st1" d="M535.6,940.9c-0.2-0.2-0.3-0.5-0.3-0.9c-0.4,0.7-1,1.1-1.8,1.1c-1.1,0-1.8-0.7-1.8-1.7
						c0-1,0.8-1.6,1.9-1.8l1.7-0.3v-0.2c0-0.6-0.4-0.9-1.1-0.9c-0.7,0-1.1,0.3-1.1,0.7c0,0.1,0,0.1,0,0.2l-1,0.3
						c-0.1-0.1-0.1-0.3-0.1-0.4c0-0.4,0.2-0.8,0.6-1.1c0.4-0.3,0.9-0.5,1.6-0.5c1.5,0,2.2,0.7,2.2,1.8v2.4c0,0.5,0.1,1,0.3,1.3
						H535.6z M535.3,938.4v-0.2l-1.5,0.2c-0.7,0.1-1,0.4-1,0.9s0.3,0.8,0.9,0.8C534.6,940.2,535.3,939.4,535.3,938.4z"/>
				</g>
				<g>
					<path class="st1" d="M540.1,935.6l1,1.6l1-1.6h1.3l-1.7,2.5l1.9,2.9h-1.3l-1.2-2l-1.3,2h-1.3l2-2.9l-1.7-2.5H540.1z"/>
				</g>
				<g>
					<path class="st1" d="M545.7,934.7v-1.2h1.3v1.2H545.7z M545.8,940.9v-5.4h1.1v5.4H545.8z"/>
				</g>
				<g>
					<path class="st1" d="M557.2,940.9h-1.1v-3.6c0-0.7-0.3-1-0.9-1c-0.7,0-1.2,0.5-1.2,1.6v3h-1.1v-3.5c0-0.6-0.3-1-0.9-1
						c-0.7,0-1.2,0.6-1.2,1.6v3h-1.1v-5.4h1.1v0.8c0.3-0.6,0.9-0.9,1.6-0.9c0.8,0,1.3,0.3,1.5,1c0.4-0.6,0.9-1,1.7-1
						c1,0,1.7,0.6,1.7,1.6V940.9z"/>
				</g>
				<g>
					<path class="st1" d="M563.6,940.9c-0.2-0.2-0.3-0.5-0.3-0.9c-0.4,0.7-1,1.1-1.8,1.1c-1.1,0-1.8-0.7-1.8-1.7
						c0-1,0.8-1.6,1.9-1.8l1.7-0.3v-0.2c0-0.6-0.4-0.9-1.1-0.9c-0.7,0-1.1,0.3-1.1,0.7c0,0.1,0,0.1,0,0.2l-1,0.3
						c-0.1-0.1-0.1-0.3-0.1-0.4c0-0.4,0.2-0.8,0.6-1.1c0.4-0.3,0.9-0.5,1.6-0.5c1.5,0,2.2,0.7,2.2,1.8v2.4c0,0.5,0.1,1,0.3,1.3
						H563.6z M563.3,938.4v-0.2l-1.5,0.2c-0.7,0.1-1,0.4-1,0.9s0.3,0.8,0.9,0.8C562.7,940.2,563.3,939.4,563.3,938.4z"/>
				</g>
				<g>
					<path class="st1" d="M577.5,939.1c-0.8,1.4-1.8,2-3.3,2c-1.1,0-2-0.4-2.7-1.1c-0.7-0.7-1.1-1.7-1.1-2.8c0-1.1,0.4-2.1,1.1-2.8
						c0.7-0.7,1.6-1.1,2.7-1.1c1.5,0,2.7,0.8,3.3,2l-0.9,0.7c-0.5-1.1-1.3-1.6-2.3-1.6c-0.7,0-1.3,0.3-1.9,0.8
						c-0.5,0.6-0.8,1.2-0.8,2.1c0,0.8,0.3,1.5,0.7,2.1c0.5,0.6,1.1,0.8,1.9,0.8c1,0,1.9-0.5,2.4-1.6L577.5,939.1z"/>
				</g>
				<g>
					<path class="st1" d="M585.5,938.3c0,0.9-0.3,1.6-0.9,2.1s-1.3,0.8-2,0.8c-0.8,0-1.4-0.3-2-0.8c-0.6-0.5-0.9-1.2-0.9-2.1
						s0.3-1.6,0.9-2.1c0.6-0.5,1.2-0.8,2-0.8c0.8,0,1.5,0.3,2,0.8C585.2,936.7,585.5,937.4,585.5,938.3z M582.6,940.1
						c0.5,0,0.9-0.2,1.2-0.5c0.3-0.3,0.5-0.8,0.5-1.3c0-0.5-0.2-1-0.5-1.3c-0.3-0.3-0.8-0.5-1.2-0.5c-0.5,0-0.9,0.2-1.2,0.5
						c-0.3,0.3-0.5,0.8-0.5,1.3c0,0.5,0.2,1,0.5,1.3C581.7,939.9,582.1,940.1,582.6,940.1z"/>
				</g>
				<g>
					<path class="st1" d="M595.5,940.9h-1.1v-3.6c0-0.7-0.3-1-0.9-1c-0.7,0-1.2,0.5-1.2,1.6v3h-1.1v-3.5c0-0.6-0.3-1-0.9-1
						c-0.7,0-1.2,0.6-1.2,1.6v3h-1.1v-5.4h1.1v0.8c0.3-0.6,0.9-0.9,1.6-0.9c0.8,0,1.3,0.3,1.5,1c0.4-0.6,0.9-1,1.7-1
						c1,0,1.7,0.6,1.7,1.6V940.9z"/>
				</g>
				<g>
					<path class="st1" d="M598.3,943.2v-7.6h1.1v0.8c0.3-0.6,1.1-1,1.9-1c0.7,0,1.3,0.3,1.8,0.8c0.5,0.5,0.7,1.2,0.7,2.1
						s-0.3,1.5-0.7,2.1c-0.5,0.5-1.1,0.8-1.9,0.8c-0.8,0-1.5-0.3-1.8-0.9v3H598.3z M601,936.4c-0.5,0-0.9,0.2-1.2,0.5
						c-0.3,0.3-0.5,0.8-0.5,1.3c0,0.5,0.2,1,0.5,1.3c0.3,0.3,0.7,0.5,1.2,0.5c0.5,0,0.9-0.2,1.2-0.5c0.3-0.3,0.5-0.8,0.5-1.3
						c0-0.5-0.2-1-0.5-1.3C601.9,936.6,601.5,936.4,601,936.4z"/>
				</g>
				<g>
					<path class="st1" d="M606.3,940.9v-7.6h1.1v7.6H606.3z"/>
				</g>
				<g>
					<path class="st1" d="M610,934.7v-1.2h1.3v1.2H610z M610.1,940.9v-5.4h1.1v5.4H610.1z"/>
				</g>
				<g>
					<path class="st1" d="M617.6,940.9c-0.2-0.2-0.3-0.5-0.3-0.9c-0.4,0.7-1,1.1-1.8,1.1c-1.1,0-1.8-0.7-1.8-1.7
						c0-1,0.8-1.6,1.9-1.8l1.7-0.3v-0.2c0-0.6-0.4-0.9-1.1-0.9c-0.7,0-1.1,0.3-1.1,0.7c0,0.1,0,0.1,0,0.2l-1,0.3
						c-0.1-0.1-0.1-0.3-0.1-0.4c0-0.4,0.2-0.8,0.6-1.1c0.4-0.3,0.9-0.5,1.6-0.5c1.5,0,2.2,0.7,2.2,1.8v2.4c0,0.5,0.1,1,0.3,1.3
						H617.6z M617.3,938.4v-0.2l-1.5,0.2c-0.7,0.1-1,0.4-1,0.9s0.3,0.8,0.9,0.8C616.7,940.2,617.3,939.4,617.3,938.4z"/>
				</g>
				<g>
					<path class="st1" d="M626,940.9h-1.1v-3.3c0-0.7-0.4-1.2-1.2-1.2c-0.8,0-1.4,0.7-1.4,1.7v2.8h-1.1v-5.4h1.1v0.9
						c0.4-0.6,1.1-1.1,1.8-1.1c1.1,0,1.9,0.7,1.9,1.9V940.9z"/>
				</g>
				<g>
					<path class="st1" d="M633.7,939.5c-0.5,1-1.4,1.6-2.5,1.6c-0.8,0-1.5-0.3-2-0.8c-0.5-0.5-0.8-1.2-0.8-2c0-0.8,0.3-1.5,0.8-2
						c0.5-0.5,1.2-0.8,2-0.8c1.2,0,2,0.5,2.4,1.5l-0.9,0.6c-0.3-0.7-0.9-1-1.5-1c-0.5,0-0.9,0.2-1.2,0.5c-0.3,0.3-0.5,0.8-0.5,1.3
						c0,1.1,0.7,1.8,1.7,1.8c0.8,0,1.2-0.4,1.6-1.1L633.7,939.5z"/>
				</g>
				<g>
					<path class="st1" d="M641.1,938.5h-4.3c0,1,0.7,1.6,1.6,1.6c0.8,0,1.3-0.4,1.6-1.1l0.9,0.5c-0.5,1.1-1.3,1.6-2.5,1.6
						c-0.8,0-1.4-0.3-1.9-0.8c-0.5-0.5-0.8-1.2-0.8-2c0-0.8,0.3-1.5,0.8-2c0.5-0.5,1.2-0.8,2-0.8c0.8,0,1.4,0.3,1.9,0.7
						c0.5,0.5,0.7,1.2,0.7,1.9V938.5z M637.5,936.7c-0.3,0.3-0.5,0.6-0.6,1h3.2c0-0.4-0.2-0.7-0.5-1
						C638.9,936.2,638,936.2,637.5,936.7z"/>
				</g>
			</g>
		</g>
	</g>
</g>
<g>
	<g class="st2">
		<g>
			<path class="st1" d="M951,899.2v57H786v-57H951 M952,898.2H785v59h167V898.2L952,898.2z"/>
		</g>
	</g>
	<g>
		<g>
			<polygon class="st3" points="839.2,918.6 835.7,913.6 835.7,920.3 836.9,921.9 839.2,925.2 841.5,921.9 			"/>
			<linearGradient id="SVGID_6_" gradientUnits="userSpaceOnUse" x1="845.192" y1="925.2429" x2="845.192" y2="904.988">
				<stop  offset="0" style="stop-color:#E50A0A;stop-opacity:0.9"/>
				<stop  offset="1" style="stop-color:#E50A0A;stop-opacity:0"/>
			</linearGradient>
			<polygon class="st10" points="848.8,905 839.2,918.6 836.9,921.9 839.2,925.2 841.5,921.9 853.5,905 			"/>
			<g>
				<path class="st5" d="M821.5,912.3c-2.2,0-4,0.7-5.4,2.1c-1.4,1.4-2.1,3.2-2.1,5.3c0,2.1,0.7,3.8,2.1,5.3
					c1.4,1.4,3.2,2.1,5.4,2.1c2.1,0,4-0.7,5.4-2.1c1.4-1.4,2.1-3.2,2.1-5.3c0-2.1-0.7-3.8-2.1-5.3
					C825.5,913,823.7,912.3,821.5,912.3z M819.1,917.1c0.6-0.6,1.4-0.9,2.4-0.9c1,0,1.8,0.3,2.4,0.9c0.7,0.7,1,1.5,1,2.6
					c0,1.1-0.3,1.9-1,2.6c-0.6,0.6-1.4,0.9-2.4,0.9c-1,0-1.8-0.3-2.4-0.9c-0.7-0.7-1-1.5-1-2.6C818.1,918.6,818.5,917.7,819.1,917.1
					z"/>
				<path class="st5" d="M857.5,912.5h-6.7v14.3h4.1v-4.5h2.6c3.6,0,5.7-1.8,5.7-4.9C863.2,914.3,861.1,912.5,857.5,912.5z
					 M854.9,916.1h2.5c1.5,0,1.7,0.8,1.7,1.3c0,0.6-0.2,1.3-1.7,1.3h-2.5V916.1z"/>
				<polygon class="st5" points="869,912.5 864.9,912.5 864.9,926.8 875.6,926.8 875.6,922.9 869,922.9 				"/>
				<rect x="877.5" y="912.5" class="st5" width="4.1" height="14.3"/>
				<polygon class="st5" points="883.5,916.2 887.5,916.2 887.5,926.8 891.5,926.8 891.5,916.2 895.5,916.2 895.5,912.5 
					883.5,912.5 				"/>
				<polygon class="st5" points="901.5,921.3 907.6,921.3 907.6,917.6 901.5,917.6 901.5,916.2 908.1,916.2 908.1,912.5 
					897.4,912.5 897.4,926.8 908.2,926.8 908.2,923.1 901.5,923.1 				"/>
				<polygon class="st5" points="934,912.5 934,917.6 929.3,917.6 929.3,912.5 925.2,912.5 925.2,926.8 929.3,926.8 929.3,921.5 
					934,921.5 934,926.8 938.1,926.8 938.1,912.5 				"/>
				<rect x="830.7" y="912.5" class="st5" width="4.1" height="14.3"/>
				<polygon class="st5" points="843.6,926.8 847.7,926.8 847.7,914.9 843.6,920.8 				"/>
				<path class="st5" d="M809.8,920.7l-0.2,0.3c-0.9,1.6-1.8,2.3-3.2,2.3c-0.9,0-1.7-0.3-2.4-1c-0.7-0.7-1-1.5-1-2.6
					c0-1.1,0.3-1.9,1-2.6c0.7-0.7,1.4-1,2.3-1c1.4,0,2.3,0.7,3,2.1l0.1,0.3l3.3-2.5c-1.1-2.4-3.4-3.8-6.4-3.8
					c-2.1,0-3.9,0.7-5.3,2.1c-1.4,1.4-2.2,3.2-2.2,5.3c0,2.2,0.7,4,2.1,5.3c1.4,1.4,3.2,2.1,5.3,2.1c2.9,0,4.8-1.1,6.6-3.8l0.1-0.1
					L809.8,920.7z"/>
				<path class="st5" d="M920.5,920.7l-0.2,0.3c-0.9,1.6-1.8,2.3-3.2,2.3c-0.9,0-1.7-0.3-2.4-1c-0.7-0.7-1-1.5-1-2.6
					c0-1.1,0.3-1.9,1-2.6c0.7-0.7,1.4-1,2.3-1c1.4,0,2.3,0.7,3,2.1l0.1,0.3l3.3-2.5c-1.1-2.4-3.4-3.8-6.4-3.8
					c-2.1,0-3.9,0.7-5.3,2.1c-1.4,1.4-2.2,3.2-2.2,5.3c0,2.2,0.7,4,2.1,5.3c1.4,1.4,3.2,2.1,5.3,2.1c2.9,0,4.8-1.1,6.6-3.8l0.1-0.1
					L920.5,920.7z"/>
			</g>
		</g>
		<g>
			<g>
				<g>
					<path class="st1" d="M800.8,940.9v-7.6h1.1v3c0.4-0.6,1.1-1,1.9-1c0.7,0,1.3,0.3,1.8,0.8c0.5,0.5,0.7,1.2,0.7,2.1
						c0,0.8-0.3,1.5-0.7,2.1c-0.5,0.5-1.1,0.8-1.8,0.8c-0.8,0-1.5-0.4-1.8-0.9v0.8H800.8z M803.5,940.1c0.5,0,0.9-0.2,1.2-0.5
						c0.3-0.3,0.5-0.8,0.5-1.3c0-0.5-0.2-1-0.5-1.3c-0.3-0.3-0.7-0.5-1.2-0.5c-0.5,0-0.9,0.2-1.2,0.5c-0.3,0.3-0.5,0.8-0.5,1.3
						c0,0.5,0.2,1,0.5,1.3C802.7,939.9,803.1,940.1,803.5,940.1z"/>
				</g>
				<g>
					<path class="st1" d="M808.2,942.1c0.6,0.2,0.9,0.2,1.1-0.5l0.3-0.7l-2.2-5.4h1.3l1.5,3.9l1.5-3.9h1.2l-2.6,6.5
						c-0.3,0.8-0.8,1.2-1.5,1.2c-0.3,0-0.5,0-0.8-0.1L808.2,942.1z"/>
				</g>
				<g>
					<path class="st1" d="M818.3,940.9v-7.6h1.3l2.6,6.4l2.6-6.4h1.3v7.6h-1.1v-5.3l-0.4,1.1l-1.7,4.2h-1.1l-1.7-4.2
						c-0.2-0.6-0.3-0.9-0.4-1.1v5.3H818.3z"/>
				</g>
				<g>
					<path class="st1" d="M832.6,940.9c-0.2-0.2-0.3-0.5-0.3-0.9c-0.4,0.7-1,1.1-1.8,1.1c-1.1,0-1.8-0.7-1.8-1.7
						c0-1,0.8-1.6,1.9-1.8l1.7-0.3v-0.2c0-0.6-0.4-0.9-1.1-0.9c-0.7,0-1.1,0.3-1.1,0.7c0,0.1,0,0.1,0,0.2l-1,0.3
						c-0.1-0.1-0.1-0.3-0.1-0.4c0-0.4,0.2-0.8,0.6-1.1c0.4-0.3,0.9-0.5,1.6-0.5c1.5,0,2.2,0.7,2.2,1.8v2.4c0,0.5,0.1,1,0.3,1.3
						H832.6z M832.3,938.4v-0.2l-1.5,0.2c-0.7,0.1-1,0.4-1,0.9s0.3,0.8,0.9,0.8C831.6,940.2,832.3,939.4,832.3,938.4z"/>
				</g>
				<g>
					<path class="st1" d="M837.1,935.6l1,1.6l1-1.6h1.3l-1.7,2.5l1.9,2.9h-1.3l-1.2-2l-1.3,2h-1.3l2-2.9l-1.7-2.5H837.1z"/>
				</g>
				<g>
					<path class="st1" d="M842.7,934.7v-1.2h1.3v1.2H842.7z M842.8,940.9v-5.4h1.1v5.4H842.8z"/>
				</g>
				<g>
					<path class="st1" d="M854.2,940.9h-1.1v-3.6c0-0.7-0.3-1-0.9-1c-0.7,0-1.2,0.5-1.2,1.6v3h-1.1v-3.5c0-0.6-0.3-1-0.9-1
						c-0.7,0-1.2,0.6-1.2,1.6v3h-1.1v-5.4h1.1v0.8c0.3-0.6,0.9-0.9,1.6-0.9c0.8,0,1.3,0.3,1.5,1c0.4-0.6,0.9-1,1.7-1
						c1,0,1.7,0.6,1.7,1.6V940.9z"/>
				</g>
				<g>
					<path class="st1" d="M860.6,940.9c-0.2-0.2-0.3-0.5-0.3-0.9c-0.4,0.7-1,1.1-1.8,1.1c-1.1,0-1.8-0.7-1.8-1.7
						c0-1,0.8-1.6,1.9-1.8l1.7-0.3v-0.2c0-0.6-0.4-0.9-1.1-0.9c-0.7,0-1.1,0.3-1.1,0.7c0,0.1,0,0.1,0,0.2l-1,0.3
						c-0.1-0.1-0.1-0.3-0.1-0.4c0-0.4,0.2-0.8,0.6-1.1c0.4-0.3,0.9-0.5,1.6-0.5c1.5,0,2.2,0.7,2.2,1.8v2.4c0,0.5,0.1,1,0.3,1.3
						H860.6z M860.3,938.4v-0.2l-1.5,0.2c-0.7,0.1-1,0.4-1,0.9s0.3,0.8,0.9,0.8C859.7,940.2,860.3,939.4,860.3,938.4z"/>
				</g>
				<g>
					<path class="st1" d="M874.5,939.1c-0.8,1.4-1.8,2-3.3,2c-1.1,0-2-0.4-2.7-1.1c-0.7-0.7-1.1-1.7-1.1-2.8c0-1.1,0.4-2.1,1.1-2.8
						c0.7-0.7,1.6-1.1,2.7-1.1c1.5,0,2.7,0.8,3.3,2l-0.9,0.7c-0.5-1.1-1.3-1.6-2.3-1.6c-0.7,0-1.3,0.3-1.9,0.8
						c-0.5,0.6-0.8,1.2-0.8,2.1c0,0.8,0.3,1.5,0.7,2.1c0.5,0.6,1.1,0.8,1.9,0.8c1,0,1.9-0.5,2.4-1.6L874.5,939.1z"/>
				</g>
				<g>
					<path class="st1" d="M882.5,938.3c0,0.9-0.3,1.6-0.9,2.1s-1.3,0.8-2,0.8c-0.8,0-1.4-0.3-2-0.8c-0.6-0.5-0.9-1.2-0.9-2.1
						s0.3-1.6,0.9-2.1c0.6-0.5,1.2-0.8,2-0.8c0.8,0,1.5,0.3,2,0.8C882.2,936.7,882.5,937.4,882.5,938.3z M879.6,940.1
						c0.5,0,0.9-0.2,1.2-0.5c0.3-0.3,0.5-0.8,0.5-1.3c0-0.5-0.2-1-0.5-1.3c-0.3-0.3-0.8-0.5-1.2-0.5c-0.5,0-0.9,0.2-1.2,0.5
						c-0.3,0.3-0.5,0.8-0.5,1.3c0,0.5,0.2,1,0.5,1.3C878.7,939.9,879.1,940.1,879.6,940.1z"/>
				</g>
				<g>
					<path class="st1" d="M892.5,940.9h-1.1v-3.6c0-0.7-0.3-1-0.9-1c-0.7,0-1.2,0.5-1.2,1.6v3h-1.1v-3.5c0-0.6-0.3-1-0.9-1
						c-0.7,0-1.2,0.6-1.2,1.6v3h-1.1v-5.4h1.1v0.8c0.3-0.6,0.9-0.9,1.6-0.9c0.8,0,1.3,0.3,1.5,1c0.4-0.6,0.9-1,1.7-1
						c1,0,1.7,0.6,1.7,1.6V940.9z"/>
				</g>
				<g>
					<path class="st1" d="M895.3,943.2v-7.6h1.1v0.8c0.3-0.6,1.1-1,1.9-1c0.7,0,1.3,0.3,1.8,0.8c0.5,0.5,0.7,1.2,0.7,2.1
						s-0.3,1.5-0.7,2.1c-0.5,0.5-1.1,0.8-1.9,0.8c-0.8,0-1.5-0.3-1.8-0.9v3H895.3z M898,936.4c-0.5,0-0.9,0.2-1.2,0.5
						c-0.3,0.3-0.5,0.8-0.5,1.3c0,0.5,0.2,1,0.5,1.3c0.3,0.3,0.7,0.5,1.2,0.5c0.5,0,0.9-0.2,1.2-0.5c0.3-0.3,0.5-0.8,0.5-1.3
						c0-0.5-0.2-1-0.5-1.3C898.9,936.6,898.5,936.4,898,936.4z"/>
				</g>
				<g>
					<path class="st1" d="M903.3,940.9v-7.6h1.1v7.6H903.3z"/>
				</g>
				<g>
					<path class="st1" d="M907,934.7v-1.2h1.3v1.2H907z M907.1,940.9v-5.4h1.1v5.4H907.1z"/>
				</g>
				<g>
					<path class="st1" d="M914.6,940.9c-0.2-0.2-0.3-0.5-0.3-0.9c-0.4,0.7-1,1.1-1.8,1.1c-1.1,0-1.8-0.7-1.8-1.7
						c0-1,0.8-1.6,1.9-1.8l1.7-0.3v-0.2c0-0.6-0.4-0.9-1.1-0.9c-0.7,0-1.1,0.3-1.1,0.7c0,0.1,0,0.1,0,0.2l-1,0.3
						c-0.1-0.1-0.1-0.3-0.1-0.4c0-0.4,0.2-0.8,0.6-1.1c0.4-0.3,0.9-0.5,1.6-0.5c1.5,0,2.2,0.7,2.2,1.8v2.4c0,0.5,0.1,1,0.3,1.3
						H914.6z M914.3,938.4v-0.2l-1.5,0.2c-0.7,0.1-1,0.4-1,0.9s0.3,0.8,0.9,0.8C913.7,940.2,914.3,939.4,914.3,938.4z"/>
				</g>
				<g>
					<path class="st1" d="M923,940.9h-1.1v-3.3c0-0.7-0.4-1.2-1.2-1.2c-0.8,0-1.4,0.7-1.4,1.7v2.8h-1.1v-5.4h1.1v0.9
						c0.4-0.6,1.1-1.1,1.8-1.1c1.1,0,1.9,0.7,1.9,1.9V940.9z"/>
				</g>
				<g>
					<path class="st1" d="M930.7,939.5c-0.5,1-1.4,1.6-2.5,1.6c-0.8,0-1.5-0.3-2-0.8c-0.5-0.5-0.8-1.2-0.8-2c0-0.8,0.3-1.5,0.8-2
						c0.5-0.5,1.2-0.8,2-0.8c1.2,0,2,0.5,2.4,1.5l-0.9,0.6c-0.3-0.7-0.9-1-1.5-1c-0.5,0-0.9,0.2-1.2,0.5c-0.3,0.3-0.5,0.8-0.5,1.3
						c0,1.1,0.7,1.8,1.7,1.8c0.8,0,1.2-0.4,1.6-1.1L930.7,939.5z"/>
				</g>
				<g>
					<path class="st1" d="M938.1,938.5h-4.3c0,1,0.7,1.6,1.6,1.6c0.8,0,1.3-0.4,1.6-1.1l0.9,0.5c-0.5,1.1-1.3,1.6-2.5,1.6
						c-0.8,0-1.4-0.3-1.9-0.8c-0.5-0.5-0.8-1.2-0.8-2c0-0.8,0.3-1.5,0.8-2c0.5-0.5,1.2-0.8,2-0.8c0.8,0,1.4,0.3,1.9,0.7
						c0.5,0.5,0.7,1.2,0.7,1.9V938.5z M934.5,936.7c-0.3,0.3-0.5,0.6-0.6,1h3.2c0-0.4-0.2-0.7-0.5-1
						C935.9,936.2,935,936.2,934.5,936.7z"/>
				</g>
			</g>
		</g>
	</g>
</g>
<g>
	<g class="st2">
		<g>
			<path class="st1" d="M1104,406.2v57H939v-57H1104 M1105,405.2H938v59h167V405.2L1105,405.2z"/>
		</g>
	</g>
	<g>
		<g>
			<polygon class="st3" points="992.2,425.6 988.7,420.6 988.7,427.3 989.9,428.9 992.2,432.2 994.5,428.9 			"/>
			<linearGradient id="SVGID_7_" gradientUnits="userSpaceOnUse" x1="998.192" y1="432.243" x2="998.192" y2="411.988">
				<stop  offset="0" style="stop-color:#E50A0A;stop-opacity:0.9"/>
				<stop  offset="1" style="stop-color:#E50A0A;stop-opacity:0"/>
			</linearGradient>
			<polygon class="st11" points="1001.8,412 992.2,425.6 989.9,428.9 992.2,432.2 994.5,428.9 1006.5,412 			"/>
			<g>
				<path class="st5" d="M974.5,419.3c-2.2,0-4,0.7-5.4,2.1c-1.4,1.4-2.1,3.2-2.1,5.3c0,2.1,0.7,3.8,2.1,5.3
					c1.4,1.4,3.2,2.1,5.4,2.1c2.1,0,4-0.7,5.4-2.1c1.4-1.4,2.1-3.2,2.1-5.3c0-2.1-0.7-3.8-2.1-5.3
					C978.5,420,976.7,419.3,974.5,419.3z M972.1,424.1c0.6-0.6,1.4-0.9,2.4-0.9c1,0,1.8,0.3,2.4,0.9c0.7,0.7,1,1.5,1,2.6
					c0,1.1-0.3,1.9-1,2.6c-0.6,0.6-1.4,0.9-2.4,0.9c-1,0-1.8-0.3-2.4-0.9c-0.7-0.7-1-1.5-1-2.6C971.1,425.6,971.5,424.7,972.1,424.1
					z"/>
				<path class="st5" d="M1010.5,419.5h-6.7v14.3h4.1v-4.5h2.6c3.6,0,5.7-1.8,5.7-4.9C1016.2,421.3,1014.1,419.5,1010.5,419.5z
					 M1007.9,423.1h2.5c1.5,0,1.7,0.8,1.7,1.3s-0.2,1.3-1.7,1.3h-2.5V423.1z"/>
				<polygon class="st5" points="1022,419.5 1017.9,419.5 1017.9,433.8 1028.6,433.8 1028.6,429.9 1022,429.9 				"/>
				<rect x="1030.5" y="419.5" class="st5" width="4.1" height="14.3"/>
				<polygon class="st5" points="1036.5,423.2 1040.5,423.2 1040.5,433.8 1044.5,433.8 1044.5,423.2 1048.5,423.2 1048.5,419.5 
					1036.5,419.5 				"/>
				<polygon class="st5" points="1054.5,428.3 1060.6,428.3 1060.6,424.6 1054.5,424.6 1054.5,423.2 1061.1,423.2 1061.1,419.5 
					1050.4,419.5 1050.4,433.8 1061.2,433.8 1061.2,430.1 1054.5,430.1 				"/>
				<polygon class="st5" points="1087,419.5 1087,424.6 1082.3,424.6 1082.3,419.5 1078.2,419.5 1078.2,433.8 1082.3,433.8 
					1082.3,428.5 1087,428.5 1087,433.8 1091.1,433.8 1091.1,419.5 				"/>
				<rect x="983.7" y="419.5" class="st5" width="4.1" height="14.3"/>
				<polygon class="st5" points="996.6,433.8 1000.7,433.8 1000.7,421.9 996.6,427.8 				"/>
				<path class="st5" d="M962.8,427.7l-0.2,0.3c-0.9,1.6-1.8,2.3-3.2,2.3c-0.9,0-1.7-0.3-2.4-1c-0.7-0.7-1-1.5-1-2.6
					c0-1.1,0.3-1.9,1-2.6c0.7-0.7,1.4-1,2.3-1c1.4,0,2.3,0.7,3,2.1l0.1,0.3l3.3-2.5c-1.1-2.4-3.4-3.8-6.4-3.8
					c-2.1,0-3.9,0.7-5.3,2.1c-1.4,1.4-2.2,3.2-2.2,5.3c0,2.2,0.7,4,2.1,5.3c1.4,1.4,3.2,2.1,5.3,2.1c2.9,0,4.8-1.1,6.6-3.8l0.1-0.1
					L962.8,427.7z"/>
				<path class="st5" d="M1073.5,427.7l-0.2,0.3c-0.9,1.6-1.8,2.3-3.2,2.3c-0.9,0-1.7-0.3-2.4-1c-0.7-0.7-1-1.5-1-2.6
					c0-1.1,0.3-1.9,1-2.6c0.7-0.7,1.4-1,2.3-1c1.4,0,2.3,0.7,3,2.1l0.1,0.3l3.3-2.5c-1.1-2.4-3.4-3.8-6.4-3.8
					c-2.1,0-3.9,0.7-5.3,2.1c-1.4,1.4-2.2,3.2-2.2,5.3c0,2.2,0.7,4,2.1,5.3c1.4,1.4,3.2,2.1,5.3,2.1c2.9,0,4.8-1.1,6.6-3.8l0.1-0.1
					L1073.5,427.7z"/>
			</g>
		</g>
		<g>
			<g>
				<g>
					<path class="st1" d="M953.8,447.9v-7.6h1.1v3c0.4-0.6,1.1-1,1.9-1c0.7,0,1.3,0.3,1.8,0.8c0.5,0.5,0.7,1.2,0.7,2.1
						c0,0.8-0.3,1.5-0.7,2.1c-0.5,0.5-1.1,0.8-1.8,0.8c-0.8,0-1.5-0.4-1.8-0.9v0.8H953.8z M956.5,447.1c0.5,0,0.9-0.2,1.2-0.5
						c0.3-0.3,0.5-0.8,0.5-1.3s-0.2-1-0.5-1.3c-0.3-0.3-0.7-0.5-1.2-0.5c-0.5,0-0.9,0.2-1.2,0.5c-0.3,0.3-0.5,0.8-0.5,1.3
						s0.2,1,0.5,1.3C955.7,446.9,956.1,447.1,956.5,447.1z"/>
				</g>
				<g>
					<path class="st1" d="M961.2,449.1c0.6,0.2,0.9,0.2,1.1-0.5l0.3-0.7l-2.2-5.4h1.3l1.5,3.9l1.5-3.9h1.2l-2.6,6.5
						c-0.3,0.8-0.8,1.2-1.5,1.2c-0.3,0-0.5,0-0.8-0.1L961.2,449.1z"/>
				</g>
				<g>
					<path class="st1" d="M971.3,447.9v-7.6h1.3l2.6,6.4l2.6-6.4h1.3v7.6h-1.1v-5.3l-0.4,1.1l-1.7,4.2h-1.1l-1.7-4.2
						c-0.2-0.6-0.3-0.9-0.4-1.1v5.3H971.3z"/>
				</g>
				<g>
					<path class="st1" d="M985.6,447.9c-0.2-0.2-0.3-0.5-0.3-0.9c-0.4,0.7-1,1.1-1.8,1.1c-1.1,0-1.8-0.7-1.8-1.7
						c0-1,0.8-1.6,1.9-1.8l1.7-0.3v-0.2c0-0.6-0.4-0.9-1.1-0.9c-0.7,0-1.1,0.3-1.1,0.7c0,0.1,0,0.1,0,0.2l-1,0.3
						c-0.1-0.1-0.1-0.3-0.1-0.4c0-0.4,0.2-0.8,0.6-1.1c0.4-0.3,0.9-0.5,1.6-0.5c1.5,0,2.2,0.7,2.2,1.8v2.4c0,0.5,0.1,1,0.3,1.3
						H985.6z M985.3,445.4v-0.2l-1.5,0.3c-0.7,0.1-1,0.4-1,0.9s0.3,0.8,0.9,0.8C984.6,447.2,985.3,446.4,985.3,445.4z"/>
				</g>
				<g>
					<path class="st1" d="M990.1,442.6l1,1.6l1-1.6h1.3l-1.7,2.5l1.9,2.9h-1.3l-1.2-2l-1.3,2h-1.3l2-2.9l-1.7-2.5H990.1z"/>
				</g>
				<g>
					<path class="st1" d="M995.7,441.7v-1.2h1.3v1.2H995.7z M995.8,447.9v-5.4h1.1v5.4H995.8z"/>
				</g>
				<g>
					<path class="st1" d="M1007.2,447.9h-1.1v-3.6c0-0.7-0.3-1-0.9-1c-0.7,0-1.2,0.5-1.2,1.6v3h-1.1v-3.5c0-0.6-0.3-1-0.9-1
						c-0.7,0-1.2,0.6-1.2,1.6v3h-1.1v-5.4h1.1v0.8c0.3-0.6,0.9-0.9,1.6-0.9c0.8,0,1.3,0.3,1.5,1c0.4-0.6,0.9-1,1.7-1
						c1,0,1.7,0.6,1.7,1.6V447.9z"/>
				</g>
				<g>
					<path class="st1" d="M1013.6,447.9c-0.2-0.2-0.3-0.5-0.3-0.9c-0.4,0.7-1,1.1-1.8,1.1c-1.1,0-1.8-0.7-1.8-1.7
						c0-1,0.8-1.6,1.9-1.8l1.7-0.3v-0.2c0-0.6-0.4-0.9-1.1-0.9c-0.7,0-1.1,0.3-1.1,0.7c0,0.1,0,0.1,0,0.2l-1,0.3
						c-0.1-0.1-0.1-0.3-0.1-0.4c0-0.4,0.2-0.8,0.6-1.1c0.4-0.3,0.9-0.5,1.6-0.5c1.5,0,2.2,0.7,2.2,1.8v2.4c0,0.5,0.1,1,0.3,1.3
						H1013.6z M1013.3,445.4v-0.2l-1.5,0.3c-0.7,0.1-1,0.4-1,0.9s0.3,0.8,0.9,0.8C1012.7,447.2,1013.3,446.4,1013.3,445.4z"/>
				</g>
				<g>
					<path class="st1" d="M1027.5,446.1c-0.8,1.4-1.8,2-3.3,2c-1.1,0-2-0.4-2.7-1.1c-0.7-0.7-1.1-1.7-1.1-2.8c0-1.1,0.4-2.1,1.1-2.8
						c0.7-0.7,1.6-1.1,2.7-1.1c1.5,0,2.7,0.8,3.3,2l-0.9,0.7c-0.5-1.1-1.3-1.6-2.3-1.6c-0.7,0-1.3,0.3-1.9,0.8
						c-0.5,0.6-0.8,1.2-0.8,2.1s0.3,1.5,0.7,2.1c0.5,0.6,1.1,0.8,1.9,0.8c1,0,1.9-0.5,2.4-1.6L1027.5,446.1z"/>
				</g>
				<g>
					<path class="st1" d="M1035.5,445.3c0,0.9-0.3,1.6-0.9,2.1c-0.6,0.5-1.3,0.8-2,0.8c-0.8,0-1.4-0.3-2-0.8
						c-0.6-0.5-0.9-1.2-0.9-2.1c0-0.9,0.3-1.6,0.9-2.1c0.6-0.5,1.2-0.8,2-0.8c0.8,0,1.5,0.2,2,0.8
						C1035.2,443.7,1035.5,444.4,1035.5,445.3z M1032.6,447.1c0.5,0,0.9-0.2,1.2-0.5c0.3-0.3,0.5-0.8,0.5-1.3s-0.2-1-0.5-1.3
						c-0.3-0.3-0.8-0.5-1.2-0.5c-0.5,0-0.9,0.2-1.2,0.5c-0.3,0.3-0.5,0.8-0.5,1.3s0.2,1,0.5,1.3
						C1031.7,446.9,1032.1,447.1,1032.6,447.1z"/>
				</g>
				<g>
					<path class="st1" d="M1045.5,447.9h-1.1v-3.6c0-0.7-0.3-1-0.9-1c-0.7,0-1.2,0.5-1.2,1.6v3h-1.1v-3.5c0-0.6-0.3-1-0.9-1
						c-0.7,0-1.2,0.6-1.2,1.6v3h-1.1v-5.4h1.1v0.8c0.3-0.6,0.9-0.9,1.6-0.9c0.8,0,1.3,0.3,1.5,1c0.4-0.6,0.9-1,1.7-1
						c1,0,1.7,0.6,1.7,1.6V447.9z"/>
				</g>
				<g>
					<path class="st1" d="M1048.3,450.2v-7.6h1.1v0.8c0.3-0.6,1.1-1,1.9-1c0.7,0,1.3,0.3,1.8,0.8c0.5,0.5,0.7,1.2,0.7,2.1
						s-0.3,1.5-0.7,2.1c-0.5,0.5-1.1,0.8-1.9,0.8c-0.8,0-1.5-0.3-1.8-0.9v3H1048.3z M1051,443.4c-0.5,0-0.9,0.2-1.2,0.5
						c-0.3,0.3-0.5,0.8-0.5,1.3s0.2,1,0.5,1.3c0.3,0.3,0.7,0.5,1.2,0.5c0.5,0,0.9-0.2,1.2-0.5c0.3-0.3,0.5-0.8,0.5-1.3
						s-0.2-1-0.5-1.3C1051.9,443.6,1051.5,443.4,1051,443.4z"/>
				</g>
				<g>
					<path class="st1" d="M1056.3,447.9v-7.6h1.1v7.6H1056.3z"/>
				</g>
				<g>
					<path class="st1" d="M1060,441.7v-1.2h1.3v1.2H1060z M1060.1,447.9v-5.4h1.1v5.4H1060.1z"/>
				</g>
				<g>
					<path class="st1" d="M1067.6,447.9c-0.2-0.2-0.3-0.5-0.3-0.9c-0.4,0.7-1,1.1-1.8,1.1c-1.1,0-1.8-0.7-1.8-1.7
						c0-1,0.8-1.6,1.9-1.8l1.7-0.3v-0.2c0-0.6-0.4-0.9-1.1-0.9c-0.7,0-1.1,0.3-1.1,0.7c0,0.1,0,0.1,0,0.2l-1,0.3
						c-0.1-0.1-0.1-0.3-0.1-0.4c0-0.4,0.2-0.8,0.6-1.1c0.4-0.3,0.9-0.5,1.6-0.5c1.5,0,2.2,0.7,2.2,1.8v2.4c0,0.5,0.1,1,0.3,1.3
						H1067.6z M1067.3,445.4v-0.2l-1.5,0.3c-0.7,0.1-1,0.4-1,0.9s0.3,0.8,0.9,0.8C1066.7,447.2,1067.3,446.4,1067.3,445.4z"/>
				</g>
				<g>
					<path class="st1" d="M1076,447.9h-1.1v-3.3c0-0.7-0.4-1.2-1.2-1.2c-0.8,0-1.4,0.7-1.4,1.7v2.8h-1.1v-5.4h1.1v0.9
						c0.4-0.6,1.1-1.1,1.8-1.1c1.1,0,1.9,0.7,1.9,1.9V447.9z"/>
				</g>
				<g>
					<path class="st1" d="M1083.7,446.5c-0.5,1-1.4,1.6-2.5,1.6c-0.8,0-1.5-0.3-2-0.8c-0.5-0.5-0.8-1.2-0.8-2c0-0.8,0.3-1.5,0.8-2
						c0.5-0.5,1.2-0.8,2-0.8c1.2,0,2,0.5,2.4,1.5l-0.9,0.6c-0.3-0.7-0.9-1-1.5-1c-0.5,0-0.9,0.2-1.2,0.5c-0.3,0.3-0.5,0.8-0.5,1.3
						c0,1.1,0.7,1.8,1.7,1.8c0.8,0,1.2-0.4,1.6-1.1L1083.7,446.5z"/>
				</g>
				<g>
					<path class="st1" d="M1091.1,445.5h-4.3c0,1,0.7,1.6,1.6,1.6c0.8,0,1.3-0.4,1.6-1.1l0.9,0.5c-0.5,1.1-1.3,1.6-2.5,1.6
						c-0.8,0-1.4-0.3-1.9-0.8c-0.5-0.5-0.8-1.2-0.8-2c0-0.8,0.3-1.5,0.8-2s1.2-0.8,2-0.8c0.8,0,1.4,0.2,1.9,0.7
						c0.5,0.5,0.7,1.2,0.7,1.9V445.5z M1087.5,443.7c-0.3,0.3-0.5,0.6-0.6,1h3.2c0-0.4-0.2-0.7-0.5-1
						C1088.9,443.2,1088,443.2,1087.5,443.7z"/>
				</g>
			</g>
		</g>
	</g>
</g>
<g>
	<g class="st2">
		<g>
			<path class="st1" d="M879,203.7v57H714v-57H879 M880,202.7H713v59h167V202.7L880,202.7z"/>
		</g>
	</g>
	<g>
		<g>
			<polygon class="st3" points="767.2,223.1 763.7,218.1 763.7,224.8 764.9,226.4 767.2,229.7 769.5,226.4 			"/>
			<linearGradient id="SVGID_8_" gradientUnits="userSpaceOnUse" x1="773.192" y1="229.7453" x2="773.192" y2="209.4904">
				<stop  offset="0" style="stop-color:#E50A0A;stop-opacity:0.9"/>
				<stop  offset="1" style="stop-color:#E50A0A;stop-opacity:0"/>
			</linearGradient>
			<polygon class="st12" points="776.8,209.5 767.2,223.1 764.9,226.4 767.2,229.7 769.5,226.4 781.5,209.5 			"/>
			<g>
				<path class="st5" d="M749.5,216.8c-2.2,0-4,0.7-5.4,2.1c-1.4,1.4-2.1,3.2-2.1,5.3c0,2.1,0.7,3.8,2.1,5.3
					c1.4,1.4,3.2,2.1,5.4,2.1c2.1,0,4-0.7,5.4-2.1c1.4-1.4,2.1-3.2,2.1-5.3c0-2.1-0.7-3.8-2.1-5.3
					C753.5,217.5,751.7,216.8,749.5,216.8z M747.1,221.6c0.6-0.6,1.4-0.9,2.4-0.9c1,0,1.8,0.3,2.4,0.9c0.7,0.7,1,1.5,1,2.6
					c0,1.1-0.3,1.9-1,2.6c-0.6,0.6-1.4,0.9-2.4,0.9c-1,0-1.8-0.3-2.4-0.9c-0.7-0.7-1-1.5-1-2.6C746.1,223.1,746.5,222.2,747.1,221.6
					z"/>
				<path class="st5" d="M785.5,217h-6.7v14.3h4.1v-4.5h2.6c3.6,0,5.7-1.8,5.7-4.9S789.1,217,785.5,217z M782.9,220.6h2.5
					c1.5,0,1.7,0.8,1.7,1.3c0,0.6-0.2,1.3-1.7,1.3h-2.5V220.6z"/>
				<polygon class="st5" points="797,217 792.9,217 792.9,231.3 803.6,231.3 803.6,227.4 797,227.4 				"/>
				<rect x="805.5" y="217" class="st5" width="4.1" height="14.3"/>
				<polygon class="st5" points="811.5,220.7 815.5,220.7 815.5,231.3 819.5,231.3 819.5,220.7 823.5,220.7 823.5,217 811.5,217 
									"/>
				<polygon class="st5" points="829.5,225.8 835.6,225.8 835.6,222.1 829.5,222.1 829.5,220.7 836.1,220.7 836.1,217 825.4,217 
					825.4,231.3 836.2,231.3 836.2,227.6 829.5,227.6 				"/>
				<polygon class="st5" points="862,217 862,222.1 857.3,222.1 857.3,217 853.2,217 853.2,231.3 857.3,231.3 857.3,226 862,226 
					862,231.3 866.1,231.3 866.1,217 				"/>
				<rect x="758.7" y="217" class="st5" width="4.1" height="14.3"/>
				<polygon class="st5" points="771.6,231.3 775.7,231.3 775.7,219.4 771.6,225.3 				"/>
				<path class="st5" d="M737.8,225.2l-0.2,0.3c-0.9,1.6-1.8,2.3-3.2,2.3c-0.9,0-1.7-0.3-2.4-1c-0.7-0.7-1-1.5-1-2.6
					c0-1.1,0.3-1.9,1-2.6c0.7-0.7,1.4-1,2.3-1c1.4,0,2.3,0.7,3,2.1l0.1,0.3l3.3-2.5c-1.1-2.4-3.4-3.8-6.4-3.8
					c-2.1,0-3.9,0.7-5.3,2.1c-1.4,1.4-2.2,3.2-2.2,5.3c0,2.2,0.7,4,2.1,5.3c1.4,1.4,3.2,2.1,5.3,2.1c2.9,0,4.8-1.1,6.6-3.8l0.1-0.1
					L737.8,225.2z"/>
				<path class="st5" d="M848.5,225.2l-0.2,0.3c-0.9,1.6-1.8,2.3-3.2,2.3c-0.9,0-1.7-0.3-2.4-1c-0.7-0.7-1-1.5-1-2.6
					c0-1.1,0.3-1.9,1-2.6c0.7-0.7,1.4-1,2.3-1c1.4,0,2.3,0.7,3,2.1l0.1,0.3l3.3-2.5c-1.1-2.4-3.4-3.8-6.4-3.8
					c-2.1,0-3.9,0.7-5.3,2.1c-1.4,1.4-2.2,3.2-2.2,5.3c0,2.2,0.7,4,2.1,5.3c1.4,1.4,3.2,2.1,5.3,2.1c2.9,0,4.8-1.1,6.6-3.8l0.1-0.1
					L848.5,225.2z"/>
			</g>
		</g>
		<g>
			<g>
				<g>
					<path class="st1" d="M728.8,245.5v-7.6h1.1v3c0.4-0.6,1.1-1,1.9-1c0.7,0,1.3,0.3,1.8,0.8c0.5,0.5,0.7,1.2,0.7,2.1
						c0,0.8-0.3,1.5-0.7,2.1c-0.5,0.5-1.1,0.8-1.8,0.8c-0.8,0-1.5-0.4-1.8-0.9v0.8H728.8z M731.5,244.6c0.5,0,0.9-0.2,1.2-0.5
						c0.3-0.3,0.5-0.8,0.5-1.3c0-0.5-0.2-1-0.5-1.3c-0.3-0.3-0.7-0.5-1.2-0.5c-0.5,0-0.9,0.2-1.2,0.5c-0.3,0.3-0.5,0.8-0.5,1.3
						c0,0.5,0.2,1,0.5,1.3C730.7,244.4,731.1,244.6,731.5,244.6z"/>
				</g>
				<g>
					<path class="st1" d="M736.2,246.6c0.6,0.2,0.9,0.2,1.1-0.5l0.3-0.7l-2.2-5.4h1.3l1.5,3.9l1.5-3.9h1.2l-2.6,6.5
						c-0.3,0.8-0.8,1.2-1.5,1.2c-0.3,0-0.5,0-0.8-0.1L736.2,246.6z"/>
				</g>
				<g>
					<path class="st1" d="M746.3,245.5v-7.6h1.3l2.6,6.4l2.6-6.4h1.3v7.6h-1.1v-5.3l-0.4,1.1l-1.7,4.2h-1.1l-1.7-4.2
						c-0.2-0.6-0.3-0.9-0.4-1.1v5.3H746.3z"/>
				</g>
				<g>
					<path class="st1" d="M760.6,245.5c-0.2-0.2-0.3-0.5-0.3-0.9c-0.4,0.7-1,1.1-1.8,1.1c-1.1,0-1.8-0.7-1.8-1.7
						c0-1,0.8-1.6,1.9-1.8l1.7-0.3v-0.2c0-0.6-0.4-0.9-1.1-0.9c-0.7,0-1.1,0.3-1.1,0.7c0,0.1,0,0.1,0,0.2l-1,0.3
						c-0.1-0.1-0.1-0.3-0.1-0.4c0-0.4,0.2-0.8,0.6-1.1c0.4-0.3,0.9-0.5,1.6-0.5c1.5,0,2.2,0.7,2.2,1.8v2.4c0,0.5,0.1,1,0.3,1.3
						H760.6z M760.3,242.9v-0.2l-1.5,0.3c-0.7,0.1-1,0.4-1,0.9s0.3,0.8,0.9,0.8C759.6,244.7,760.3,243.9,760.3,242.9z"/>
				</g>
				<g>
					<path class="st1" d="M765.1,240.1l1,1.6l1-1.6h1.3l-1.7,2.5l1.9,2.9h-1.3l-1.2-2l-1.3,2h-1.3l2-2.9l-1.7-2.5H765.1z"/>
				</g>
				<g>
					<path class="st1" d="M770.7,239.2V238h1.3v1.2H770.7z M770.8,245.5v-5.4h1.1v5.4H770.8z"/>
				</g>
				<g>
					<path class="st1" d="M782.2,245.5h-1.1v-3.6c0-0.7-0.3-1-0.9-1c-0.7,0-1.2,0.5-1.2,1.6v3h-1.1v-3.5c0-0.6-0.3-1-0.9-1
						c-0.7,0-1.2,0.6-1.2,1.6v3h-1.1v-5.4h1.1v0.8c0.3-0.6,0.9-0.9,1.6-0.9c0.8,0,1.3,0.3,1.5,1c0.4-0.6,0.9-1,1.7-1
						c1,0,1.7,0.6,1.7,1.6V245.5z"/>
				</g>
				<g>
					<path class="st1" d="M788.6,245.5c-0.2-0.2-0.3-0.5-0.3-0.9c-0.4,0.7-1,1.1-1.8,1.1c-1.1,0-1.8-0.7-1.8-1.7
						c0-1,0.8-1.6,1.9-1.8l1.7-0.3v-0.2c0-0.6-0.4-0.9-1.1-0.9c-0.7,0-1.1,0.3-1.1,0.7c0,0.1,0,0.1,0,0.2l-1,0.3
						c-0.1-0.1-0.1-0.3-0.1-0.4c0-0.4,0.2-0.8,0.6-1.1c0.4-0.3,0.9-0.5,1.6-0.5c1.5,0,2.2,0.7,2.2,1.8v2.4c0,0.5,0.1,1,0.3,1.3
						H788.6z M788.3,242.9v-0.2l-1.5,0.3c-0.7,0.1-1,0.4-1,0.9s0.3,0.8,0.9,0.8C787.7,244.7,788.3,243.9,788.3,242.9z"/>
				</g>
				<g>
					<path class="st1" d="M802.5,243.6c-0.8,1.4-1.8,2-3.3,2c-1.1,0-2-0.4-2.7-1.1c-0.7-0.7-1.1-1.7-1.1-2.8c0-1.1,0.4-2.1,1.1-2.8
						c0.7-0.7,1.6-1.1,2.7-1.1c1.5,0,2.7,0.8,3.3,2l-0.9,0.7c-0.5-1.1-1.3-1.6-2.3-1.6c-0.7,0-1.3,0.3-1.9,0.8
						c-0.5,0.6-0.8,1.2-0.8,2.1s0.3,1.5,0.7,2.1c0.5,0.6,1.1,0.8,1.9,0.8c1,0,1.9-0.5,2.4-1.6L802.5,243.6z"/>
				</g>
				<g>
					<path class="st1" d="M810.5,242.8c0,0.9-0.3,1.6-0.9,2.1s-1.3,0.8-2,0.8c-0.8,0-1.4-0.3-2-0.8c-0.6-0.5-0.9-1.2-0.9-2.1
						c0-0.9,0.3-1.6,0.9-2.1c0.6-0.5,1.2-0.8,2-0.8c0.8,0,1.5,0.2,2,0.8S810.5,241.9,810.5,242.8z M807.6,244.6
						c0.5,0,0.9-0.2,1.2-0.5c0.3-0.3,0.5-0.8,0.5-1.3c0-0.5-0.2-1-0.5-1.3c-0.3-0.3-0.8-0.5-1.2-0.5c-0.5,0-0.9,0.2-1.2,0.5
						c-0.3,0.3-0.5,0.8-0.5,1.3c0,0.5,0.2,1,0.5,1.3C806.7,244.4,807.1,244.6,807.6,244.6z"/>
				</g>
				<g>
					<path class="st1" d="M820.5,245.5h-1.1v-3.6c0-0.7-0.3-1-0.9-1c-0.7,0-1.2,0.5-1.2,1.6v3h-1.1v-3.5c0-0.6-0.3-1-0.9-1
						c-0.7,0-1.2,0.6-1.2,1.6v3h-1.1v-5.4h1.1v0.8c0.3-0.6,0.9-0.9,1.6-0.9c0.8,0,1.3,0.3,1.5,1c0.4-0.6,0.9-1,1.7-1
						c1,0,1.7,0.6,1.7,1.6V245.5z"/>
				</g>
				<g>
					<path class="st1" d="M823.3,247.7v-7.6h1.1v0.8c0.3-0.6,1.1-1,1.9-1c0.7,0,1.3,0.3,1.8,0.8c0.5,0.5,0.7,1.2,0.7,2.1
						c0,0.9-0.3,1.5-0.7,2.1c-0.5,0.5-1.1,0.8-1.9,0.8c-0.8,0-1.5-0.3-1.8-0.9v3H823.3z M826,240.9c-0.5,0-0.9,0.2-1.2,0.5
						c-0.3,0.3-0.5,0.8-0.5,1.3c0,0.5,0.2,1,0.5,1.3c0.3,0.3,0.7,0.5,1.2,0.5c0.5,0,0.9-0.2,1.2-0.5c0.3-0.3,0.5-0.8,0.5-1.3
						c0-0.5-0.2-1-0.5-1.3C826.9,241.1,826.5,240.9,826,240.9z"/>
				</g>
				<g>
					<path class="st1" d="M831.3,245.5v-7.6h1.1v7.6H831.3z"/>
				</g>
				<g>
					<path class="st1" d="M835,239.2V238h1.3v1.2H835z M835.1,245.5v-5.4h1.1v5.4H835.1z"/>
				</g>
				<g>
					<path class="st1" d="M842.6,245.5c-0.2-0.2-0.3-0.5-0.3-0.9c-0.4,0.7-1,1.1-1.8,1.1c-1.1,0-1.8-0.7-1.8-1.7
						c0-1,0.8-1.6,1.9-1.8l1.7-0.3v-0.2c0-0.6-0.4-0.9-1.1-0.9c-0.7,0-1.1,0.3-1.1,0.7c0,0.1,0,0.1,0,0.2l-1,0.3
						c-0.1-0.1-0.1-0.3-0.1-0.4c0-0.4,0.2-0.8,0.6-1.1c0.4-0.3,0.9-0.5,1.6-0.5c1.5,0,2.2,0.7,2.2,1.8v2.4c0,0.5,0.1,1,0.3,1.3
						H842.6z M842.3,242.9v-0.2l-1.5,0.3c-0.7,0.1-1,0.4-1,0.9s0.3,0.8,0.9,0.8C841.7,244.7,842.3,243.9,842.3,242.9z"/>
				</g>
				<g>
					<path class="st1" d="M851,245.5h-1.1v-3.3c0-0.7-0.4-1.2-1.2-1.2c-0.8,0-1.4,0.7-1.4,1.7v2.8h-1.1v-5.4h1.1v0.9
						c0.4-0.6,1.1-1.1,1.8-1.1c1.1,0,1.9,0.7,1.9,1.9V245.5z"/>
				</g>
				<g>
					<path class="st1" d="M858.7,244.1c-0.5,1-1.4,1.6-2.5,1.6c-0.8,0-1.5-0.3-2-0.8s-0.8-1.2-0.8-2c0-0.8,0.3-1.5,0.8-2
						c0.5-0.5,1.2-0.8,2-0.8c1.2,0,2,0.5,2.4,1.5l-0.9,0.6c-0.3-0.7-0.9-1-1.5-1c-0.5,0-0.9,0.2-1.2,0.5c-0.3,0.3-0.5,0.8-0.5,1.3
						c0,1.1,0.7,1.8,1.7,1.8c0.8,0,1.2-0.4,1.6-1.1L858.7,244.1z"/>
				</g>
				<g>
					<path class="st1" d="M866.1,243h-4.3c0,1,0.7,1.6,1.6,1.6c0.8,0,1.3-0.4,1.6-1.1l0.9,0.5c-0.5,1.1-1.3,1.6-2.5,1.6
						c-0.8,0-1.4-0.3-1.9-0.8c-0.5-0.5-0.8-1.2-0.8-2c0-0.8,0.3-1.5,0.8-2c0.5-0.5,1.2-0.8,2-0.8c0.8,0,1.4,0.2,1.9,0.7
						c0.5,0.5,0.7,1.2,0.7,1.9V243z M862.5,241.2c-0.3,0.2-0.5,0.6-0.6,1h3.2c0-0.4-0.2-0.7-0.5-1
						C863.9,240.7,863,240.7,862.5,241.2z"/>
				</g>
			</g>
		</g>
	</g>
</g>
<g>
	<g class="st2">
		<g>
			<path class="st1" d="M802.5,696.7v57h-165v-57H802.5 M803.5,695.7h-167v59h167V695.7L803.5,695.7z"/>
		</g>
	</g>
	<g>
		<g>
			<polygon class="st3" points="690.7,716.1 687.2,711.1 687.2,717.8 688.4,719.4 690.7,722.7 693,719.4 			"/>
			<linearGradient id="SVGID_9_" gradientUnits="userSpaceOnUse" x1="696.692" y1="722.7452" x2="696.692" y2="702.4904">
				<stop  offset="0" style="stop-color:#E50A0A;stop-opacity:0.9"/>
				<stop  offset="1" style="stop-color:#E50A0A;stop-opacity:0"/>
			</linearGradient>
			<polygon class="st13" points="700.3,702.5 690.7,716.1 688.4,719.4 690.7,722.7 693,719.4 705,702.5 			"/>
			<g>
				<path class="st5" d="M673,709.8c-2.2,0-4,0.7-5.4,2.1c-1.4,1.4-2.1,3.2-2.1,5.3c0,2.1,0.7,3.8,2.1,5.3c1.4,1.4,3.2,2.1,5.4,2.1
					c2.1,0,4-0.7,5.4-2.1c1.4-1.4,2.1-3.2,2.1-5.3c0-2.1-0.7-3.8-2.1-5.3C677,710.5,675.2,709.8,673,709.8z M670.6,714.6
					c0.6-0.6,1.4-0.9,2.4-0.9c1,0,1.8,0.3,2.4,0.9c0.7,0.7,1,1.5,1,2.6c0,1.1-0.3,1.9-1,2.6c-0.6,0.6-1.4,0.9-2.4,0.9
					c-1,0-1.8-0.3-2.4-0.9c-0.7-0.7-1-1.5-1-2.6C669.6,716.1,670,715.2,670.6,714.6z"/>
				<path class="st5" d="M709,710h-6.7v14.3h4.1v-4.5h2.6c3.6,0,5.7-1.8,5.7-4.9S712.6,710,709,710z M706.4,713.6h2.5
					c1.5,0,1.7,0.8,1.7,1.3c0,0.6-0.2,1.3-1.7,1.3h-2.5V713.6z"/>
				<polygon class="st5" points="720.5,710 716.4,710 716.4,724.3 727.1,724.3 727.1,720.4 720.5,720.4 				"/>
				<rect x="729" y="710" class="st5" width="4.1" height="14.3"/>
				<polygon class="st5" points="735,713.7 739,713.7 739,724.3 743,724.3 743,713.7 747,713.7 747,710 735,710 				"/>
				<polygon class="st5" points="753,718.8 759.1,718.8 759.1,715.1 753,715.1 753,713.7 759.6,713.7 759.6,710 748.9,710 
					748.9,724.3 759.7,724.3 759.7,720.6 753,720.6 				"/>
				<polygon class="st5" points="785.5,710 785.5,715.1 780.8,715.1 780.8,710 776.7,710 776.7,724.3 780.8,724.3 780.8,719 
					785.5,719 785.5,724.3 789.6,724.3 789.6,710 				"/>
				<rect x="682.2" y="710" class="st5" width="4.1" height="14.3"/>
				<polygon class="st5" points="695.1,724.3 699.2,724.3 699.2,712.4 695.1,718.3 				"/>
				<path class="st5" d="M661.3,718.2l-0.2,0.3c-0.9,1.6-1.8,2.3-3.2,2.3c-0.9,0-1.7-0.3-2.4-1c-0.7-0.7-1-1.5-1-2.6
					c0-1.1,0.3-1.9,1-2.6c0.7-0.7,1.4-1,2.3-1c1.4,0,2.3,0.7,3,2.1l0.1,0.3l3.3-2.5c-1.1-2.4-3.4-3.8-6.4-3.8
					c-2.1,0-3.9,0.7-5.3,2.1c-1.4,1.4-2.2,3.2-2.2,5.3c0,2.2,0.7,4,2.1,5.3c1.4,1.4,3.2,2.1,5.3,2.1c2.9,0,4.8-1.1,6.6-3.8l0.1-0.1
					L661.3,718.2z"/>
				<path class="st5" d="M772,718.2l-0.2,0.3c-0.9,1.6-1.8,2.3-3.2,2.3c-0.9,0-1.7-0.3-2.4-1c-0.7-0.7-1-1.5-1-2.6
					c0-1.1,0.3-1.9,1-2.6c0.7-0.7,1.4-1,2.3-1c1.4,0,2.3,0.7,3,2.1l0.1,0.3l3.3-2.5c-1.1-2.4-3.4-3.8-6.4-3.8
					c-2.1,0-3.9,0.7-5.3,2.1c-1.4,1.4-2.2,3.2-2.2,5.3c0,2.2,0.7,4,2.1,5.3c1.4,1.4,3.2,2.1,5.3,2.1c2.9,0,4.8-1.1,6.6-3.8l0.1-0.1
					L772,718.2z"/>
			</g>
		</g>
		<g>
			<g>
				<g>
					<path class="st1" d="M652.3,738.5v-7.6h1.1v3c0.4-0.6,1.1-1,1.9-1c0.7,0,1.3,0.3,1.8,0.8c0.5,0.5,0.7,1.2,0.7,2.1
						c0,0.8-0.3,1.5-0.7,2.1c-0.5,0.5-1.1,0.8-1.8,0.8c-0.8,0-1.5-0.4-1.8-0.9v0.8H652.3z M655,737.6c0.5,0,0.9-0.2,1.2-0.5
						c0.3-0.3,0.5-0.8,0.5-1.3c0-0.5-0.2-1-0.5-1.3c-0.3-0.3-0.7-0.5-1.2-0.5c-0.5,0-0.9,0.2-1.2,0.5c-0.3,0.3-0.5,0.8-0.5,1.3
						c0,0.5,0.2,1,0.5,1.3C654.2,737.4,654.6,737.6,655,737.6z"/>
				</g>
				<g>
					<path class="st1" d="M659.7,739.6c0.6,0.2,0.9,0.2,1.1-0.5l0.3-0.7l-2.2-5.4h1.3l1.5,3.9l1.5-3.9h1.2l-2.6,6.5
						c-0.3,0.8-0.8,1.2-1.5,1.2c-0.3,0-0.5,0-0.8-0.1L659.7,739.6z"/>
				</g>
				<g>
					<path class="st1" d="M669.8,738.5v-7.6h1.3l2.6,6.4l2.6-6.4h1.3v7.6h-1.1v-5.3l-0.4,1.1l-1.7,4.2h-1.1l-1.7-4.2
						c-0.2-0.6-0.3-0.9-0.4-1.1v5.3H669.8z"/>
				</g>
				<g>
					<path class="st1" d="M684.1,738.5c-0.2-0.2-0.3-0.5-0.3-0.9c-0.4,0.7-1,1.1-1.8,1.1c-1.1,0-1.8-0.7-1.8-1.7
						c0-1,0.8-1.6,1.9-1.8l1.7-0.3v-0.2c0-0.6-0.4-0.9-1.1-0.9c-0.7,0-1.1,0.3-1.1,0.7c0,0.1,0,0.1,0,0.2l-1,0.3
						c-0.1-0.1-0.1-0.3-0.1-0.4c0-0.4,0.2-0.8,0.6-1.1c0.4-0.3,0.9-0.5,1.6-0.5c1.5,0,2.2,0.7,2.2,1.8v2.4c0,0.5,0.1,1,0.3,1.3
						H684.1z M683.8,735.9v-0.2l-1.5,0.3c-0.7,0.1-1,0.4-1,0.9s0.3,0.8,0.9,0.8C683.1,737.7,683.8,736.9,683.8,735.9z"/>
				</g>
				<g>
					<path class="st1" d="M688.6,733.1l1,1.6l1-1.6h1.3l-1.7,2.5l1.9,2.9h-1.3l-1.2-2l-1.3,2h-1.3l2-2.9l-1.7-2.5H688.6z"/>
				</g>
				<g>
					<path class="st1" d="M694.2,732.2V731h1.3v1.2H694.2z M694.3,738.5v-5.4h1.1v5.4H694.3z"/>
				</g>
				<g>
					<path class="st1" d="M705.7,738.5h-1.1v-3.6c0-0.7-0.3-1-0.9-1c-0.7,0-1.2,0.5-1.2,1.6v3h-1.1v-3.5c0-0.6-0.3-1-0.9-1
						c-0.7,0-1.2,0.6-1.2,1.6v3h-1.1v-5.4h1.1v0.8c0.3-0.6,0.9-0.9,1.6-0.9c0.8,0,1.3,0.3,1.5,1c0.4-0.6,0.9-1,1.7-1
						c1,0,1.7,0.6,1.7,1.6V738.5z"/>
				</g>
				<g>
					<path class="st1" d="M712.1,738.5c-0.2-0.2-0.3-0.5-0.3-0.9c-0.4,0.7-1,1.1-1.8,1.1c-1.1,0-1.8-0.7-1.8-1.7
						c0-1,0.8-1.6,1.9-1.8l1.7-0.3v-0.2c0-0.6-0.4-0.9-1.1-0.9c-0.7,0-1.1,0.3-1.1,0.7c0,0.1,0,0.1,0,0.2l-1,0.3
						c-0.1-0.1-0.1-0.3-0.1-0.4c0-0.4,0.2-0.8,0.6-1.1c0.4-0.3,0.9-0.5,1.6-0.5c1.5,0,2.2,0.7,2.2,1.8v2.4c0,0.5,0.1,1,0.3,1.3
						H712.1z M711.8,735.9v-0.2l-1.5,0.3c-0.7,0.1-1,0.4-1,0.9s0.3,0.8,0.9,0.8C711.2,737.7,711.8,736.9,711.8,735.9z"/>
				</g>
				<g>
					<path class="st1" d="M726,736.6c-0.8,1.4-1.8,2-3.3,2c-1.1,0-2-0.4-2.7-1.1c-0.7-0.7-1.1-1.7-1.1-2.8c0-1.1,0.4-2.1,1.1-2.8
						c0.7-0.7,1.6-1.1,2.7-1.1c1.5,0,2.7,0.8,3.3,2l-0.9,0.7c-0.5-1.1-1.3-1.6-2.3-1.6c-0.7,0-1.3,0.3-1.9,0.8
						c-0.5,0.6-0.8,1.2-0.8,2.1s0.3,1.5,0.7,2.1c0.5,0.6,1.1,0.8,1.9,0.8c1,0,1.9-0.5,2.4-1.6L726,736.6z"/>
				</g>
				<g>
					<path class="st1" d="M734,735.8c0,0.9-0.3,1.6-0.9,2.1c-0.6,0.5-1.3,0.8-2,0.8c-0.8,0-1.4-0.3-2-0.8c-0.6-0.5-0.9-1.2-0.9-2.1
						s0.3-1.6,0.9-2.1c0.6-0.5,1.2-0.8,2-0.8c0.8,0,1.5,0.3,2,0.8C733.7,734.2,734,734.9,734,735.8z M731.1,737.6
						c0.5,0,0.9-0.2,1.2-0.5c0.3-0.3,0.5-0.8,0.5-1.3c0-0.5-0.2-1-0.5-1.3c-0.3-0.3-0.8-0.5-1.2-0.5c-0.5,0-0.9,0.2-1.2,0.5
						c-0.3,0.3-0.5,0.8-0.5,1.3c0,0.5,0.2,1,0.5,1.3C730.2,737.4,730.6,737.6,731.1,737.6z"/>
				</g>
				<g>
					<path class="st1" d="M744,738.5h-1.1v-3.6c0-0.7-0.3-1-0.9-1c-0.7,0-1.2,0.5-1.2,1.6v3h-1.1v-3.5c0-0.6-0.3-1-0.9-1
						c-0.7,0-1.2,0.6-1.2,1.6v3h-1.1v-5.4h1.1v0.8c0.3-0.6,0.9-0.9,1.6-0.9c0.8,0,1.3,0.3,1.5,1c0.4-0.6,0.9-1,1.7-1
						c1,0,1.7,0.6,1.7,1.6V738.5z"/>
				</g>
				<g>
					<path class="st1" d="M746.8,740.7v-7.6h1.1v0.8c0.3-0.6,1.1-1,1.9-1c0.7,0,1.3,0.3,1.8,0.8c0.5,0.5,0.7,1.2,0.7,2.1
						s-0.3,1.5-0.7,2.1c-0.5,0.5-1.1,0.8-1.9,0.8c-0.8,0-1.5-0.3-1.8-0.9v3H746.8z M749.5,733.9c-0.5,0-0.9,0.2-1.2,0.5
						c-0.3,0.3-0.5,0.8-0.5,1.3c0,0.5,0.2,1,0.5,1.3c0.3,0.3,0.7,0.5,1.2,0.5c0.5,0,0.9-0.2,1.2-0.5c0.3-0.3,0.5-0.8,0.5-1.3
						c0-0.5-0.2-1-0.5-1.3C750.4,734.1,750,733.9,749.5,733.9z"/>
				</g>
				<g>
					<path class="st1" d="M754.8,738.5v-7.6h1.1v7.6H754.8z"/>
				</g>
				<g>
					<path class="st1" d="M758.5,732.2V731h1.3v1.2H758.5z M758.6,738.5v-5.4h1.1v5.4H758.6z"/>
				</g>
				<g>
					<path class="st1" d="M766.1,738.5c-0.2-0.2-0.3-0.5-0.3-0.9c-0.4,0.7-1,1.1-1.8,1.1c-1.1,0-1.8-0.7-1.8-1.7
						c0-1,0.8-1.6,1.9-1.8l1.7-0.3v-0.2c0-0.6-0.4-0.9-1.1-0.9c-0.7,0-1.1,0.3-1.1,0.7c0,0.1,0,0.1,0,0.2l-1,0.3
						c-0.1-0.1-0.1-0.3-0.1-0.4c0-0.4,0.2-0.8,0.6-1.1c0.4-0.3,0.9-0.5,1.6-0.5c1.5,0,2.2,0.7,2.2,1.8v2.4c0,0.5,0.1,1,0.3,1.3
						H766.1z M765.8,735.9v-0.2l-1.5,0.3c-0.7,0.1-1,0.4-1,0.9s0.3,0.8,0.9,0.8C765.2,737.7,765.8,736.9,765.8,735.9z"/>
				</g>
				<g>
					<path class="st1" d="M774.5,738.5h-1.1v-3.3c0-0.7-0.4-1.2-1.2-1.2c-0.8,0-1.4,0.7-1.4,1.7v2.8h-1.1v-5.4h1.1v0.9
						c0.4-0.6,1.1-1.1,1.8-1.1c1.1,0,1.9,0.7,1.9,1.9V738.5z"/>
				</g>
				<g>
					<path class="st1" d="M782.2,737.1c-0.5,1-1.4,1.6-2.5,1.6c-0.8,0-1.5-0.3-2-0.8s-0.8-1.2-0.8-2c0-0.8,0.3-1.5,0.8-2
						c0.5-0.5,1.2-0.8,2-0.8c1.2,0,2,0.5,2.4,1.5l-0.9,0.6c-0.3-0.7-0.9-1-1.5-1c-0.5,0-0.9,0.2-1.2,0.5c-0.3,0.3-0.5,0.8-0.5,1.3
						c0,1.1,0.7,1.8,1.7,1.8c0.8,0,1.2-0.4,1.6-1.1L782.2,737.1z"/>
				</g>
				<g>
					<path class="st1" d="M789.6,736h-4.3c0,1,0.7,1.6,1.6,1.6c0.8,0,1.3-0.4,1.6-1.1l0.9,0.5c-0.5,1.1-1.3,1.6-2.5,1.6
						c-0.8,0-1.4-0.3-1.9-0.8c-0.5-0.5-0.8-1.2-0.8-2c0-0.8,0.3-1.5,0.8-2c0.5-0.5,1.2-0.8,2-0.8c0.8,0,1.4,0.3,1.9,0.7
						c0.5,0.5,0.7,1.2,0.7,1.9V736z M786,734.2c-0.3,0.3-0.5,0.6-0.6,1h3.2c0-0.4-0.2-0.8-0.5-1C787.4,733.7,786.5,733.7,786,734.2z
						"/>
				</g>
			</g>
		</g>
	</g>
</g>
</svg>
