<?xml version="1.0" encoding="utf-8"?>
<!-- Generator: Adobe Illustrator 22.0.0, SVG Export Plug-In . SVG Version: 6.00 Build 0)  -->
<svg version="1.1" id="Layer_1" xmlns="http://www.w3.org/2000/svg" xmlns:xlink="http://www.w3.org/1999/xlink" x="0px" y="0px"
	 viewBox="0 0 1200 1200" style="enable-background:new 0 0 1200 1200;" xml:space="preserve">
<style type="text/css">
	.st0{fill:#071216;}
	.st1{fill:#FFFFFF;}
	.st2{fill:url(#SVGID_1_);}
	.st3{opacity:0.7;fill:#FFFFFF;}
	.st4{opacity:0.6;}
</style>
<rect class="st0" width="1200" height="1200"/>
<g>
	<g>
		<g>
			<path class="st1" d="M295.8,523.1c-13.9,0-25.6,4.7-34.6,13.9c-9.2,9.2-13.9,20.7-13.9,34.2s4.7,25,13.9,34.1
				c9.1,9.2,20.7,13.9,34.7,13.9c13.9,0,25.6-4.7,34.8-13.9c9.1-9.2,13.7-20.7,13.7-34.1c0-13.4-4.6-24.9-13.7-34.2
				C321.3,527.8,309.6,523.1,295.8,523.1z M280,554.3c4.1-4.1,9.3-6.2,15.7-6.2c6.4,0,11.6,2,15.7,6.2c4.2,4.2,6.3,9.7,6.3,16.8
				s-2.1,12.6-6.3,16.8c-4.1,4.1-9.3,6.2-15.7,6.2c-6.4,0-11.6-2-15.7-6.2c-4.2-4.2-6.3-9.7-6.3-16.8S275.8,558.5,280,554.3z"/>
			<path class="st1" d="M528.3,524.8h-43.5v92.6h26.5v-29.2h17c23.5,0,37-11.5,37-31.7S551.8,524.8,528.3,524.8z M511.3,547.9h16.5
				c9.8,0,11,4.9,11,8.6s-1.1,8.6-11,8.6h-16.5V547.9z"/>
			<polygon class="st1" points="602.5,524.8 576,524.8 576,617.4 645.6,617.4 645.6,592.4 602.5,592.4 			"/>
			<rect x="657.9" y="524.8" class="st1" width="26.5" height="92.6"/>
			<polygon class="st1" points="696.7,548.9 722.1,548.9 722.1,617.4 748.6,617.4 748.6,548.9 774.1,548.9 774.1,524.8 696.7,524.8 
							"/>
			<polygon class="st1" points="812.9,581.4 852.3,581.4 852.3,557.9 812.9,557.9 812.9,548.9 855.8,548.9 855.8,524.8 786.4,524.8 
				786.4,617.4 856.1,617.4 856.1,593.4 812.9,593.4 			"/>
			<polygon class="st1" points="1023.5,524.8 1023.5,557.7 992.8,557.7 992.8,524.8 966.3,524.8 966.3,617.4 992.8,617.4 
				992.8,582.8 1023.5,582.8 1023.5,617.4 1050,617.4 1050,524.8 			"/>
			<rect x="355" y="524.8" class="st1" width="26.5" height="92.6"/>
			<polygon class="st1" points="438.3,617.4 464.8,617.4 464.8,540.5 438.3,578.4 			"/>
			<path class="st1" d="M219.7,577.6l-1,1.9c-5.6,10.4-11.6,14.6-20.7,14.6c-6.1,0-11-2.1-15.2-6.4c-4.2-4.4-6.3-9.8-6.3-16.6
				c0-6.9,2.1-12.5,6.3-16.7s9.2-6.3,15.1-6.3c8.7,0,15.1,4.5,19.5,13.8l0.9,1.9l21.6-16.4c-6.8-15.3-22.3-24.4-41.4-24.4
				c-13.8,0-25.5,4.5-34.6,13.3c-9.2,8.8-13.9,20.5-13.9,34.7s4.5,25.8,13.5,34.7s20.6,13.4,34.5,13.4c18.6,0,31.3-7.4,42.5-24.7
				l0.5-0.8L219.7,577.6z"/>
			<path class="st1" d="M936,577.6l-1,1.9c-5.6,10.4-11.6,14.6-20.7,14.6c-6.1,0-11-2.1-15.2-6.4c-4.2-4.4-6.3-9.8-6.3-16.6
				c0-6.9,2.1-12.5,6.3-16.7s9.2-6.3,15.1-6.3c8.7,0,15.1,4.5,19.5,13.8l0.9,1.9l21.6-16.4c-6.8-15.3-22.3-24.4-41.4-24.4
				c-13.8,0-25.5,4.5-34.6,13.3c-9.2,8.8-13.9,20.5-13.9,34.7s4.5,25.8,13.5,34.7s20.6,13.4,34.5,13.4c18.6,0,31.3-7.4,42.5-24.7
				l0.5-0.8L936,577.6z"/>
		</g>
		<g>
			<linearGradient id="SVGID_1_" gradientUnits="userSpaceOnUse" x1="456.25" y1="607.3" x2="456.25" y2="475.8">
				<stop  offset="0" style="stop-color:#FFFFFF;stop-opacity:0.65"/>
				<stop  offset="1" style="stop-color:#FFFFFF;stop-opacity:0"/>
			</linearGradient>
			<polygon class="st2" points="472.3,475.8 409.9,564.2 425,585.8 502.6,475.8 			"/>
			<polygon class="st3" points="409.9,564.2 387.3,531.9 387.3,575 394.8,585.8 409.9,607.3 425,585.8 			"/>
		</g>
	</g>
	<g class="st4">
		<g>
			<g>
				<path class="st1" d="M163,706.1v-49.2h7.2v19.6c2.5-3.9,7.2-6.3,12.2-6.3c4.7,0,8.6,1.7,11.7,5.1c3.1,3.5,4.7,7.9,4.7,13.4
					s-1.6,9.9-4.8,13.3c-3.2,3.5-7.2,5.2-11.9,5.2c-5.4,0-9.7-2.7-11.9-6.1v5.1L163,706.1L163,706.1z M180.5,700.5
					c3,0,5.6-1.1,7.8-3.3c2-2.2,3.1-5.1,3.1-8.5c0-3.5-1.1-6.3-3.1-8.5c-2.1-2.2-4.7-3.3-7.8-3.3s-5.6,1.1-7.7,3.3
					c-2.1,2.2-3.2,5.1-3.2,8.5c0,3.5,1.1,6.3,3.2,8.5C174.8,699.4,177.4,700.5,180.5,700.5z"/>
			</g>
			<g>
				<path class="st1" d="M210.4,713.6c3.6,1.1,5.8,1.3,7.4-3l1.6-4.3l-14.2-35.1h8.3l9.9,25.2l9.8-25.2h8l-16.8,41.9
					c-2,5.2-5.4,7.8-9.8,7.8c-1.8,0-3.5-0.3-5.1-0.8L210.4,713.6z"/>
			</g>
			<g>
				<path class="st1" d="M275.7,706.1v-49.2h8.1l16.6,41.7l16.6-41.7h8.1v49.2h-7.3V672l-2.5,7L304,706.1h-7.3l-11.3-27.2
					c-1.4-3.8-2.3-6.1-2.5-7V706L275.7,706.1L275.7,706.1z"/>
			</g>
			<g>
				<path class="st1" d="M367.9,706.1c-1.2-1.4-1.9-3.5-2-6.1c-2.3,4.7-6.2,7.1-11.6,7.1c-7.1,0-11.9-4.4-11.9-10.8
					c0-6.6,5-10.4,12.3-11.5l11.1-1.8v-1.5c0-4-2.5-6.1-7.3-6.1c-4.7,0-7.3,2-7.3,4.6c0,0.4,0.1,0.7,0.1,1.1l-6.4,2.2
					c-0.4-0.9-0.6-1.8-0.6-2.8c0-2.8,1.3-5.3,3.9-7.3s6-3,10.2-3c9.5,0,14.5,4.2,14.5,11.9v15.4c0,3.5,0.7,6.4,2.1,8.7L367.9,706.1
					L367.9,706.1z M365.8,689.4v-1l-9.5,1.6c-4.5,0.8-6.8,2.8-6.8,5.9c0,3.1,2.3,5.2,5.9,5.2C361.8,701.2,365.8,696.2,365.8,689.4z"
					/>
			</g>
			<g>
				<path class="st1" d="M397.2,671.3l6.7,10.7l6.8-10.7h8.5l-11,16.2l12.2,18.7H412l-8-13l-8.1,13h-8.3l12.6-18.5l-11.1-16.3h8.1
					V671.3z"/>
			</g>
			<g>
				<path class="st1" d="M433.1,665.7v-8.1h8.2v8.1H433.1z M433.6,706.1v-34.9h7.2v34.9H433.6z"/>
			</g>
			<g>
				<path class="st1" d="M507.4,706.1h-7.2v-23c0-4.3-2-6.5-6.1-6.5c-4.5,0-7.7,3.4-7.7,10.4v19.2h-7.2v-22.8c0-4-2.1-6.7-5.8-6.7
					c-4.5,0-7.9,3.7-7.9,10.4v19.2h-7.2v-34.9h7.2v5c2.2-3.7,6.1-6,10.3-6c4.9,0,8.1,2,9.6,6.2c2.5-4.2,6.1-6.2,11.1-6.2
					c6.6,0,10.8,4.2,10.8,10.4L507.4,706.1L507.4,706.1z"/>
			</g>
			<g>
				<path class="st1" d="M548.9,706.1c-1.2-1.4-1.9-3.5-2-6.1c-2.3,4.7-6.2,7.1-11.6,7.1c-7.1,0-11.9-4.4-11.9-10.8
					c0-6.6,5-10.4,12.3-11.5l11.1-1.8v-1.5c0-4-2.5-6.1-7.3-6.1c-4.7,0-7.3,2-7.3,4.6c0,0.4,0.1,0.7,0.1,1.1l-6.4,2.2
					c-0.4-0.9-0.6-1.8-0.6-2.8c0-2.8,1.3-5.3,3.9-7.3c2.6-2,6-3,10.2-3c9.5,0,14.5,4.2,14.5,11.9v15.4c0,3.5,0.7,6.4,2.1,8.7
					L548.9,706.1L548.9,706.1z M546.8,689.4v-1l-9.5,1.6c-4.5,0.8-6.8,2.8-6.8,5.9c0,3.1,2.3,5.2,5.9,5.2
					C542.6,701.2,546.8,696.2,546.8,689.4z"/>
			</g>
			<g>
				<path class="st1" d="M638.3,694.2c-5.4,8.8-11.4,13-21.5,13c-7.1,0-12.9-2.4-17.4-7.2c-4.7-4.8-7-10.9-7-18.4
					c0-7.4,2.4-13.5,7.2-18.3c4.8-4.9,10.7-7.3,17.5-7.3c9.8,0,17.5,5.1,21,12.8L632,673c-3.5-6.8-8.6-10.2-15.2-10.2
					c-4.7,0-8.7,1.8-12,5.4c-3.3,3.6-4.9,8-4.9,13.4s1.6,9.8,4.8,13.4c3.2,3.6,7.2,5.4,12.1,5.4c6.8,0,12-3.4,15.6-10.2L638.3,694.2
					z"/>
			</g>
			<g>
				<path class="st1" d="M689.8,688.7c0,5.7-1.8,10.2-5.6,13.5c-3.7,3.3-8.1,4.9-13.1,4.9s-9.3-1.6-13-4.9
					c-3.7-3.3-5.6-7.8-5.6-13.5s1.9-10.2,5.6-13.5c3.7-3.3,8-4.9,13-4.9s9.4,1.6,13.1,4.9C687.9,678.4,689.8,683,689.8,688.7z
					 M671.2,700.5c3.2,0,5.9-1.1,8-3.3c2.2-2.2,3.3-5.1,3.3-8.5c0-3.5-1.1-6.3-3.3-8.5s-4.9-3.3-8-3.3c-3.2,0-5.9,1.1-8,3.3
					c-2.2,2.2-3.3,5.1-3.3,8.5c0,3.5,1.1,6.3,3.3,8.5C665.3,699.4,668,700.5,671.2,700.5z"/>
			</g>
			<g>
				<path class="st1" d="M754.3,706.1h-7.2v-23c0-4.3-2-6.5-6.1-6.5c-4.5,0-7.7,3.4-7.7,10.4v19.2h-7.2v-22.8c0-4-2.1-6.7-5.8-6.7
					c-4.5,0-7.9,3.7-7.9,10.4v19.2h-7.2v-34.9h7.2v5c2.2-3.7,6.1-6,10.3-6c4.9,0,8.1,2,9.6,6.2c2.5-4.2,6.1-6.2,11.1-6.2
					c6.6,0,10.8,4.2,10.8,10.4L754.3,706.1L754.3,706.1z"/>
			</g>
			<g>
				<path class="st1" d="M772.2,720.5v-49.2h7.2v5.4c2.3-3.6,7.1-6.3,12.4-6.3c4.6,0,8.4,1.7,11.5,5c3.1,3.4,4.7,7.9,4.7,13.5
					s-1.6,10-4.8,13.4s-7.2,5.1-12,5.1c-5,0-9.5-2.2-11.8-5.8v19.1L772.2,720.5L772.2,720.5z M789.7,676.8c-3,0-5.6,1.1-7.7,3.3
					c-2.1,2.2-3.2,5.1-3.2,8.5c0,3.5,1.1,6.3,3.2,8.5c2,2.2,4.7,3.3,7.7,3.3s5.6-1.1,7.8-3.3c2-2.2,3.1-5.1,3.1-8.5
					c0-3.5-1.1-6.3-3.1-8.5C795.3,678,792.7,676.8,789.7,676.8z"/>
			</g>
			<g>
				<path class="st1" d="M823.7,706.1v-49.2h7.2v49.2H823.7z"/>
			</g>
			<g>
				<path class="st1" d="M848.1,665.7v-8.1h8.2v8.1H848.1z M848.6,706.1v-34.9h7.2v34.9H848.6z"/>
			</g>
			<g>
				<path class="st1" d="M897.1,706.1c-1.2-1.4-1.9-3.5-2-6.1c-2.3,4.7-6.2,7.1-11.6,7.1c-7.1,0-11.9-4.4-11.9-10.8
					c0-6.6,5-10.4,12.3-11.5L895,683v-1.5c0-4-2.5-6.1-7.3-6.1c-4.7,0-7.3,2-7.3,4.6c0,0.4,0.1,0.7,0.1,1.1l-6.4,2.2
					c-0.4-0.9-0.6-1.8-0.6-2.8c0-2.8,1.3-5.3,3.9-7.3c2.6-2,6-3,10.2-3c9.5,0,14.5,4.2,14.5,11.9v15.4c0,3.5,0.7,6.4,2.1,8.7
					L897.1,706.1L897.1,706.1z M894.9,689.4v-1l-9.5,1.6c-4.5,0.8-6.8,2.8-6.8,5.9c0,3.1,2.3,5.2,5.9,5.2
					C890.8,701.2,894.9,696.2,894.9,689.4z"/>
			</g>
			<g>
				<path class="st1" d="M951.2,706.1H944v-21.6c0-4.8-2.9-7.7-7.8-7.7c-5.2,0-9.2,4.4-9.2,10.9v18.4h-7v-34.9h7.2v5.9
					c2.5-4.2,6.9-6.8,11.9-6.8c7.1,0,12.2,4.6,12.2,12.2L951.2,706.1L951.2,706.1z"/>
			</g>
			<g>
				<path class="st1" d="M1001,697.1c-3.4,6.7-8.7,10.1-16.1,10.1c-5.1,0-9.5-1.8-12.9-5.2c-3.5-3.5-5.2-7.8-5.2-13.3
					c0-5.4,1.8-9.8,5.3-13.3s7.8-5.2,12.8-5.2c7.6,0,13.3,3.5,15.8,9.5l-5.7,3.8c-2.2-4.4-5.6-6.7-10-6.7c-3,0-5.6,1.1-7.7,3.2
					c-2.1,2.2-3.2,5-3.2,8.6c0,7.3,4.4,11.8,10.9,11.8c5,0,7.9-2.3,10.4-7.1L1001,697.1z"/>
			</g>
			<g>
				<path class="st1" d="M1048.6,690.2H1021c0.3,6.3,4.5,10.7,10.7,10.7c5.3,0,8.1-2.5,10.4-7.3l5.6,3.3
					c-3.3,6.8-8.7,10.2-16.2,10.2c-4.9,0-9-1.8-12.5-5.2c-3.5-3.5-5.1-7.9-5.1-13.3s1.8-9.8,5.2-13.3s7.7-5.2,12.8-5.2
					c5,0,9.1,1.6,12.3,4.9c3.1,3.3,4.7,7.5,4.7,12.6v2.6H1048.6z M1024.9,678.4c-1.9,1.6-3.2,3.7-4,6.3h20.8
					c-0.3-2.8-1.4-4.9-3.4-6.4C1034.5,675.2,1028.7,675.1,1024.9,678.4z"/>
			</g>
		</g>
	</g>
</g>
</svg>
