<?xml version="1.0" encoding="utf-8"?>
<!-- Generator: Adobe Illustrator 22.0.0, SVG Export Plug-In . SVG Version: 6.00 Build 0)  -->
<svg version="1.1" id="Layer_1" xmlns="http://www.w3.org/2000/svg" xmlns:xlink="http://www.w3.org/1999/xlink" x="0px" y="0px"
	 viewBox="0 0 1200 1200" style="enable-background:new 0 0 1200 1200;" xml:space="preserve">
<style type="text/css">
	.st0{fill:#071216;}
	.st1{fill:#FFFFFF;}
	.st2{fill:url(#SVGID_1_);}
	.st3{opacity:0.7;fill:#FFFFFF;enable-background:new    ;}
</style>
<rect class="st0" width="1200" height="1200"/>
<g>
	<g>
		<path class="st1" d="M295.8,553.1c-13.9,0-25.6,4.7-34.6,13.9c-9.2,9.2-13.9,20.7-13.9,34.2s4.7,25,13.9,34.1
			c9.1,9.2,20.7,13.9,34.7,13.9c13.9,0,25.6-4.7,34.8-13.9c9.1-9.2,13.7-20.7,13.7-34.1c0-13.4-4.6-24.9-13.7-34.2
			C321.3,557.8,309.6,553.1,295.8,553.1z M280,584.3c4.1-4.1,9.3-6.2,15.7-6.2c6.4,0,11.6,2,15.7,6.2c4.2,4.2,6.3,9.7,6.3,16.8
			s-2.1,12.6-6.3,16.8c-4.1,4.1-9.3,6.2-15.7,6.2c-6.4,0-11.6-2-15.7-6.2c-4.2-4.2-6.3-9.7-6.3-16.8S275.8,588.5,280,584.3z"/>
		<path class="st1" d="M528.3,554.8h-43.5v92.6h26.5v-29.2h17c23.5,0,37-11.5,37-31.7S551.8,554.8,528.3,554.8z M511.3,577.9h16.5
			c9.8,0,11,4.9,11,8.6s-1.1,8.6-11,8.6h-16.5V577.9z"/>
		<polygon class="st1" points="602.5,554.8 576,554.8 576,647.4 645.6,647.4 645.6,622.4 602.5,622.4 		"/>
		<rect x="657.9" y="554.8" class="st1" width="26.5" height="92.6"/>
		<polygon class="st1" points="696.7,578.9 722.1,578.9 722.1,647.4 748.6,647.4 748.6,578.9 774.1,578.9 774.1,554.8 696.7,554.8 
					"/>
		<polygon class="st1" points="812.9,611.4 852.3,611.4 852.3,587.9 812.9,587.9 812.9,578.9 855.8,578.9 855.8,554.8 786.4,554.8 
			786.4,647.4 856.1,647.4 856.1,623.4 812.9,623.4 		"/>
		<polygon class="st1" points="1023.5,554.8 1023.5,587.7 992.8,587.7 992.8,554.8 966.3,554.8 966.3,647.4 992.8,647.4 
			992.8,612.8 1023.5,612.8 1023.5,647.4 1050,647.4 1050,554.8 		"/>
		<rect x="355" y="554.8" class="st1" width="26.5" height="92.6"/>
		<polygon class="st1" points="438.3,647.4 464.8,647.4 464.8,570.5 438.3,608.4 		"/>
		<path class="st1" d="M219.7,607.6l-1,1.9c-5.6,10.4-11.6,14.6-20.7,14.6c-6.1,0-11-2.1-15.2-6.4c-4.2-4.4-6.3-9.8-6.3-16.6
			c0-6.9,2.1-12.5,6.3-16.7s9.2-6.3,15.1-6.3c8.7,0,15.1,4.5,19.5,13.8l0.9,1.9l21.6-16.4c-6.8-15.3-22.3-24.4-41.4-24.4
			c-13.8,0-25.5,4.5-34.6,13.3c-9.2,8.8-13.9,20.5-13.9,34.7s4.5,25.8,13.5,34.7s20.6,13.4,34.5,13.4c18.6,0,31.3-7.4,42.5-24.7
			l0.5-0.8L219.7,607.6z"/>
		<path class="st1" d="M936,607.6l-1,1.9c-5.6,10.4-11.6,14.6-20.7,14.6c-6.1,0-11-2.1-15.2-6.4c-4.2-4.4-6.3-9.8-6.3-16.6
			c0-6.9,2.1-12.5,6.3-16.7s9.2-6.3,15.1-6.3c8.7,0,15.1,4.5,19.5,13.8l0.9,1.9l21.6-16.4c-6.8-15.3-22.3-24.4-41.4-24.4
			c-13.8,0-25.5,4.5-34.6,13.3c-9.2,8.8-13.9,20.5-13.9,34.7s4.5,25.8,13.5,34.7s20.6,13.4,34.5,13.4c18.6,0,31.3-7.4,42.5-24.7
			l0.5-0.8L936,607.6z"/>
	</g>
	<g>
		
			<linearGradient id="SVGID_1_" gradientUnits="userSpaceOnUse" x1="456.25" y1="562.7" x2="456.25" y2="694.2" gradientTransform="matrix(1 0 0 -1 0 1200)">
			<stop  offset="0" style="stop-color:#FFFFFF;stop-opacity:0.65"/>
			<stop  offset="1" style="stop-color:#FFFFFF;stop-opacity:0"/>
		</linearGradient>
		<polygon class="st2" points="472.3,505.8 409.9,594.2 425,615.8 502.6,505.8 		"/>
		<polygon class="st3" points="409.9,594.2 387.3,561.9 387.3,605 394.8,615.8 409.9,637.3 425,615.8 		"/>
	</g>
</g>
</svg>
