<?xml version="1.0" encoding="utf-8"?>
<!-- Generator: Adobe Illustrator 22.0.0, SVG Export Plug-In . SVG Version: 6.00 Build 0)  -->
<svg version="1.1" id="Layer_1" xmlns="http://www.w3.org/2000/svg" xmlns:xlink="http://www.w3.org/1999/xlink" x="0px" y="0px"
	 viewBox="0 0 1084 383" style="enable-background:new 0 0 1084 383;" xml:space="preserve">
<style type="text/css">
	.st0{opacity:0.75;}
	.st1{opacity:0.4;fill:none;stroke:#6A7173;stroke-miterlimit:10;}
	.st2{fill:none;stroke:#6A7173;stroke-width:2;stroke-miterlimit:10;}
	.st3{fill:#6A7173;}
	.st4{fill:#E50A0A;}
	.st5{fill:url(#SVGID_1_);}
	.st6{fill:#071216;}
</style>
<g class="st0">
	<line class="st1" x1="0.5" y1="364.3" x2="1084.5" y2="364.3"/>
	<line class="st1" x1="0.5" y1="346.1" x2="1084.5" y2="346.1"/>
	<line class="st1" x1="0.5" y1="327.9" x2="1084.5" y2="327.9"/>
	<line class="st1" x1="0.5" y1="309.7" x2="1084.5" y2="309.7"/>
	<line class="st2" x1="0.5" y1="291.5" x2="1084.5" y2="291.5"/>
	<line class="st1" x1="0.5" y1="273.4" x2="1084.5" y2="273.4"/>
	<line class="st1" x1="0.5" y1="255.2" x2="1084.5" y2="255.2"/>
	<line class="st1" x1="0.5" y1="237" x2="1084.5" y2="237"/>
	<line class="st1" x1="0.5" y1="218.8" x2="1084.5" y2="218.8"/>
	<line class="st1" x1="0.5" y1="200.6" x2="1084.5" y2="200.6"/>
	<line class="st1" x1="0.5" y1="182.4" x2="1084.5" y2="182.4"/>
	<line class="st1" x1="0.5" y1="164.2" x2="1084.5" y2="164.2"/>
	<line class="st1" x1="0.5" y1="146" x2="1084.5" y2="146"/>
	<line class="st1" x1="0.5" y1="127.8" x2="1084.5" y2="127.8"/>
	<line class="st1" x1="0.5" y1="109.6" x2="1084.5" y2="109.6"/>
	<line class="st2" x1="0.5" y1="91.5" x2="1084.5" y2="91.5"/>
	<line class="st1" x1="0.5" y1="73.3" x2="1084.5" y2="73.3"/>
	<line class="st1" x1="0.5" y1="55.1" x2="1084.5" y2="55.1"/>
	<line class="st1" x1="0.5" y1="36.9" x2="1084.5" y2="36.9"/>
	<line class="st1" x1="0.5" y1="18.7" x2="1084.5" y2="18.7"/>
	<line class="st1" x1="1066.4" y1="0.5" x2="1066.4" y2="382.5"/>
	<line class="st1" x1="1048.4" y1="0.5" x2="1048.4" y2="382.5"/>
	<line class="st1" x1="1030.3" y1="0.5" x2="1030.3" y2="382.5"/>
	<line class="st1" x1="1012.2" y1="0.5" x2="1012.2" y2="382.5"/>
	<line class="st2" x1="994.2" y1="0.5" x2="994.2" y2="382.5"/>
	<line class="st1" x1="976.1" y1="0.5" x2="976.1" y2="382.5"/>
	<line class="st1" x1="958" y1="0.5" x2="958" y2="382.5"/>
	<line class="st1" x1="940" y1="0.5" x2="940" y2="382.5"/>
	<line class="st1" x1="921.9" y1="0.5" x2="921.9" y2="382.5"/>
	<line class="st1" x1="903.8" y1="0.5" x2="903.8" y2="382.5"/>
	<line class="st1" x1="885.8" y1="0.5" x2="885.8" y2="382.5"/>
	<line class="st1" x1="867.7" y1="0.5" x2="867.7" y2="382.5"/>
	<line class="st1" x1="849.6" y1="0.5" x2="849.6" y2="382.5"/>
	<line class="st1" x1="831.6" y1="0.5" x2="831.6" y2="382.5"/>
	<line class="st1" x1="813.5" y1="0.5" x2="813.5" y2="382.5"/>
	<line class="st1" x1="795.4" y1="0.5" x2="795.4" y2="382.5"/>
	<line class="st1" x1="777.4" y1="0.5" x2="777.4" y2="382.5"/>
	<line class="st1" x1="759.3" y1="0.5" x2="759.3" y2="382.5"/>
	<line class="st1" x1="741.2" y1="0.5" x2="741.2" y2="382.5"/>
	<line class="st1" x1="723.2" y1="0.5" x2="723.2" y2="382.5"/>
	<line class="st1" x1="705.1" y1="0.5" x2="705.1" y2="382.5"/>
	<line class="st1" x1="687" y1="0.5" x2="687" y2="382.5"/>
	<line class="st1" x1="669" y1="0.5" x2="669" y2="382.5"/>
	<line class="st1" x1="650.9" y1="0.5" x2="650.9" y2="382.5"/>
	<line class="st1" x1="632.8" y1="0.5" x2="632.8" y2="382.5"/>
	<line class="st1" x1="614.8" y1="0.5" x2="614.8" y2="382.5"/>
	<line class="st1" x1="596.7" y1="0.5" x2="596.7" y2="382.5"/>
	<line class="st1" x1="578.6" y1="0.5" x2="578.6" y2="382.5"/>
	<line class="st1" x1="560.6" y1="0.5" x2="560.6" y2="382.5"/>
	<line class="st1" x1="542.5" y1="0.5" x2="542.5" y2="382.5"/>
	<line class="st1" x1="524.4" y1="0.5" x2="524.4" y2="382.5"/>
	<line class="st1" x1="506.4" y1="0.5" x2="506.4" y2="382.5"/>
	<line class="st1" x1="488.3" y1="0.5" x2="488.3" y2="382.5"/>
	<line class="st1" x1="470.2" y1="0.5" x2="470.2" y2="382.5"/>
	<line class="st1" x1="452.2" y1="0.5" x2="452.2" y2="382.5"/>
	<line class="st1" x1="434.1" y1="0.5" x2="434.1" y2="382.5"/>
	<line class="st1" x1="416" y1="0.5" x2="416" y2="382.5"/>
	<line class="st1" x1="398" y1="0.5" x2="398" y2="382.5"/>
	<line class="st1" x1="379.9" y1="0.5" x2="379.9" y2="382.5"/>
	<line class="st1" x1="361.8" y1="0.5" x2="361.8" y2="382.5"/>
	<line class="st1" x1="343.8" y1="0.5" x2="343.8" y2="382.5"/>
	<line class="st1" x1="325.7" y1="0.5" x2="325.7" y2="382.5"/>
	<line class="st1" x1="307.6" y1="0.5" x2="307.6" y2="382.5"/>
	<line class="st1" x1="289.6" y1="0.5" x2="289.6" y2="382.5"/>
	<line class="st1" x1="271.5" y1="0.5" x2="271.5" y2="382.5"/>
	<line class="st1" x1="253.4" y1="0.5" x2="253.4" y2="382.5"/>
	<line class="st1" x1="235.4" y1="0.5" x2="235.4" y2="382.5"/>
	<line class="st1" x1="217.3" y1="0.5" x2="217.3" y2="382.5"/>
	<line class="st1" x1="199.2" y1="0.5" x2="199.2" y2="382.5"/>
	<line class="st1" x1="181.2" y1="0.5" x2="181.2" y2="382.5"/>
	<line class="st1" x1="163.1" y1="0.5" x2="163.1" y2="382.5"/>
	<line class="st1" x1="145" y1="0.5" x2="145" y2="382.5"/>
	<line class="st1" x1="127" y1="0.5" x2="127" y2="382.5"/>
	<line class="st1" x1="108.9" y1="0.5" x2="108.9" y2="382.5"/>
	<line class="st2" x1="90.8" y1="0.5" x2="90.8" y2="382.5"/>
	<line class="st1" x1="72.8" y1="0.5" x2="72.8" y2="382.5"/>
	<line class="st1" x1="54.7" y1="0.5" x2="54.7" y2="382.5"/>
	<line class="st1" x1="36.6" y1="0.5" x2="36.6" y2="382.5"/>
	<line class="st1" x1="18.6" y1="0.5" x2="18.6" y2="382.5"/>
</g>
<g class="st0">
	<g>
		<path class="st3" d="M1083,1v381H1V1H1083 M1084,0H0v383h1084V0L1084,0z"/>
	</g>
</g>
<g>
	<g>
		<polygon class="st4" points="351.8,132.2 329.1,99.9 329.1,143 336.6,153.8 351.8,175.3 366.9,153.8 		"/>
		<linearGradient id="SVGID_1_" gradientUnits="userSpaceOnUse" x1="390.7072" y1="175.3194" x2="390.7072" y2="43.8445">
			<stop  offset="0" style="stop-color:#E50A0A;stop-opacity:0.9"/>
			<stop  offset="1" style="stop-color:#E50A0A;stop-opacity:0"/>
		</linearGradient>
		<polygon class="st5" points="414.4,43.8 351.8,132.2 336.6,153.8 351.8,175.3 366.9,153.8 444.8,43.8 		"/>
		<g>
			<path class="st6" d="M237.2,91.1c-14,0-25.7,4.7-34.8,13.9c-9.2,9.2-13.9,20.7-13.9,34.2c0,13.5,4.7,25,13.9,34.1
				c9.1,9.2,20.8,13.9,34.8,13.9c13.9,0,25.7-4.7,34.9-13.9c9.1-9.2,13.8-20.7,13.8-34.1c0-13.4-4.6-24.9-13.8-34.2
				C262.9,95.8,251.2,91.1,237.2,91.1z M221.5,122.3c4.2-4.1,9.3-6.2,15.8-6.2s11.6,2,15.8,6.2c4.2,4.2,6.3,9.7,6.3,16.8
				c0,7.1-2.1,12.6-6.3,16.8c-4.2,4.1-9.3,6.2-15.8,6.2s-11.6-2-15.8-6.2c-4.2-4.2-6.3-9.7-6.3-16.8
				C215.2,132,217.2,126.5,221.5,122.3z"/>
			<path class="st6" d="M470.6,92.8h-43.6v92.6h26.6v-29.2h17c23.6,0,37.1-11.5,37.1-31.7S494.1,92.8,470.6,92.8z M453.5,115.9h16.5
				c9.9,0,11,4.9,11,8.6s-1.1,8.6-11,8.6h-16.5V115.9z"/>
			<polygon class="st6" points="545,92.8 518.4,92.8 518.4,185.4 588.3,185.4 588.3,160.4 545,160.4 			"/>
			<rect x="600.6" y="92.8" class="st6" width="26.6" height="92.6"/>
			<polygon class="st6" points="639.5,116.9 665,116.9 665,185.4 691.6,185.4 691.6,116.9 717.1,116.9 717.1,92.8 639.5,92.8 			"/>
			<polygon class="st6" points="756.1,149.4 795.7,149.4 795.7,125.9 756.1,125.9 756.1,116.9 799.1,116.9 799.1,92.8 729.5,92.8 
				729.5,185.4 799.5,185.4 799.5,161.4 756.1,161.4 			"/>
			<polygon class="st6" points="967.4,92.8 967.4,125.7 936.6,125.7 936.6,92.8 910,92.8 910,185.4 936.6,185.4 936.6,150.8 
				967.4,150.8 967.4,185.4 994,185.4 994,92.8 			"/>
			<rect x="296.7" y="92.8" class="st6" width="26.6" height="92.6"/>
			<polygon class="st6" points="380.3,185.4 406.9,185.4 406.9,108.5 380.3,146.4 			"/>
			<path class="st6" d="M161,145.6l-1,1.9c-5.6,10.4-11.6,14.6-20.8,14.6c-6.1,0-11.1-2.1-15.3-6.4c-4.3-4.4-6.3-9.8-6.3-16.6
				c0-6.9,2.1-12.5,6.3-16.7c4.2-4.2,9.2-6.3,15.2-6.3c8.8,0,15.2,4.5,19.6,13.8l0.9,1.9l21.7-16.4c-6.8-15.3-22.4-24.4-41.5-24.4
				c-13.9,0-25.6,4.5-34.7,13.3c-9.3,8.8-14,20.5-14,34.7c0,14.2,4.6,25.8,13.6,34.7c9,8.9,20.7,13.4,34.6,13.4
				c18.7,0,31.4-7.4,42.6-24.7l0.5-0.8L161,145.6z"/>
			<path class="st6" d="M879.6,145.6l-1,1.9c-5.6,10.4-11.6,14.6-20.8,14.6c-6.1,0-11.1-2.1-15.3-6.4c-4.3-4.4-6.3-9.8-6.3-16.6
				c0-6.9,2.1-12.5,6.3-16.7c4.2-4.2,9.2-6.3,15.2-6.3c8.8,0,15.2,4.5,19.6,13.8l0.9,1.9l21.7-16.4c-6.8-15.3-22.4-24.4-41.5-24.4
				c-13.9,0-25.6,4.5-34.7,13.3c-9.3,8.8-14,20.5-14,34.7c0,14.2,4.6,25.8,13.6,34.7c9,8.9,20.7,13.4,34.6,13.4
				c18.7,0,31.4-7.4,42.6-24.7l0.5-0.8L879.6,145.6z"/>
		</g>
	</g>
	<g>
		<g>
			<g>
				<path class="st3" d="M102.7,277.3v-49.4h7.2v19.7c2.5-3.9,7.2-6.3,12.2-6.3c4.7,0,8.6,1.7,11.7,5.1c3.1,3.5,4.7,7.9,4.7,13.4
					c0,5.5-1.6,9.9-4.8,13.3c-3.2,3.5-7.2,5.2-12,5.2c-5.4,0-9.7-2.7-11.9-6.1v5.1H102.7z M120.3,271.6c3,0,5.7-1.1,7.8-3.3
					c2.1-2.2,3.1-5.1,3.1-8.5c0-3.5-1.1-6.3-3.1-8.5c-2.1-2.2-4.7-3.3-7.8-3.3c-3,0-5.7,1.1-7.7,3.3c-2.1,2.2-3.2,5.1-3.2,8.5
					c0,3.5,1.1,6.3,3.2,8.5C114.6,270.5,117.2,271.6,120.3,271.6z"/>
			</g>
			<g>
				<path class="st3" d="M150.4,284.8c3.6,1.1,5.8,1.3,7.4-3l1.6-4.3l-14.3-35.2h8.3l9.9,25.3l9.8-25.3h8l-17,42
					c-2.1,5.2-5.4,7.8-9.8,7.8c-1.8,0-3.5-0.3-5.1-0.8L150.4,284.8z"/>
			</g>
			<g>
				<path class="st3" d="M216.1,277.3v-49.4h8.1l16.8,41.8l16.8-41.8h8.1v49.4h-7.4v-34.2l-2.5,7l-11.3,27.2h-7.4L226,250
					c-1.4-3.8-2.3-6.1-2.5-7v34.2H216.1z"/>
			</g>
			<g>
				<path class="st3" d="M309,277.3c-1.2-1.4-1.9-3.5-2-6.1c-2.3,4.7-6.2,7.1-11.7,7.1c-7.1,0-12-4.4-12-10.8
					c0-6.6,5-10.4,12.4-11.5l11.1-1.8v-1.5c0-4-2.5-6.1-7.4-6.1c-4.7,0-7.3,2-7.3,4.6c0,0.4,0.1,0.7,0.1,1.1l-6.4,2.2
					c-0.4-0.9-0.6-1.8-0.6-2.8c0-2.8,1.3-5.3,3.9-7.3c2.6-2,6-3,10.3-3c9.6,0,14.6,4.2,14.6,11.9v15.4c0,3.5,0.7,6.4,2.1,8.7H309z
					 M306.8,260.5v-1l-9.5,1.6c-4.5,0.8-6.8,2.8-6.8,5.9c0,3.2,2.3,5.2,5.9,5.2C302.7,272.3,306.8,267.3,306.8,260.5z"/>
			</g>
			<g>
				<path class="st3" d="M338.5,242.3l6.7,10.7l6.8-10.7h8.5l-11,16.2l12.2,18.8h-8.4l-8.1-13l-8.1,13h-8.4l12.7-18.6l-11.2-16.4
					H338.5z"/>
			</g>
			<g>
				<path class="st3" d="M374.6,236.7v-8.1h8.2v8.1H374.6z M375.1,277.3v-35h7.2v35H375.1z"/>
			</g>
			<g>
				<path class="st3" d="M449.3,277.3h-7.2v-23.1c0-4.3-2.1-6.5-6.1-6.5c-4.5,0-7.7,3.4-7.7,10.4v19.3H421v-22.9
					c0-4-2.1-6.7-5.8-6.7c-4.5,0-7.9,3.7-7.9,10.4v19.3h-7.2v-35h7.2v5c2.2-3.7,6.1-6,10.3-6c4.9,0,8.1,2,9.6,6.2
					c2.5-4.2,6.2-6.2,11.2-6.2c6.6,0,10.8,4.2,10.8,10.4V277.3z"/>
			</g>
			<g>
				<path class="st3" d="M491,277.3c-1.2-1.4-1.9-3.5-2-6.1c-2.3,4.7-6.2,7.1-11.7,7.1c-7.1,0-12-4.4-12-10.8
					c0-6.6,5-10.4,12.4-11.5l11.1-1.8v-1.5c0-4-2.5-6.1-7.4-6.1c-4.7,0-7.3,2-7.3,4.6c0,0.4,0.1,0.7,0.1,1.1l-6.4,2.2
					c-0.4-0.9-0.6-1.8-0.6-2.8c0-2.8,1.3-5.3,3.9-7.3c2.6-2,6-3,10.3-3c9.6,0,14.6,4.2,14.6,11.9v15.4c0,3.5,0.7,6.4,2.1,8.7H491z
					 M488.9,260.5v-1l-9.5,1.6c-4.5,0.8-6.8,2.8-6.8,5.9c0,3.2,2.3,5.2,5.9,5.2C484.7,272.3,488.9,267.3,488.9,260.5z"/>
			</g>
			<g>
				<path class="st3" d="M581,265.3c-5.4,8.8-11.5,13-21.7,13c-7.1,0-13-2.4-17.6-7.2c-4.7-4.8-7-10.9-7-18.5
					c0-7.4,2.4-13.5,7.2-18.4c4.8-4.9,10.7-7.3,17.7-7.3c9.8,0,17.7,5.1,21.2,12.8l-6.1,4.4c-3.5-6.8-8.6-10.2-15.2-10.2
					c-4.7,0-8.7,1.8-12,5.4c-3.3,3.6-5,8-5,13.4s1.6,9.8,4.8,13.4c3.2,3.6,7.2,5.4,12.1,5.4c6.8,0,12-3.4,15.6-10.2L581,265.3z"/>
			</g>
			<g>
				<path class="st3" d="M632.9,259.8c0,5.7-1.8,10.2-5.6,13.5c-3.8,3.3-8.1,4.9-13.2,4.9c-5,0-9.3-1.6-13.1-4.9
					c-3.8-3.3-5.7-7.8-5.7-13.5s1.9-10.2,5.7-13.5c3.8-3.3,8.1-4.9,13.1-4.9c5,0,9.4,1.6,13.2,4.9
					C631,249.5,632.9,254.1,632.9,259.8z M614.1,271.6c3.2,0,5.9-1.1,8.1-3.3c2.2-2.2,3.3-5.1,3.3-8.5c0-3.5-1.1-6.3-3.3-8.5
					c-2.2-2.2-4.9-3.3-8.1-3.3c-3.2,0-5.9,1.1-8.1,3.3c-2.2,2.2-3.3,5.1-3.3,8.5c0,3.5,1.1,6.3,3.3,8.5
					C608.2,270.5,610.9,271.6,614.1,271.6z"/>
			</g>
			<g>
				<path class="st3" d="M697.8,277.3h-7.2v-23.1c0-4.3-2.1-6.5-6.1-6.5c-4.5,0-7.7,3.4-7.7,10.4v19.3h-7.2v-22.9
					c0-4-2.1-6.7-5.8-6.7c-4.5,0-7.9,3.7-7.9,10.4v19.3h-7.2v-35h7.2v5c2.2-3.7,6.1-6,10.3-6c4.9,0,8.1,2,9.6,6.2
					c2.5-4.2,6.2-6.2,11.2-6.2c6.6,0,10.8,4.2,10.8,10.4V277.3z"/>
			</g>
			<g>
				<path class="st3" d="M715.8,291.7v-49.4h7.2v5.4c2.3-3.6,7.1-6.3,12.5-6.3c4.6,0,8.4,1.7,11.5,5c3.1,3.4,4.7,7.9,4.7,13.5
					s-1.6,10-4.8,13.4c-3.2,3.4-7.2,5.1-12,5.1c-5,0-9.6-2.2-11.8-5.8v19.2H715.8z M733.4,247.9c-3,0-5.7,1.1-7.7,3.3
					c-2.1,2.2-3.2,5.1-3.2,8.5c0,3.5,1.1,6.3,3.2,8.5c2.1,2.2,4.7,3.3,7.7,3.3c3,0,5.7-1.1,7.8-3.3c2.1-2.2,3.1-5.1,3.1-8.5
					c0-3.5-1.1-6.3-3.1-8.5C739,249.1,736.4,247.9,733.4,247.9z"/>
			</g>
			<g>
				<path class="st3" d="M767.7,277.3v-49.4h7.2v49.4H767.7z"/>
			</g>
			<g>
				<path class="st3" d="M792.2,236.7v-8.1h8.2v8.1H792.2z M792.7,277.3v-35h7.2v35H792.7z"/>
			</g>
			<g>
				<path class="st3" d="M841.5,277.3c-1.2-1.4-1.9-3.5-2-6.1c-2.3,4.7-6.2,7.1-11.7,7.1c-7.1,0-12-4.4-12-10.8
					c0-6.6,5-10.4,12.4-11.5l11.1-1.8v-1.5c0-4-2.5-6.1-7.4-6.1c-4.7,0-7.3,2-7.3,4.6c0,0.4,0.1,0.7,0.1,1.1l-6.4,2.2
					c-0.4-0.9-0.6-1.8-0.6-2.8c0-2.8,1.3-5.3,3.9-7.3c2.6-2,6-3,10.3-3c9.6,0,14.6,4.2,14.6,11.9v15.4c0,3.5,0.7,6.4,2.1,8.7H841.5z
					 M839.3,260.5v-1l-9.5,1.6c-4.5,0.8-6.8,2.8-6.8,5.9c0,3.2,2.3,5.2,5.9,5.2C835.2,272.3,839.3,267.3,839.3,260.5z"/>
			</g>
			<g>
				<path class="st3" d="M896,277.3h-7.2v-21.7c0-4.8-2.9-7.7-7.8-7.7c-5.2,0-9.2,4.4-9.2,10.9v18.5h-7.2v-35h7.2v5.9
					c2.5-4.2,6.9-6.8,12-6.8c7.1,0,12.2,4.6,12.2,12.2V277.3z"/>
			</g>
			<g>
				<path class="st3" d="M946.1,268.2c-3.4,6.7-8.8,10.1-16.1,10.1c-5.2,0-9.5-1.8-13-5.2c-3.5-3.5-5.2-7.8-5.2-13.3
					c0-5.4,1.8-9.8,5.3-13.3c3.5-3.5,7.9-5.2,12.9-5.2c7.6,0,13.3,3.5,15.9,9.5l-5.7,3.8c-2.2-4.4-5.6-6.7-10.1-6.7
					c-3,0-5.7,1.1-7.7,3.2c-2.1,2.2-3.2,5-3.2,8.6c0,7.3,4.5,11.8,10.9,11.8c5,0,7.9-2.3,10.5-7.1L946.1,268.2z"/>
			</g>
			<g>
				<path class="st3" d="M994,261.3h-27.8c0.3,6.3,4.5,10.7,10.7,10.7c5.3,0,8.1-2.5,10.5-7.3l5.6,3.3c-3.3,6.8-8.7,10.2-16.3,10.2
					c-4.9,0-9.1-1.8-12.5-5.2c-3.5-3.5-5.2-7.9-5.2-13.3c0-5.4,1.8-9.8,5.2-13.3s7.7-5.2,12.8-5.2c5,0,9.1,1.6,12.3,4.9
					c3.1,3.3,4.7,7.5,4.7,12.6V261.3z M970.1,249.5c-1.9,1.6-3.3,3.7-4,6.3h20.9c-0.3-2.8-1.4-4.9-3.4-6.4
					C979.8,246.3,974,246.2,970.1,249.5z"/>
			</g>
		</g>
	</g>
</g>
</svg>
