<?xml version="1.0" encoding="utf-8"?>
<!-- Generator: Adobe Illustrator 22.0.0, SVG Export Plug-In . SVG Version: 6.00 Build 0)  -->
<svg version="1.1" id="Layer_1" xmlns="http://www.w3.org/2000/svg" xmlns:xlink="http://www.w3.org/1999/xlink" x="0px" y="0px"
	 viewBox="0 0 1105 957.2" style="enable-background:new 0 0 1105 957.2;" xml:space="preserve">
<style type="text/css">
	.st0{opacity:0.75;}
	.st1{fill:#6A7173;}
	.st2{opacity:0;}
	.st3{fill:#E50A0A;}
	.st4{fill:url(#SVGID_1_);}
	.st5{fill:#071216;}
	.st6{fill:url(#SVGID_2_);}
	.st7{fill:url(#SVGID_3_);}
	.st8{fill:url(#SVGID_4_);}
	.st9{fill:url(#SVGID_5_);}
	.st10{fill:url(#SVGID_6_);}
</style>
<g class="st0">
	<g>
		<path class="st1" d="M463,1.2v615H1V1.2H463 M464,0.2H0v617h464V0.2L464,0.2z"/>
	</g>
</g>
<g class="st0">
	<g>
		<path class="st1" d="M1104,1.2v462H489V1.2H1104 M1105,0.2H488v464h617V0.2L1105,0.2z"/>
	</g>
</g>
<g class="st0">
	<g>
		<path class="st1" d="M951,494.2v462H489v-462H951 M952,493.2H488v464h464V493.2L952,493.2z"/>
	</g>
</g>
<g>
	<g class="st2">
		<g>
			<path class="st1" d="M166,1v57H1V1H166 M167,0H0v59h167V0L167,0z"/>
		</g>
	</g>
	<g>
		<g>
			<polygon class="st3" points="54.2,20.4 50.7,15.4 50.7,22 51.9,23.7 54.2,27 56.5,23.7 			"/>
			<linearGradient id="SVGID_1_" gradientUnits="userSpaceOnUse" x1="60.192" y1="27.0095" x2="60.192" y2="6.7547">
				<stop  offset="0" style="stop-color:#E50A0A;stop-opacity:0.9"/>
				<stop  offset="1" style="stop-color:#E50A0A;stop-opacity:0"/>
			</linearGradient>
			<polygon class="st4" points="63.8,6.8 54.2,20.4 51.9,23.7 54.2,27 56.5,23.7 68.5,6.8 			"/>
			<g>
				<path class="st5" d="M36.5,14c-2.2,0-4,0.7-5.4,2.1c-1.4,1.4-2.1,3.2-2.1,5.3c0,2.1,0.7,3.8,2.1,5.3c1.4,1.4,3.2,2.1,5.4,2.1
					c2.1,0,4-0.7,5.4-2.1c1.4-1.4,2.1-3.2,2.1-5.3c0-2.1-0.7-3.8-2.1-5.3C40.5,14.8,38.7,14,36.5,14z M34.1,18.8
					c0.6-0.6,1.4-0.9,2.4-0.9s1.8,0.3,2.4,0.9c0.7,0.7,1,1.5,1,2.6c0,1.1-0.3,1.9-1,2.6c-0.6,0.6-1.4,0.9-2.4,0.9s-1.8-0.3-2.4-0.9
					c-0.7-0.7-1-1.5-1-2.6C33.1,20.3,33.5,19.5,34.1,18.8z"/>
				<path class="st5" d="M72.5,14.3h-6.7v14.3h4.1v-4.5h2.6c3.6,0,5.7-1.8,5.7-4.9S76.1,14.3,72.5,14.3z M69.9,17.9h2.5
					c1.5,0,1.7,0.8,1.7,1.3c0,0.6-0.2,1.3-1.7,1.3h-2.5V17.9z"/>
				<polygon class="st5" points="84,14.3 79.9,14.3 79.9,28.6 90.6,28.6 90.6,24.7 84,24.7 				"/>
				<rect x="92.5" y="14.3" class="st5" width="4.1" height="14.3"/>
				<polygon class="st5" points="98.5,18 102.5,18 102.5,28.6 106.5,28.6 106.5,18 110.5,18 110.5,14.3 98.5,14.3 				"/>
				<polygon class="st5" points="116.5,23 122.6,23 122.6,19.4 116.5,19.4 116.5,18 123.1,18 123.1,14.3 112.4,14.3 112.4,28.6 
					123.2,28.6 123.2,24.9 116.5,24.9 				"/>
				<polygon class="st5" points="149,14.3 149,19.4 144.3,19.4 144.3,14.3 140.2,14.3 140.2,28.6 144.3,28.6 144.3,23.2 149,23.2 
					149,28.6 153.1,28.6 153.1,14.3 				"/>
				<rect x="45.7" y="14.3" class="st5" width="4.1" height="14.3"/>
				<polygon class="st5" points="58.6,28.6 62.7,28.6 62.7,16.7 58.6,22.6 				"/>
				<path class="st5" d="M24.8,22.4l-0.2,0.3c-0.9,1.6-1.8,2.3-3.2,2.3c-0.9,0-1.7-0.3-2.4-1c-0.7-0.7-1-1.5-1-2.6
					c0-1.1,0.3-1.9,1-2.6c0.7-0.7,1.4-1,2.3-1c1.4,0,2.3,0.7,3,2.1l0.1,0.3l3.3-2.5c-1.1-2.4-3.4-3.8-6.4-3.8
					c-2.1,0-3.9,0.7-5.3,2.1c-1.4,1.4-2.2,3.2-2.2,5.3c0,2.2,0.7,4,2.1,5.3c1.4,1.4,3.2,2.1,5.3,2.1c2.9,0,4.8-1.1,6.6-3.8l0.1-0.1
					L24.8,22.4z"/>
				<path class="st5" d="M135.5,22.4l-0.2,0.3c-0.9,1.6-1.8,2.3-3.2,2.3c-0.9,0-1.7-0.3-2.4-1c-0.7-0.7-1-1.5-1-2.6
					c0-1.1,0.3-1.9,1-2.6c0.7-0.7,1.4-1,2.3-1c1.4,0,2.3,0.7,3,2.1l0.1,0.3l3.3-2.5c-1.1-2.4-3.4-3.8-6.4-3.8
					c-2.1,0-3.9,0.7-5.3,2.1c-1.4,1.4-2.2,3.2-2.2,5.3c0,2.2,0.7,4,2.1,5.3c1.4,1.4,3.2,2.1,5.3,2.1c2.9,0,4.8-1.1,6.6-3.8l0.1-0.1
					L135.5,22.4z"/>
			</g>
		</g>
		<g>
			<g>
				<g>
					<path class="st1" d="M15.8,42.7v-7.6h1.1v3c0.4-0.6,1.1-1,1.9-1c0.7,0,1.3,0.3,1.8,0.8c0.5,0.5,0.7,1.2,0.7,2.1
						c0,0.8-0.3,1.5-0.7,2.1c-0.5,0.5-1.1,0.8-1.8,0.8c-0.8,0-1.5-0.4-1.8-0.9v0.8H15.8z M18.5,41.8c0.5,0,0.9-0.2,1.2-0.5
						c0.3-0.3,0.5-0.8,0.5-1.3s-0.2-1-0.5-1.3c-0.3-0.3-0.7-0.5-1.2-0.5c-0.5,0-0.9,0.2-1.2,0.5C17,39,16.9,39.5,16.9,40
						s0.2,1,0.5,1.3C17.7,41.7,18.1,41.8,18.5,41.8z"/>
				</g>
				<g>
					<path class="st1" d="M23.2,43.9c0.6,0.2,0.9,0.2,1.1-0.5l0.3-0.7l-2.2-5.4h1.3l1.5,3.9l1.5-3.9h1.2l-2.6,6.5
						C25,44.6,24.5,45,23.8,45c-0.3,0-0.5,0-0.8-0.1L23.2,43.9z"/>
				</g>
				<g>
					<path class="st1" d="M33.3,42.7v-7.6h1.3l2.6,6.4l2.6-6.4H41v7.6h-1.1v-5.3l-0.4,1.1l-1.7,4.2h-1.1l-1.7-4.2
						c-0.2-0.6-0.3-0.9-0.4-1.1v5.3H33.3z"/>
				</g>
				<g>
					<path class="st1" d="M47.6,42.7c-0.2-0.2-0.3-0.5-0.3-0.9c-0.4,0.7-1,1.1-1.8,1.1c-1.1,0-1.8-0.7-1.8-1.7c0-1,0.8-1.6,1.9-1.8
						l1.7-0.3v-0.2c0-0.6-0.4-0.9-1.1-0.9c-0.7,0-1.1,0.3-1.1,0.7c0,0.1,0,0.1,0,0.2l-1,0.3C44,39.1,44,38.9,44,38.8
						c0-0.4,0.2-0.8,0.6-1.1c0.4-0.3,0.9-0.5,1.6-0.5c1.5,0,2.2,0.7,2.2,1.8v2.4c0,0.5,0.1,1,0.3,1.3H47.6z M47.3,40.1V40l-1.5,0.2
						c-0.7,0.1-1,0.4-1,0.9s0.3,0.8,0.9,0.8C46.6,41.9,47.3,41.2,47.3,40.1z"/>
				</g>
				<g>
					<path class="st1" d="M52.1,37.3l1,1.6l1-1.6h1.3l-1.7,2.5l1.9,2.9h-1.3l-1.2-2l-1.3,2h-1.3l2-2.9l-1.7-2.5H52.1z"/>
				</g>
				<g>
					<path class="st1" d="M57.7,36.5v-1.2H59v1.2H57.7z M57.8,42.7v-5.4h1.1v5.4H57.8z"/>
				</g>
				<g>
					<path class="st1" d="M69.2,42.7h-1.1v-3.6c0-0.7-0.3-1-0.9-1c-0.7,0-1.2,0.5-1.2,1.6v3h-1.1v-3.5c0-0.6-0.3-1-0.9-1
						c-0.7,0-1.2,0.6-1.2,1.6v3h-1.1v-5.4h1.1v0.8c0.3-0.6,0.9-0.9,1.6-0.9c0.8,0,1.3,0.3,1.5,1c0.4-0.6,0.9-1,1.7-1
						c1,0,1.7,0.6,1.7,1.6V42.7z"/>
				</g>
				<g>
					<path class="st1" d="M75.6,42.7c-0.2-0.2-0.3-0.5-0.3-0.9c-0.4,0.7-1,1.1-1.8,1.1c-1.1,0-1.8-0.7-1.8-1.7c0-1,0.8-1.6,1.9-1.8
						l1.7-0.3v-0.2c0-0.6-0.4-0.9-1.1-0.9c-0.7,0-1.1,0.3-1.1,0.7c0,0.1,0,0.1,0,0.2l-1,0.3C72,39.1,72,38.9,72,38.8
						c0-0.4,0.2-0.8,0.6-1.1c0.4-0.3,0.9-0.5,1.6-0.5c1.5,0,2.2,0.7,2.2,1.8v2.4c0,0.5,0.1,1,0.3,1.3H75.6z M75.3,40.1V40l-1.5,0.2
						c-0.7,0.1-1,0.4-1,0.9s0.3,0.8,0.9,0.8C74.7,41.9,75.3,41.2,75.3,40.1z"/>
				</g>
				<g>
					<path class="st1" d="M89.5,40.9c-0.8,1.4-1.8,2-3.3,2c-1.1,0-2-0.4-2.7-1.1c-0.7-0.7-1.1-1.7-1.1-2.8c0-1.1,0.4-2.1,1.1-2.8
						c0.7-0.7,1.6-1.1,2.7-1.1c1.5,0,2.7,0.8,3.3,2l-0.9,0.7C88,36.5,87.2,36,86.2,36c-0.7,0-1.3,0.3-1.9,0.8
						c-0.5,0.6-0.8,1.2-0.8,2.1c0,0.8,0.3,1.5,0.7,2.1c0.5,0.6,1.1,0.8,1.9,0.8c1,0,1.9-0.5,2.4-1.6L89.5,40.9z"/>
				</g>
				<g>
					<path class="st1" d="M97.5,40c0,0.9-0.3,1.6-0.9,2.1c-0.6,0.5-1.3,0.8-2,0.8c-0.8,0-1.4-0.2-2-0.8c-0.6-0.5-0.9-1.2-0.9-2.1
						s0.3-1.6,0.9-2.1c0.6-0.5,1.2-0.8,2-0.8c0.8,0,1.5,0.2,2,0.8C97.2,38.4,97.5,39.1,97.5,40z M94.6,41.8c0.5,0,0.9-0.2,1.2-0.5
						c0.3-0.3,0.5-0.8,0.5-1.3s-0.2-1-0.5-1.3c-0.3-0.3-0.8-0.5-1.2-0.5c-0.5,0-0.9,0.2-1.2,0.5C93,39,92.9,39.5,92.9,40
						s0.2,1,0.5,1.3C93.7,41.7,94.1,41.8,94.6,41.8z"/>
				</g>
				<g>
					<path class="st1" d="M107.5,42.7h-1.1v-3.6c0-0.7-0.3-1-0.9-1c-0.7,0-1.2,0.5-1.2,1.6v3h-1.1v-3.5c0-0.6-0.3-1-0.9-1
						c-0.7,0-1.2,0.6-1.2,1.6v3h-1.1v-5.4h1.1v0.8c0.3-0.6,0.9-0.9,1.6-0.9c0.8,0,1.3,0.3,1.5,1c0.4-0.6,0.9-1,1.7-1
						c1,0,1.7,0.6,1.7,1.6V42.7z"/>
				</g>
				<g>
					<path class="st1" d="M110.3,44.9v-7.6h1.1v0.8c0.3-0.6,1.1-1,1.9-1c0.7,0,1.3,0.3,1.8,0.8c0.5,0.5,0.7,1.2,0.7,2.1
						s-0.3,1.5-0.7,2.1c-0.5,0.5-1.1,0.8-1.9,0.8c-0.8,0-1.5-0.3-1.8-0.9v3H110.3z M113,38.2c-0.5,0-0.9,0.2-1.2,0.5
						c-0.3,0.3-0.5,0.8-0.5,1.3s0.2,1,0.5,1.3c0.3,0.3,0.7,0.5,1.2,0.5c0.5,0,0.9-0.2,1.2-0.5c0.3-0.3,0.5-0.8,0.5-1.3
						s-0.2-1-0.5-1.3C113.9,38.4,113.5,38.2,113,38.2z"/>
				</g>
				<g>
					<path class="st1" d="M118.3,42.7v-7.6h1.1v7.6H118.3z"/>
				</g>
				<g>
					<path class="st1" d="M122,36.5v-1.2h1.3v1.2H122z M122.1,42.7v-5.4h1.1v5.4H122.1z"/>
				</g>
				<g>
					<path class="st1" d="M129.6,42.7c-0.2-0.2-0.3-0.5-0.3-0.9c-0.4,0.7-1,1.1-1.8,1.1c-1.1,0-1.8-0.7-1.8-1.7c0-1,0.8-1.6,1.9-1.8
						l1.7-0.3v-0.2c0-0.6-0.4-0.9-1.1-0.9c-0.7,0-1.1,0.3-1.1,0.7c0,0.1,0,0.1,0,0.2l-1,0.3c-0.1-0.1-0.1-0.3-0.1-0.4
						c0-0.4,0.2-0.8,0.6-1.1c0.4-0.3,0.9-0.5,1.6-0.5c1.5,0,2.2,0.7,2.2,1.8v2.4c0,0.5,0.1,1,0.3,1.3H129.6z M129.3,40.1V40
						l-1.5,0.2c-0.7,0.1-1,0.4-1,0.9s0.3,0.8,0.9,0.8C128.7,41.9,129.3,41.2,129.3,40.1z"/>
				</g>
				<g>
					<path class="st1" d="M138,42.7h-1.1v-3.3c0-0.7-0.4-1.2-1.2-1.2c-0.8,0-1.4,0.7-1.4,1.7v2.8h-1.1v-5.4h1.1v0.9
						c0.4-0.6,1.1-1.1,1.8-1.1c1.1,0,1.9,0.7,1.9,1.9V42.7z"/>
				</g>
				<g>
					<path class="st1" d="M145.7,41.3c-0.5,1-1.4,1.6-2.5,1.6c-0.8,0-1.5-0.3-2-0.8c-0.5-0.5-0.8-1.2-0.8-2c0-0.8,0.3-1.5,0.8-2
						c0.5-0.5,1.2-0.8,2-0.8c1.2,0,2,0.5,2.4,1.5l-0.9,0.6c-0.3-0.7-0.9-1-1.5-1c-0.5,0-0.9,0.2-1.2,0.5c-0.3,0.3-0.5,0.8-0.5,1.3
						c0,1.1,0.7,1.8,1.7,1.8c0.8,0,1.2-0.4,1.6-1.1L145.7,41.3z"/>
				</g>
				<g>
					<path class="st1" d="M153.1,40.3h-4.3c0,1,0.7,1.6,1.6,1.6c0.8,0,1.3-0.4,1.6-1.1l0.9,0.5c-0.5,1.1-1.3,1.6-2.5,1.6
						c-0.8,0-1.4-0.3-1.9-0.8c-0.5-0.5-0.8-1.2-0.8-2c0-0.8,0.3-1.5,0.8-2c0.5-0.5,1.2-0.8,2-0.8c0.8,0,1.4,0.2,1.9,0.7
						c0.5,0.5,0.7,1.2,0.7,1.9V40.3z M149.5,38.4c-0.3,0.2-0.5,0.6-0.6,1h3.2c0-0.4-0.2-0.7-0.5-1C150.9,37.9,150,37.9,149.5,38.4z"
						/>
				</g>
			</g>
		</g>
	</g>
</g>
<g>
	<g class="st2">
		<g>
			<path class="st1" d="M463,1v57H298V1H463 M464,0H297v59h167V0L464,0z"/>
		</g>
	</g>
	<g>
		<g>
			<polygon class="st3" points="351.2,20.4 347.7,15.4 347.7,22 348.9,23.7 351.2,27 353.5,23.7 			"/>
			<linearGradient id="SVGID_2_" gradientUnits="userSpaceOnUse" x1="357.192" y1="27.0095" x2="357.192" y2="6.7547">
				<stop  offset="0" style="stop-color:#E50A0A;stop-opacity:0.9"/>
				<stop  offset="1" style="stop-color:#E50A0A;stop-opacity:0"/>
			</linearGradient>
			<polygon class="st6" points="360.8,6.8 351.2,20.4 348.9,23.7 351.2,27 353.5,23.7 365.5,6.8 			"/>
			<g>
				<path class="st5" d="M333.5,14c-2.2,0-4,0.7-5.4,2.1c-1.4,1.4-2.1,3.2-2.1,5.3c0,2.1,0.7,3.8,2.1,5.3c1.4,1.4,3.2,2.1,5.4,2.1
					c2.1,0,4-0.7,5.4-2.1c1.4-1.4,2.1-3.2,2.1-5.3c0-2.1-0.7-3.8-2.1-5.3C337.5,14.8,335.7,14,333.5,14z M331.1,18.8
					c0.6-0.6,1.4-0.9,2.4-0.9c1,0,1.8,0.3,2.4,0.9c0.7,0.7,1,1.5,1,2.6c0,1.1-0.3,1.9-1,2.6c-0.6,0.6-1.4,0.9-2.4,0.9
					c-1,0-1.8-0.3-2.4-0.9c-0.7-0.7-1-1.5-1-2.6C330.1,20.3,330.5,19.5,331.1,18.8z"/>
				<path class="st5" d="M369.5,14.3h-6.7v14.3h4.1v-4.5h2.6c3.6,0,5.7-1.8,5.7-4.9S373.1,14.3,369.5,14.3z M366.9,17.9h2.5
					c1.5,0,1.7,0.8,1.7,1.3c0,0.6-0.2,1.3-1.7,1.3h-2.5V17.9z"/>
				<polygon class="st5" points="381,14.3 376.9,14.3 376.9,28.6 387.6,28.6 387.6,24.7 381,24.7 				"/>
				<rect x="389.5" y="14.3" class="st5" width="4.1" height="14.3"/>
				<polygon class="st5" points="395.5,18 399.5,18 399.5,28.6 403.5,28.6 403.5,18 407.5,18 407.5,14.3 395.5,14.3 				"/>
				<polygon class="st5" points="413.5,23 419.6,23 419.6,19.4 413.5,19.4 413.5,18 420.1,18 420.1,14.3 409.4,14.3 409.4,28.6 
					420.2,28.6 420.2,24.9 413.5,24.9 				"/>
				<polygon class="st5" points="446,14.3 446,19.4 441.3,19.4 441.3,14.3 437.2,14.3 437.2,28.6 441.3,28.6 441.3,23.2 446,23.2 
					446,28.6 450.1,28.6 450.1,14.3 				"/>
				<rect x="342.7" y="14.3" class="st5" width="4.1" height="14.3"/>
				<polygon class="st5" points="355.6,28.6 359.7,28.6 359.7,16.7 355.6,22.6 				"/>
				<path class="st5" d="M321.8,22.4l-0.2,0.3c-0.9,1.6-1.8,2.3-3.2,2.3c-0.9,0-1.7-0.3-2.4-1c-0.7-0.7-1-1.5-1-2.6
					c0-1.1,0.3-1.9,1-2.6c0.7-0.7,1.4-1,2.3-1c1.4,0,2.3,0.7,3,2.1l0.1,0.3l3.3-2.5c-1.1-2.4-3.4-3.8-6.4-3.8
					c-2.1,0-3.9,0.7-5.3,2.1c-1.4,1.4-2.2,3.2-2.2,5.3c0,2.2,0.7,4,2.1,5.3c1.4,1.4,3.2,2.1,5.3,2.1c2.9,0,4.8-1.1,6.6-3.8l0.1-0.1
					L321.8,22.4z"/>
				<path class="st5" d="M432.5,22.4l-0.2,0.3c-0.9,1.6-1.8,2.3-3.2,2.3c-0.9,0-1.7-0.3-2.4-1c-0.7-0.7-1-1.5-1-2.6
					c0-1.1,0.3-1.9,1-2.6c0.7-0.7,1.4-1,2.3-1c1.4,0,2.3,0.7,3,2.1l0.1,0.3l3.3-2.5c-1.1-2.4-3.4-3.8-6.4-3.8
					c-2.1,0-3.9,0.7-5.3,2.1c-1.4,1.4-2.2,3.2-2.2,5.3c0,2.2,0.7,4,2.1,5.3c1.4,1.4,3.2,2.1,5.3,2.1c2.9,0,4.8-1.1,6.6-3.8l0.1-0.1
					L432.5,22.4z"/>
			</g>
		</g>
		<g>
			<g>
				<g>
					<path class="st1" d="M312.8,42.7v-7.6h1.1v3c0.4-0.6,1.1-1,1.9-1c0.7,0,1.3,0.3,1.8,0.8c0.5,0.5,0.7,1.2,0.7,2.1
						c0,0.8-0.3,1.5-0.7,2.1c-0.5,0.5-1.1,0.8-1.8,0.8c-0.8,0-1.5-0.4-1.8-0.9v0.8H312.8z M315.5,41.8c0.5,0,0.9-0.2,1.2-0.5
						c0.3-0.3,0.5-0.8,0.5-1.3s-0.2-1-0.5-1.3c-0.3-0.3-0.7-0.5-1.2-0.5c-0.5,0-0.9,0.2-1.2,0.5c-0.3,0.3-0.5,0.8-0.5,1.3
						s0.2,1,0.5,1.3C314.7,41.7,315.1,41.8,315.5,41.8z"/>
				</g>
				<g>
					<path class="st1" d="M320.2,43.9c0.6,0.2,0.9,0.2,1.1-0.5l0.3-0.7l-2.2-5.4h1.3l1.5,3.9l1.5-3.9h1.2l-2.6,6.5
						c-0.3,0.8-0.8,1.2-1.5,1.2c-0.3,0-0.5,0-0.8-0.1L320.2,43.9z"/>
				</g>
				<g>
					<path class="st1" d="M330.3,42.7v-7.6h1.3l2.6,6.4l2.6-6.4h1.3v7.6h-1.1v-5.3l-0.4,1.1l-1.7,4.2h-1.1l-1.7-4.2
						c-0.2-0.6-0.3-0.9-0.4-1.1v5.3H330.3z"/>
				</g>
				<g>
					<path class="st1" d="M344.6,42.7c-0.2-0.2-0.3-0.5-0.3-0.9c-0.4,0.7-1,1.1-1.8,1.1c-1.1,0-1.8-0.7-1.8-1.7c0-1,0.8-1.6,1.9-1.8
						l1.7-0.3v-0.2c0-0.6-0.4-0.9-1.1-0.9c-0.7,0-1.1,0.3-1.1,0.7c0,0.1,0,0.1,0,0.2l-1,0.3c-0.1-0.1-0.1-0.3-0.1-0.4
						c0-0.4,0.2-0.8,0.6-1.1c0.4-0.3,0.9-0.5,1.6-0.5c1.5,0,2.2,0.7,2.2,1.8v2.4c0,0.5,0.1,1,0.3,1.3H344.6z M344.3,40.1V40
						l-1.5,0.2c-0.7,0.1-1,0.4-1,0.9s0.3,0.8,0.9,0.8C343.6,41.9,344.3,41.2,344.3,40.1z"/>
				</g>
				<g>
					<path class="st1" d="M349.1,37.3l1,1.6l1-1.6h1.3l-1.7,2.5l1.9,2.9h-1.3l-1.2-2l-1.3,2h-1.3l2-2.9l-1.7-2.5H349.1z"/>
				</g>
				<g>
					<path class="st1" d="M354.7,36.5v-1.2h1.3v1.2H354.7z M354.8,42.7v-5.4h1.1v5.4H354.8z"/>
				</g>
				<g>
					<path class="st1" d="M366.2,42.7h-1.1v-3.6c0-0.7-0.3-1-0.9-1c-0.7,0-1.2,0.5-1.2,1.6v3h-1.1v-3.5c0-0.6-0.3-1-0.9-1
						c-0.7,0-1.2,0.6-1.2,1.6v3h-1.1v-5.4h1.1v0.8c0.3-0.6,0.9-0.9,1.6-0.9c0.8,0,1.3,0.3,1.5,1c0.4-0.6,0.9-1,1.7-1
						c1,0,1.7,0.6,1.7,1.6V42.7z"/>
				</g>
				<g>
					<path class="st1" d="M372.6,42.7c-0.2-0.2-0.3-0.5-0.3-0.9c-0.4,0.7-1,1.1-1.8,1.1c-1.1,0-1.8-0.7-1.8-1.7c0-1,0.8-1.6,1.9-1.8
						l1.7-0.3v-0.2c0-0.6-0.4-0.9-1.1-0.9c-0.7,0-1.1,0.3-1.1,0.7c0,0.1,0,0.1,0,0.2l-1,0.3c-0.1-0.1-0.1-0.3-0.1-0.4
						c0-0.4,0.2-0.8,0.6-1.1c0.4-0.3,0.9-0.5,1.6-0.5c1.5,0,2.2,0.7,2.2,1.8v2.4c0,0.5,0.1,1,0.3,1.3H372.6z M372.3,40.1V40
						l-1.5,0.2c-0.7,0.1-1,0.4-1,0.9s0.3,0.8,0.9,0.8C371.7,41.9,372.3,41.2,372.3,40.1z"/>
				</g>
				<g>
					<path class="st1" d="M386.5,40.9c-0.8,1.4-1.8,2-3.3,2c-1.1,0-2-0.4-2.7-1.1c-0.7-0.7-1.1-1.7-1.1-2.8c0-1.1,0.4-2.1,1.1-2.8
						c0.7-0.7,1.6-1.1,2.7-1.1c1.5,0,2.7,0.8,3.3,2l-0.9,0.7c-0.5-1.1-1.3-1.6-2.3-1.6c-0.7,0-1.3,0.3-1.9,0.8
						c-0.5,0.6-0.8,1.2-0.8,2.1c0,0.8,0.3,1.5,0.7,2.1c0.5,0.6,1.1,0.8,1.9,0.8c1,0,1.9-0.5,2.4-1.6L386.5,40.9z"/>
				</g>
				<g>
					<path class="st1" d="M394.5,40c0,0.9-0.3,1.6-0.9,2.1c-0.6,0.5-1.3,0.8-2,0.8c-0.8,0-1.4-0.2-2-0.8c-0.6-0.5-0.9-1.2-0.9-2.1
						s0.3-1.6,0.9-2.1c0.6-0.5,1.2-0.8,2-0.8c0.8,0,1.5,0.2,2,0.8C394.2,38.4,394.5,39.1,394.5,40z M391.6,41.8
						c0.5,0,0.9-0.2,1.2-0.5c0.3-0.3,0.5-0.8,0.5-1.3s-0.2-1-0.5-1.3c-0.3-0.3-0.8-0.5-1.2-0.5c-0.5,0-0.9,0.2-1.2,0.5
						c-0.3,0.3-0.5,0.8-0.5,1.3s0.2,1,0.5,1.3C390.7,41.7,391.1,41.8,391.6,41.8z"/>
				</g>
				<g>
					<path class="st1" d="M404.5,42.7h-1.1v-3.6c0-0.7-0.3-1-0.9-1c-0.7,0-1.2,0.5-1.2,1.6v3h-1.1v-3.5c0-0.6-0.3-1-0.9-1
						c-0.7,0-1.2,0.6-1.2,1.6v3h-1.1v-5.4h1.1v0.8c0.3-0.6,0.9-0.9,1.6-0.9c0.8,0,1.3,0.3,1.5,1c0.4-0.6,0.9-1,1.7-1
						c1,0,1.7,0.6,1.7,1.6V42.7z"/>
				</g>
				<g>
					<path class="st1" d="M407.3,44.9v-7.6h1.1v0.8c0.3-0.6,1.1-1,1.9-1c0.7,0,1.3,0.3,1.8,0.8c0.5,0.5,0.7,1.2,0.7,2.1
						s-0.3,1.5-0.7,2.1c-0.5,0.5-1.1,0.8-1.9,0.8c-0.8,0-1.5-0.3-1.8-0.9v3H407.3z M410,38.2c-0.5,0-0.9,0.2-1.2,0.5
						c-0.3,0.3-0.5,0.8-0.5,1.3s0.2,1,0.5,1.3c0.3,0.3,0.7,0.5,1.2,0.5c0.5,0,0.9-0.2,1.2-0.5c0.3-0.3,0.5-0.8,0.5-1.3
						s-0.2-1-0.5-1.3C410.9,38.4,410.5,38.2,410,38.2z"/>
				</g>
				<g>
					<path class="st1" d="M415.3,42.7v-7.6h1.1v7.6H415.3z"/>
				</g>
				<g>
					<path class="st1" d="M419,36.5v-1.2h1.3v1.2H419z M419.1,42.7v-5.4h1.1v5.4H419.1z"/>
				</g>
				<g>
					<path class="st1" d="M426.6,42.7c-0.2-0.2-0.3-0.5-0.3-0.9c-0.4,0.7-1,1.1-1.8,1.1c-1.1,0-1.8-0.7-1.8-1.7c0-1,0.8-1.6,1.9-1.8
						l1.7-0.3v-0.2c0-0.6-0.4-0.9-1.1-0.9c-0.7,0-1.1,0.3-1.1,0.7c0,0.1,0,0.1,0,0.2l-1,0.3c-0.1-0.1-0.1-0.3-0.1-0.4
						c0-0.4,0.2-0.8,0.6-1.1c0.4-0.3,0.9-0.5,1.6-0.5c1.5,0,2.2,0.7,2.2,1.8v2.4c0,0.5,0.1,1,0.3,1.3H426.6z M426.3,40.1V40
						l-1.5,0.2c-0.7,0.1-1,0.4-1,0.9s0.3,0.8,0.9,0.8C425.7,41.9,426.3,41.2,426.3,40.1z"/>
				</g>
				<g>
					<path class="st1" d="M435,42.7h-1.1v-3.3c0-0.7-0.4-1.2-1.2-1.2c-0.8,0-1.4,0.7-1.4,1.7v2.8h-1.1v-5.4h1.1v0.9
						c0.4-0.6,1.1-1.1,1.8-1.1c1.1,0,1.9,0.7,1.9,1.9V42.7z"/>
				</g>
				<g>
					<path class="st1" d="M442.7,41.3c-0.5,1-1.4,1.6-2.5,1.6c-0.8,0-1.5-0.3-2-0.8c-0.5-0.5-0.8-1.2-0.8-2c0-0.8,0.3-1.5,0.8-2
						c0.5-0.5,1.2-0.8,2-0.8c1.2,0,2,0.5,2.4,1.5l-0.9,0.6c-0.3-0.7-0.9-1-1.5-1c-0.5,0-0.9,0.2-1.2,0.5c-0.3,0.3-0.5,0.8-0.5,1.3
						c0,1.1,0.7,1.8,1.7,1.8c0.8,0,1.2-0.4,1.6-1.1L442.7,41.3z"/>
				</g>
				<g>
					<path class="st1" d="M450.1,40.3h-4.3c0,1,0.7,1.6,1.6,1.6c0.8,0,1.3-0.4,1.6-1.1l0.9,0.5c-0.5,1.1-1.3,1.6-2.5,1.6
						c-0.8,0-1.4-0.3-1.9-0.8c-0.5-0.5-0.8-1.2-0.8-2c0-0.8,0.3-1.5,0.8-2c0.5-0.5,1.2-0.8,2-0.8c0.8,0,1.4,0.2,1.9,0.7
						c0.5,0.5,0.7,1.2,0.7,1.9V40.3z M446.5,38.4c-0.3,0.2-0.5,0.6-0.6,1h3.2c0-0.4-0.2-0.7-0.5-1C447.9,37.9,447,37.9,446.5,38.4z"
						/>
				</g>
			</g>
		</g>
	</g>
</g>
<g>
	<g class="st2">
		<g>
			<path class="st1" d="M654,1v57H489V1H654 M655,0H488v59h167V0L655,0z"/>
		</g>
	</g>
	<g>
		<g>
			<polygon class="st3" points="542.2,20.4 538.7,15.4 538.7,22 539.9,23.7 542.2,27 544.5,23.7 			"/>
			<linearGradient id="SVGID_3_" gradientUnits="userSpaceOnUse" x1="548.192" y1="27.0095" x2="548.192" y2="6.7547">
				<stop  offset="0" style="stop-color:#E50A0A;stop-opacity:0.9"/>
				<stop  offset="1" style="stop-color:#E50A0A;stop-opacity:0"/>
			</linearGradient>
			<polygon class="st7" points="551.8,6.8 542.2,20.4 539.9,23.7 542.2,27 544.5,23.7 556.5,6.8 			"/>
			<g>
				<path class="st5" d="M524.5,14c-2.2,0-4,0.7-5.4,2.1c-1.4,1.4-2.1,3.2-2.1,5.3c0,2.1,0.7,3.8,2.1,5.3c1.4,1.4,3.2,2.1,5.4,2.1
					c2.1,0,4-0.7,5.4-2.1c1.4-1.4,2.1-3.2,2.1-5.3c0-2.1-0.7-3.8-2.1-5.3C528.5,14.8,526.7,14,524.5,14z M522.1,18.8
					c0.6-0.6,1.4-0.9,2.4-0.9c1,0,1.8,0.3,2.4,0.9c0.7,0.7,1,1.5,1,2.6c0,1.1-0.3,1.9-1,2.6c-0.6,0.6-1.4,0.9-2.4,0.9
					c-1,0-1.8-0.3-2.4-0.9c-0.7-0.7-1-1.5-1-2.6C521.1,20.3,521.5,19.5,522.1,18.8z"/>
				<path class="st5" d="M560.5,14.3h-6.7v14.3h4.1v-4.5h2.6c3.6,0,5.7-1.8,5.7-4.9S564.1,14.3,560.5,14.3z M557.9,17.9h2.5
					c1.5,0,1.7,0.8,1.7,1.3c0,0.6-0.2,1.3-1.7,1.3h-2.5V17.9z"/>
				<polygon class="st5" points="572,14.3 567.9,14.3 567.9,28.6 578.6,28.6 578.6,24.7 572,24.7 				"/>
				<rect x="580.5" y="14.3" class="st5" width="4.1" height="14.3"/>
				<polygon class="st5" points="586.5,18 590.5,18 590.5,28.6 594.5,28.6 594.5,18 598.5,18 598.5,14.3 586.5,14.3 				"/>
				<polygon class="st5" points="604.5,23 610.6,23 610.6,19.4 604.5,19.4 604.5,18 611.1,18 611.1,14.3 600.4,14.3 600.4,28.6 
					611.2,28.6 611.2,24.9 604.5,24.9 				"/>
				<polygon class="st5" points="637,14.3 637,19.4 632.3,19.4 632.3,14.3 628.2,14.3 628.2,28.6 632.3,28.6 632.3,23.2 637,23.2 
					637,28.6 641.1,28.6 641.1,14.3 				"/>
				<rect x="533.7" y="14.3" class="st5" width="4.1" height="14.3"/>
				<polygon class="st5" points="546.6,28.6 550.7,28.6 550.7,16.7 546.6,22.6 				"/>
				<path class="st5" d="M512.8,22.4l-0.2,0.3c-0.9,1.6-1.8,2.3-3.2,2.3c-0.9,0-1.7-0.3-2.4-1c-0.7-0.7-1-1.5-1-2.6
					c0-1.1,0.3-1.9,1-2.6c0.7-0.7,1.4-1,2.3-1c1.4,0,2.3,0.7,3,2.1l0.1,0.3l3.3-2.5c-1.1-2.4-3.4-3.8-6.4-3.8
					c-2.1,0-3.9,0.7-5.3,2.1c-1.4,1.4-2.2,3.2-2.2,5.3c0,2.2,0.7,4,2.1,5.3c1.4,1.4,3.2,2.1,5.3,2.1c2.9,0,4.8-1.1,6.6-3.8l0.1-0.1
					L512.8,22.4z"/>
				<path class="st5" d="M623.5,22.4l-0.2,0.3c-0.9,1.6-1.8,2.3-3.2,2.3c-0.9,0-1.7-0.3-2.4-1c-0.7-0.7-1-1.5-1-2.6
					c0-1.1,0.3-1.9,1-2.6c0.7-0.7,1.4-1,2.3-1c1.4,0,2.3,0.7,3,2.1l0.1,0.3l3.3-2.5c-1.1-2.4-3.4-3.8-6.4-3.8
					c-2.1,0-3.9,0.7-5.3,2.1c-1.4,1.4-2.2,3.2-2.2,5.3c0,2.2,0.7,4,2.1,5.3c1.4,1.4,3.2,2.1,5.3,2.1c2.9,0,4.8-1.1,6.6-3.8l0.1-0.1
					L623.5,22.4z"/>
			</g>
		</g>
		<g>
			<g>
				<g>
					<path class="st1" d="M503.8,42.7v-7.6h1.1v3c0.4-0.6,1.1-1,1.9-1c0.7,0,1.3,0.3,1.8,0.8c0.5,0.5,0.7,1.2,0.7,2.1
						c0,0.8-0.3,1.5-0.7,2.1c-0.5,0.5-1.1,0.8-1.8,0.8c-0.8,0-1.5-0.4-1.8-0.9v0.8H503.8z M506.5,41.8c0.5,0,0.9-0.2,1.2-0.5
						c0.3-0.3,0.5-0.8,0.5-1.3s-0.2-1-0.5-1.3c-0.3-0.3-0.7-0.5-1.2-0.5c-0.5,0-0.9,0.2-1.2,0.5c-0.3,0.3-0.5,0.8-0.5,1.3
						s0.2,1,0.5,1.3C505.7,41.7,506.1,41.8,506.5,41.8z"/>
				</g>
				<g>
					<path class="st1" d="M511.2,43.9c0.6,0.2,0.9,0.2,1.1-0.5l0.3-0.7l-2.2-5.4h1.3l1.5,3.9l1.5-3.9h1.2l-2.6,6.5
						c-0.3,0.8-0.8,1.2-1.5,1.2c-0.3,0-0.5,0-0.8-0.1L511.2,43.9z"/>
				</g>
				<g>
					<path class="st1" d="M521.3,42.7v-7.6h1.3l2.6,6.4l2.6-6.4h1.3v7.6h-1.1v-5.3l-0.4,1.1l-1.7,4.2h-1.1l-1.7-4.2
						c-0.2-0.6-0.3-0.9-0.4-1.1v5.3H521.3z"/>
				</g>
				<g>
					<path class="st1" d="M535.6,42.7c-0.2-0.2-0.3-0.5-0.3-0.9c-0.4,0.7-1,1.1-1.8,1.1c-1.1,0-1.8-0.7-1.8-1.7c0-1,0.8-1.6,1.9-1.8
						l1.7-0.3v-0.2c0-0.6-0.4-0.9-1.1-0.9c-0.7,0-1.1,0.3-1.1,0.7c0,0.1,0,0.1,0,0.2l-1,0.3c-0.1-0.1-0.1-0.3-0.1-0.4
						c0-0.4,0.2-0.8,0.6-1.1c0.4-0.3,0.9-0.5,1.6-0.5c1.5,0,2.2,0.7,2.2,1.8v2.4c0,0.5,0.1,1,0.3,1.3H535.6z M535.3,40.1V40
						l-1.5,0.2c-0.7,0.1-1,0.4-1,0.9s0.3,0.8,0.9,0.8C534.6,41.9,535.3,41.2,535.3,40.1z"/>
				</g>
				<g>
					<path class="st1" d="M540.1,37.3l1,1.6l1-1.6h1.3l-1.7,2.5l1.9,2.9h-1.3l-1.2-2l-1.3,2h-1.3l2-2.9l-1.7-2.5H540.1z"/>
				</g>
				<g>
					<path class="st1" d="M545.7,36.5v-1.2h1.3v1.2H545.7z M545.8,42.7v-5.4h1.1v5.4H545.8z"/>
				</g>
				<g>
					<path class="st1" d="M557.2,42.7h-1.1v-3.6c0-0.7-0.3-1-0.9-1c-0.7,0-1.2,0.5-1.2,1.6v3h-1.1v-3.5c0-0.6-0.3-1-0.9-1
						c-0.7,0-1.2,0.6-1.2,1.6v3h-1.1v-5.4h1.1v0.8c0.3-0.6,0.9-0.9,1.6-0.9c0.8,0,1.3,0.3,1.5,1c0.4-0.6,0.9-1,1.7-1
						c1,0,1.7,0.6,1.7,1.6V42.7z"/>
				</g>
				<g>
					<path class="st1" d="M563.6,42.7c-0.2-0.2-0.3-0.5-0.3-0.9c-0.4,0.7-1,1.1-1.8,1.1c-1.1,0-1.8-0.7-1.8-1.7c0-1,0.8-1.6,1.9-1.8
						l1.7-0.3v-0.2c0-0.6-0.4-0.9-1.1-0.9c-0.7,0-1.1,0.3-1.1,0.7c0,0.1,0,0.1,0,0.2l-1,0.3c-0.1-0.1-0.1-0.3-0.1-0.4
						c0-0.4,0.2-0.8,0.6-1.1c0.4-0.3,0.9-0.5,1.6-0.5c1.5,0,2.2,0.7,2.2,1.8v2.4c0,0.5,0.1,1,0.3,1.3H563.6z M563.3,40.1V40
						l-1.5,0.2c-0.7,0.1-1,0.4-1,0.9s0.3,0.8,0.9,0.8C562.7,41.9,563.3,41.2,563.3,40.1z"/>
				</g>
				<g>
					<path class="st1" d="M577.5,40.9c-0.8,1.4-1.8,2-3.3,2c-1.1,0-2-0.4-2.7-1.1c-0.7-0.7-1.1-1.7-1.1-2.8c0-1.1,0.4-2.1,1.1-2.8
						c0.7-0.7,1.6-1.1,2.7-1.1c1.5,0,2.7,0.8,3.3,2l-0.9,0.7c-0.5-1.1-1.3-1.6-2.3-1.6c-0.7,0-1.3,0.3-1.9,0.8
						c-0.5,0.6-0.8,1.2-0.8,2.1c0,0.8,0.3,1.5,0.7,2.1c0.5,0.6,1.1,0.8,1.9,0.8c1,0,1.9-0.5,2.4-1.6L577.5,40.9z"/>
				</g>
				<g>
					<path class="st1" d="M585.5,40c0,0.9-0.3,1.6-0.9,2.1c-0.6,0.5-1.3,0.8-2,0.8c-0.8,0-1.4-0.2-2-0.8c-0.6-0.5-0.9-1.2-0.9-2.1
						s0.3-1.6,0.9-2.1c0.6-0.5,1.2-0.8,2-0.8c0.8,0,1.5,0.2,2,0.8C585.2,38.4,585.5,39.1,585.5,40z M582.6,41.8
						c0.5,0,0.9-0.2,1.2-0.5c0.3-0.3,0.5-0.8,0.5-1.3s-0.2-1-0.5-1.3c-0.3-0.3-0.8-0.5-1.2-0.5c-0.5,0-0.9,0.2-1.2,0.5
						c-0.3,0.3-0.5,0.8-0.5,1.3s0.2,1,0.5,1.3C581.7,41.7,582.1,41.8,582.6,41.8z"/>
				</g>
				<g>
					<path class="st1" d="M595.5,42.7h-1.1v-3.6c0-0.7-0.3-1-0.9-1c-0.7,0-1.2,0.5-1.2,1.6v3h-1.1v-3.5c0-0.6-0.3-1-0.9-1
						c-0.7,0-1.2,0.6-1.2,1.6v3h-1.1v-5.4h1.1v0.8c0.3-0.6,0.9-0.9,1.6-0.9c0.8,0,1.3,0.3,1.5,1c0.4-0.6,0.9-1,1.7-1
						c1,0,1.7,0.6,1.7,1.6V42.7z"/>
				</g>
				<g>
					<path class="st1" d="M598.3,44.9v-7.6h1.1v0.8c0.3-0.6,1.1-1,1.9-1c0.7,0,1.3,0.3,1.8,0.8c0.5,0.5,0.7,1.2,0.7,2.1
						s-0.3,1.5-0.7,2.1c-0.5,0.5-1.1,0.8-1.9,0.8c-0.8,0-1.5-0.3-1.8-0.9v3H598.3z M601,38.2c-0.5,0-0.9,0.2-1.2,0.5
						c-0.3,0.3-0.5,0.8-0.5,1.3s0.2,1,0.5,1.3c0.3,0.3,0.7,0.5,1.2,0.5c0.5,0,0.9-0.2,1.2-0.5c0.3-0.3,0.5-0.8,0.5-1.3
						s-0.2-1-0.5-1.3C601.9,38.4,601.5,38.2,601,38.2z"/>
				</g>
				<g>
					<path class="st1" d="M606.3,42.7v-7.6h1.1v7.6H606.3z"/>
				</g>
				<g>
					<path class="st1" d="M610,36.5v-1.2h1.3v1.2H610z M610.1,42.7v-5.4h1.1v5.4H610.1z"/>
				</g>
				<g>
					<path class="st1" d="M617.6,42.7c-0.2-0.2-0.3-0.5-0.3-0.9c-0.4,0.7-1,1.1-1.8,1.1c-1.1,0-1.8-0.7-1.8-1.7c0-1,0.8-1.6,1.9-1.8
						l1.7-0.3v-0.2c0-0.6-0.4-0.9-1.1-0.9c-0.7,0-1.1,0.3-1.1,0.7c0,0.1,0,0.1,0,0.2l-1,0.3c-0.1-0.1-0.1-0.3-0.1-0.4
						c0-0.4,0.2-0.8,0.6-1.1c0.4-0.3,0.9-0.5,1.6-0.5c1.5,0,2.2,0.7,2.2,1.8v2.4c0,0.5,0.1,1,0.3,1.3H617.6z M617.3,40.1V40
						l-1.5,0.2c-0.7,0.1-1,0.4-1,0.9s0.3,0.8,0.9,0.8C616.7,41.9,617.3,41.2,617.3,40.1z"/>
				</g>
				<g>
					<path class="st1" d="M626,42.7h-1.1v-3.3c0-0.7-0.4-1.2-1.2-1.2c-0.8,0-1.4,0.7-1.4,1.7v2.8h-1.1v-5.4h1.1v0.9
						c0.4-0.6,1.1-1.1,1.8-1.1c1.1,0,1.9,0.7,1.9,1.9V42.7z"/>
				</g>
				<g>
					<path class="st1" d="M633.7,41.3c-0.5,1-1.4,1.6-2.5,1.6c-0.8,0-1.5-0.3-2-0.8s-0.8-1.2-0.8-2c0-0.8,0.3-1.5,0.8-2
						c0.5-0.5,1.2-0.8,2-0.8c1.2,0,2,0.5,2.4,1.5l-0.9,0.6c-0.3-0.7-0.9-1-1.5-1c-0.5,0-0.9,0.2-1.2,0.5c-0.3,0.3-0.5,0.8-0.5,1.3
						c0,1.1,0.7,1.8,1.7,1.8c0.8,0,1.2-0.4,1.6-1.1L633.7,41.3z"/>
				</g>
				<g>
					<path class="st1" d="M641.1,40.3h-4.3c0,1,0.7,1.6,1.6,1.6c0.8,0,1.3-0.4,1.6-1.1l0.9,0.5c-0.5,1.1-1.3,1.6-2.5,1.6
						c-0.8,0-1.4-0.3-1.9-0.8c-0.5-0.5-0.8-1.2-0.8-2c0-0.8,0.3-1.5,0.8-2c0.5-0.5,1.2-0.8,2-0.8c0.8,0,1.4,0.2,1.9,0.7
						c0.5,0.5,0.7,1.2,0.7,1.9V40.3z M637.5,38.4c-0.3,0.2-0.5,0.6-0.6,1h3.2c0-0.4-0.2-0.7-0.5-1C638.9,37.9,638,37.9,637.5,38.4z"
						/>
				</g>
			</g>
		</g>
	</g>
</g>
<g>
	<g class="st2">
		<g>
			<path class="st1" d="M654,494v57H489v-57H654 M655,493H488v59h167V493L655,493z"/>
		</g>
	</g>
	<g>
		<g>
			<polygon class="st3" points="542.2,513.4 538.7,508.4 538.7,515 539.9,516.7 542.2,520 544.5,516.7 			"/>
			<linearGradient id="SVGID_4_" gradientUnits="userSpaceOnUse" x1="548.192" y1="520.0095" x2="548.192" y2="499.7546">
				<stop  offset="0" style="stop-color:#E50A0A;stop-opacity:0.9"/>
				<stop  offset="1" style="stop-color:#E50A0A;stop-opacity:0"/>
			</linearGradient>
			<polygon class="st8" points="551.8,499.8 542.2,513.4 539.9,516.7 542.2,520 544.5,516.7 556.5,499.8 			"/>
			<g>
				<path class="st5" d="M524.5,507c-2.2,0-4,0.7-5.4,2.1c-1.4,1.4-2.1,3.2-2.1,5.3c0,2.1,0.7,3.8,2.1,5.3c1.4,1.4,3.2,2.1,5.4,2.1
					c2.1,0,4-0.7,5.4-2.1c1.4-1.4,2.1-3.2,2.1-5.3c0-2.1-0.7-3.8-2.1-5.3C528.5,507.8,526.7,507,524.5,507z M522.1,511.8
					c0.6-0.6,1.4-0.9,2.4-0.9c1,0,1.8,0.3,2.4,0.9c0.7,0.7,1,1.5,1,2.6c0,1.1-0.3,1.9-1,2.6c-0.6,0.6-1.4,0.9-2.4,0.9
					c-1,0-1.8-0.3-2.4-0.9c-0.7-0.7-1-1.5-1-2.6C521.1,513.3,521.5,512.5,522.1,511.8z"/>
				<path class="st5" d="M560.5,507.3h-6.7v14.3h4.1v-4.5h2.6c3.6,0,5.7-1.8,5.7-4.9C566.2,509.1,564.1,507.3,560.5,507.3z
					 M557.9,510.9h2.5c1.5,0,1.7,0.8,1.7,1.3c0,0.6-0.2,1.3-1.7,1.3h-2.5V510.9z"/>
				<polygon class="st5" points="572,507.3 567.9,507.3 567.9,521.6 578.6,521.6 578.6,517.7 572,517.7 				"/>
				<rect x="580.5" y="507.3" class="st5" width="4.1" height="14.3"/>
				<polygon class="st5" points="586.5,511 590.5,511 590.5,521.6 594.5,521.6 594.5,511 598.5,511 598.5,507.3 586.5,507.3 				"/>
				<polygon class="st5" points="604.5,516 610.6,516 610.6,512.4 604.5,512.4 604.5,511 611.1,511 611.1,507.3 600.4,507.3 
					600.4,521.6 611.2,521.6 611.2,517.9 604.5,517.9 				"/>
				<polygon class="st5" points="637,507.3 637,512.4 632.3,512.4 632.3,507.3 628.2,507.3 628.2,521.6 632.3,521.6 632.3,516.2 
					637,516.2 637,521.6 641.1,521.6 641.1,507.3 				"/>
				<rect x="533.7" y="507.3" class="st5" width="4.1" height="14.3"/>
				<polygon class="st5" points="546.6,521.6 550.7,521.6 550.7,509.7 546.6,515.6 				"/>
				<path class="st5" d="M512.8,515.4l-0.2,0.3c-0.9,1.6-1.8,2.3-3.2,2.3c-0.9,0-1.7-0.3-2.4-1c-0.7-0.7-1-1.5-1-2.6
					c0-1.1,0.3-1.9,1-2.6c0.7-0.7,1.4-1,2.3-1c1.4,0,2.3,0.7,3,2.1l0.1,0.3l3.3-2.5c-1.1-2.4-3.4-3.8-6.4-3.8
					c-2.1,0-3.9,0.7-5.3,2.1c-1.4,1.4-2.2,3.2-2.2,5.3c0,2.2,0.7,4,2.1,5.3c1.4,1.4,3.2,2.1,5.3,2.1c2.9,0,4.8-1.1,6.6-3.8l0.1-0.1
					L512.8,515.4z"/>
				<path class="st5" d="M623.5,515.4l-0.2,0.3c-0.9,1.6-1.8,2.3-3.2,2.3c-0.9,0-1.7-0.3-2.4-1c-0.7-0.7-1-1.5-1-2.6
					c0-1.1,0.3-1.9,1-2.6c0.7-0.7,1.4-1,2.3-1c1.4,0,2.3,0.7,3,2.1l0.1,0.3l3.3-2.5c-1.1-2.4-3.4-3.8-6.4-3.8
					c-2.1,0-3.9,0.7-5.3,2.1c-1.4,1.4-2.2,3.2-2.2,5.3c0,2.2,0.7,4,2.1,5.3c1.4,1.4,3.2,2.1,5.3,2.1c2.9,0,4.8-1.1,6.6-3.8l0.1-0.1
					L623.5,515.4z"/>
			</g>
		</g>
		<g>
			<g>
				<g>
					<path class="st1" d="M503.8,535.7v-7.6h1.1v3c0.4-0.6,1.1-1,1.9-1c0.7,0,1.3,0.3,1.8,0.8c0.5,0.5,0.7,1.2,0.7,2.1
						c0,0.8-0.3,1.5-0.7,2.1c-0.5,0.5-1.1,0.8-1.8,0.8c-0.8,0-1.5-0.4-1.8-0.9v0.8H503.8z M506.5,534.8c0.5,0,0.9-0.2,1.2-0.5
						c0.3-0.3,0.5-0.8,0.5-1.3c0-0.5-0.2-1-0.5-1.3c-0.3-0.3-0.7-0.5-1.2-0.5c-0.5,0-0.9,0.2-1.2,0.5c-0.3,0.3-0.5,0.8-0.5,1.3
						c0,0.5,0.2,1,0.5,1.3C505.7,534.7,506.1,534.8,506.5,534.8z"/>
				</g>
				<g>
					<path class="st1" d="M511.2,536.9c0.6,0.2,0.9,0.2,1.1-0.5l0.3-0.7l-2.2-5.4h1.3l1.5,3.9l1.5-3.9h1.2l-2.6,6.5
						c-0.3,0.8-0.8,1.2-1.5,1.2c-0.3,0-0.5,0-0.8-0.1L511.2,536.9z"/>
				</g>
				<g>
					<path class="st1" d="M521.3,535.7v-7.6h1.3l2.6,6.4l2.6-6.4h1.3v7.6h-1.1v-5.3l-0.4,1.1l-1.7,4.2h-1.1l-1.7-4.2
						c-0.2-0.6-0.3-0.9-0.4-1.1v5.3H521.3z"/>
				</g>
				<g>
					<path class="st1" d="M535.6,535.7c-0.2-0.2-0.3-0.5-0.3-0.9c-0.4,0.7-1,1.1-1.8,1.1c-1.1,0-1.8-0.7-1.8-1.7
						c0-1,0.8-1.6,1.9-1.8l1.7-0.3v-0.2c0-0.6-0.4-0.9-1.1-0.9c-0.7,0-1.1,0.3-1.1,0.7c0,0.1,0,0.1,0,0.2l-1,0.3
						c-0.1-0.1-0.1-0.3-0.1-0.4c0-0.4,0.2-0.8,0.6-1.1c0.4-0.3,0.9-0.5,1.6-0.5c1.5,0,2.2,0.7,2.2,1.8v2.4c0,0.5,0.1,1,0.3,1.3
						H535.6z M535.3,533.1V533l-1.5,0.2c-0.7,0.1-1,0.4-1,0.9s0.3,0.8,0.9,0.8C534.6,534.9,535.3,534.2,535.3,533.1z"/>
				</g>
				<g>
					<path class="st1" d="M540.1,530.3l1,1.6l1-1.6h1.3l-1.7,2.5l1.9,2.9h-1.3l-1.2-2l-1.3,2h-1.3l2-2.9l-1.7-2.5H540.1z"/>
				</g>
				<g>
					<path class="st1" d="M545.7,529.5v-1.2h1.3v1.2H545.7z M545.8,535.7v-5.4h1.1v5.4H545.8z"/>
				</g>
				<g>
					<path class="st1" d="M557.2,535.7h-1.1v-3.6c0-0.7-0.3-1-0.9-1c-0.7,0-1.2,0.5-1.2,1.6v3h-1.1v-3.5c0-0.6-0.3-1-0.9-1
						c-0.7,0-1.2,0.6-1.2,1.6v3h-1.1v-5.4h1.1v0.8c0.3-0.6,0.9-0.9,1.6-0.9c0.8,0,1.3,0.3,1.5,1c0.4-0.6,0.9-1,1.7-1
						c1,0,1.7,0.6,1.7,1.6V535.7z"/>
				</g>
				<g>
					<path class="st1" d="M563.6,535.7c-0.2-0.2-0.3-0.5-0.3-0.9c-0.4,0.7-1,1.1-1.8,1.1c-1.1,0-1.8-0.7-1.8-1.7
						c0-1,0.8-1.6,1.9-1.8l1.7-0.3v-0.2c0-0.6-0.4-0.9-1.1-0.9c-0.7,0-1.1,0.3-1.1,0.7c0,0.1,0,0.1,0,0.2l-1,0.3
						c-0.1-0.1-0.1-0.3-0.1-0.4c0-0.4,0.2-0.8,0.6-1.1c0.4-0.3,0.9-0.5,1.6-0.5c1.5,0,2.2,0.7,2.2,1.8v2.4c0,0.5,0.1,1,0.3,1.3
						H563.6z M563.3,533.1V533l-1.5,0.2c-0.7,0.1-1,0.4-1,0.9s0.3,0.8,0.9,0.8C562.7,534.9,563.3,534.2,563.3,533.1z"/>
				</g>
				<g>
					<path class="st1" d="M577.5,533.9c-0.8,1.4-1.8,2-3.3,2c-1.1,0-2-0.4-2.7-1.1c-0.7-0.7-1.1-1.7-1.1-2.8c0-1.1,0.4-2.1,1.1-2.8
						c0.7-0.7,1.6-1.1,2.7-1.1c1.5,0,2.7,0.8,3.3,2l-0.9,0.7c-0.5-1.1-1.3-1.6-2.3-1.6c-0.7,0-1.3,0.3-1.9,0.8
						c-0.5,0.6-0.8,1.2-0.8,2.1c0,0.8,0.3,1.5,0.7,2.1c0.5,0.6,1.1,0.8,1.9,0.8c1,0,1.9-0.5,2.4-1.6L577.5,533.9z"/>
				</g>
				<g>
					<path class="st1" d="M585.5,533c0,0.9-0.3,1.6-0.9,2.1s-1.3,0.8-2,0.8c-0.8,0-1.4-0.3-2-0.8c-0.6-0.5-0.9-1.2-0.9-2.1
						s0.3-1.6,0.9-2.1c0.6-0.5,1.2-0.8,2-0.8c0.8,0,1.5,0.3,2,0.8C585.2,531.4,585.5,532.1,585.5,533z M582.6,534.8
						c0.5,0,0.9-0.2,1.2-0.5c0.3-0.3,0.5-0.8,0.5-1.3c0-0.5-0.2-1-0.5-1.3c-0.3-0.3-0.8-0.5-1.2-0.5c-0.5,0-0.9,0.2-1.2,0.5
						c-0.3,0.3-0.5,0.8-0.5,1.3c0,0.5,0.2,1,0.5,1.3C581.7,534.7,582.1,534.8,582.6,534.8z"/>
				</g>
				<g>
					<path class="st1" d="M595.5,535.7h-1.1v-3.6c0-0.7-0.3-1-0.9-1c-0.7,0-1.2,0.5-1.2,1.6v3h-1.1v-3.5c0-0.6-0.3-1-0.9-1
						c-0.7,0-1.2,0.6-1.2,1.6v3h-1.1v-5.4h1.1v0.8c0.3-0.6,0.9-0.9,1.6-0.9c0.8,0,1.3,0.3,1.5,1c0.4-0.6,0.9-1,1.7-1
						c1,0,1.7,0.6,1.7,1.6V535.7z"/>
				</g>
				<g>
					<path class="st1" d="M598.3,537.9v-7.6h1.1v0.8c0.3-0.6,1.1-1,1.9-1c0.7,0,1.3,0.3,1.8,0.8c0.5,0.5,0.7,1.2,0.7,2.1
						s-0.3,1.5-0.7,2.1c-0.5,0.5-1.1,0.8-1.9,0.8c-0.8,0-1.5-0.3-1.8-0.9v3H598.3z M601,531.2c-0.5,0-0.9,0.2-1.2,0.5
						c-0.3,0.3-0.5,0.8-0.5,1.3c0,0.5,0.2,1,0.5,1.3c0.3,0.3,0.7,0.5,1.2,0.5c0.5,0,0.9-0.2,1.2-0.5c0.3-0.3,0.5-0.8,0.5-1.3
						c0-0.5-0.2-1-0.5-1.3C601.9,531.4,601.5,531.2,601,531.2z"/>
				</g>
				<g>
					<path class="st1" d="M606.3,535.7v-7.6h1.1v7.6H606.3z"/>
				</g>
				<g>
					<path class="st1" d="M610,529.5v-1.2h1.3v1.2H610z M610.1,535.7v-5.4h1.1v5.4H610.1z"/>
				</g>
				<g>
					<path class="st1" d="M617.6,535.7c-0.2-0.2-0.3-0.5-0.3-0.9c-0.4,0.7-1,1.1-1.8,1.1c-1.1,0-1.8-0.7-1.8-1.7
						c0-1,0.8-1.6,1.9-1.8l1.7-0.3v-0.2c0-0.6-0.4-0.9-1.1-0.9c-0.7,0-1.1,0.3-1.1,0.7c0,0.1,0,0.1,0,0.2l-1,0.3
						c-0.1-0.1-0.1-0.3-0.1-0.4c0-0.4,0.2-0.8,0.6-1.1c0.4-0.3,0.9-0.5,1.6-0.5c1.5,0,2.2,0.7,2.2,1.8v2.4c0,0.5,0.1,1,0.3,1.3
						H617.6z M617.3,533.1V533l-1.5,0.2c-0.7,0.1-1,0.4-1,0.9s0.3,0.8,0.9,0.8C616.7,534.9,617.3,534.2,617.3,533.1z"/>
				</g>
				<g>
					<path class="st1" d="M626,535.7h-1.1v-3.3c0-0.7-0.4-1.2-1.2-1.2c-0.8,0-1.4,0.7-1.4,1.7v2.8h-1.1v-5.4h1.1v0.9
						c0.4-0.6,1.1-1.1,1.8-1.1c1.1,0,1.9,0.7,1.9,1.9V535.7z"/>
				</g>
				<g>
					<path class="st1" d="M633.7,534.3c-0.5,1-1.4,1.6-2.5,1.6c-0.8,0-1.5-0.3-2-0.8c-0.5-0.5-0.8-1.2-0.8-2c0-0.8,0.3-1.5,0.8-2
						c0.5-0.5,1.2-0.8,2-0.8c1.2,0,2,0.5,2.4,1.5l-0.9,0.6c-0.3-0.7-0.9-1-1.5-1c-0.5,0-0.9,0.2-1.2,0.5c-0.3,0.3-0.5,0.8-0.5,1.3
						c0,1.1,0.7,1.8,1.7,1.8c0.8,0,1.2-0.4,1.6-1.1L633.7,534.3z"/>
				</g>
				<g>
					<path class="st1" d="M641.1,533.3h-4.3c0,1,0.7,1.6,1.6,1.6c0.8,0,1.3-0.4,1.6-1.1l0.9,0.5c-0.5,1.1-1.3,1.6-2.5,1.6
						c-0.8,0-1.4-0.3-1.9-0.8c-0.5-0.5-0.8-1.2-0.8-2c0-0.8,0.3-1.5,0.8-2c0.5-0.5,1.2-0.8,2-0.8c0.8,0,1.4,0.3,1.9,0.7
						c0.5,0.5,0.7,1.2,0.7,1.9V533.3z M637.5,531.4c-0.3,0.3-0.5,0.6-0.6,1h3.2c0-0.4-0.2-0.7-0.5-1
						C638.9,530.9,638,530.9,637.5,531.4z"/>
				</g>
			</g>
		</g>
	</g>
</g>
<g>
	<g class="st2">
		<g>
			<path class="st1" d="M951,494v57H786v-57H951 M952,493H785v59h167V493L952,493z"/>
		</g>
	</g>
	<g>
		<g>
			<polygon class="st3" points="839.2,513.4 835.7,508.4 835.7,515 836.9,516.7 839.2,520 841.5,516.7 			"/>
			<linearGradient id="SVGID_5_" gradientUnits="userSpaceOnUse" x1="845.192" y1="520.0095" x2="845.192" y2="499.7546">
				<stop  offset="0" style="stop-color:#E50A0A;stop-opacity:0.9"/>
				<stop  offset="1" style="stop-color:#E50A0A;stop-opacity:0"/>
			</linearGradient>
			<polygon class="st9" points="848.8,499.8 839.2,513.4 836.9,516.7 839.2,520 841.5,516.7 853.5,499.8 			"/>
			<g>
				<path class="st5" d="M821.5,507c-2.2,0-4,0.7-5.4,2.1c-1.4,1.4-2.1,3.2-2.1,5.3c0,2.1,0.7,3.8,2.1,5.3c1.4,1.4,3.2,2.1,5.4,2.1
					c2.1,0,4-0.7,5.4-2.1c1.4-1.4,2.1-3.2,2.1-5.3c0-2.1-0.7-3.8-2.1-5.3C825.5,507.8,823.7,507,821.5,507z M819.1,511.8
					c0.6-0.6,1.4-0.9,2.4-0.9c1,0,1.8,0.3,2.4,0.9c0.7,0.7,1,1.5,1,2.6c0,1.1-0.3,1.9-1,2.6c-0.6,0.6-1.4,0.9-2.4,0.9
					c-1,0-1.8-0.3-2.4-0.9c-0.7-0.7-1-1.5-1-2.6C818.1,513.3,818.5,512.5,819.1,511.8z"/>
				<path class="st5" d="M857.5,507.3h-6.7v14.3h4.1v-4.5h2.6c3.6,0,5.7-1.8,5.7-4.9C863.2,509.1,861.1,507.3,857.5,507.3z
					 M854.9,510.9h2.5c1.5,0,1.7,0.8,1.7,1.3c0,0.6-0.2,1.3-1.7,1.3h-2.5V510.9z"/>
				<polygon class="st5" points="869,507.3 864.9,507.3 864.9,521.6 875.6,521.6 875.6,517.7 869,517.7 				"/>
				<rect x="877.5" y="507.3" class="st5" width="4.1" height="14.3"/>
				<polygon class="st5" points="883.5,511 887.5,511 887.5,521.6 891.5,521.6 891.5,511 895.5,511 895.5,507.3 883.5,507.3 				"/>
				<polygon class="st5" points="901.5,516 907.6,516 907.6,512.4 901.5,512.4 901.5,511 908.1,511 908.1,507.3 897.4,507.3 
					897.4,521.6 908.2,521.6 908.2,517.9 901.5,517.9 				"/>
				<polygon class="st5" points="934,507.3 934,512.4 929.3,512.4 929.3,507.3 925.2,507.3 925.2,521.6 929.3,521.6 929.3,516.2 
					934,516.2 934,521.6 938.1,521.6 938.1,507.3 				"/>
				<rect x="830.7" y="507.3" class="st5" width="4.1" height="14.3"/>
				<polygon class="st5" points="843.6,521.6 847.7,521.6 847.7,509.7 843.6,515.6 				"/>
				<path class="st5" d="M809.8,515.4l-0.2,0.3c-0.9,1.6-1.8,2.3-3.2,2.3c-0.9,0-1.7-0.3-2.4-1c-0.7-0.7-1-1.5-1-2.6
					c0-1.1,0.3-1.9,1-2.6c0.7-0.7,1.4-1,2.3-1c1.4,0,2.3,0.7,3,2.1l0.1,0.3l3.3-2.5c-1.1-2.4-3.4-3.8-6.4-3.8
					c-2.1,0-3.9,0.7-5.3,2.1c-1.4,1.4-2.2,3.2-2.2,5.3c0,2.2,0.7,4,2.1,5.3c1.4,1.4,3.2,2.1,5.3,2.1c2.9,0,4.8-1.1,6.6-3.8l0.1-0.1
					L809.8,515.4z"/>
				<path class="st5" d="M920.5,515.4l-0.2,0.3c-0.9,1.6-1.8,2.3-3.2,2.3c-0.9,0-1.7-0.3-2.4-1c-0.7-0.7-1-1.5-1-2.6
					c0-1.1,0.3-1.9,1-2.6c0.7-0.7,1.4-1,2.3-1c1.4,0,2.3,0.7,3,2.1l0.1,0.3l3.3-2.5c-1.1-2.4-3.4-3.8-6.4-3.8
					c-2.1,0-3.9,0.7-5.3,2.1c-1.4,1.4-2.2,3.2-2.2,5.3c0,2.2,0.7,4,2.1,5.3c1.4,1.4,3.2,2.1,5.3,2.1c2.9,0,4.8-1.1,6.6-3.8l0.1-0.1
					L920.5,515.4z"/>
			</g>
		</g>
		<g>
			<g>
				<g>
					<path class="st1" d="M800.8,535.7v-7.6h1.1v3c0.4-0.6,1.1-1,1.9-1c0.7,0,1.3,0.3,1.8,0.8c0.5,0.5,0.7,1.2,0.7,2.1
						c0,0.8-0.3,1.5-0.7,2.1c-0.5,0.5-1.1,0.8-1.8,0.8c-0.8,0-1.5-0.4-1.8-0.9v0.8H800.8z M803.5,534.8c0.5,0,0.9-0.2,1.2-0.5
						c0.3-0.3,0.5-0.8,0.5-1.3c0-0.5-0.2-1-0.5-1.3c-0.3-0.3-0.7-0.5-1.2-0.5c-0.5,0-0.9,0.2-1.2,0.5c-0.3,0.3-0.5,0.8-0.5,1.3
						c0,0.5,0.2,1,0.5,1.3C802.7,534.7,803.1,534.8,803.5,534.8z"/>
				</g>
				<g>
					<path class="st1" d="M808.2,536.9c0.6,0.2,0.9,0.2,1.1-0.5l0.3-0.7l-2.2-5.4h1.3l1.5,3.9l1.5-3.9h1.2l-2.6,6.5
						c-0.3,0.8-0.8,1.2-1.5,1.2c-0.3,0-0.5,0-0.8-0.1L808.2,536.9z"/>
				</g>
				<g>
					<path class="st1" d="M818.3,535.7v-7.6h1.3l2.6,6.4l2.6-6.4h1.3v7.6h-1.1v-5.3l-0.4,1.1l-1.7,4.2h-1.1l-1.7-4.2
						c-0.2-0.6-0.3-0.9-0.4-1.1v5.3H818.3z"/>
				</g>
				<g>
					<path class="st1" d="M832.6,535.7c-0.2-0.2-0.3-0.5-0.3-0.9c-0.4,0.7-1,1.1-1.8,1.1c-1.1,0-1.8-0.7-1.8-1.7
						c0-1,0.8-1.6,1.9-1.8l1.7-0.3v-0.2c0-0.6-0.4-0.9-1.1-0.9c-0.7,0-1.1,0.3-1.1,0.7c0,0.1,0,0.1,0,0.2l-1,0.3
						c-0.1-0.1-0.1-0.3-0.1-0.4c0-0.4,0.2-0.8,0.6-1.1c0.4-0.3,0.9-0.5,1.6-0.5c1.5,0,2.2,0.7,2.2,1.8v2.4c0,0.5,0.1,1,0.3,1.3
						H832.6z M832.3,533.1V533l-1.5,0.2c-0.7,0.1-1,0.4-1,0.9s0.3,0.8,0.9,0.8C831.6,534.9,832.3,534.2,832.3,533.1z"/>
				</g>
				<g>
					<path class="st1" d="M837.1,530.3l1,1.6l1-1.6h1.3l-1.7,2.5l1.9,2.9h-1.3l-1.2-2l-1.3,2h-1.3l2-2.9l-1.7-2.5H837.1z"/>
				</g>
				<g>
					<path class="st1" d="M842.7,529.5v-1.2h1.3v1.2H842.7z M842.8,535.7v-5.4h1.1v5.4H842.8z"/>
				</g>
				<g>
					<path class="st1" d="M854.2,535.7h-1.1v-3.6c0-0.7-0.3-1-0.9-1c-0.7,0-1.2,0.5-1.2,1.6v3h-1.1v-3.5c0-0.6-0.3-1-0.9-1
						c-0.7,0-1.2,0.6-1.2,1.6v3h-1.1v-5.4h1.1v0.8c0.3-0.6,0.9-0.9,1.6-0.9c0.8,0,1.3,0.3,1.5,1c0.4-0.6,0.9-1,1.7-1
						c1,0,1.7,0.6,1.7,1.6V535.7z"/>
				</g>
				<g>
					<path class="st1" d="M860.6,535.7c-0.2-0.2-0.3-0.5-0.3-0.9c-0.4,0.7-1,1.1-1.8,1.1c-1.1,0-1.8-0.7-1.8-1.7
						c0-1,0.8-1.6,1.9-1.8l1.7-0.3v-0.2c0-0.6-0.4-0.9-1.1-0.9c-0.7,0-1.1,0.3-1.1,0.7c0,0.1,0,0.1,0,0.2l-1,0.3
						c-0.1-0.1-0.1-0.3-0.1-0.4c0-0.4,0.2-0.8,0.6-1.1c0.4-0.3,0.9-0.5,1.6-0.5c1.5,0,2.2,0.7,2.2,1.8v2.4c0,0.5,0.1,1,0.3,1.3
						H860.6z M860.3,533.1V533l-1.5,0.2c-0.7,0.1-1,0.4-1,0.9s0.3,0.8,0.9,0.8C859.7,534.9,860.3,534.2,860.3,533.1z"/>
				</g>
				<g>
					<path class="st1" d="M874.5,533.9c-0.8,1.4-1.8,2-3.3,2c-1.1,0-2-0.4-2.7-1.1c-0.7-0.7-1.1-1.7-1.1-2.8c0-1.1,0.4-2.1,1.1-2.8
						c0.7-0.7,1.6-1.1,2.7-1.1c1.5,0,2.7,0.8,3.3,2l-0.9,0.7c-0.5-1.1-1.3-1.6-2.3-1.6c-0.7,0-1.3,0.3-1.9,0.8
						c-0.5,0.6-0.8,1.2-0.8,2.1c0,0.8,0.3,1.5,0.7,2.1c0.5,0.6,1.1,0.8,1.9,0.8c1,0,1.9-0.5,2.4-1.6L874.5,533.9z"/>
				</g>
				<g>
					<path class="st1" d="M882.5,533c0,0.9-0.3,1.6-0.9,2.1s-1.3,0.8-2,0.8c-0.8,0-1.4-0.3-2-0.8c-0.6-0.5-0.9-1.2-0.9-2.1
						s0.3-1.6,0.9-2.1c0.6-0.5,1.2-0.8,2-0.8c0.8,0,1.5,0.3,2,0.8C882.2,531.4,882.5,532.1,882.5,533z M879.6,534.8
						c0.5,0,0.9-0.2,1.2-0.5c0.3-0.3,0.5-0.8,0.5-1.3c0-0.5-0.2-1-0.5-1.3c-0.3-0.3-0.8-0.5-1.2-0.5c-0.5,0-0.9,0.2-1.2,0.5
						c-0.3,0.3-0.5,0.8-0.5,1.3c0,0.5,0.2,1,0.5,1.3C878.7,534.7,879.1,534.8,879.6,534.8z"/>
				</g>
				<g>
					<path class="st1" d="M892.5,535.7h-1.1v-3.6c0-0.7-0.3-1-0.9-1c-0.7,0-1.2,0.5-1.2,1.6v3h-1.1v-3.5c0-0.6-0.3-1-0.9-1
						c-0.7,0-1.2,0.6-1.2,1.6v3h-1.1v-5.4h1.1v0.8c0.3-0.6,0.9-0.9,1.6-0.9c0.8,0,1.3,0.3,1.5,1c0.4-0.6,0.9-1,1.7-1
						c1,0,1.7,0.6,1.7,1.6V535.7z"/>
				</g>
				<g>
					<path class="st1" d="M895.3,537.9v-7.6h1.1v0.8c0.3-0.6,1.1-1,1.9-1c0.7,0,1.3,0.3,1.8,0.8c0.5,0.5,0.7,1.2,0.7,2.1
						s-0.3,1.5-0.7,2.1c-0.5,0.5-1.1,0.8-1.9,0.8c-0.8,0-1.5-0.3-1.8-0.9v3H895.3z M898,531.2c-0.5,0-0.9,0.2-1.2,0.5
						c-0.3,0.3-0.5,0.8-0.5,1.3c0,0.5,0.2,1,0.5,1.3c0.3,0.3,0.7,0.5,1.2,0.5c0.5,0,0.9-0.2,1.2-0.5c0.3-0.3,0.5-0.8,0.5-1.3
						c0-0.5-0.2-1-0.5-1.3C898.9,531.4,898.5,531.2,898,531.2z"/>
				</g>
				<g>
					<path class="st1" d="M903.3,535.7v-7.6h1.1v7.6H903.3z"/>
				</g>
				<g>
					<path class="st1" d="M907,529.5v-1.2h1.3v1.2H907z M907.1,535.7v-5.4h1.1v5.4H907.1z"/>
				</g>
				<g>
					<path class="st1" d="M914.6,535.7c-0.2-0.2-0.3-0.5-0.3-0.9c-0.4,0.7-1,1.1-1.8,1.1c-1.1,0-1.8-0.7-1.8-1.7
						c0-1,0.8-1.6,1.9-1.8l1.7-0.3v-0.2c0-0.6-0.4-0.9-1.1-0.9c-0.7,0-1.1,0.3-1.1,0.7c0,0.1,0,0.1,0,0.2l-1,0.3
						c-0.1-0.1-0.1-0.3-0.1-0.4c0-0.4,0.2-0.8,0.6-1.1c0.4-0.3,0.9-0.5,1.6-0.5c1.5,0,2.2,0.7,2.2,1.8v2.4c0,0.5,0.1,1,0.3,1.3
						H914.6z M914.3,533.1V533l-1.5,0.2c-0.7,0.1-1,0.4-1,0.9s0.3,0.8,0.9,0.8C913.7,534.9,914.3,534.2,914.3,533.1z"/>
				</g>
				<g>
					<path class="st1" d="M923,535.7h-1.1v-3.3c0-0.7-0.4-1.2-1.2-1.2c-0.8,0-1.4,0.7-1.4,1.7v2.8h-1.1v-5.4h1.1v0.9
						c0.4-0.6,1.1-1.1,1.8-1.1c1.1,0,1.9,0.7,1.9,1.9V535.7z"/>
				</g>
				<g>
					<path class="st1" d="M930.7,534.3c-0.5,1-1.4,1.6-2.5,1.6c-0.8,0-1.5-0.3-2-0.8c-0.5-0.5-0.8-1.2-0.8-2c0-0.8,0.3-1.5,0.8-2
						c0.5-0.5,1.2-0.8,2-0.8c1.2,0,2,0.5,2.4,1.5l-0.9,0.6c-0.3-0.7-0.9-1-1.5-1c-0.5,0-0.9,0.2-1.2,0.5c-0.3,0.3-0.5,0.8-0.5,1.3
						c0,1.1,0.7,1.8,1.7,1.8c0.8,0,1.2-0.4,1.6-1.1L930.7,534.3z"/>
				</g>
				<g>
					<path class="st1" d="M938.1,533.3h-4.3c0,1,0.7,1.6,1.6,1.6c0.8,0,1.3-0.4,1.6-1.1l0.9,0.5c-0.5,1.1-1.3,1.6-2.5,1.6
						c-0.8,0-1.4-0.3-1.9-0.8c-0.5-0.5-0.8-1.2-0.8-2c0-0.8,0.3-1.5,0.8-2c0.5-0.5,1.2-0.8,2-0.8c0.8,0,1.4,0.3,1.9,0.7
						c0.5,0.5,0.7,1.2,0.7,1.9V533.3z M934.5,531.4c-0.3,0.3-0.5,0.6-0.6,1h3.2c0-0.4-0.2-0.7-0.5-1
						C935.9,530.9,935,530.9,934.5,531.4z"/>
				</g>
			</g>
		</g>
	</g>
</g>
<g>
	<g class="st2">
		<g>
			<path class="st1" d="M1104,1v57H939V1H1104 M1105,0H938v59h167V0L1105,0z"/>
		</g>
	</g>
	<g>
		<g>
			<polygon class="st3" points="992.2,20.4 988.7,15.4 988.7,22 989.9,23.7 992.2,27 994.5,23.7 			"/>
			<linearGradient id="SVGID_6_" gradientUnits="userSpaceOnUse" x1="998.192" y1="27.0095" x2="998.192" y2="6.7547">
				<stop  offset="0" style="stop-color:#E50A0A;stop-opacity:0.9"/>
				<stop  offset="1" style="stop-color:#E50A0A;stop-opacity:0"/>
			</linearGradient>
			<polygon class="st10" points="1001.8,6.8 992.2,20.4 989.9,23.7 992.2,27 994.5,23.7 1006.5,6.8 			"/>
			<g>
				<path class="st5" d="M974.5,14c-2.2,0-4,0.7-5.4,2.1c-1.4,1.4-2.1,3.2-2.1,5.3c0,2.1,0.7,3.8,2.1,5.3c1.4,1.4,3.2,2.1,5.4,2.1
					c2.1,0,4-0.7,5.4-2.1c1.4-1.4,2.1-3.2,2.1-5.3c0-2.1-0.7-3.8-2.1-5.3C978.5,14.8,976.7,14,974.5,14z M972.1,18.8
					c0.6-0.6,1.4-0.9,2.4-0.9c1,0,1.8,0.3,2.4,0.9c0.7,0.7,1,1.5,1,2.6c0,1.1-0.3,1.9-1,2.6c-0.6,0.6-1.4,0.9-2.4,0.9
					c-1,0-1.8-0.3-2.4-0.9c-0.7-0.7-1-1.5-1-2.6C971.1,20.3,971.5,19.5,972.1,18.8z"/>
				<path class="st5" d="M1010.5,14.3h-6.7v14.3h4.1v-4.5h2.6c3.6,0,5.7-1.8,5.7-4.9S1014.1,14.3,1010.5,14.3z M1007.9,17.9h2.5
					c1.5,0,1.7,0.8,1.7,1.3c0,0.6-0.2,1.3-1.7,1.3h-2.5V17.9z"/>
				<polygon class="st5" points="1022,14.3 1017.9,14.3 1017.9,28.6 1028.6,28.6 1028.6,24.7 1022,24.7 				"/>
				<rect x="1030.5" y="14.3" class="st5" width="4.1" height="14.3"/>
				<polygon class="st5" points="1036.5,18 1040.5,18 1040.5,28.6 1044.5,28.6 1044.5,18 1048.5,18 1048.5,14.3 1036.5,14.3 				"/>
				<polygon class="st5" points="1054.5,23 1060.6,23 1060.6,19.4 1054.5,19.4 1054.5,18 1061.1,18 1061.1,14.3 1050.4,14.3 
					1050.4,28.6 1061.2,28.6 1061.2,24.9 1054.5,24.9 				"/>
				<polygon class="st5" points="1087,14.3 1087,19.4 1082.3,19.4 1082.3,14.3 1078.2,14.3 1078.2,28.6 1082.3,28.6 1082.3,23.2 
					1087,23.2 1087,28.6 1091.1,28.6 1091.1,14.3 				"/>
				<rect x="983.7" y="14.3" class="st5" width="4.1" height="14.3"/>
				<polygon class="st5" points="996.6,28.6 1000.7,28.6 1000.7,16.7 996.6,22.6 				"/>
				<path class="st5" d="M962.8,22.4l-0.2,0.3c-0.9,1.6-1.8,2.3-3.2,2.3c-0.9,0-1.7-0.3-2.4-1c-0.7-0.7-1-1.5-1-2.6
					c0-1.1,0.3-1.9,1-2.6c0.7-0.7,1.4-1,2.3-1c1.4,0,2.3,0.7,3,2.1l0.1,0.3l3.3-2.5c-1.1-2.4-3.4-3.8-6.4-3.8
					c-2.1,0-3.9,0.7-5.3,2.1c-1.4,1.4-2.2,3.2-2.2,5.3c0,2.2,0.7,4,2.1,5.3c1.4,1.4,3.2,2.1,5.3,2.1c2.9,0,4.8-1.1,6.6-3.8l0.1-0.1
					L962.8,22.4z"/>
				<path class="st5" d="M1073.5,22.4l-0.2,0.3c-0.9,1.6-1.8,2.3-3.2,2.3c-0.9,0-1.7-0.3-2.4-1c-0.7-0.7-1-1.5-1-2.6
					c0-1.1,0.3-1.9,1-2.6c0.7-0.7,1.4-1,2.3-1c1.4,0,2.3,0.7,3,2.1l0.1,0.3l3.3-2.5c-1.1-2.4-3.4-3.8-6.4-3.8
					c-2.1,0-3.9,0.7-5.3,2.1c-1.4,1.4-2.2,3.2-2.2,5.3c0,2.2,0.7,4,2.1,5.3c1.4,1.4,3.2,2.1,5.3,2.1c2.9,0,4.8-1.1,6.6-3.8l0.1-0.1
					L1073.5,22.4z"/>
			</g>
		</g>
		<g>
			<g>
				<g>
					<path class="st1" d="M953.8,42.7v-7.6h1.1v3c0.4-0.6,1.1-1,1.9-1c0.7,0,1.3,0.3,1.8,0.8c0.5,0.5,0.7,1.2,0.7,2.1
						c0,0.8-0.3,1.5-0.7,2.1c-0.5,0.5-1.1,0.8-1.8,0.8c-0.8,0-1.5-0.4-1.8-0.9v0.8H953.8z M956.5,41.8c0.5,0,0.9-0.2,1.2-0.5
						c0.3-0.3,0.5-0.8,0.5-1.3s-0.2-1-0.5-1.3c-0.3-0.3-0.7-0.5-1.2-0.5c-0.5,0-0.9,0.2-1.2,0.5c-0.3,0.3-0.5,0.8-0.5,1.3
						s0.2,1,0.5,1.3C955.7,41.7,956.1,41.8,956.5,41.8z"/>
				</g>
				<g>
					<path class="st1" d="M961.2,43.9c0.6,0.2,0.9,0.2,1.1-0.5l0.3-0.7l-2.2-5.4h1.3l1.5,3.9l1.5-3.9h1.2l-2.6,6.5
						c-0.3,0.8-0.8,1.2-1.5,1.2c-0.3,0-0.5,0-0.8-0.1L961.2,43.9z"/>
				</g>
				<g>
					<path class="st1" d="M971.3,42.7v-7.6h1.3l2.6,6.4l2.6-6.4h1.3v7.6h-1.1v-5.3l-0.4,1.1l-1.7,4.2h-1.1l-1.7-4.2
						c-0.2-0.6-0.3-0.9-0.4-1.1v5.3H971.3z"/>
				</g>
				<g>
					<path class="st1" d="M985.6,42.7c-0.2-0.2-0.3-0.5-0.3-0.9c-0.4,0.7-1,1.1-1.8,1.1c-1.1,0-1.8-0.7-1.8-1.7c0-1,0.8-1.6,1.9-1.8
						l1.7-0.3v-0.2c0-0.6-0.4-0.9-1.1-0.9c-0.7,0-1.1,0.3-1.1,0.7c0,0.1,0,0.1,0,0.2l-1,0.3c-0.1-0.1-0.1-0.3-0.1-0.4
						c0-0.4,0.2-0.8,0.6-1.1c0.4-0.3,0.9-0.5,1.6-0.5c1.5,0,2.2,0.7,2.2,1.8v2.4c0,0.5,0.1,1,0.3,1.3H985.6z M985.3,40.1V40
						l-1.5,0.2c-0.7,0.1-1,0.4-1,0.9s0.3,0.8,0.9,0.8C984.6,41.9,985.3,41.2,985.3,40.1z"/>
				</g>
				<g>
					<path class="st1" d="M990.1,37.3l1,1.6l1-1.6h1.3l-1.7,2.5l1.9,2.9h-1.3l-1.2-2l-1.3,2h-1.3l2-2.9l-1.7-2.5H990.1z"/>
				</g>
				<g>
					<path class="st1" d="M995.7,36.5v-1.2h1.3v1.2H995.7z M995.8,42.7v-5.4h1.1v5.4H995.8z"/>
				</g>
				<g>
					<path class="st1" d="M1007.2,42.7h-1.1v-3.6c0-0.7-0.3-1-0.9-1c-0.7,0-1.2,0.5-1.2,1.6v3h-1.1v-3.5c0-0.6-0.3-1-0.9-1
						c-0.7,0-1.2,0.6-1.2,1.6v3h-1.1v-5.4h1.1v0.8c0.3-0.6,0.9-0.9,1.6-0.9c0.8,0,1.3,0.3,1.5,1c0.4-0.6,0.9-1,1.7-1
						c1,0,1.7,0.6,1.7,1.6V42.7z"/>
				</g>
				<g>
					<path class="st1" d="M1013.6,42.7c-0.2-0.2-0.3-0.5-0.3-0.9c-0.4,0.7-1,1.1-1.8,1.1c-1.1,0-1.8-0.7-1.8-1.7
						c0-1,0.8-1.6,1.9-1.8l1.7-0.3v-0.2c0-0.6-0.4-0.9-1.1-0.9c-0.7,0-1.1,0.3-1.1,0.7c0,0.1,0,0.1,0,0.2l-1,0.3
						c-0.1-0.1-0.1-0.3-0.1-0.4c0-0.4,0.2-0.8,0.6-1.1c0.4-0.3,0.9-0.5,1.6-0.5c1.5,0,2.2,0.7,2.2,1.8v2.4c0,0.5,0.1,1,0.3,1.3
						H1013.6z M1013.3,40.1V40l-1.5,0.2c-0.7,0.1-1,0.4-1,0.9s0.3,0.8,0.9,0.8C1012.7,41.9,1013.3,41.2,1013.3,40.1z"/>
				</g>
				<g>
					<path class="st1" d="M1027.5,40.9c-0.8,1.4-1.8,2-3.3,2c-1.1,0-2-0.4-2.7-1.1c-0.7-0.7-1.1-1.7-1.1-2.8c0-1.1,0.4-2.1,1.1-2.8
						c0.7-0.7,1.6-1.1,2.7-1.1c1.5,0,2.7,0.8,3.3,2l-0.9,0.7c-0.5-1.1-1.3-1.6-2.3-1.6c-0.7,0-1.3,0.3-1.9,0.8
						c-0.5,0.6-0.8,1.2-0.8,2.1c0,0.8,0.3,1.5,0.7,2.1c0.5,0.6,1.1,0.8,1.9,0.8c1,0,1.9-0.5,2.4-1.6L1027.5,40.9z"/>
				</g>
				<g>
					<path class="st1" d="M1035.5,40c0,0.9-0.3,1.6-0.9,2.1c-0.6,0.5-1.3,0.8-2,0.8c-0.8,0-1.4-0.2-2-0.8c-0.6-0.5-0.9-1.2-0.9-2.1
						s0.3-1.6,0.9-2.1c0.6-0.5,1.2-0.8,2-0.8c0.8,0,1.5,0.2,2,0.8C1035.2,38.4,1035.5,39.1,1035.5,40z M1032.6,41.8
						c0.5,0,0.9-0.2,1.2-0.5c0.3-0.3,0.5-0.8,0.5-1.3s-0.2-1-0.5-1.3c-0.3-0.3-0.8-0.5-1.2-0.5c-0.5,0-0.9,0.2-1.2,0.5
						c-0.3,0.3-0.5,0.8-0.5,1.3s0.2,1,0.5,1.3C1031.7,41.7,1032.1,41.8,1032.6,41.8z"/>
				</g>
				<g>
					<path class="st1" d="M1045.5,42.7h-1.1v-3.6c0-0.7-0.3-1-0.9-1c-0.7,0-1.2,0.5-1.2,1.6v3h-1.1v-3.5c0-0.6-0.3-1-0.9-1
						c-0.7,0-1.2,0.6-1.2,1.6v3h-1.1v-5.4h1.1v0.8c0.3-0.6,0.9-0.9,1.6-0.9c0.8,0,1.3,0.3,1.5,1c0.4-0.6,0.9-1,1.7-1
						c1,0,1.7,0.6,1.7,1.6V42.7z"/>
				</g>
				<g>
					<path class="st1" d="M1048.3,44.9v-7.6h1.1v0.8c0.3-0.6,1.1-1,1.9-1c0.7,0,1.3,0.3,1.8,0.8c0.5,0.5,0.7,1.2,0.7,2.1
						s-0.3,1.5-0.7,2.1c-0.5,0.5-1.1,0.8-1.9,0.8c-0.8,0-1.5-0.3-1.8-0.9v3H1048.3z M1051,38.2c-0.5,0-0.9,0.2-1.2,0.5
						c-0.3,0.3-0.5,0.8-0.5,1.3s0.2,1,0.5,1.3c0.3,0.3,0.7,0.5,1.2,0.5c0.5,0,0.9-0.2,1.2-0.5c0.3-0.3,0.5-0.8,0.5-1.3
						s-0.2-1-0.5-1.3C1051.9,38.4,1051.5,38.2,1051,38.2z"/>
				</g>
				<g>
					<path class="st1" d="M1056.3,42.7v-7.6h1.1v7.6H1056.3z"/>
				</g>
				<g>
					<path class="st1" d="M1060,36.5v-1.2h1.3v1.2H1060z M1060.1,42.7v-5.4h1.1v5.4H1060.1z"/>
				</g>
				<g>
					<path class="st1" d="M1067.6,42.7c-0.2-0.2-0.3-0.5-0.3-0.9c-0.4,0.7-1,1.1-1.8,1.1c-1.1,0-1.8-0.7-1.8-1.7
						c0-1,0.8-1.6,1.9-1.8l1.7-0.3v-0.2c0-0.6-0.4-0.9-1.1-0.9c-0.7,0-1.1,0.3-1.1,0.7c0,0.1,0,0.1,0,0.2l-1,0.3
						c-0.1-0.1-0.1-0.3-0.1-0.4c0-0.4,0.2-0.8,0.6-1.1c0.4-0.3,0.9-0.5,1.6-0.5c1.5,0,2.2,0.7,2.2,1.8v2.4c0,0.5,0.1,1,0.3,1.3
						H1067.6z M1067.3,40.1V40l-1.5,0.2c-0.7,0.1-1,0.4-1,0.9s0.3,0.8,0.9,0.8C1066.7,41.9,1067.3,41.2,1067.3,40.1z"/>
				</g>
				<g>
					<path class="st1" d="M1076,42.7h-1.1v-3.3c0-0.7-0.4-1.2-1.2-1.2c-0.8,0-1.4,0.7-1.4,1.7v2.8h-1.1v-5.4h1.1v0.9
						c0.4-0.6,1.1-1.1,1.8-1.1c1.1,0,1.9,0.7,1.9,1.9V42.7z"/>
				</g>
				<g>
					<path class="st1" d="M1083.7,41.3c-0.5,1-1.4,1.6-2.5,1.6c-0.8,0-1.5-0.3-2-0.8s-0.8-1.2-0.8-2c0-0.8,0.3-1.5,0.8-2
						c0.5-0.5,1.2-0.8,2-0.8c1.2,0,2,0.5,2.4,1.5l-0.9,0.6c-0.3-0.7-0.9-1-1.5-1c-0.5,0-0.9,0.2-1.2,0.5c-0.3,0.3-0.5,0.8-0.5,1.3
						c0,1.1,0.7,1.8,1.7,1.8c0.8,0,1.2-0.4,1.6-1.1L1083.7,41.3z"/>
				</g>
				<g>
					<path class="st1" d="M1091.1,40.3h-4.3c0,1,0.7,1.6,1.6,1.6c0.8,0,1.3-0.4,1.6-1.1l0.9,0.5c-0.5,1.1-1.3,1.6-2.5,1.6
						c-0.8,0-1.4-0.3-1.9-0.8c-0.5-0.5-0.8-1.2-0.8-2c0-0.8,0.3-1.5,0.8-2s1.2-0.8,2-0.8c0.8,0,1.4,0.2,1.9,0.7
						c0.5,0.5,0.7,1.2,0.7,1.9V40.3z M1087.5,38.4c-0.3,0.2-0.5,0.6-0.6,1h3.2c0-0.4-0.2-0.7-0.5-1
						C1088.9,37.9,1088,37.9,1087.5,38.4z"/>
				</g>
			</g>
		</g>
	</g>
</g>
</svg>
